<?xml version="1.0" encoding="UTF-8"?>
<!DOCTYPE svg PUBLIC "-//W3C//DTD SVG 1.1//EN" "http://www.w3.org/Graphics/SVG/1.1/DTD/svg11.dtd">
<!-- Creator: CorelDRAW X7 -->
<svg xmlns="http://www.w3.org/2000/svg" xml:space="preserve" width="0.73852in" height="0.736346in" version="1.1" style="shape-rendering:geometricPrecision; text-rendering:geometricPrecision; image-rendering:optimizeQuality; fill-rule:evenodd; clip-rule:evenodd"
viewBox="0 0 113 113"
 xmlns:xlink="http://www.w3.org/1999/xlink">
 <defs>
  <style type="text/css">
   <![CDATA[
    .str2 {stroke:white;stroke-width:1.59912}
    .str1 {stroke:white;stroke-width:3.19885}
    .str0 {stroke:black;stroke-width:2.13237}
    .fil0 {fill:none}
   ]]>
  </style>
    <clipPath id="id0">
     <path d="M37 50c-4,-3 -6,-5 -7,-5 -1,0 -2,0 -4,0 -1,0 -4,0 -6,0 -2,0 -4,-1 -6,-1 -2,-1 -3,-3 -5,-5 -2,-1 -4,-4 -5,-6 -1,-1 -2,-3 -2,-4 0,-2 0,-4 0,-6 0,-2 1,-4 1,-6 1,-1 1,-1 2,1 2,2 5,6 7,9 2,2 3,3 4,3 1,0 3,0 4,0 0,0 0,0 2,-2 2,-1 5,-4 7,-7 2,-2 2,-3 2,-4 0,-1 0,-1 -1,-2 0,0 0,0 -2,-2 -1,-1 -5,-4 -7,-5 -2,-2 -3,-3 -3,-4 0,0 2,-2 4,-2 1,-1 3,0 5,0 2,0 3,0 4,0 2,1 4,2 6,4 2,1 5,4 6,6 2,2 2,4 3,6 0,1 0,3 0,6 0,2 -1,5 -1,6 0,2 0,2 1,3 0,0 1,1 1,1 0,0 0,1 8,8l-18 8zm33 7c10,10 20,20 30,30 10,10 11,11 12,13 0,1 0,2 0,3 -1,1 -1,2 -2,4 -1,1 -2,2 -4,2 -1,1 -2,2 -4,2 -1,0 -3,0 -4,-1 -1,0 -1,-1 -2,-1 0,-1 0,-1 -11,-11 -5,-6 -13,-13 -21,-21l6 -20z"/>
    </clipPath>
    <clipPath id="id1">
     <path d="M48 52l1 0 -1 0zm-2 14l8 10 -8 -10zm-9 9l-23 24 23 -24zm22 -13l1 1 -1 -1zm28 -45c1,-1 1,-4 3,-6 2,-2 5,-4 8,-6 3,-1 5,-2 7,-2 2,-1 3,0 4,1 1,0 2,1 2,2 0,1 0,2 -1,3 -1,2 -2,5 -3,8 -2,2 -4,4 -5,6 -1,1 -2,1 -3,2 -1,0 -3,0 -4,0 -1,0 -1,1 -7,7 -6,6 -18,17 -24,23 -5,5 -5,6 -5,7l0 0c0,0 0,0 0,0 1,1 2,3 3,4 1,1 1,2 0,3 0,2 -2,3 -3,4 -2,1 -4,2 -5,2 -1,0 -1,0 -2,1 -1,1 -1,2 -2,3 -1,2 -2,3 -6,8 -5,5 -13,13 -18,18 -5,5 -7,6 -9,6 -1,0 -3,1 -5,0 -1,0 -3,-1 -5,-2 -1,-1 -2,-3 -3,-4 -1,-2 -2,-3 -2,-5 0,-2 0,-5 1,-7 0,-2 1,-2 1,-3 0,0 0,-1 4,-5 4,-4 13,-11 18,-16 5,-4 6,-4 8,-4 1,-1 1,-1 2,-2 0,-2 0,-4 1,-5 1,-2 2,-2 3,-3 1,-1 2,-3 3,-3 1,-1 2,-1 3,-1 1,0 2,1 3,1l0 0c0,0 1,1 1,1 1,0 1,0 2,0 1,-1 3,-2 5,-4 2,-3 5,-6 10,-10 4,-4 10,-10 13,-14 4,-3 5,-4 6,-5 1,0 1,-1 1,-3z"/>
    </clipPath>
 </defs>
 <g id="Layer_x0020_1">
  <metadata id="CorelCorpID_0Corel-Layer"/>
  <g id="_2910815252208">
   <g style="clip-path:url(#id0)">
    <g>
     <g>
      <line class="fil0 str0" x1="50" y1="66" x2="58" y2= "75" />
      <line class="fil0 str0" x1="42" y1="75" x2="19" y2= "98" />
     </g>
    </g>
   </g>
   <path class="fil0 str1" d="M37 50c-4,-3 -6,-5 -7,-5 -1,0 -2,0 -4,0 -1,0 -4,0 -6,0 -2,0 -4,-1 -6,-1 -2,-1 -3,-3 -5,-5 -2,-1 -4,-4 -5,-6 -1,-1 -2,-3 -2,-4 0,-2 0,-4 0,-6 0,-2 1,-4 1,-6 1,-1 1,-1 2,1 2,2 5,6 7,9 2,2 3,3 4,3 1,0 3,0 4,0 0,0 0,0 2,-2 2,-1 5,-4 7,-7 2,-2 2,-3 2,-4 0,-1 0,-1 -1,-2 0,0 0,0 -2,-2 -1,-1 -5,-4 -7,-5 -2,-2 -3,-3 -3,-4 0,0 2,-2 4,-2 1,-1 3,0 5,0 2,0 3,0 4,0 2,1 4,2 6,4 2,1 5,4 6,6 2,2 2,4 3,6 0,1 0,3 0,6 0,2 -1,5 -1,6 0,2 0,2 1,3 0,0 1,1 1,1 0,0 0,1 8,8m15 15c10,10 20,20 30,30 10,10 11,11 12,13 0,1 0,2 0,3 -1,1 -1,2 -2,4 -1,1 -2,2 -4,2 -1,1 -2,2 -4,2 -1,0 -3,0 -4,-1 -1,0 -1,-1 -2,-1 0,-1 0,-1 -11,-11 -5,-6 -13,-13 -21,-21"/>
   <g>
   </g>
   <g style="clip-path:url(#id1)">
    <g id="_2910815251824">
     <g>
      <line class="fil0 str2" x1="46" y1="67" x2="54" y2= "76" />
      <line class="fil0 str2" x1="36" y1="77" x2="15" y2= "98" />
     </g>
    </g>
   </g>
   <path class="fil0 str1" d="M48 52l1 0m-3 14l8 10m-17 -1l-23 24m45 -37l1 1m27 -46c1,-1 1,-4 3,-6 2,-2 5,-4 8,-6 3,-1 5,-2 7,-2 2,-1 3,0 4,1 1,0 2,1 2,2 0,1 0,2 -1,3 -1,2 -2,5 -3,8 -2,2 -4,4 -5,6 -1,1 -2,1 -3,2 -1,0 -3,0 -4,0 -1,0 -1,1 -7,7 -6,6 -18,17 -24,23 -5,5 -5,6 -5,7l0 0c0,0 0,0 0,0 1,1 2,3 3,4 1,1 1,2 0,3 0,2 -2,3 -3,4 -2,1 -4,2 -5,2 -1,0 -1,0 -2,1 -1,1 -1,2 -2,3 -1,2 -2,3 -6,8 -5,5 -13,13 -18,18 -5,5 -7,6 -9,6 -1,0 -3,1 -5,0 -1,0 -3,-1 -5,-2 -1,-1 -2,-3 -3,-4 -1,-2 -2,-3 -2,-5 0,-2 0,-5 1,-7 0,-2 1,-2 1,-3 0,0 0,-1 4,-5 4,-4 13,-11 18,-16 5,-4 6,-4 8,-4 1,-1 1,-1 2,-2 0,-2 0,-4 1,-5 1,-2 2,-2 3,-3 1,-1 2,-3 3,-3 1,-1 2,-1 3,-1 1,0 2,1 3,1l0 0c0,0 1,1 1,1 1,0 1,0 2,0 1,-1 3,-2 5,-4 2,-3 5,-6 10,-10 4,-4 10,-10 13,-14 4,-3 5,-4 6,-5 1,0 1,-1 1,-3z"/>
  </g>
 </g>
</svg>
