<?xml version="1.0" standalone="no"?>
<!DOCTYPE svg PUBLIC "-//W3C//DTD SVG 20010904//EN"
 "http://www.w3.org/TR/2001/REC-SVG-20010904/DTD/svg10.dtd">
<svg version="1.0" xmlns="http://www.w3.org/2000/svg"
 width="2000.000000pt" height="1544.000000pt" viewBox="0 0 2000.000000 1544.000000"
 preserveAspectRatio="xMidYMid meet">

<g transform="translate(0.000000,1544.000000) scale(0.100000,-0.100000)"
fill="blue" stroke="none">
<path d="M4055 15433 c-828 -54 -1577 -543 -1968 -1283 -147 -277 -238 -593
-267 -920 -6 -75 -10 -1646 -10 -4472 l0 -4358 -905 0 -906 0 4 -1207 c3
-1087 5 -1218 20 -1308 44 -253 104 -441 207 -650 329 -668 936 -1104 1695
-1217 134 -20 16016 -20 16150 0 662 98 1214 446 1568 987 124 190 244 471
295 690 58 245 55 190 59 1498 l4 1207 -905 0 -906 0 -3 4438 c-3 4817 1 4453
-53 4702 -182 852 -832 1555 -1664 1798 -114 33 -203 53 -350 79 -88 16 -528
17 -6055 18 -3278 1 -5982 0 -6010 -2z m11997 -872 c637 -110 1149 -622 1259
-1259 19 -112 19 -202 19 -4498 l0 -4384 -2670 0 -2670 0 0 -445 c0 -492 -1
-497 -62 -535 -33 -20 -45 -20 -1836 -20 -1969 0 -1837 -4 -1878 57 -18 26
-19 55 -22 479 l-3 451 -301 6 c-166 4 -1408 7 -2760 7 l-2458 0 3 4428 2
4427 22 86 c51 205 124 374 228 529 237 354 606 597 1015 670 102 18 302 18
6052 19 5845 1 5948 1 6060 -18z m-8704 -11120 c50 -436 365 -775 802 -863 52
-10 440 -13 1940 -13 1991 0 1918 -2 2070 47 152 48 342 172 436 285 139 164
221 360 240 570 l7 73 3149 0 3149 0 -4 -777 c-3 -759 -3 -780 -24 -859 -74
-277 -195 -488 -385 -670 -185 -178 -394 -290 -653 -350 -78 -18 -296 -19
-8075 -19 -7779 0 -7997 1 -8075 19 -274 64 -504 193 -691 388 -173 180 -277
370 -347 632 -21 79 -21 100 -24 859 l-4 777 3239 0 3239 0 11 -99z"/>
<path d="M7305 10641 l-1470 -967 -3 -396 -2 -397 1470 -980 c808 -540 1472
-981 1475 -981 3 0 5 191 5 424 l0 424 -1157 742 c-637 408 -1163 747 -1170
754 -9 8 276 194 1158 756 l1169 744 0 423 c0 233 -1 423 -2 422 -2 0 -664
-436 -1473 -968z"/>
<path d="M11220 11181 l0 -419 1164 -743 c883 -564 1162 -747 1153 -755 -7 -7
-525 -341 -1152 -744 -627 -403 -1146 -738 -1153 -744 -9 -9 -12 -105 -10
-434 l3 -422 1473 982 1472 981 -2 395 -3 394 -1465 963 c-806 530 -1468 964
-1472 965 -5 0 -8 -189 -8 -419z"/>
</g>
</svg>
