<?xml version="1.0" encoding="UTF-8"?>
<!DOCTYPE svg PUBLIC "-//W3C//DTD SVG 1.1//EN" "http://www.w3.org/Graphics/SVG/1.1/DTD/svg11.dtd">
<!-- Creator: CorelDRAW X7 -->
<svg xmlns="http://www.w3.org/2000/svg" xml:space="preserve" width="3in" height="3in" version="1.1" style="shape-rendering:geometricPrecision; text-rendering:geometricPrecision; image-rendering:optimizeQuality; fill-rule:evenodd; clip-rule:evenodd"
viewBox="0 0 3000 3000"
 xmlns:xlink="http://www.w3.org/1999/xlink">
 <defs>
  <style type="text/css">
   <![CDATA[
    .str0 {stroke:black;stroke-width:6.94488}
    .fil0 {fill:none}
    .fil1 {fill:black}
    .fil3 {fill:#007789}
    .fil4 {fill:#00AEC7}
    .fil13 {fill:#00BCE9}
    .fil12 {fill:#00BDEB}
    .fil9 {fill:#0E0400}
    .fil15 {fill:#182128}
    .fil14 {fill:#1A242B}
    .fil5 {fill:#212A31}
    .fil16 {fill:#24252B}
    .fil2 {fill:#D4EFF0}
    .fil10 {fill:#D6EFF0}
    .fil11 {fill:#FEB394}
    .fil6 {fill:#FEC0A5}
    .fil8 {fill:red}
    .fil7 {fill:#FFFEFE}
   ]]>
  </style>
 </defs>
 <g id="Layer_x0020_1">
  <metadata id="CorelCorpID_0Corel-Layer"/>
  <rect class="fil0 str0" x="-2168" y="794" width="1900" height="1167"/>
  <g id="_2070593745920">
   <path class="fil1" d="M1897 1451c-3,2 -6,5 -7,10 -2,8 0,1 0,7 -1,6 1,2 -2,7 -9,3 -26,3 -36,-1 -8,-4 -15,-12 -18,-22 6,-4 9,-9 19,-12 10,-4 12,-7 19,-13 1,-5 5,-6 10,-9 10,9 20,17 31,26 -3,3 -8,8 -10,11l-6 -4zm-132 -60c-7,-28 8,-111 15,-139 6,-21 13,-41 20,-59 7,-16 17,-38 25,-52l1 -3c-28,10 -29,29 -37,54 -5,15 -18,59 -24,69l-57 -11 -7 38 -2 10 55 18 -25 204 15 1c1,18 -4,103 -5,130 -2,95 4,58 12,124 6,41 9,82 12,123 3,34 7,42 -4,56 -9,10 -23,31 -37,32 -11,10 -36,7 -45,17 5,12 22,11 37,12 35,0 39,5 61,-8 8,-6 6,-2 16,-1 10,1 32,-2 42,-5l0 -13c-2,-40 -6,-31 -7,-47 -2,-17 -3,-33 -4,-50l-13 -150c-4,-42 10,-96 24,-134 7,11 15,70 18,89 2,16 1,35 3,50 1,8 6,12 8,17 2,8 1,17 1,25 1,42 5,168 -8,200 -13,31 -39,72 39,48 11,-3 12,-6 16,-17 4,-11 7,-16 6,-30 -10,-28 -9,-20 1,-48 9,-27 9,-161 8,-191 -1,-42 -8,-84 -4,-125 3,-39 8,-79 12,-119l59 -18c-3,-18 -11,-39 -16,-58 -6,-25 -13,-33 -6,-42 45,-64 43,-26 32,-117 -4,-33 -14,-95 -28,-119 -25,-45 -55,-30 -67,-43 -5,-5 -11,-15 -17,-17 8,19 -95,107 -66,238 3,15 7,27 12,41 4,12 11,27 13,38 -4,2 -89,25 -84,-18z"/>
   <path class="fil2" d="M1344 1287c117,-14 138,91 37,106 -20,3 -43,2 -62,-6 -70,-28 -43,-91 25,-100zm39 -94l-44 0 -100 0 0 -40 -55 0 -1 31 0 89 0 168c11,0 48,-2 55,1 8,3 14,20 27,26l0 -8 192 0 0 7c10,-4 27,-26 32,-34 5,5 45,2 55,3l1 -162 0 -90 0 -37 -55 0 0 46 -107 0z"/>
   <path class="fil3" d="M1916 1989c1,14 -2,19 -6,30 -4,11 -5,14 -16,17 -78,24 -52,-17 -39,-48l-22 0 0 13c-10,3 -32,6 -42,5 -10,-1 -8,-5 -16,1 -22,13 -26,8 -61,8 -15,-1 -32,0 -37,-12 9,-10 34,-7 45,-17l-175 0 -1 26 -102 0 0 -27c-24,3 -58,1 -82,1 -23,0 -64,-2 -84,2l0 27 -102 0 1 -85 -1 59c-21,-2 -100,2 -128,2 -60,0 -338,9 -360,28 40,29 710,32 813,32 140,0 281,-1 420,-5 48,-1 371,-7 391,-28 -32,-24 -381,-24 -396,-29z"/>
   <path class="fil4" d="M1265 1665l0 89 11 0 1 45 -13 1 0 129 14 1 0 58c20,-4 61,-2 84,-2 24,0 58,2 82,-1l0 -59 7 0 1 -133 -10 0 0 -46 9 0 0 -82 -22 -1 -1 -53 -141 0 0 54 -22 0z"/>
   <path class="fil2" d="M1344 1023c34,-3 84,9 93,42 10,39 -35,63 -71,66 -115,9 -130,-98 -22,-108zm0 154l37 -2c34,-11 47,-20 65,-42 17,-19 26,-52 20,-84 -10,-53 -61,-94 -124,-89 -57,4 -106,50 -105,109 1,58 50,106 107,108z"/>
   <path class="fil2" d="M1180 1754l85 0 0 -89 0 -130c-1,-5 -2,-4 -19,-3l-66 0 0 222z"/>
   <path class="fil2" d="M1451 1535l0 130 0 82 85 0 0 -215 -77 -1c-10,1 -6,-2 -8,4z"/>
   <path class="fil2" d="M1285 1494l0 41c6,5 2,64 2,76l141 0 1 -75 7 -1 0 -40 -1 -5 -149 0 -1 4z"/>
   <path class="fil2" d="M1161 1273l-1 -89c-4,-3 1,0 -4,-2 -2,0 -5,0 -7,0l-44 0 0 288 56 0 0 -197z"/>
   <path class="fil2" d="M1568 1274l0 196 18 0 25 0 12 0 0 -288 -41 0c-1,0 -7,0 -8,0 -5,1 -2,0 -6,3l0 89z"/>
   <polygon class="fil2" points="1451,1926 1451,1943 1474,1943 1474,1996 1515,1996 1515,1943 1536,1943 1535,1926 1535,1793 1452,1793 "/>
   <path class="fil4" d="M1833 1988l22 0c13,-32 9,-158 8,-200 0,-8 1,-17 -1,-25 -2,-5 -7,-9 -8,-17 -2,-15 -1,-34 -3,-50 -3,-19 -11,-78 -18,-89 -14,38 -28,92 -24,134l13 150c1,17 2,33 4,50 1,16 5,7 7,47z"/>
   <path class="fil5" d="M1367 1334l0 8 -10 -1 0 -6c3,-1 -2,0 5,-1 1,-1 3,0 5,0zm-34 0c11,0 9,-3 10,7l-10 2 0 -9zm-15 9c-10,0 -8,0 -10,-2 1,-9 -5,-6 10,-7l0 9zm93 -2c-4,-1 -3,-1 -5,-2 1,-8 1,-6 10,-6l1 8c-2,0 -5,0 -6,0zm-19 -4c-3,6 6,5 -8,5l-2 -9c13,-1 7,-1 10,4zm-48 -50c-68,9 -95,72 -25,100 19,8 42,9 62,6 101,-15 80,-120 -37,-106z"/>
   <polygon class="fil2" points="1180,1929 1207,1929 1207,1999 1247,2000 1247,1930 1264,1929 1264,1800 1180,1800 "/>
   <path class="fil5" d="M1330 1080c-8,17 -37,4 -25,-14 9,-14 33,-3 25,14zm81 -5c-13,16 -34,-2 -24,-17 11,-16 37,2 24,17zm-67 -52c-108,10 -93,117 22,108 36,-3 81,-27 71,-66 -9,-33 -59,-45 -93,-42z"/>
   <path class="fil6" d="M1791 1016c1,11 3,49 6,58 3,8 8,14 12,21 5,8 7,15 17,15 24,-6 22,-11 36,-22l6 18c5,-2 7,-4 11,-6 8,-6 7,-3 8,-11 -1,-6 -1,-13 -1,-20 0,-12 -1,-10 4,-18 4,-9 8,-26 0,-33 -13,1 -12,10 -14,17 -1,3 -1,2 -1,4l-2 3c-7,-16 -3,-55 -29,-57 -7,0 -30,3 -37,5 -14,3 -14,12 -16,26z"/>
   <path class="fil7" d="M1868 1106c-1,4 0,1 -4,4 -1,1 -3,2 -4,3 -4,3 -7,5 -10,7 -9,6 -9,10 -22,6l-2 12 -1 3c5,-3 5,-5 10,-7l5 14c-11,11 -10,6 -14,27l-30 171c-5,27 -2,33 -16,44 -5,4 -6,6 -10,9l-5 -8c-5,43 80,20 84,18 -2,-11 -9,-26 -13,-38 -5,-14 -9,-26 -12,-41 -29,-131 74,-219 66,-238 -4,-3 0,1 -3,-3 -1,8 0,5 -8,11 -4,2 -6,4 -11,6z"/>
   <path class="fil8" d="M1825 1141c-8,14 -18,36 -25,52 -7,18 -14,38 -20,59 -7,28 -22,111 -15,139l5 8c4,-3 5,-5 10,-9 14,-11 11,-17 16,-44l30 -171c4,-21 3,-16 14,-27l-5 -14c-5,2 -5,4 -10,7z"/>
   <polygon class="fil5" points="1265,1468 1266,1494 1285,1494 1286,1490 1435,1490 1436,1495 1457,1494 1457,1467 1457,1460 1265,1460 "/>
   <polygon class="fil5" points="1278,1988 1278,1930 1264,1929 1247,1930 1247,2000 1207,1999 1207,1929 1180,1929 1177,1930 1176,2015 1278,2015 "/>
   <polygon class="fil5" points="1444,1985 1444,2012 1546,2012 1547,1986 1546,1926 1535,1926 1536,1943 1515,1943 1515,1996 1474,1996 1474,1943 1451,1943 1451,1926 1444,1926 "/>
   <path class="fil5" d="M1452 1793l83 0 12 -1c3,-9 1,-33 1,-45l-12 0 -85 0 -9 0 0 46 10 0z"/>
   <polygon class="fil5" points="1180,1800 1264,1800 1277,1799 1276,1754 1265,1754 1180,1754 1171,1754 1170,1800 "/>
   <path class="fil9" d="M1791 1016c2,-14 2,-23 16,-26 7,-2 30,-5 37,-5 26,2 22,41 29,57l2 -3c0,-2 0,-1 1,-4 2,-7 1,-16 14,-17 1,-38 -17,-63 -53,-68 -23,-4 -30,5 -38,20 -6,12 -17,32 -8,46z"/>
   <path class="fil5" d="M1265 1665l22 0 0 -54c0,-12 4,-71 -2,-76l-20 0 0 130z"/>
   <polygon class="fil5" points="1428,1611 1429,1664 1451,1665 1451,1535 1436,1535 1429,1536 "/>
   <path class="fil6" d="M1701 1288l7 -38c-4,-16 -7,-16 -12,-29 -2,-8 0,-6 -6,-9l-2 4c-1,9 4,11 0,20 -15,3 -17,-9 -29,-8 2,6 8,8 14,16 -11,-4 -23,-17 -32,-17 1,7 1,6 6,9 -4,2 0,0 -5,1 -1,0 -4,0 -5,1 3,13 3,-1 10,16 3,7 6,8 13,12 18,12 17,10 41,9 -1,5 -3,8 0,13z"/>
   <polygon class="fil5" points="1545,1274 1568,1274 1568,1185 1545,1184 "/>
   <polygon class="fil5" points="1161,1273 1183,1273 1183,1184 1160,1184 "/>
   <path class="fil6" d="M1897 1451c-7,-8 -18,-21 -25,-24 -7,6 -9,9 -19,13 -10,3 -13,8 -19,12 3,10 10,18 18,22 10,4 27,4 36,1 3,-5 1,-1 2,-7 0,-6 -2,1 0,-7 1,-5 4,-8 7,-10z"/>
   <path class="fil10" d="M1576 1495l7 0 11 0 7 0 11 0 8 0 8 0 0 -16 -60 0 0 14c0,0 1,0 1,1l7 1z"/>
   <polygon class="fil2" points="1111,1491 1118,1491 1130,1492 1137,1491 1148,1492 1155,1491 1163,1491 1163,1477 1145,1476 1122,1476 1103,1476 1103,1491 "/>
   <path class="fil11" d="M1826 1110l2 16c13,4 13,0 22,-6 3,-2 6,-4 10,-7 1,-1 3,-2 4,-3 4,-3 3,0 4,-4l-6 -18c-14,11 -12,16 -36,22z"/>
   <path class="fil5" d="M1344 1177c-11,-1 -2,-1 -5,2l0 14 44 0 -2 -18 -37 2z"/>
   <path class="fil12" d="M1411 1075c13,-15 -13,-33 -24,-17 -10,15 11,33 24,17z"/>
   <path class="fil13" d="M1330 1080c8,-17 -16,-28 -25,-14 -12,18 17,31 25,14z"/>
   <path class="fil7" d="M1872 1427c7,3 18,16 25,24l6 4c2,-3 7,-8 10,-11 -11,-9 -21,-17 -31,-26 -5,3 -9,4 -10,9z"/>
   <polygon class="fil14" points="1611,1470 1586,1470 1586,1479 1611,1480 "/>
   <polygon class="fil15" points="1122,1476 1145,1476 1146,1470 1121,1470 "/>
   <path class="fil16" d="M1118 1491l-7 0c-1,26 -1,17 5,19 3,-3 2,2 3,-8 0,-2 0,-8 -1,-11z"/>
   <path class="fil16" d="M1155 1491l-7 1c0,22 -2,17 5,18 2,-3 3,6 2,-19z"/>
   <path class="fil16" d="M1137 1491l-7 1c0,21 -2,16 4,18 4,-5 3,-3 3,-19z"/>
   <path class="fil16" d="M1583 1495l-7 0c0,9 -1,13 2,18l4 0c2,-5 1,-12 1,-18z"/>
   <path class="fil16" d="M1601 1495l-7 0c0,3 0,6 0,9 0,8 0,6 2,9l4 0c2,-5 1,-12 1,-18z"/>
   <path class="fil12" d="M1308 1341c2,2 0,2 10,2l0 -9c-15,1 -9,-2 -10,7z"/>
   <path class="fil16" d="M1620 1495l-8 0 1 14c1,5 0,2 2,4l5 -18z"/>
   <path class="fil12" d="M1406 1339c2,1 1,1 5,2 1,0 4,0 6,0l-1 -8c-9,0 -9,-2 -10,6z"/>
   <path class="fil12" d="M1384 1342c14,0 5,1 8,-5 -3,-5 3,-5 -10,-4l2 9z"/>
   <path class="fil12" d="M1357 1335l0 6 10 1 0 -8c-2,0 -4,-1 -5,0 -7,1 -2,0 -5,1z"/>
   <path class="fil12" d="M1333 1343l10 -2c-1,-10 1,-7 -10,-7l0 9z"/>
  </g>
 </g>
</svg>
