<?xml version="1.0" encoding="UTF-8"?>
<!DOCTYPE svg PUBLIC "-//W3C//DTD SVG 1.1//EN" "http://www.w3.org/Graphics/SVG/1.1/DTD/svg11.dtd">
<!-- Creator: CorelDRAW X7 -->
<svg xmlns="http://www.w3.org/2000/svg" xml:space="preserve" width="3in" height="3in" version="1.1" style="shape-rendering:geometricPrecision; text-rendering:geometricPrecision; image-rendering:optimizeQuality; fill-rule:evenodd; clip-rule:evenodd"
viewBox="0 0 3000 3000"
 xmlns:xlink="http://www.w3.org/1999/xlink">
 <defs>
  <style type="text/css">
   <![CDATA[
    .str0 {stroke:black;stroke-width:6.94488}
    .fil0 {fill:none}
    .fil8 {fill:#242548}
    .fil10 {fill:#2D3782}
    .fil9 {fill:#2E3787}
    .fil11 {fill:#303B90}
    .fil12 {fill:#374794}
    .fil14 {fill:#374795}
    .fil5 {fill:#424BC0}
    .fil4 {fill:#5966D7}
    .fil6 {fill:#6A7DDE}
    .fil7 {fill:#7FAEF2}
    .fil3 {fill:#BCBEC0}
    .fil17 {fill:#D87F73}
    .fil19 {fill:#F17189}
    .fil20 {fill:#F26F87}
    .fil2 {fill:#F26F88}
    .fil18 {fill:#F9F9FA}
    .fil1 {fill:#FAEBEB}
    .fil16 {fill:#FEC1A5}
    .fil13 {fill:#FEFEFE}
    .fil15 {fill:#FFC9B3}
   ]]>
  </style>
 </defs>
 <g id="Layer_x0020_1">
  <metadata id="CorelCorpID_0Corel-Layer"/>
  <rect class="fil0 str0" x="-2168" y="794" width="1900" height="1167"/>
  <g id="_2070577017120">
   <path class="fil1" d="M1633 1997c3,1 8,4 9,6l-1 8 -26 0 0 -13c-2,-3 -12,-72 -13,-81 -7,1 -35,0 -44,0 -3,12 -6,29 -8,41l-6 31c0,3 -1,8 -2,10l-1 12c-3,2 -20,2 -25,2l-2 -7c2,-3 8,-9 11,-9 -1,-10 -4,-79 -5,-82l-1 2c-71,1 -152,-3 -222,8 -17,3 -33,5 -50,7 -17,2 -34,5 -51,7 -28,3 -53,4 -80,6l-19 2c-3,1 -5,2 -6,-1l-2 5c0,2 0,3 0,5l-5 33c2,0 11,10 11,11l-10 10 -22 -11c0,-7 -2,-54 -3,-57l-1 6c-7,0 -48,-4 -52,-7 -3,3 -11,28 -13,33 -1,2 -6,16 -6,16 0,3 8,10 10,14 -2,2 -10,8 -12,9l-20 -13c1,-9 2,-6 1,-16 0,-3 1,-12 2,-16 1,-11 2,-23 4,-33 -22,-4 -29,-9 -58,-9 -34,0 -80,1 -108,21 -14,10 -20,27 -19,45 0,23 8,34 21,43 45,31 109,32 162,31 41,-2 82,-4 124,-6 42,-2 84,-2 126,-2 43,0 86,-1 128,-2 41,-2 82,-5 123,-6 42,-1 86,-2 128,-1 42,1 85,0 128,1 41,0 83,2 123,6 20,2 39,5 59,7 62,5 118,11 181,2 23,-3 54,-11 73,-23 16,-11 41,-31 47,-50 15,-43 -112,-51 -136,-54 0,-3 0,-4 0,-7 -2,3 -2,20 -2,26l-12 0c-1,7 -3,15 -2,22 -1,5 1,35 -15,32 -12,-2 -5,-26 -1,-34 1,-4 2,-16 1,-21l-6 0c-1,-7 0,-31 -2,-34 -1,4 0,10 -1,14l-18 -1 0 17 -3 1c-3,1 -5,0 -7,0l-1 19c3,5 2,14 1,20 -3,23 -19,20 -21,10 -1,-8 3,-15 2,-20 1,-4 2,-2 2,-7 0,-2 -1,-5 -1,-7 -1,-6 -1,-11 -2,-16 -7,-1 -6,1 -7,-7 0,-3 -1,-9 -2,-11 -2,1 -8,0 -11,0 -45,0 -129,3 -164,-2 -13,-2 -26,-6 -38,-7 -14,-2 -28,-1 -42,-3 -27,-2 -57,-4 -85,-4 1,-3 1,-3 1,-6 -2,3 -6,73 -7,83 0,0 0,1 0,1 0,0 1,0 1,0 0,0 0,1 0,1z"/>
   <path class="fil2" d="M1647 1368l-13 6 9 106c0,3 -8,11 -10,13l-22 24 -20 -2c0,5 -3,6 -9,6 -5,0 -8,-1 -11,-3l1 -5c-10,0 -10,-3 -19,4 -4,3 -11,9 -13,13 -3,-2 -22,-18 -26,-21 -16,-13 -16,-11 -16,-21 -1,-18 -6,-92 -5,-101 -4,0 -11,-2 -14,-4l-3 0c-6,24 -11,59 -15,85 -6,32 -8,22 8,51 5,10 7,11 15,19l25 26c1,2 7,7 8,8 0,6 -4,16 -6,23 -9,39 -12,89 -13,129 0,13 1,22 10,33 3,4 5,4 7,7 14,3 7,6 31,2 20,-4 79,-17 93,-12 6,0 17,5 20,-12 4,-17 -4,-71 -7,-90 -1,-12 -9,-40 -13,-53 -2,-8 -4,-17 -7,-26 -2,-9 -2,-6 9,-21 9,-13 18,-25 28,-38 6,-8 10,-23 15,-34 1,-5 0,-8 -2,-13 -9,-30 -23,-71 -31,-100l-4 1z"/>
   <path class="fil3" d="M879 1461c-1,3 15,51 17,58 6,17 15,44 19,59l54 7c0,3 -3,14 -3,19 -1,7 -2,14 -3,21 -1,15 -2,29 -4,43 -1,10 -9,85 0,87 4,0 8,-3 10,-5l1 2 0 -3c13,-5 10,-15 62,-21 14,-1 27,-1 41,0 11,0 27,4 37,1 34,-8 44,-20 24,-47 -8,-11 -11,-16 -16,-31 -3,-11 -8,-25 -10,-36 16,5 9,6 26,0 9,-2 17,-5 25,-8 7,-2 48,-15 51,-17l0 -4 -2 -17c-3,-1 -17,2 -19,2 -13,2 -53,9 -60,9 -2,-4 -5,-8 -8,-12l-16 -23c-5,-6 -4,-6 -11,-10 -7,-4 -18,-10 -24,-15 -10,-8 -17,-7 -31,-6 0,7 0,8 -6,10 -4,1 -9,1 -13,0l-2 -6c-13,2 -20,7 -32,10 -10,3 -23,7 -34,8l-13 -19c-7,-11 -34,-55 -39,-61l-3 1 -18 4z"/>
   <path class="fil4" d="M1375 1295c3,-2 10,-8 14,-9l2 5c-1,1 -12,8 -14,9 -1,-2 -2,-3 -2,-5zm23 -15c1,-1 11,-7 13,-9l3 5c-5,2 -9,7 -14,9l-2 -5zm36 -23l3 4c-4,3 -10,7 -14,9l-3 -5 14 -8zm9 -6c2,-2 11,-8 14,-9l3 4c-3,2 -11,8 -14,9l-3 -4zm-76 -80l-1 6 0 125 2 3 -2 2 0 6 116 52 13 6 56 25 -1 -221c-5,-2 -83,-38 -92,-42l-91 -40c0,10 1,73 0,78z"/>
   <path class="fil5" d="M1718 1275l15 7 -2 4c-3,0 -14,-5 -15,-6l2 -5zm-25 -11c3,1 13,5 15,7l-2 4 -15 -6 2 -5zm-24 -11l14 6 -2 5c-4,-1 -10,-5 -15,-6l3 -5zm-26 -12l16 7 -3 5 -15 -6 2 -6zm-93 -66l1 221 80 -36 14 -6 89 -41 0 -166c0,-4 1,-11 0,-14 0,-5 0,-8 0,-14 0,-8 0,-19 -1,-27l-183 83z"/>
   <path class="fil6" d="M1366 1171l1 0c1,-5 0,-68 0,-78l91 40c9,4 87,40 92,42l183 -83c1,8 1,19 1,27 0,6 0,9 0,14 1,3 0,10 0,14l0 166c1,-1 1,-2 1,-5 0,-1 0,-3 0,-5l0 -166 0 -6 0 -39c-11,-5 -34,-14 -46,-19 -15,-6 -31,-13 -46,-19 -10,-4 -90,-37 -92,-38l-139 57c-7,3 -15,6 -23,9 -7,3 -16,6 -23,10l0 79z"/>
   <path class="fil7" d="M2028 1661c2,5 8,9 12,12 -3,8 -16,15 -27,8 -2,-1 -3,-3 -1,-6 0,-1 4,-3 6,-4 4,-4 2,-5 10,-10zm-138 -227l0 2 -14 3 -3 1 26 96 15 15c11,13 9,11 18,9 9,-1 18,-3 26,-4 6,-1 22,-4 26,-4 2,11 3,64 2,75 -2,22 -5,48 -6,70 3,2 2,0 3,3l1 -2c8,2 18,4 25,4 11,1 45,0 58,0 9,0 21,0 30,-1 0,-3 -1,-4 -1,-8l2 -56c2,-4 21,-12 22,-17 1,-4 1,-8 2,-12 1,-7 3,-15 4,-22 1,-9 2,-5 -6,-18 -7,-10 -14,-22 -21,-32l-20 -30c0,-2 -1,-1 0,-2 -1,-1 -4,-1 -6,-2 -3,-1 -5,-2 -7,-3 -2,1 -14,1 -17,0l8 1 -19 27c-4,0 -8,0 -10,-3 -2,-2 -3,-5 -5,-8l-9 -17c-6,1 -16,1 -22,1 -14,1 -9,-1 -20,5 -7,3 -26,13 -34,14l-11 -21c-6,-10 -31,-61 -33,-65l-4 1z"/>
   <path class="fil8" d="M970 1752c1,14 4,31 6,45 1,15 3,30 5,46 2,15 -2,31 -3,46 -2,15 -4,31 -5,46 -2,10 -3,22 -4,33 -1,4 -2,13 -2,16 1,10 0,7 -1,16l20 13c2,-1 10,-7 12,-9 -2,-4 -10,-11 -10,-14 0,0 5,-14 6,-16 2,-5 10,-30 13,-33 0,-4 26,-73 31,-88 2,-5 7,-57 8,-65 2,4 5,29 6,36 1,10 8,114 8,118 1,3 3,50 3,57l22 11 10 -10c0,-1 -9,-11 -11,-11l5 -33c0,-2 0,-3 0,-5l2 -5c-2,-5 17,-108 19,-129 1,-6 1,-82 0,-88 -10,3 -26,-1 -37,-1 -14,-1 -27,-1 -41,0 -52,6 -49,16 -62,21l0 3z"/>
   <path class="fil8" d="M1983 1700c-1,5 -11,44 -13,53 -3,11 -3,78 -4,94 0,20 13,77 12,87 1,2 2,8 2,11 1,8 0,6 7,7 5,0 24,-1 27,1l3 -1 0 -17c-1,-13 -1,-28 -1,-42 0,-14 -1,-29 -1,-43 0,-5 14,-67 16,-72 1,7 1,28 1,36 1,14 5,102 4,108 2,3 1,27 2,34l6 0 17 1 12 0c0,-6 0,-23 2,-26 -1,-5 2,-53 2,-63 1,-9 14,-65 17,-79 8,-34 6,-23 4,-57 0,-9 -2,-23 -1,-31 -9,1 -21,1 -30,1 -13,0 -47,1 -58,0 -7,0 -17,-2 -25,-4l-1 2z"/>
   <path class="fil9" d="M1515 1764c0,13 -2,25 -1,38 1,13 7,108 6,113 1,3 4,72 5,82l16 0 1 2c1,-2 2,-7 2,-10l6 -31c2,-12 5,-29 8,-41 3,-19 8,-39 11,-59 1,-8 8,-56 10,-59 4,18 9,38 14,57 2,9 3,21 5,31 1,10 2,20 4,30 1,9 11,78 13,81 2,-2 15,-2 18,-1 0,0 0,-1 0,-1 0,0 -1,0 -1,0 0,0 0,-1 0,-1 1,-10 5,-80 7,-83 -1,-6 1,-32 2,-39 1,-14 2,-26 2,-39 -1,-27 -3,-54 -4,-80 -14,-5 -73,8 -93,12 -24,4 -17,1 -31,-2z"/>
   <path class="fil5" d="M1246 1426l0 152c11,-4 52,-24 63,-29 11,-5 21,-9 32,-14 4,-2 31,-13 31,-15l0 -150 -126 56z"/>
   <path class="fil4" d="M1121 1521l105 48 9 4 11 5 0 -152c-4,0 -58,-26 -63,-28l-47 -21c-4,-2 -11,-5 -15,-7 0,7 -1,146 0,151z"/>
   <polygon class="fil10" points="1926,1446 2051,1390 2051,1239 1926,1295 "/>
   <path class="fil11" d="M1800 1390c2,2 61,27 70,32l21 10c7,1 29,14 33,14 2,-3 1,-135 1,-150 -2,-2 -4,-2 -8,-4 -2,-1 -5,-2 -8,-3 -4,-3 -11,-6 -15,-7l-86 -39c-3,-1 -5,-2 -7,-4l-1 151z"/>
   <path class="fil12" d="M1799 1311l0 6 0 69c0,4 0,3 1,4l1 -151c2,2 4,3 7,4l86 39c4,1 11,4 15,7 3,1 6,2 8,3 4,2 6,2 8,4 0,15 1,147 -1,150 1,0 1,1 2,0l0 -151 125 -56 -125 -52c-1,0 -118,47 -127,51l0 73z"/>
   <path class="fil6" d="M1121 1521c-1,-5 0,-144 0,-151 4,2 11,5 15,7l47 21c5,2 59,28 63,28l126 -56c-1,-2 -13,-6 -15,-7l-47 -19 -2 -1c-6,-2 -17,-7 -24,-10l-35 -14c-4,-2 -8,1 -12,2 -8,3 -16,7 -23,10 -16,6 -31,13 -47,19 -8,3 -15,6 -23,10 -6,2 -20,7 -24,10 -1,16 0,57 0,75l0 67c0,7 -1,8 1,9z"/>
   <path class="fil10" d="M1228 1114c1,-2 1,-3 2,-5l15 7 -2 5c-3,-1 -14,-6 -15,-7zm-23 -16c3,1 13,5 15,7l-2 5 -15 -7 2 -5zm-55 -38c-1,24 0,69 0,97 0,6 0,11 0,17 0,3 -2,13 1,15 3,0 47,-21 53,-24 9,-4 18,-8 27,-12 9,-4 19,-8 27,-12l0 -13c-2,-1 -3,-2 -5,-2l1 -5 3 0 0 -109c-7,4 -18,9 -26,12l-54 24c-6,3 -22,11 -27,12z"/>
   <path class="fil11" d="M1053 1124c4,-2 9,-8 13,-9 2,2 2,2 3,4 -2,2 -11,9 -13,10 -1,-2 -3,-3 -3,-5zm22 -16c2,-2 10,-8 13,-9l3 4c-3,2 -10,8 -13,9 -2,-1 -2,-2 -3,-4zm-33 24c1,-1 1,0 2,-1l3 4 -3 3c-2,1 -1,0 -2,2 1,2 0,1 2,2l25 11c5,3 79,37 81,36l1 0c-3,-2 -1,-12 -1,-15 0,-6 0,-11 0,-17 0,-28 -1,-73 0,-97 -3,-1 -23,-10 -28,-12 -4,-2 -9,-4 -13,-6l-67 -30 0 120z"/>
   <path class="fil13" d="M1551 1396l-56 -25 -2 7c1,1 3,2 3,3 0,2 -2,4 -3,6 -1,9 4,83 5,101 0,10 0,8 16,21 4,3 23,19 26,21 2,-4 9,-10 13,-13 9,-7 9,-4 19,-4l2 -5c-7,-4 -25,-5 -21,-35 -6,-8 -7,1 -11,-21 -1,-7 -9,-21 -2,-25 4,-2 31,-8 39,-10 7,-2 7,-1 12,2 7,4 14,8 22,12 8,4 12,7 14,18 2,12 1,18 -5,26 -4,6 -10,13 -16,17 -1,4 -4,7 -6,9 -3,3 -5,3 -9,6l0 8 20 2 22 -24c2,-2 10,-10 10,-13l-9 -106c-1,-1 -3,-4 -4,-5 1,-3 5,-7 1,-9l-80 36z"/>
   <path class="fil14" d="M1042 1012l67 30c4,2 9,4 13,6 5,2 25,11 28,12 5,-1 21,-9 27,-12l54 -24c8,-3 19,-8 26,-12l0 109 1 0 0 -110c-4,-2 -107,-44 -108,-44 -2,0 -70,28 -81,33l-24 10c-2,1 -1,0 -3,2z"/>
   <path class="fil5" d="M2014 1008c-2,4 -1,46 -1,55 0,8 -1,49 0,54l91 -41 0 -108c-5,0 -78,35 -90,40z"/>
   <path class="fil5" d="M893 1272c-1,4 0,84 0,102 0,5 -1,5 1,7l89 -40 0 -109 -90 40z"/>
   <path class="fil4" d="M803 1340c1,2 18,9 22,11 20,10 43,19 63,28l6 2c-2,-2 -1,-2 -1,-7 0,-18 -1,-98 0,-102 -4,0 -57,-25 -68,-30 -4,-2 -19,-9 -22,-10l0 108z"/>
   <path class="fil4" d="M1938 1050l2 5c-3,3 -10,5 -15,6l-2 -5 15 -6zm26 -10l2 6c-5,1 -11,4 -16,5l-1 -5 15 -6zm49 77c-1,-5 0,-46 0,-54 0,-9 -1,-51 1,-55 -4,0 -9,-3 -12,-5 -14,-6 -76,-35 -80,-35l0 109c5,0 83,38 91,40z"/>
   <path class="fil8" d="M2018 1485c1,-11 -3,-24 3,-33 3,-4 15,-16 23,-11 7,5 16,9 20,17 4,9 -3,20 -3,31 1,6 4,6 5,10 2,1 4,2 7,3 2,1 5,1 6,2l25 4c3,-6 3,-10 8,-16 4,-6 6,-7 15,-10 -5,-6 10,-17 -6,-25 -11,-6 -19,-4 -20,-19 -1,-15 -5,-16 -15,-23 -8,-4 -16,-11 -27,-12 -13,-2 -21,4 -25,12 -2,4 1,1 -7,4 -3,1 -4,1 -6,3 -6,7 -5,3 -12,7 -9,5 -1,15 -19,19 -6,1 -11,3 -10,10 0,3 2,5 2,8 -1,4 -3,3 -2,9 3,1 5,1 8,1 3,4 0,6 6,6 6,1 5,1 9,4 4,4 13,7 15,-1z"/>
   <path class="fil6" d="M803 1340l0 -108c3,1 18,8 22,10 11,5 64,30 68,30l90 -40 0 109 1 -2c0,0 0,0 0,0 0,-1 0,-3 0,-4l0 -103c-1,-2 -20,-9 -22,-10 -8,-3 -15,-6 -23,-9 -6,-2 -43,-18 -46,-19 -2,0 -83,34 -91,37 -1,16 0,73 0,96 0,4 -1,11 1,13z"/>
   <path class="fil6" d="M1922 968c4,0 66,29 80,35 3,2 8,5 12,5 12,-5 85,-40 90,-40 -2,-2 -1,-1 -5,-3 -15,-6 -83,-35 -86,-35 -2,0 -40,16 -45,18 -8,3 -16,7 -23,10 -4,1 -7,3 -11,4 -4,2 -9,3 -12,6z"/>
   <path class="fil8" d="M1005 1507c5,0 2,0 3,-1 -5,-13 -17,-23 0,-31 15,-7 26,-3 41,-3 8,0 12,-2 16,-5 14,-11 9,-19 13,-33 2,-6 5,-10 7,-16 3,-17 -16,-15 -27,-11 -15,5 -20,13 -31,15 -8,1 -11,-1 -18,3 -5,3 -9,6 -14,9 -10,6 -20,10 -24,21 -8,25 11,46 34,52z"/>
   <path class="fil9" d="M1553 1473c11,6 5,18 19,23 13,5 24,0 34,-4 6,-4 12,-11 16,-17 6,-8 7,-14 5,-26 -2,-11 -6,-14 -14,-18 -8,-4 -15,-8 -22,-12 -5,-3 -5,-4 -12,-2 -8,2 -35,8 -39,10 -7,4 1,18 2,25 4,22 5,13 11,21z"/>
   <path class="fil13" d="M1007 1941c4,3 45,7 52,7l1 -6c0,-4 -7,-108 -8,-118 -1,-7 -4,-32 -6,-36 -1,8 -6,60 -8,65 -5,15 -31,84 -31,88z"/>
   <path class="fil13" d="M1558 1917c9,0 37,1 44,0 -2,-10 -3,-20 -4,-30 -2,-10 -3,-22 -5,-31 -5,-19 -10,-39 -14,-57 -2,3 -9,51 -10,59 -3,20 -8,40 -11,59z"/>
   <path class="fil13" d="M2017 1935l18 1c1,-4 0,-10 1,-14 1,-6 -3,-94 -4,-108 0,-8 0,-29 -1,-36 -2,5 -16,67 -16,72 0,14 1,29 1,43 0,14 0,29 1,42z"/>
   <path class="fil15" d="M2018 1485l1 -5c3,4 4,8 9,10l-2 8c1,2 0,1 3,1 1,1 4,0 5,0 3,1 7,1 10,0 2,-7 0,-5 7,-7 3,-1 7,-4 9,-6l1 3c0,-11 7,-22 3,-31 -4,-8 -13,-12 -20,-17 -8,-5 -20,7 -23,11 -6,9 -2,22 -3,33z"/>
   <path class="fil16" d="M1005 1507l5 2c6,2 7,-1 8,9l2 6c4,1 9,1 13,0 6,-2 6,-3 6,-10 -1,-12 8,-5 10,-15 2,-6 1,-20 0,-27 -15,0 -26,-4 -41,3 -17,8 -5,18 0,31 -1,1 2,1 -3,1z"/>
   <path class="fil17" d="M1572 1513l-1 5c3,2 6,3 11,3 6,0 9,-1 9,-6l0 -8c4,-3 6,-3 9,-6 2,-2 5,-5 6,-9 -10,4 -21,9 -34,4 -14,-5 -8,-17 -19,-23 -4,30 14,31 21,35l-2 5z"/>
   <path class="fil18" d="M2049 1499c-3,0 -3,0 -5,0 -3,1 -7,1 -10,0 -1,0 -4,1 -5,0 -3,0 -2,1 -3,-1l-1 1c0,0 -1,0 -1,0 -3,1 -8,0 -10,0l9 17c2,3 3,6 5,8 2,3 6,3 10,3l19 -27 -8 -1z"/>
   <path class="fil15" d="M1988 1982c3,2 2,7 5,8 11,1 10,-13 13,-18l1 -19c2,0 4,1 7,0 -3,-2 -22,-1 -27,-1 1,5 1,10 2,16 0,2 1,5 1,7 0,5 -1,3 -2,7z"/>
   <path class="fil8" d="M2059 1979c0,0 0,1 0,1 -3,2 -4,7 -10,7 -6,0 -4,-6 -6,-10 -4,8 -11,32 1,34 16,3 14,-27 15,-32z"/>
   <path class="fil16" d="M879 1461l18 -4c-1,-7 -5,-15 -13,-15 -1,2 -1,3 -2,4 -6,-4 -23,-7 -21,1 1,5 14,12 18,14z"/>
   <path class="fil15" d="M2043 1977c2,4 0,10 6,10 6,0 7,-5 10,-7 0,0 0,-1 0,-1 -1,-7 1,-15 2,-22l-17 -1c1,5 0,17 -1,21z"/>
   <path class="fil8" d="M1988 1982c1,5 -3,12 -2,20 2,10 18,13 21,-10 1,-6 2,-15 -1,-20 -3,5 -2,19 -13,18 -3,-1 -2,-6 -5,-8z"/>
   <path class="fil16" d="M1208 1569l2 17c9,1 8,2 16,-2 4,-1 11,-4 14,-6 -2,-3 -3,-2 -5,-5l-9 -4c-5,0 -8,3 -12,3l-4 -3 -2 0z"/>
   <path class="fil15" d="M2028 1661c-8,5 -6,6 -10,10 -2,1 -6,3 -6,4 -2,3 -1,5 1,6 11,7 24,0 27,-8 -4,-3 -10,-7 -12,-12z"/>
   <path class="fil8" d="M1542 1999l-1 -2 -16 0c-3,0 -9,6 -11,9l2 7c5,0 22,0 25,-2l1 -12z"/>
   <path class="fil8" d="M1615 1998l0 13 26 0 1 -8c-1,-2 -6,-5 -9,-6 -3,-1 -16,-1 -18,1z"/>
   <path class="fil17" d="M1479 1383c3,2 10,4 14,4 1,-2 3,-4 3,-6 0,-1 -2,-2 -3,-3l2 -7 -13 -6c-4,8 -5,7 -3,18z"/>
   <path class="fil17" d="M1631 1360c4,2 0,6 -1,9 1,1 3,4 4,5l13 -6c0,-8 1,-8 -2,-14l-14 6z"/>
   <path class="fil15" d="M1876 1439l14 -3 0 -2c1,-3 0,-1 1,-2l-21 -10c0,12 2,8 6,17z"/>
   <path class="fil13" d="M2044 1499c2,0 2,0 5,0 3,1 15,1 17,0 -1,-4 -4,-4 -5,-10l-1 -3c-2,2 -6,5 -9,6 -7,2 -5,0 -7,7z"/>
   <polygon class="fil2" points="1641,1247 1656,1253 1659,1248 1643,1241 "/>
   <path class="fil2" d="M1075 1108c1,2 1,3 3,4 3,-1 10,-7 13,-9l-3 -4c-3,1 -11,7 -13,9z"/>
   <path class="fil19" d="M1327 1159l15 7 2 -5c-2,-2 -12,-6 -15,-7l-2 5z"/>
   <path class="fil2" d="M1443 1251l3 4c3,-1 11,-7 14,-9l-3 -4c-3,1 -12,7 -14,9z"/>
   <path class="fil20" d="M1053 1124c0,2 2,3 3,5 2,-1 11,-8 13,-10 -1,-2 -1,-2 -3,-4 -4,1 -9,7 -13,9z"/>
   <path class="fil2" d="M1923 1056l2 5c5,-1 12,-3 15,-6l-2 -5 -15 6z"/>
   <path class="fil2" d="M1691 1269l15 6 2 -4c-2,-2 -12,-6 -15,-7l-2 5z"/>
   <path class="fil2" d="M1366 1307l2 -2 -2 -3c-1,-2 -13,7 -14,8l3 4 11 -7z"/>
   <path class="fil2" d="M1375 1295c0,2 1,3 2,5 2,-1 13,-8 14,-9l-2 -5c-4,1 -11,7 -14,9z"/>
   <polygon class="fil2" points="1741,1291 1755,1298 1758,1292 1743,1286 "/>
   <polygon class="fil19" points="1766,1302 1781,1309 1783,1304 1768,1297 "/>
   <path class="fil2" d="M1258 1128l9 4 3 -5c-3,-1 -4,-2 -6,-3 -1,0 -2,0 -3,-1 -2,-1 -2,0 -3,-2l-1 0 -3 0 -1 5c2,0 3,1 5,2z"/>
   <path class="fil2" d="M1009 1157c1,2 2,2 3,4 3,-1 11,-7 13,-9 -1,-2 -2,-3 -3,-5 -2,1 -11,8 -13,10z"/>
   <path class="fil19" d="M1302 1148l15 7 2 -5c-4,-3 -10,-5 -15,-7 0,1 -1,3 -2,5z"/>
   <path class="fil2" d="M1398 1280l2 5c5,-2 9,-7 14,-9l-3 -5c-2,2 -12,8 -13,9z"/>
   <path class="fil2" d="M944 1206l2 4c3,-1 12,-8 13,-10 -1,-2 -1,-2 -3,-4 -2,1 -10,7 -12,10z"/>
   <path class="fil2" d="M1822 1097l2 5 15 -6c0,-3 -1,-4 -2,-5 -4,1 -12,4 -15,6z"/>
   <path class="fil2" d="M965 1189c1,3 2,3 3,5 4,-3 10,-8 13,-9 0,-2 -1,-4 -3,-5 -2,1 -10,7 -13,9z"/>
   <path class="fil2" d="M1666 1258c5,1 11,5 15,6l2 -5 -14 -6 -3 5z"/>
   <path class="fil20" d="M1228 1114c1,1 12,6 15,7l2 -5 -15 -7c-1,2 -1,3 -2,5z"/>
   <path class="fil20" d="M1203 1103l15 7 2 -5c-2,-2 -12,-6 -15,-7l-2 5z"/>
   <path class="fil19" d="M1847 1087l2 4 15 -5c0,-1 0,-2 0,-3 -1,-1 0,0 -1,-1 -1,-2 1,0 -1,-1 -3,1 -12,4 -15,6z"/>
   <path class="fil19" d="M1308 1343l2 1 13 -9c-1,-2 -2,-3 -3,-4 -5,1 -9,6 -14,8l2 4z"/>
   <path class="fil2" d="M1042 1132c-3,3 -8,6 -11,9l3 4c3,-1 5,-4 8,-5 1,-2 0,-1 2,-2l3 -3 -3 -4c-1,1 -1,0 -2,1z"/>
   <path class="fil2" d="M1949 1046l1 5c5,-1 11,-4 16,-5l-2 -6 -15 6z"/>
   <path class="fil2" d="M1420 1265l3 5c4,-2 10,-6 14,-9l-3 -4 -14 8z"/>
   <path class="fil19" d="M1746 1127l2 5 15 -6 -1 -5c-4,0 -13,4 -16,6z"/>
   <path class="fil2" d="M1716 1280c1,1 12,6 15,6l2 -4 -15 -7 -2 5z"/>
   <path class="fil2" d="M1329 1325l3 4 13 -8c0,-2 -1,-3 -2,-5 -3,1 -13,7 -14,9z"/>
   <path class="fil19" d="M1873 1076l1 5 16 -5c-1,-4 -1,-4 -2,-5l-15 5z"/>
   <path class="fil19" d="M1898 1067l2 4 15 -5 -2 -5c-2,0 -14,4 -15,6z"/>
   <polygon class="fil19" points="1772,1117 1773,1122 1788,1116 1787,1111 "/>
   <polygon class="fil19" points="1797,1106 1798,1111 1814,1106 1812,1101 "/>
   <polygon class="fil19" points="1277,1136 1292,1143 1294,1139 1279,1132 "/>
   <path class="fil2" d="M987 1174l3 3 13 -9 -3 -4 -12 8c-1,1 0,1 -1,2z"/>
   <path class="fil19" d="M1366 1177l1 -6 -1 0 -12 -5 -2 4c3,2 4,2 7,4 3,1 5,2 7,3z"/>
   <polygon class="fil2" points="1799,1317 1799,1311 1792,1308 1790,1313 "/>
   <path class="fil19" d="M1735 1137l3 -1c0,-1 -1,-2 -1,-3 -2,-4 0,-1 -2,-2l0 6z"/>
  </g>
 </g>
</svg>
