<?xml version="1.0" encoding="UTF-8"?>
<!DOCTYPE svg PUBLIC "-//W3C//DTD SVG 1.1//EN" "http://www.w3.org/Graphics/SVG/1.1/DTD/svg11.dtd">
<!-- Creator: CorelDRAW X7 -->
<svg xmlns="http://www.w3.org/2000/svg" xml:space="preserve" width="1.53335in" height="1.12035in" version="1.1" style="shape-rendering:geometricPrecision; text-rendering:geometricPrecision; image-rendering:optimizeQuality; fill-rule:evenodd; clip-rule:evenodd"
viewBox="0 0 47046 34374"
 xmlns:xlink="http://www.w3.org/1999/xlink">
 <defs>
  <style type="text/css">
   <![CDATA[
    .fil13 {fill:#014EF1}
    .fil16 {fill:#0151F3}
    .fil19 {fill:#034EED}
    .fil38 {fill:#0955E7}
    .fil26 {fill:#0B398A}
    .fil9 {fill:#0D3886}
    .fil37 {fill:#0D3985}
    .fil17 {fill:#0E3786}
    .fil40 {fill:#13388A}
    .fil8 {fill:#1969F5}
    .fil34 {fill:#1B6AF3}
    .fil25 {fill:#5493F4}
    .fil32 {fill:#578BF5}
    .fil14 {fill:#5A95F9}
    .fil30 {fill:#5B94F5}
    .fil5 {fill:#5B94FD}
    .fil36 {fill:#5C93ED}
    .fil24 {fill:#5D94FA}
    .fil23 {fill:#722A25}
    .fil3 {fill:#B1CCFC}
    .fil2 {fill:#B2CCFB}
    .fil22 {fill:#B4CDFA}
    .fil6 {fill:#C6DAF9}
    .fil4 {fill:#C7DAFB}
    .fil18 {fill:#C9D9FA}
    .fil35 {fill:#CADAF4}
    .fil27 {fill:#EBF4FA}
    .fil0 {fill:#ECF2FE}
    .fil33 {fill:#ECF4F5}
    .fil28 {fill:#F1C4A4}
    .fil29 {fill:#F5B3A4}
    .fil7 {fill:#F5F9FD}
    .fil39 {fill:#F5FDF4}
    .fil20 {fill:#F5FDFA}
    .fil21 {fill:#FAFCFE}
    .fil15 {fill:#FAFEFA}
    .fil31 {fill:#FBF9FB}
    .fil11 {fill:#FC4A8B}
    .fil12 {fill:#FDFDFD}
    .fil10 {fill:#FDFFFF}
    .fil1 {fill:white}
   ]]>
  </style>
 </defs>
 <g id="Layer_x0020_1">
  <metadata id="CorelCorpID_0Corel-Layer"/>
  <g id="_2033790162304">
   <path class="fil0" d="M7316 21113c137,-84 1031,-615 1119,-625l179 312c89,-6 262,-129 324,-164 191,-111 143,-104 335,4 146,83 542,292 641,380l56 22c29,146 -17,339 30,457 142,71 272,282 391,395 103,-17 172,-95 260,-124 64,67 597,993 616,1087l-242 135c46,158 164,401 147,563l335 185c91,80 48,337 48,478 0,182 8,386 -3,565 -113,104 -406,192 -463,304l187 327c-201,77 -948,565 -1100,621 -69,58 -574,343 -655,365l-106 -163c-44,-79 -46,-115 -118,-151l-410 224c-44,77 -318,-121 -454,-199 -157,-91 -328,-182 -467,-273 -27,-341 64,-361 -98,-510 -90,-82 -237,-224 -297,-332 -134,11 -164,88 -298,119 -71,-166 -209,-372 -298,-525 -61,-107 -266,-430 -303,-550l242 -141c-149,-741 -246,-601 -522,-786l-2 -786c-1,-78 -12,-182 23,-245l439 -245c-27,-147 -138,-224 -169,-358l633 -366zm-755 -4193c55,-49 572,-351 653,-369l101 192c69,-33 110,-58 190,-106 92,-56 88,-65 192,-6 135,76 253,158 380,217 60,61 21,-4 49,68l2 222c95,76 149,152 245,245l155 -76 360 637 -138 82 87 337 202 121c43,76 25,489 17,605 -76,58 -233,102 -269,188l97 177c-73,60 -559,340 -630,364l-408 229c-16,-31 -26,-58 -52,-98 -51,-80 -18,-52 -88,-80 -82,49 -159,98 -248,138l-521 -287c-13,-161 29,-219 -64,-308 -65,-63 -126,-123 -172,-196 -101,22 -77,52 -179,64l-347 -630 134 -76c-7,-45 -70,-277 -87,-313 -38,-77 -145,-121 -216,-151l1 -562c7,-41 7,-35 18,-55l238 -135c-8,-112 -62,-121 -75,-230l373 -208zm10762 -9924c74,48 31,346 31,444 0,160 0,319 0,479 0,697 49,6361 12,6584 -200,133 -500,296 -728,424l-4685 2705c-136,81 -317,218 -372,154 -182,-95 -376,-214 -548,-317l-545 -323c-28,-604 -6,-1271 -6,-1882 0,-332 -40,-5454 -1,-5581l18 -36 -10 -25c-76,20 -35,-5 -55,75 0,2 -2,82 -2,89l2 2748 -613 292c-59,31 -87,58 -147,88 -46,22 -106,40 -156,68 -80,44 -201,120 -301,154 -38,56 -649,361 -756,437l-1041 698c-174,124 -148,81 -354,254l-824 654c-149,118 -1068,1026 -1186,1184 -235,313 -393,487 -651,847 -46,65 -87,109 -128,175 -45,70 -76,131 -117,189 -50,70 -64,109 -108,174 -53,80 -59,110 -109,199 -41,72 -70,103 -104,178l-104 196c-158,305 -325,700 -439,1043l-202 705c-156,894 -214,1271 -134,2213 78,915 427,1925 862,2722 114,209 398,717 549,907 22,28 10,11 30,37l232 310c46,56 70,113 127,180 232,273 746,865 1031,1119 276,248 365,353 680,602 418,331 657,530 1103,833 136,93 243,155 366,241 389,271 1456,886 1873,1080 153,71 277,133 410,200 329,164 1073,474 1465,625l1087 404c672,203 1113,348 1848,549 72,20 154,33 224,57l755 166c-59,-89 -526,-326 -625,-385l-3208 -1852c-238,-134 -420,-250 -632,-369 -816,-456 -791,-483 -92,-881l4495 -2623c109,-27 513,-288 660,-371 308,-175 524,-135 810,23 474,262 901,522 1351,781 557,320 6992,3999 7067,4102 231,313 -596,514 -781,717l-51 33c-612,323 -1457,830 -2043,1175 -86,51 -636,348 -699,426 731,0 2174,35 2833,-31 430,-43 895,-62 1329,-100 735,-65 2439,-288 3142,-451 157,-37 103,5 291,-54l892 -195c180,-44 384,-103 576,-140 195,-37 360,-104 565,-155 194,-48 1536,-462 1747,-554l650 -239c85,-36 170,-67 265,-106 100,-40 155,-55 252,-98l761 -325c241,-131 659,-307 964,-471 82,-44 140,-69 233,-115l1143 -662c472,-289 1452,-986 1866,-1348 65,-57 105,-140 218,-134l-128 -96c-974,-532 -2063,-1209 -3044,-1757 -660,-368 -614,-348 -614,-1059l11 -6041c-31,-257 -33,-114 -33,-436 0,-31 -1,-79 6,-108 12,-54 -8,11 12,-40 18,-44 7,-23 31,-52 42,-65 73,-82 145,-117 120,-52 320,-224 454,-199 94,17 5266,3032 5987,3445 132,75 312,196 451,248 -49,-130 -16,-759 -106,-1221l-169 -811c-24,-105 -62,-165 -51,-214l95 11c-60,-77 -2441,-1424 -2495,-1455l-1861 -1073c-213,-120 -434,-272 -626,-359 -191,-122 -389,-230 -585,-341 -191,-108 -393,-227 -578,-335 -217,-127 -379,-223 -580,-335 -164,-91 -390,-245 -564,-323l-65 42c-239,1136 -442,2287 -660,3427 -109,567 -215,1138 -331,1709l-250 1292c-45,135 -181,134 -263,217l-32 27c-22,15 -16,17 -47,29 -96,40 -181,0 -252,-43 -84,-51 -208,-131 -291,-147l24 164 -9 242c139,47 382,206 518,284 165,95 349,196 496,283 170,103 260,355 137,554 -93,152 -290,227 -456,325 -184,108 -321,187 -495,289 -290,170 -1263,751 -1499,865 61,55 7,7 41,69l79 65c68,68 210,454 265,567 496,1012 975,1316 1056,1444 168,832 103,1996 -199,2709 -343,808 -815,1083 -1555,1496 -100,98 -673,367 -780,407 -284,106 -677,184 -1007,185l-710 -938c-598,-877 -1085,-1705 -1459,-2714 -70,-188 -133,-444 -207,-616 -7,-5 -18,-19 -20,-12l-40 -23c-157,115 -762,438 -1002,585 -327,199 -650,393 -1003,585 -91,50 -170,94 -246,142 -323,200 -517,7 -858,-196 -304,-181 -628,-381 -963,-581 -343,-205 -671,-409 -993,-592 -330,-188 -681,-421 -989,-598 -801,-458 -1657,-1011 -2471,-1485l-5455 -3280c-349,-211 -645,-398 -991,-597 -288,-165 -759,-374 -534,-773 55,-96 70,-61 51,-148 -83,-108 -281,-109 -328,-333 -40,-195 12,-462 -2,-654 6,-263 232,-344 425,-456l1651 -958c738,-408 1464,-867 2199,-1279l2200 -1277c342,-208 721,-435 1099,-640 466,-253 621,-476 1281,-460 -42,-81 -89,-85 -157,-189 -143,-221 -6,-521 43,-833l665 -3414c-92,59 -86,42 -215,44 -89,2 -134,12 -217,17 -481,31 -989,106 -1369,126l-1324 174c-89,12 -381,39 -401,80 -54,-178 -21,-1480 -20,-1773l-13 -1369c0,-293 0,-201 29,-404 -81,47 2,27 -115,43 -37,-57 -26,-52 -111,-61 56,77 68,43 129,108z"/>
   <path class="fil1" d="M22484 11666c74,7 1034,635 1101,687l-39 266c-139,-33 -866,-547 -1102,-676l40 -277zm-112 -2813l52 -7c21,-39 20,-28 50,-58 89,25 81,18 173,21 54,118 120,238 231,314 40,27 8,-21 38,27 59,74 1819,1119 2057,1267l2071 1263 -77 384c-156,-61 -596,-391 -707,-401 -102,24 -143,-4 -258,1 -12,61 -2,56 -11,97 -40,190 99,46 -41,223 -21,26 -62,36 -18,146 27,66 48,57 18,154 -75,-123 -102,-72 -108,-280 -34,99 -9,225 -96,265 -37,31 -176,59 -201,39l-56 -44c-3,-3 -9,-7 -12,-9 -5,-4 -17,-15 -22,-18 -3,-2 -8,-7 -11,-9 -64,-41 -130,-26 -231,-25l76 159c52,33 62,46 89,120 34,58 693,442 726,451l-88 382c-111,-29 -768,-449 -906,-535l-1769 -1080c-170,-102 -276,-167 -445,-269 -371,-223 -352,-157 -367,-341 -16,-87 16,-625 -15,-746 -7,-30 -6,-25 -14,-49 -16,-50 -39,-65 -90,-75 -5,-1 -11,-1 -16,-1 -114,-9 -145,56 -212,-131l-18 -32c-1,-3 -3,-10 -4,-13 -1,-4 -2,-11 -2,-15 -2,-29 7,-64 12,-89 18,-86 28,-87 14,-174 25,-101 17,-135 29,-241 89,0 91,-14 173,-20 -38,-122 37,-16 -77,-118 -95,-84 -97,-104 -112,-294 4,-3 12,-6 14,-8 2,-2 10,-6 13,-8l37 -43c35,-114 -89,9 -64,-220 18,31 29,45 52,70l25 -49c12,-18 6,-18 48,-46 25,28 34,20 50,65zm687 -499c97,17 828,484 972,571 341,209 648,385 958,585 557,360 1407,823 1923,1170l-65 373c-80,3 -831,-478 -970,-561 -300,-180 -662,-393 -960,-583l-1927 -1170 69 -385zm-592 73c5,-126 24,-280 72,-387 102,13 121,61 241,120l-71 386c-99,-18 -139,-88 -242,-119zm2047 -419c239,151 436,265 663,403 195,119 433,250 644,398 8,120 -27,213 -43,331 -106,-14 -1672,-986 -1980,-1177 -102,-63 -218,-132 -325,-196 -104,-63 -225,-129 -328,-198l57 -333c87,-5 267,138 339,180l973 592zm2150 8898c-18,-268 -93,-628 -147,-882 -90,-425 226,-1225 397,-1621 103,-238 232,-496 312,-722l125 -517c16,-81 25,-95 82,-110 15,-353 -3,-717 4,-1072 3,-181 3,-361 3,-543 -1,-223 -28,-324 151,-397 61,-52 254,-181 369,-156l1769 990c257,147 492,236 544,577 24,52 27,2100 1,2170 -16,109 -23,121 -117,176 -48,29 -121,71 -176,96 -4,4 -11,4 -13,11 -4,15 -84,59 -149,61 -95,2 -115,-35 -189,-56 -106,198 -381,598 -508,742 -296,333 -757,540 -855,1031 -167,840 -118,825 -40,1693 200,86 3383,1945 3768,2165l936 541c106,57 223,139 322,177 61,-82 854,-4346 895,-4558 65,-334 874,-4369 871,-4600 -376,-241 -1123,-650 -1552,-899l-4684 -2705c-1013,-563 -2105,-1225 -3128,-1805 -109,-63 -3029,-1766 -3138,-1804l-46 119c-144,663 -276,1477 -412,2150l-885 4594c-33,169 -435,2164 -430,2286l2199 1279c312,185 3632,2112 3722,2129l-1 -540z"/>
   <path class="fil2" d="M22187 22504c-185,137 -450,256 -672,386 -106,62 -231,135 -347,199 -375,210 -819,560 -1160,403 -129,-59 -231,-138 -348,-200 -125,-66 -237,-143 -343,-198 -470,-244 -1499,-851 -2056,-1184 -765,-456 -852,-368 119,-896 105,-57 261,-131 353,-190 110,-71 223,-132 341,-203l351 -191c279,-142 556,35 787,182 359,229 973,562 1363,787 112,65 245,129 347,198l686 402c106,60 236,129 343,197 155,98 265,74 236,308zm-1237 -12493l-665 3414c-49,312 -186,612 -43,833 68,104 115,108 157,189 -660,-16 -815,207 -1281,460 -378,205 -757,432 -1099,640l-2200 1277c-735,412 -1461,871 -2199,1279l-1651 958c-193,112 -419,193 -425,456 82,240 158,252 354,368 167,99 324,189 482,278l2893 1672c1280,754 2585,1477 3858,2226l3843 2222c159,92 313,181 483,276 543,306 920,635 1679,191 321,-188 640,-378 962,-560 272,-154 725,-438 966,-554 69,-145 4,-1092 148,-1239 81,-6 23,-3 45,-36 -260,-72 -38,59 -411,-146 -113,-63 -236,-146 -353,-211 -215,-119 -480,-278 -718,-412 -478,-269 -1364,-765 -1793,-1034l-1076 -621c-902,-502 -2003,-1199 -2870,-1652 -137,-71 -219,-136 -357,-207l-3404 -1960c-75,-43 -104,-71 -174,-107 -279,-146 -268,-158 -256,-346 173,-131 711,-423 977,-575 133,-76 247,-144 345,-199 224,-125 440,-251 668,-377l1499 -869c54,-32 109,-52 171,-89 242,-145 492,-305 796,-184 73,29 117,64 171,88l3532 2033c664,392 1372,775 2011,1161 116,71 223,118 336,189 226,140 196,54 255,185l43 83 -18 -267c-162,-437 161,-1664 33,-1938l1 540c-90,-17 -3410,-1944 -3722,-2129l-2199 -1279c-5,-122 397,-2117 430,-2286l885 -4594c136,-673 268,-1487 412,-2150l46 -119c109,38 3029,1741 3138,1804 1023,580 2115,1242 3128,1805l4684 2705c429,249 1176,658 1552,899 3,231 -806,4266 -871,4600 -41,212 -834,4476 -895,4558 -99,-38 -216,-120 -322,-177l-936 -541c-385,-220 -3568,-2079 -3768,-2165 9,175 70,420 2,555 61,307 6,770 -12,1091 49,-66 33,86 38,-85l511 293c128,57 31,1 106,66 207,178 2604,1441 2659,1584 73,189 -168,271 -292,344 -443,262 -1027,562 -1446,836 -168,109 -308,131 -559,329 -61,48 -12,-6 -245,129 -136,79 -533,247 -582,379 -138,2 -130,27 -274,11 78,66 260,75 336,52l702 -413c276,-159 206,-128 480,34 106,63 362,223 476,262 120,-52 258,-146 383,-218l2337 -1357c228,-128 182,-132 325,-308l-24 -164c83,16 207,96 291,147 71,43 156,83 252,43 31,-12 25,-14 47,-29l32 -27c-73,-5 -30,22 -61,-17 97,-577 224,-1174 338,-1750l1501 -7806c76,-411 25,-508 -274,-681 -2589,-1497 -5277,-3022 -7853,-4533l-4918 -2840c-160,-96 -281,-124 -313,-210 -145,67 -122,117 -162,293 -29,124 -50,253 -75,381 -243,1231 -467,2517 -720,3732 -53,257 -94,495 -144,751 -36,178 -140,610 -139,760z"/>
   <path class="fil3" d="M44709 11525c84,15 366,180 423,240l-1 295c-73,-6 -360,-191 -424,-231l2 -304zm-6951 -4119l3991 2360c183,107 379,235 567,326l2 312c-167,-31 -457,-292 -587,-305 -115,18 -32,9 -155,-29 44,77 55,84 44,208l-130 9c-13,-141 23,-107 86,-206 -23,7 -52,17 -72,25 -287,109 -209,-55 -362,73 234,123 175,4 303,167l40 56c5,9 15,16 18,59 30,37 2116,1275 2184,1282 66,76 41,229 41,370 -239,0 -211,6 -196,-33l-65 36c-60,35 -13,28 -65,40 -24,-281 -190,30 -369,-174l13 51c44,108 22,-52 52,107 9,23 1114,674 1234,738l3 304c-153,-25 -347,-223 -475,-236l-110 14c-31,-48 -65,-63 -121,-86 -116,-48 -68,-43 -123,-80 -97,-67 -88,-17 -150,-47 -159,-77 23,-71 -106,-91 -12,3 -6,-69 -19,38l19 158c42,-30 97,9 152,22l-41 95c-12,41 -9,24 -3,63 17,53 914,553 1000,603 69,41 251,134 317,195l-2 295c-73,-3 -321,-166 -383,-205 -170,-107 -1068,-638 -1130,-646l-84 12c-2,59 -29,82 -86,59 -115,-47 29,-58 -176,-83l70 -65c-2,-2 -6,-6 -8,-8 -2,-1 -6,-5 -7,-7l-67 -72c-20,-13 -209,-58 -247,-63 6,103 -2,64 51,179l242 171c5,2 10,4 15,7 7,2 26,9 32,12 73,34 35,-12 71,52 25,46 2,-25 8,48 1,5 -6,29 -7,31l110 56c132,-50 -57,-29 129,-56 66,75 12,115 106,116 206,3 -56,-40 166,-51 -52,142 -75,6 -98,142 94,58 99,-26 201,70 57,54 17,26 71,49l98 44c0,72 -8,214 1,279 10,73 84,112 -1,155 33,28 18,29 0,0 -93,16 -195,14 -261,-65 -42,56 -10,-35 -37,87 -39,173 55,177 111,200l60 26c54,27 64,41 97,61 79,47 149,25 205,87 47,52 -21,0 55,65 57,50 81,0 64,106l628 389 1 296c-134,-29 -610,-337 -768,-429 -587,-339 -1649,-1003 -2170,-1275 51,97 44,0 48,137 84,-54 153,-27 233,50 5,5 124,46 -8,110 -6,3 -12,4 -18,6l-88 19c-27,-50 2,-39 -38,-82 -31,-34 0,-14 -47,-28 -3,0 -118,1 -132,1l-41 60c-4,6 -19,40 -24,51l-60 -13 1213 708 0 310c-109,-22 -1316,-756 -1524,-876 -97,-55 -1388,-848 -1497,-861 -85,16 -128,7 -188,-37 -161,-114 -30,-44 -204,-81l-44 131c-18,-37 -31,-57 -45,-81l-34 -55c-44,-49 -92,-64 -160,-76 -334,-55 -185,-19 -290,13 56,75 256,164 355,222l-1 306c-159,-34 -385,-252 -513,-259l-116 16c-60,-69 -131,-79 -198,-122 -5,-3 -10,-7 -14,-10 -6,-4 -115,-114 -180,-90l-68 44c-24,17 -66,-10 -83,155 32,49 1066,639 1212,724l3646 2152 1 292c-79,1 -357,-182 -445,-234l-2627 -1546c-89,-54 -368,-231 -446,-244 -26,50 57,-8 -37,31 -81,-58 -117,-73 -207,-86 49,53 41,85 55,130l182 66c5,2 11,6 15,9 20,12 22,7 42,34l-134 166c317,156 1789,1056 2252,1323 111,64 212,136 323,180l-1 317c-232,-69 -1210,-746 -1356,-760l-128 -31c-49,131 42,19 -43,282 50,5 43,-17 43,22l-2217 0 -45 68c-92,128 -324,135 -408,116 192,87 413,239 626,359l1861 1073c54,31 2435,1378 2495,1455 138,30 3181,1860 3376,1933 58,21 89,23 156,16 73,-7 87,-19 136,-53 4,-3 11,-8 17,-12 -65,-45 -42,49 -8,-117l35 -9646 0 -861 -3329 -1916c-514,-291 -1096,-628 -1667,-963 -161,-95 -1549,-912 -1680,-953 54,88 18,6 43,91 -28,-65 -24,1 23,31 59,39 97,29 129,40 48,16 16,0 54,29 5,4 15,16 20,20 104,85 61,12 122,97 -3,3 26,118 -122,-2 -23,-19 -96,-153 -223,9l-97 -15c-71,-32 -1434,-13 -1514,-13l-3 41c-1,8 -1,13 -2,22l-16 121c-112,-18 -85,-48 -174,-119 -66,17 -147,43 -196,87 96,35 43,31 50,74z"/>
   <path class="fil3" d="M19240 30976c-27,20 -268,143 -295,150 -89,23 -229,-56 -362,-58 -239,-4 -495,123 -677,210 -373,180 -1049,288 -1492,90 85,-280 362,-176 497,-182 228,-9 391,-82 572,-158 168,-70 331,-164 512,-207 284,-69 409,-16 669,-22 32,-411 435,-415 841,-640 167,-93 184,-110 184,-314 124,-18 243,-75 374,-65 60,129 168,244 44,439 -74,116 -205,201 -330,259 -200,91 -648,224 -589,394 20,58 31,21 52,104zm-499 -1669c-522,-51 -577,-16 -1134,236 -529,240 -638,104 -958,137 -34,182 -27,211 -163,308 -146,106 -479,219 -675,325 -142,76 -188,105 -184,312l-345 87c-274,-278 -93,-538 226,-703 134,-70 268,-116 407,-181 351,-164 193,-213 151,-329 371,-266 445,-100 670,-96 625,9 871,-645 2163,-303 -37,105 -93,121 -158,207zm-3139 3007c114,13 2723,1547 3054,1742 246,144 532,371 903,307 266,-46 2153,-1263 2295,-1273 63,-78 613,-375 699,-426 586,-345 1431,-852 2043,-1175l51 -33c-138,6 -475,-228 -624,-312l-8226 -4749c-125,-72 -229,-105 -257,-191l-4495 2623c-699,398 -724,425 92,881 212,119 394,235 632,369l3208 1852c99,59 566,296 625,385z"/>
   <path class="fil2" d="M36827 13665c62,13 1087,613 1127,659 29,72 25,227 -1,319l-990 -591c-191,-107 -146,-113 -136,-387zm-3 -1922l-5 -302c121,26 985,563 1141,656l5 303c-85,-16 -1044,-578 -1141,-657zm-5 -1044c114,23 967,556 1145,656l0 301c-90,-8 -481,-259 -587,-321 -144,-85 -416,-227 -560,-331l2 -305zm-1 -1484c173,51 876,532 1138,650l2 305c-116,-22 -981,-546 -1142,-643l2 -312zm-1508 -136c98,22 862,469 908,527 25,73 16,200 13,296 -101,-24 -369,-198 -468,-257 -155,-91 -307,-184 -452,-262l-1 -304zm1502 -602c125,27 469,258 595,329 158,88 414,233 554,333l0 291c-131,1 -939,-563 -1145,-636l-4 -317zm-1502 -1633c60,11 801,462 918,533l-3 301c-96,-19 -792,-447 -923,-528l8 -306zm-1488 3604l77 63c24,14 41,21 69,37l1639 949c234,132 355,261 278,621l-611 3168 65 -42c174,78 400,232 564,323 201,112 363,208 580,335 185,108 387,227 578,335 196,111 394,219 585,341 84,19 316,12 408,-116l45 -68 2217 0c0,-39 7,-17 -43,-22 85,-263 -6,-151 43,-282l128 31 -1443 -868c-158,-89 -318,-206 -488,-291l-1 -302c116,22 557,313 714,401l134 -166c-20,-27 -22,-22 -42,-34 -4,-3 -10,-7 -15,-9l-182 -66c-14,-45 -6,-77 -55,-130 90,13 126,28 207,86 94,-39 11,19 37,-31 -67,-88 -196,-135 -294,-190l-2192 -1300 -3 -299c148,26 900,555 1148,645 17,-165 59,-138 83,-155l68 -44c65,-24 174,86 180,90 4,3 9,7 14,10 67,43 138,53 198,122l116 -16 -102 -85c-315,-189 -1554,-894 -1704,-1006l-1 -302c114,24 814,465 977,560 159,93 876,532 989,564 105,-32 -44,-68 290,-13 68,12 116,27 160,76l34 55c14,24 27,44 45,81l44 -131c174,37 43,-33 204,81 60,44 103,53 188,37 -45,-58 -68,-62 -145,-104 -50,-28 -97,-56 -151,-89l-942 -556 -8 -307c121,27 2014,1161 2278,1319 250,151 504,307 776,456l60 13c5,-11 20,-45 24,-51l41 -60c14,0 129,-1 132,-1 47,14 16,-6 47,28 40,43 11,32 38,82l88 -19c6,-2 12,-3 18,-6 132,-64 13,-105 8,-110 -80,-77 -149,-104 -233,-50 -4,-137 3,-40 -48,-137l-2415 -1420c-281,-163 -553,-340 -808,-476l-5 -309c121,28 2569,1494 2769,1609 467,268 901,531 1369,805 234,137 458,265 683,403l716 407c17,-106 -7,-56 -64,-106 -76,-65 -8,-13 -55,-65 -56,-62 -126,-40 -205,-87 -33,-20 -43,-34 -97,-61l-60 -26c-56,-23 -150,-27 -111,-200 27,-122 -5,-31 37,-87 66,79 168,81 261,65 18,29 33,28 0,0 85,-43 11,-82 1,-155 -9,-65 -1,-207 -1,-279l-98 -44c-54,-23 -14,5 -71,-49 -102,-96 -107,-12 -201,-70 23,-136 46,0 98,-142 -222,11 40,54 -166,51 -94,-1 -40,-41 -106,-116 -186,27 3,6 -129,56 95,120 593,324 623,401l3 287c-113,-13 -713,-401 -865,-484 -146,-80 -265,-162 -424,-250 -696,-388 -1452,-870 -2162,-1270 -874,-493 -2101,-1224 -2997,-1765 -153,-93 -297,-176 -436,-254l-5 -314c115,39 283,150 386,211 133,79 255,154 382,226 1281,727 2542,1518 3833,2254 167,95 1422,852 1552,902 1,-2 8,-26 7,-31 -6,-73 17,-2 -8,-48 -36,-64 2,-18 -71,-52 -6,-3 -25,-10 -32,-12 -5,-3 -10,-5 -15,-7l-242 -171c-53,-115 -45,-76 -51,-179 38,5 227,50 247,63l67 72c1,2 5,6 7,7 2,2 6,6 8,8l-70 65c205,25 61,36 176,83 57,23 84,0 86,-59l84 -12c-63,-81 -3572,-2124 -4056,-2404 -186,-108 -409,-251 -591,-344l-12 -315c118,30 1041,591 1217,697 269,161 3491,2074 3640,2124 -6,-39 -9,-22 3,-63l41 -95c-55,-13 -110,-52 -152,-22l-19 -158c13,-107 7,-35 19,-38 129,20 -53,14 106,91 62,30 53,-20 150,47 55,37 7,32 123,80 56,23 90,38 121,86l110 -14c-74,-92 -5351,-3165 -5356,-3167l-1 -308c142,40 2090,1213 2296,1332 212,123 2145,1283 2299,1337 -30,-159 -8,1 -52,-107l-13 -51c179,204 345,-107 369,174 52,-12 5,-5 65,-40l65 -36c-15,39 -43,33 196,33 0,-141 25,-294 -41,-370l5 331c-127,-43 -3340,-1949 -3451,-2015 -604,-355 -1103,-657 -1710,-1008 -276,-160 -1485,-889 -1719,-1002l1 -314c111,32 1016,580 1182,679l2327 1369c195,114 399,228 588,342 132,80 462,294 593,336 -3,-43 -13,-50 -18,-59l-40 -56c-128,-163 -69,-44 -303,-167 153,-128 75,36 362,-73 20,-8 49,-18 72,-25 -63,99 -99,65 -86,206l130 -9c11,-124 0,-131 -44,-208 123,38 40,47 155,29l-5646 -3339c-893,-526 -793,-362 -783,-769 90,21 1049,603 1220,700 154,87 1114,676 1236,715 -7,-43 46,-39 -50,-74 49,-44 130,-70 196,-87 89,71 62,101 174,119l16 -121c1,-9 1,-14 2,-22l3 -41c80,0 1443,-19 1514,13l97 15c127,-162 200,-28 223,-9 148,120 119,5 122,2 -61,-85 -18,-12 -122,-97 -5,-4 -15,-16 -20,-20 -38,-29 -6,-13 -54,-29 -32,-11 -70,-1 -129,-40 -47,-30 -51,-96 -23,-31 -25,-85 11,-3 -43,-91 -21,-55 -268,-171 -346,-215l-4010 -2316c-343,-195 -1199,-715 -1451,-837 35,228 -5,6870 -5,6871 -6,71 13,32 -30,52z"/>
   <path class="fil3" d="M38536 22605c1021,-189 2444,1219 2388,2526 -44,1011 -1063,1172 -1977,521 -320,-228 -583,-524 -790,-862 -220,-359 -388,-771 -368,-1290 18,-492 290,-811 747,-895zm1045 5307c55,-4 3032,1727 3551,2030 113,66 345,244 488,169 84,-45 17,0 53,-52 -102,25 -32,16 -53,-17 66,-268 13,-1454 18,-1826 7,-620 3,-1240 5,-1860l1 -2957 -990 -563c-549,-318 -6812,-3912 -6838,-3964 -19,-142 -15,-406 6,-549 -24,29 -13,8 -31,52 -20,51 0,-14 -12,40 -7,29 -6,77 -6,108 0,322 2,179 33,436l-11 6041c0,711 -46,691 614,1059 981,548 2070,1225 3044,1757l128 96z"/>
   <path class="fil4" d="M6195 10914c-1,353 15,1104 -2,1414 -195,106 -1021,619 -1148,636l-6 -1134c0,-223 15,-272 -172,-156 -86,53 -213,151 -316,147 -21,-128 669,-1531 776,-1751 89,-180 170,-416 274,-571 115,24 210,159 306,251 141,137 772,727 815,820 -28,63 -45,61 -118,102l-409 242zm-2451 -388c-590,83 -1126,677 -1367,1028 -353,515 -571,1058 -571,1846 -732,362 -1213,1443 -925,1985 75,141 89,91 34,116 48,69 -11,25 156,87 71,26 94,43 191,48 321,18 676,-253 982,-434 130,-77 1123,-671 1206,-671 55,-88 325,-213 434,-275 158,-91 284,-167 441,-255 1149,-645 2342,-1378 3471,-2005 293,-163 587,-310 801,-569 355,-429 736,-1342 295,-1728 -132,-116 -139,-124 -200,-139 -36,46 35,18 -83,35l-283 46 -19 -51c-16,-60 -64,-232 -16,-249 -4,-5 -10,-11 -13,-15l-54 -69c-56,-92 -50,-125 -158,-231 -58,-56 -97,-69 -148,-112 -110,-92 -36,-77 -155,-104 -49,90 21,20 -68,48 -1,0 -58,4 -64,5 -256,9 -256,49 -366,53 -13,-84 -28,-156 -53,-233 -74,-236 -65,-158 -33,-193 -55,-66 -28,-5 -134,-158 -77,-112 -383,-372 -474,-384 -30,34 -19,42 -144,26 -162,-20 -284,-8 -443,36 -757,206 -1366,924 -1730,1574 -262,469 -229,584 -376,926l-134 16z"/>
   <path class="fil5" d="M29116 26868c22,-487 -117,-1201 900,-500 371,256 454,622 451,1044 -1,328 -32,195 157,348 35,311 40,1131 -88,1346 -329,555 -1268,-58 -1525,-950 -106,-370 -59,-931 -54,-1357l159 69zm-1904 -2471c-144,147 -79,1094 -148,1239 55,20 37,250 42,321 10,140 45,211 -22,287 43,3 47,-25 67,127 7,63 14,115 23,171 62,372 148,618 214,935 74,172 137,428 207,616 374,1009 861,1837 1459,2714l710 938c330,-1 723,-79 1007,-185 107,-40 680,-309 780,-407 -75,-56 -37,18 -14,-46 1,-4 24,-28 28,-32 442,-399 669,-826 816,-1444 132,-552 159,-1638 21,-2197 -244,-164 -549,-571 -747,-880 -148,-231 -455,-787 -532,-1083l-2333 -1355c-101,-60 -131,-109 -257,-33 -331,199 -643,435 -1059,413 -46,-2 -100,-7 -150,-18 -119,-26 -103,-55 -112,-81z"/>
   <path class="fil1" d="M3491 9023c69,-49 204,-289 264,-373 93,-132 183,-231 285,-346 364,-410 1072,-923 1701,-779 285,66 643,376 830,423 91,12 397,272 474,384 106,153 79,92 134,158 94,50 519,318 584,320 119,27 45,12 155,104 51,43 90,56 148,112 108,106 102,139 158,231l54 69c3,4 9,10 13,15 58,38 125,73 194,113 60,35 141,94 207,106 61,15 68,23 200,139 441,386 60,1299 -295,1728 -214,259 -508,406 -801,569 -1129,627 -2322,1360 -3471,2005 -157,88 -283,164 -441,255 -109,62 -379,187 -434,275 113,-2 167,-37 269,-22 143,21 8,44 260,5l0 -152c69,-12 53,-15 120,-22 -40,-74 -161,37 -26,-106 89,-95 532,-56 645,-57l0 -304 337 20c-21,-65 -50,-112 -11,-172 1,-1 -22,-38 62,-19 61,14 67,94 101,-45 48,-197 106,-110 113,-109 100,20 256,28 355,-1 0,-100 0,-207 10,-261 166,-58 316,-38 455,-96 7,-3 12,-5 19,-8 7,-3 13,-6 19,-9l40 -17c53,63 42,-85 43,87 60,-24 42,-30 -21,-44 52,-58 75,-40 76,-152l2776 -2c173,14 11,-15 76,65 44,54 -5,-26 49,26 100,-34 221,-110 301,-154 50,-28 110,-46 156,-68 60,-30 88,-57 147,-88l613 -292 -2 -2748c0,-7 2,-87 2,-89 20,-80 -21,-55 55,-75 94,-17 1864,-1056 2089,-1189 251,-148 1819,-1026 2012,-1160l63 -57 -4 -58c-109,30 -56,-21 -75,87 -125,-44 -133,-74 -250,0 2,-2 -25,-46 49,-4 58,34 28,-44 38,69 -52,40 -29,22 -87,27 -18,-128 -414,-121 -440,-119 -342,31 -3695,5 -4124,5 -383,0 -3536,23 -3800,-1 -333,-31 -332,72 -590,13 -84,-19 -46,-39 -152,-31 -90,7 -47,26 -152,41 36,-20 -29,-63 4,43 13,43 32,33 83,44 -57,64 7,54 -98,54l0 76c140,0 35,-14 76,65 -108,-13 -94,25 -210,24 -158,-3 -92,-64 -272,-2 -6,2 -21,9 -27,10 -3,1 -9,2 -12,2 -5,1 -19,-1 -25,-2 -25,-2 -102,-10 -149,-10 -37,72 -42,66 -43,152l39 16c4,1 13,4 18,5 13,3 55,0 62,1 -18,60 72,-53 -65,64 -17,15 -28,-4 -55,77l-150 -39c-35,38 -26,23 -54,70 -21,34 -17,31 -27,66l-35 151c-63,119 -168,41 -193,38 -24,-2 -8,-43 -106,29 17,105 -44,87 87,87l-65 87c0,-157 7,-57 -87,-87 0,59 9,89 11,132 6,92 38,25 -11,96 -7,0 -9,3 -41,-3l-49 -12c-83,-18 -76,-17 -171,-17 11,421 34,69 -22,248 -24,77 -5,92 -7,140 -5,111 -14,62 -36,177l55 -4z"/>
   <path class="fil5" d="M12145 14767c25,-520 -45,-4001 12,-4102l2336 -1361c170,-97 2253,-1333 2372,-1343 22,750 5,1530 5,2283l20 2194c-2,7 77,-19 -40,67l-1156 673c-389,224 -784,457 -1170,678 -387,220 -797,461 -1173,674 -185,104 -1079,654 -1201,675l-5 -438zm-507 1552l-3 1315c3,186 -5,146 -54,152 55,64 236,-73 372,-154l4685 -2705c228,-128 528,-291 728,-424 37,-223 -12,-5887 -12,-6584 0,-160 0,-319 0,-479 0,-98 43,-396 -31,-444 -10,58 -255,179 -317,214 -820,462 -1700,1000 -2507,1446 -498,276 -962,563 -1434,830 -153,86 -1308,769 -1447,819l20 6014z"/>
   <path class="fil5" d="M18299 4789c72,-395 -455,-671 -450,-1151 4,-359 266,-248 444,-123 147,104 255,275 259,550 -118,-23 -143,-60 -226,-100 -8,-163 -43,-309 -208,-294 -93,218 173,517 265,667 635,1031 -550,903 -539,10 84,18 160,63 220,115 22,175 25,351 235,326zm-1585 -2138c63,16 261,113 306,161 59,63 202,1097 201,1139 38,-196 104,-806 171,-931l322 182 -1 1499c-76,-14 -174,-76 -228,-116l-3 -870c-19,23 -13,10 -30,48l-122 710c-63,7 -210,-70 -235,-128 -40,-94 -89,-794 -166,-947l-11 870 -206 -107 2 -1510zm-856 -122c0,-375 274,-269 470,-114 184,146 251,320 242,643 -87,-23 -164,-79 -224,-112 -3,-115 21,-303 -113,-375 -209,-112 -129,303 -129,653 -1,231 -36,463 230,461l14 -287c76,10 153,60 216,109 29,175 13,325 -68,431 -282,66 -534,-214 -603,-413 -60,-170 -34,-773 -35,-996zm1578 3689c-36,-32 -24,-2 6,-47 19,-30 33,-37 53,-58 39,-40 59,-61 95,-101 58,-64 141,-170 211,-207 64,29 82,50 154,75 -20,50 13,11 -33,59 135,-45 308,106 528,223 232,124 1086,652 1286,665 113,8 235,-28 308,-112 -8,-13 62,-166 71,-241 12,-108 5,-247 5,-359 0,-623 32,-1673 4,-2194 -47,-863 -839,-1137 -1445,-1489 -628,-363 -1258,-719 -1873,-1059l-1637 -927c-167,-76 -197,-25 -262,-106 -369,213 -312,330 -314,820 -2,357 -32,2051 8,2267 56,299 247,592 409,742 153,142 482,308 699,432 233,133 497,285 732,418 123,69 211,123 360,205 135,75 119,99 226,339 62,138 113,251 176,390 31,68 56,125 86,195 44,106 44,174 147,70z"/>
   <path class="fil3" d="M15418 9832c477,-186 522,393 392,725 -111,284 -344,576 -596,665 -720,255 -550,-1094 204,-1390zm-3273 4935l1539 -2772c193,30 614,227 824,303 174,64 648,277 794,295 130,-124 659,-1024 761,-1092 90,40 735,546 795,606 5,112 16,294 -8,398 117,-86 38,-60 40,-67l-20 -2194c0,-753 17,-1533 -5,-2283 -119,10 -2202,1246 -2372,1343l-2336 1361c-57,101 13,3582 -12,4102z"/>
   <path class="fil4" d="M27388 27477c-66,-317 -152,-563 -214,-935 -9,-56 -16,-108 -23,-171 -20,-152 -24,-124 -67,-127 -309,110 -1976,1224 -2363,1303 -619,126 -1032,-234 -1615,-571 -1224,-706 -2515,-1438 -3734,-2156l-5607 -3237c-324,-187 -617,-360 -938,-540 -162,-91 -312,-182 -468,-272 -145,-83 -338,-219 -485,-267 19,87 4,52 -51,148 -225,399 246,608 534,773 346,199 642,386 991,597l5455 3280c814,474 1670,1027 2471,1485 308,177 659,410 989,598 322,183 650,387 993,592 335,200 659,400 963,581 341,203 535,396 858,196 76,-48 155,-92 246,-142 353,-192 676,-386 1003,-585 240,-147 845,-470 1002,-585l40 23c2,-7 13,7 20,12z"/>
   <path class="fil5" d="M45248 9370c232,-127 519,434 329,551 -227,139 -555,-427 -329,-551zm-784 -459c248,-117 535,495 300,568 -245,76 -520,-463 -300,-568zm-796 -446c224,-147 536,439 328,551 -243,131 -539,-412 -328,-551zm-9811 -4940c252,122 1108,642 1451,837l4010 2316c78,44 325,160 346,215 131,41 1519,858 1680,953 571,335 1153,672 1667,963l3329 1916c-64,-471 99,-752 -150,-1140 -144,-225 -516,-384 -755,-525 -540,-321 -1030,-600 -1625,-940 -1041,-594 -2180,-1269 -3240,-1870l-4874 -2817c-241,-142 -1489,-884 -1639,-901 51,-15 12,-16 41,-50 -203,72 -243,156 -242,416 1,209 4,419 1,627z"/>
   <path class="fil6" d="M26559 23524c-33,-79 -22,-9 -18,-87 245,-124 190,-154 454,-1 106,62 321,149 369,238l-61 70c109,5 43,-54 69,61 18,80 -79,129 -149,163 -135,67 -188,13 -297,-50 -84,-49 -569,-249 -367,-394zm-934 -748c88,20 54,-20 73,72 15,75 -95,133 -155,159 -135,58 -228,-20 -312,-68 -163,-95 -436,-200 -383,-324 19,-45 -51,-52 56,-45 -4,-6 -10,-14 -14,-18 -3,-4 -9,-12 -13,-16 -2,-4 -8,-11 -11,-14 -3,-4 -12,-16 -17,-21 29,-37 138,-114 196,-127 157,-37 627,300 646,322l-66 80zm1632 1585c166,-11 612,-392 876,-452 144,16 136,-9 274,-11 49,-132 446,-300 582,-379 233,-135 184,-81 245,-129 251,-198 391,-220 559,-329 419,-274 1003,-574 1446,-836 124,-73 365,-155 292,-344 -55,-143 -2452,-1406 -2659,-1584 -75,-65 22,-9 -106,-66l-511 -293c-5,171 11,19 -38,85l-40 419c174,-20 237,43 354,109 104,59 242,123 269,190l-60 69c79,11 49,-19 64,60 6,28 -8,79 -13,105l139 -81c57,-29 71,-34 143,-18 67,15 597,324 660,386 -11,47 0,34 -27,72 74,16 37,117 24,177 306,-149 215,-142 507,28 151,87 324,182 449,266 -16,34 -22,46 -41,77 64,5 38,50 35,135 -44,37 -186,128 -251,160 -130,65 -208,-16 -313,-53 -2,6 -4,13 -6,16 -2,4 -5,13 -7,18l-21 41c42,35 43,28 39,151 -88,67 -251,151 -351,210 -221,131 -217,83 -414,-23 20,59 18,47 -16,103l43 13 -6 126c-100,66 -223,136 -337,204 -230,138 -168,92 -399,8l-20 63c36,48 24,87 15,158 -115,83 -270,159 -394,234 -176,106 -288,-9 -433,-89 -169,-95 -690,-412 -804,-450l-54 70c63,47 38,-73 50,90 5,70 -12,56 -34,78 0,1 -119,72 -124,74 -160,69 -193,-27 -327,-67 13,56 6,51 -19,101l35 141c-224,159 -232,158 -488,13 -55,-30 -331,-175 -353,-219 -57,-118 42,-143 43,-143l-46 -66c220,-237 370,-68 474,-45 -10,-58 -35,-141 18,-164l-13 -74c85,-69 174,-148 310,-87 -16,-44 -28,-58 -27,-110 2,-119 -1,-53 36,-78 -8,-14 -23,-53 -24,-59 -10,-33 -3,13 -1,-41 -233,85 -131,177 -470,-12 -64,-35 -281,-134 -302,-204 -33,-116 44,-128 45,-128l-22 -37c-2,-4 -5,-13 -7,-18 -2,-4 -3,-9 -5,-18 -1,-10 -1,-13 -2,-19 -88,29 -142,88 -227,91 -89,3 -140,-55 -223,-89 -7,68 4,15 -26,56l-53 54c121,-7 47,-22 97,26 -5,147 -48,127 -273,261 -111,65 -205,125 -314,185 -173,94 -239,18 -372,-64 -102,-63 -221,-117 -306,-189 0,-84 -7,-104 30,-144 -30,-91 -30,-6 -1,-99 -285,99 -177,171 -481,-5 -106,-61 -288,-145 -303,-211 -34,-149 31,-99 75,-102l-71 -67c5,-5 17,-27 19,-31 2,-3 9,-7 11,-17 2,-11 7,-13 11,-19 -217,76 -191,195 -444,41 -111,-68 -277,-148 -364,-219 -4,-88 -35,-143 45,-141 -24,-31 -20,-32 -38,-70 28,-20 27,-44 32,-52 -216,95 -192,182 -432,44l-1901 -1098c-198,-114 -588,-312 -749,-440 -4,-51 -28,-146 31,-139l-34 -55 38 -58c-198,58 -191,176 -431,34 -136,-81 -256,-139 -368,-222l16 -150c-15,-65 -20,-38 22,-101 -224,65 -175,182 -427,35 -133,-78 -260,-139 -366,-221 -7,-66 -20,-103 13,-152 -18,-62 -23,-39 19,-100 -251,77 -186,177 -466,13 -227,-133 -346,-154 -334,-294 17,-87 -22,-31 61,-48 -4,-6 -10,-11 -14,-16l-23 -30c-29,-44 1,30 -21,-47 -108,37 -140,104 -264,80 -11,-2 -463,-231 -487,-293 -14,-34 -11,-46 1,-77 36,-93 -63,13 48,-57l-50 -77c113,-100 281,-176 437,-264 357,-203 269,-150 491,-28 -9,-46 -25,-70 -9,-118 23,-70 -32,-33 51,-41 -4,-5 -10,-11 -13,-14l-34 -43c-1,-7 -5,-9 -8,-13 42,-61 252,-170 345,-225 226,-135 192,-88 395,7 -1,-51 -7,-59 7,-104 22,-68 -52,-13 39,-48 -33,-61 21,-13 -39,-65 60,-80 235,-163 339,-223 109,-65 184,-114 311,-42l90 54c-2,-32 -9,-61 -2,-92 15,-70 -26,-39 40,-67 -5,-7 -11,-16 -14,-21l-27 -44c66,-76 221,-143 333,-209 276,-163 235,-72 408,3 -2,-37 -8,-60 -1,-96 16,-83 -30,-37 36,-63l-21 -91c166,-63 256,-236 471,-120 96,52 329,178 404,250 -5,6 -16,27 -18,30 -3,4 -10,23 -12,19 -2,-4 -7,14 -12,21 59,39 27,-11 42,63 13,60 2,46 -11,96 137,21 101,-196 435,-4 133,76 237,153 345,222l-76 75c84,7 77,-66 75,83 -1,62 -50,103 -50,104 103,-29 99,-91 201,-115 174,-42 578,250 608,297 -4,4 -10,9 -13,11 -2,3 -9,9 -13,12l-46 45c89,11 52,-25 71,62 5,18 -10,92 -12,109 212,-116 179,-168 425,-29 96,54 294,143 347,225l-44 54c-2,-4 -8,11 -12,17 84,16 35,-46 56,60 6,32 -5,77 -8,108 197,-112 200,-159 432,-18 104,62 272,138 334,214l-47 64c1,1 125,-19 29,159 -1,2 -4,65 -22,29 -2,-3 -9,9 -13,14 226,-85 183,-213 448,-58 113,66 260,132 363,226l-32 72c50,37 27,-59 39,80 3,34 -6,61 -12,94 204,-98 178,-161 413,-26 117,66 262,158 357,204 -12,57 -2,44 -25,86 46,49 24,103 11,181 229,-99 158,-181 430,-27 100,57 277,140 349,227 -27,28 -38,43 -58,71 76,8 42,-21 57,59 5,25 -6,74 -10,101 97,-33 99,-90 219,-92 126,-3 524,259 549,296 -25,50 -3,23 -50,75 71,7 24,-25 50,39 33,83 -83,166 -83,166 -2,-4 -9,8 -13,13 111,-35 141,-96 242,-135 0,123 -8,7 41,59l-60 -521 -43 -83c-59,-131 -29,-45 -255,-185 -113,-71 -220,-118 -336,-189 -639,-386 -1347,-769 -2011,-1161l-3532 -2033c-54,-24 -98,-59 -171,-88 -304,-121 -554,39 -796,184 -62,37 -117,57 -171,89l-1499 869c-228,126 -444,252 -668,377 -98,55 -212,123 -345,199 -266,152 -804,444 -977,575 -12,188 -23,200 256,346 70,36 99,64 174,107l3404 1960c138,71 220,136 357,207 867,453 1968,1150 2870,1652l1076 621c429,269 1315,765 1793,1034 238,134 503,293 718,412 117,65 240,148 353,211 373,205 151,74 411,146z"/>
   <path class="fil7" d="M22607 18633l-9 -155c167,40 408,269 549,267 137,-1 380,-232 544,-266l0 155c-90,60 -451,289 -544,290 -99,0 -448,-227 -540,-291zm-771 -598c156,43 425,275 550,272 135,-3 387,-236 545,-268 5,205 0,160 -261,312 -373,218 -267,158 -620,-34 -251,-135 -218,-111 -214,-282zm-3003 98l4 -117c128,48 440,268 530,272 133,7 399,-219 550,-268 16,219 -39,188 -190,277 -404,239 -314,215 -626,35 -78,-44 -233,-103 -268,-199zm1503 -99c168,37 405,255 534,264 127,9 390,-217 553,-266 1,220 -38,183 -190,272 -508,295 -284,194 -896,-116l-1 -154zm747 -444c113,51 435,271 524,279 149,12 386,-230 565,-265 5,209 -61,192 -211,276 -404,225 -269,231 -668,0 -157,-91 -237,-74 -210,-290zm-1881 -210c137,37 572,304 720,393 377,227 384,-101 749,-188l0 158c-680,428 -465,353 -1163,-34 -352,-195 -305,-108 -306,-329zm1111 -216c176,37 437,280 570,264 128,-16 379,-240 525,-273l1 156c-74,61 -177,109 -281,171 -326,195 -261,156 -621,-55 -155,-91 -200,-50 -194,-263zm335 -289c-86,59 -437,292 -543,289 -86,-2 -488,-243 -550,-282l0 -164c159,46 418,272 550,270 132,-2 385,-227 546,-272l-3 159zm-1804 -590c28,36 423,265 500,264 110,0 391,-219 532,-266l0 167c-605,329 -402,389 -1070,-6l-90 -54c-127,-72 -202,-23 -311,42 -104,60 -279,143 -339,223 60,52 6,4 39,65 101,89 535,313 685,402 306,182 277,-10 727,-207 5,151 22,163 -82,223 -311,180 -400,302 -617,173 -265,-159 -504,-296 -759,-439 -203,-95 -169,-142 -395,-7 -93,55 -303,164 -345,225 3,4 7,6 8,13l34 43c3,3 9,9 13,14 269,171 556,327 858,497 107,61 324,231 466,179 141,-53 301,-204 459,-254l2 168c-680,341 -263,462 -1384,-176 -65,-38 -372,-242 -443,-255 -222,-122 -134,-175 -491,28 -156,88 -324,164 -437,264l50 77c63,55 192,120 277,167 274,156 208,112 627,-122 90,-51 181,-118 295,-166 38,318 -253,241 -497,468 22,77 -8,3 21,47l23 30c4,5 10,10 14,16 35,39 212,133 273,167 94,54 190,130 319,60 164,-89 451,-292 617,-343l-5 170 -465 275c-42,61 -37,38 -19,100 152,67 444,324 621,243 196,-90 420,-284 624,-350 5,117 16,112 -29,204 143,-10 120,-63 228,-84 68,-13 68,-3 106,15 26,12 31,31 119,47l-10 -130c119,-72 365,214 534,225 140,10 383,-219 555,-258 3,119 11,101 -34,194 97,-17 124,-81 226,-95 55,-8 75,5 106,21 53,29 30,38 123,55l-3 -182c100,44 444,270 528,275 132,8 399,-221 553,-265 4,155 22,153 -103,223 -77,43 -144,88 -234,120 8,100 -26,72 57,98 692,426 436,260 1050,-17l1 170c-111,67 -241,142 -356,212 -262,157 -201,61 -420,-9 -11,34 -16,47 -28,77 81,30 43,-65 58,91 5,49 -15,72 -28,100 196,-8 159,-157 316,-82 4,2 9,5 13,7 116,63 0,39 120,61l20 -157c101,6 353,216 463,242 135,33 411,-168 525,-236 83,-1 71,-28 77,-106l-354 -191 1 -167c129,52 431,265 529,274 110,10 433,-208 530,-266 48,-43 22,61 33,-82 -106,-35 -265,-139 -352,-193l0 -162c128,49 308,169 423,235 175,101 324,-44 453,-115 23,-42 13,-29 25,-86 -95,-46 -240,-138 -357,-204 -235,-135 -209,-72 -413,26 -204,64 -256,266 -524,88 -360,-238 -372,-134 -368,-386 502,206 379,418 865,124l32 -72c-103,-94 -250,-160 -363,-226 -265,-155 -222,-27 -448,58 -165,45 -240,215 -450,82 -122,-78 -267,-165 -392,-238l-3 -156c263,56 428,361 667,231 69,-38 148,-73 184,-121l47 -64c-62,-76 -230,-152 -334,-214 -232,-141 -235,-94 -432,18 -161,9 -238,256 -478,113 -73,-44 -150,-94 -217,-132 -217,-125 -204,-87 -199,-272 113,30 303,162 418,225 165,90 316,-20 428,-102 4,-6 10,-21 12,-17l44 -54c-53,-82 -251,-171 -347,-225 -246,-139 -213,-87 -425,29 -161,-5 -231,279 -513,85 -88,-60 -152,-96 -246,-148 -143,-77 -138,-68 -129,-241 251,115 578,452 829,133l46 -45c4,-3 11,-9 13,-12 3,-2 9,-7 13,-11 -30,-47 -434,-339 -608,-297 -102,24 -98,86 -201,115 -175,37 -231,222 -447,85 -139,-87 -262,-156 -411,-243l7 -158c334,116 429,356 653,239 49,-26 139,-72 173,-110l76 -75c-108,-69 -212,-146 -345,-222 -334,-192 -298,25 -435,4 -29,29 -166,110 -200,129 -87,49 -154,70 -266,10 -128,-69 -284,-183 -412,-248 -173,-75 -132,-166 -408,-3 -112,66 -267,133 -333,209l27 44c3,5 9,14 14,21z"/>
   <path class="fil8" d="M15540 26204c28,86 132,119 257,191l8226 4749c149,84 486,318 624,312 185,-203 1012,-404 781,-717 -75,-103 -6510,-3782 -7067,-4102 -450,-259 -877,-519 -1351,-781 -286,-158 -502,-198 -810,-23 -147,83 -551,344 -660,371z"/>
   <path class="fil8" d="M34098 2482c-29,34 10,35 -41,50 150,17 1398,759 1639,901l4874 2817c1060,601 2199,1276 3240,1870 595,340 1085,619 1625,940 239,141 611,300 755,525 249,388 86,669 150,1140l0 861 9 -864c205,-156 479,-257 687,-406l10 -261c-47,-323 111,-705 -298,-1049 -126,-106 -5727,-3317 -5890,-3411 -1108,-642 -2233,-1280 -3362,-1941l-2521 -1456c-224,-129 -285,-69 -469,40 -87,51 -371,200 -408,244z"/>
   <path class="fil5" d="M8540 22723c183,91 440,417 549,601 52,87 387,726 279,839 132,199 18,1067 -693,884 -412,-107 -742,-487 -934,-789 -391,-617 -531,-1685 150,-1763 225,-26 544,110 649,228zm-1688 -886c114,56 41,145 3,214 -43,77 -72,155 -91,240 -86,-17 -307,-134 -351,-209 -35,63 -24,167 -23,245l2 786c276,185 373,45 522,786l-242 141c37,120 242,443 303,550 89,153 227,359 298,525 134,-31 164,-108 298,-119 60,108 207,250 297,332 162,149 71,169 98,510 139,91 310,182 467,273 136,78 410,276 454,199 -85,27 -19,11 -43,-6l3 -366c98,7 155,28 261,30 133,3 195,-21 189,118 72,36 74,72 118,151l106 163c81,-22 586,-307 655,-365 -44,-7 -47,-2 -97,-93 -32,-60 -47,-88 -78,-140 -76,-130 -126,-152 -59,-252l121 -305 257 148 110 37 1 -996c-100,-81 -245,-132 -342,-214 -36,-30 -175,-524 -184,-593l233 -122c-15,-122 -493,-874 -590,-1075 -126,19 -161,79 -266,119 -33,-18 -277,-279 -315,-319 -70,-72 -107,-79 -109,-205 -8,-423 93,-264 -438,-575 -122,-71 -304,-209 -450,-242l0 125 1 271 -385 -34c-66,-37 -264,-384 -270,-457l-633 366c31,134 142,211 169,358z"/>
   <path class="fil9" d="M11874 20504c147,48 340,184 485,267 156,90 306,181 468,272 321,180 614,353 938,540l5607 3237c1219,718 2510,1450 3734,2156 583,337 996,697 1615,571 387,-79 2054,-1193 2363,-1303 67,-76 32,-147 22,-287 -5,-71 13,-301 -42,-321 -241,116 -694,400 -966,554 -322,182 -641,372 -962,560 -759,444 -1136,115 -1679,-191 -170,-95 -324,-184 -483,-276l-3843 -2222c-1273,-749 -2578,-1472 -3858,-2226l-2893 -1672c-158,-89 -315,-179 -482,-278 -196,-116 -272,-128 -354,-368 14,192 -38,459 2,654 47,224 245,225 328,333z"/>
   <path class="fil4" d="M22187 22504c29,-234 -81,-210 -236,-308 -107,-68 -237,-137 -343,-197l-686 -402c-102,-69 -235,-133 -347,-198 -390,-225 -1004,-558 -1363,-787 -231,-147 -508,-324 -787,-182l-351 191c-118,71 -231,132 -341,203 -92,59 -248,133 -353,190 -971,528 -884,440 -119,896 557,333 1586,940 2056,1184 106,55 218,132 343,198 117,62 219,141 348,200 341,157 785,-193 1160,-403 116,-64 241,-137 347,-199 222,-130 487,-249 672,-386z"/>
   <path class="fil9" d="M11581 17786c49,-6 57,34 54,-152l3 -1315c-52,-79 -12,-5366 -31,-5988 -109,-113 -390,-244 -554,-337 -138,-79 -441,-241 -554,-347l-18 36c-39,127 1,5249 1,5581 0,611 -22,1278 6,1882l545 323c172,103 366,222 548,317z"/>
   <path class="fil8" d="M22190 4094c32,86 153,114 313,210l4918 2840c2576,1511 5264,3036 7853,4533 299,173 350,270 274,681l-1501 7806c-114,576 -241,1173 -338,1750 31,39 -12,12 61,17 82,-83 218,-82 263,-217l250 -1292c116,-571 222,-1142 331,-1709 218,-1140 421,-2291 660,-3427l611 -3168c77,-360 -44,-489 -278,-621l-1639 -949c-28,-16 -45,-23 -69,-37l-77 -63c-102,-18 -3890,-2238 -4344,-2493 -474,-267 -946,-540 -1448,-833 -978,-572 -1947,-1114 -2893,-1671l-2177 -1257c-103,-60 -259,-161 -358,-208 -202,-95 -259,84 -412,108z"/>
   <path class="fil7" d="M26746 21117c4,125 26,136 -71,196 -538,335 -417,301 -1010,-49l-4 -164c146,45 415,264 531,273 147,10 364,-215 554,-256zm-2583 -15c166,32 414,265 549,263 112,-1 385,-225 535,-266 0,142 27,146 -77,209 -548,334 -448,271 -791,70 -233,-138 -229,-78 -216,-276zm737 -437c133,37 441,271 550,270 123,-2 347,-205 536,-268 4,130 29,146 -74,209 -532,322 -434,281 -796,70 -173,-100 -214,-62 -216,-281zm-1499 -16c132,53 433,276 550,273 148,-4 382,-234 543,-271 10,223 -40,187 -213,290 -393,233 -306,206 -674,-8 -145,-84 -218,-62 -206,-284zm2789 -147c137,-1 387,-235 546,-267l-7 158c-686,526 -640,186 -1088,7l-2 -171c168,49 424,274 551,273zm-2051 -273c174,41 431,280 569,265 105,-11 376,-223 528,-275l-10 166c-637,409 -519,324 -896,107 -143,-83 -193,-56 -191,-263zm743 -429c159,34 423,266 547,265 108,-2 391,-220 534,-266 7,197 36,142 -224,294 -388,227 -289,185 -644,-19 -242,-139 -219,-90 -213,-274zm330 -449c6,231 -33,183 -210,288 -379,225 -288,225 -665,-1 -164,-98 -230,-66 -215,-289 103,43 454,277 546,276 102,-1 429,-234 544,-274zm-226 -571c-116,7 -284,266 -506,88 -32,-26 -21,-13 -29,-34 -11,143 15,39 -33,82 43,11 42,-37 34,154 -84,66 -442,300 -565,292 -62,-3 -160,-39 -175,-96 -6,78 6,105 -77,106 72,-8 30,-9 69,21l-1 123c-613,307 -386,356 -773,183l0 69c65,42 28,-52 46,82 4,31 -6,78 -9,108 126,-20 161,-74 240,-64 42,4 65,26 97,43 91,51 -14,26 93,36l-15 -195c126,49 408,278 548,275 124,-2 403,-235 544,-271 4,183 10,161 -117,232 -507,287 -346,278 -666,124 -3,25 -10,63 -14,79 60,45 27,-8 47,70 21,83 -40,123 -95,152 -522,275 -320,283 -677,130 -5,40 -7,45 -22,83 31,19 72,-58 58,110 -8,86 -61,80 -185,155 -109,66 -185,109 -281,163 -5,8 -4,32 -32,52 18,38 14,39 38,70 73,57 192,108 278,162 396,248 354,-69 934,-279l7 169 -456 267c-4,6 -9,8 -11,19 -2,10 -9,14 -11,17 -2,4 -14,26 -19,31l71 67c69,63 179,111 256,155 125,73 186,135 339,48 154,-87 430,-282 592,-327 -1,218 -36,177 -206,277 -69,41 -230,120 -272,165 -29,93 -29,8 1,99 74,48 178,103 262,152 96,57 192,145 325,100 49,-16 525,-301 551,-327l53 -54c30,-41 19,12 26,-56 -85,-69 -227,-146 -321,-188l-5 -174c108,46 442,273 531,279 124,8 384,-212 551,-269 12,297 -96,162 -306,350 1,6 1,9 2,19 2,9 3,14 5,18 2,5 5,14 7,18l22 37c37,47 424,267 499,266 113,-2 385,-218 533,-268l3 169 -308 177c-2,54 -9,8 1,41 1,6 16,45 24,59l366 210 10 -322 -18 -361c-43,-21 -18,-8 -50,-26 -24,-14 -28,-17 -56,-35l-308 -190 -8 -154c149,41 263,163 401,203l-2 -196 -24 -491c-82,-36 -178,-103 -255,-148 -135,-77 -146,-58 -141,-238 126,25 247,144 384,192l-10 -234 -23 -471c-123,-38 -277,-149 -371,-199l2 -158c139,33 209,135 358,175l-32 -346c-49,-52 -41,64 -41,-59 -101,39 -131,100 -242,135 -211,47 -160,217 -472,9 -310,-208 -339,-110 -336,-358 133,43 290,156 419,231 173,101 297,-33 435,-100 47,-52 25,-25 50,-75 -25,-37 -423,-299 -549,-296 -120,2 -122,59 -219,92 -222,71 -250,268 -517,94 -80,-52 -156,-99 -231,-140 -129,-70 -150,-61 -145,-235 100,20 318,163 419,221 166,95 290,-15 427,-100 20,-28 31,-43 58,-71 -72,-87 -249,-170 -349,-227 -272,-154 -201,-72 -430,27z"/>
   <path class="fil8" d="M14653 7216l-63 57c-193,134 -1761,1012 -2012,1160 -225,133 -1995,1172 -2089,1189l10 25c113,106 416,268 554,347 164,93 445,224 554,337 19,622 -21,5909 31,5988l-20 -6014c139,-50 1294,-733 1447,-819 472,-267 936,-554 1434,-830 807,-446 1687,-984 2507,-1446 62,-35 307,-156 317,-214 -61,-65 -73,-31 -129,-108 -106,-11 -878,-511 -945,-528 -157,-41 -1431,840 -1596,856z"/>
   <path class="fil9" d="M46340 11586l-35 9646c-34,166 -57,72 8,117 30,-42 367,-225 447,-271 265,-155 255,-123 264,-489 13,-502 3,-1019 2,-1522l18 -6041c0,-985 -13,-1995 2,-2971l-10 261c-208,149 -482,250 -687,406l-9 864z"/>
   <path class="fil10" d="M39028 24819l-5 -1196c65,24 1003,1009 1032,1070l-1027 126zm-492 -2214c-457,84 -729,403 -747,895 -20,519 148,931 368,1290 207,338 470,634 790,862 914,651 1933,490 1977,-521 56,-1307 -1367,-2715 -2388,-2526z"/>
   <path class="fil11" d="M26664 16906c128,274 -195,1501 -33,1938 91,14 97,43 157,81 52,33 118,47 175,67 567,192 1121,-57 1266,-60 68,-135 7,-380 -2,-555 -78,-868 -127,-853 40,-1693 98,-491 559,-698 855,-1031 127,-144 402,-544 508,-742 60,-72 225,-298 229,-403 -110,-47 -132,-123 -285,-140l-293 328c-65,109 -223,270 -311,371 -138,158 -155,200 -333,318 -276,181 -550,351 -977,333 -150,-11 -336,-38 -445,-105 -115,-13 -105,-67 -161,-170 -103,-189 -339,-403 -252,-672 27,-87 198,-323 270,-365 175,-101 327,-73 553,-81l-213 -17 120 -458c-1,-105 -13,-87 -102,-129 -59,-28 -113,-50 -204,-40 -80,226 -209,484 -312,722 -171,396 -487,1196 -397,1621 54,254 129,614 147,882z"/>
   <path class="fil12" d="M12145 14767l5 438c122,-21 1016,-571 1201,-675 376,-213 786,-454 1173,-674 386,-221 781,-454 1170,-678l1156 -673c24,-104 13,-286 8,-398 -60,-60 -705,-566 -795,-606 -102,68 -631,968 -761,1092 -146,-18 -620,-231 -794,-295 -210,-76 -631,-273 -824,-303l-1539 2772z"/>
   <path class="fil13" d="M14907 340c65,81 95,30 262,106l1637 927c615,340 1245,696 1873,1059 606,352 1398,626 1445,1489 28,521 -4,1571 -4,2194 0,112 7,251 -5,359 -9,75 -79,228 -71,241 91,-21 434,-239 536,-299 229,-135 211,-310 211,-627 -1,-572 7,-1145 5,-1717 -3,-654 10,-960 -363,-1350 -159,-167 -270,-221 -499,-348l-2746 -1557c-351,-201 -740,-411 -1096,-622 -748,-441 -660,-19 -1185,145z"/>
   <path class="fil5" d="M29238 13565c-165,-31 -200,5 -199,-162l314 51c-59,-49 -113,-115 -181,-173 -100,-85 -170,-110 -113,-223 114,79 189,162 282,250 186,175 205,168 198,310 -104,-10 -196,-34 -301,-53zm-824 -105c24,-156 328,-636 402,-839l136 79c-10,84 -361,773 -417,830l-121 -70zm-84 -700l-309 -54c181,182 316,240 315,402 -60,-22 -243,-191 -291,-243 -198,-214 -225,-139 -205,-325l497 101 -7 119zm-897 294c0,353 -30,337 83,454 216,-95 89,-114 241,-117 -11,182 -190,225 -139,353 112,94 262,166 408,250l1255 702 293 -328c118,-252 89,-402 225,-513 108,39 -3,46 94,75 60,17 70,-13 94,-42 -62,-124 23,-1052 -25,-1290 -71,-354 -388,-451 -681,-621l-1690 -935c-179,73 -152,174 -151,397 0,182 0,362 -3,543 -7,355 11,719 -4,1072z"/>
   <path class="fil14" d="M43190 22899c-219,61 -329,-252 -244,-335 102,-99 310,117 244,335zm-759 -463c-77,-287 231,-191 276,27 56,268 -223,171 -276,-27zm-478 -449c227,-68 329,287 218,347 -113,61 -298,-168 -218,-347zm-6131 -3664c-21,143 -25,407 -6,549 26,52 6289,3646 6838,3964l990 563c-21,-782 32,-705 -572,-1046l-1020 -587c-646,-397 -1375,-792 -2040,-1178l-3816 -2203c-210,-125 -230,-87 -229,-179 -72,35 -103,52 -145,117z"/>
   <path class="fil9" d="M915 15501c55,-25 41,25 -34,-116 -288,-542 193,-1623 925,-1985 0,-788 218,-1331 571,-1846 241,-351 777,-945 1367,-1028 34,-18 27,-8 61,-23l52 -27c-93,-29 -296,-155 -396,-213 -133,-79 -238,-151 -377,-215 -645,8 -1233,660 -1474,999 -387,542 -592,1057 -604,1895 -717,263 -1358,1700 -785,2146 146,114 605,318 694,413z"/>
   <path class="fil15" d="M20356 18904c173,42 423,267 552,265 120,-3 384,-227 534,-266 5,139 24,147 -77,209 -102,63 -390,245 -474,236 -70,-8 -235,-120 -315,-165 -156,-89 -225,-69 -220,-279zm-1206 -250c-57,1 -410,214 -436,241 -42,63 -37,36 -22,101 283,113 432,345 642,234 187,-99 414,-269 606,-341 7,225 -25,183 -193,278 -99,56 -201,106 -272,167l-38 58 34 55c117,50 305,168 427,240l1295 747c271,152 571,322 855,494 244,147 230,116 463,-19 79,-46 391,-215 419,-257 15,-38 17,-43 22,-83 -89,-153 -320,-34 -311,-356 137,50 423,265 529,272 97,6 465,-218 507,-268 4,-16 11,-54 14,-79 -36,-50 -229,-154 -294,-165 -107,-10 -2,15 -93,-36 -32,-17 -55,-39 -97,-43 -79,-10 -114,44 -240,64 -127,-6 -405,309 -595,259 -52,-15 -229,-128 -295,-166 -174,-101 -208,-56 -200,-276 155,45 432,273 553,271 78,-2 205,-92 265,-127 54,-30 214,-104 235,-151l0 -69c-22,-38 -246,-171 -303,-176 -120,-22 -4,2 -120,-61 -4,-2 -9,-5 -13,-7 -157,-75 -120,74 -316,82 -180,31 -403,314 -596,228 -71,-32 -190,-109 -277,-159 -142,-81 -192,-55 -186,-269 154,51 426,264 531,270 80,6 442,-197 498,-261 12,-30 17,-43 28,-77 -31,-51 -102,-76 -162,-111 -53,-29 -102,-62 -159,-98 0,-28 -3,-72 5,-99 17,-62 -26,-34 41,-48 -83,-26 -49,2 -57,-98l-66 56c-138,85 -193,53 -316,-29 -108,-72 -246,-176 -359,-198 -93,-17 -70,-26 -123,-55 -31,-16 -51,-29 -106,-21 -102,14 -129,78 -226,95 -160,14 -346,264 -541,238 -123,-16 -394,-252 -504,-269 -88,-16 -93,-35 -119,-47 -38,-18 -38,-28 -106,-15 -108,21 -85,74 -228,84z"/>
   <path class="fil16" d="M27319 21646l8 -270c235,10 213,213 222,289 22,173 38,342 44,525 -88,-21 -149,-59 -226,-104 -122,-70 -79,-109 -74,-270l214 -127 5 -139 -193 96zm30 -432c5,-342 -2,-336 138,-356l29 433c-91,-17 -99,-43 -167,-77zm-700 -2103l60 521 32 346 11 182 23 471c64,112 21,288 22,428l24 491c3,6 7,8 8,20 5,38 35,22 20,170 -9,95 -9,112 -5,208l18 361 22 0c103,32 24,60 175,68 129,7 149,-26 226,-76l-16 -108c120,40 232,117 331,175l14 411 27 29c188,54 244,4 397,-49l-11 -101c40,-189 -41,-320 35,-412 -18,-398 26,-404 8,-636l14 -172c22,-73 6,-26 22,-52 47,-167 144,36 143,-270 -71,29 -46,32 -134,50l3 -185 32 -237 27 -302 40 -419c18,-321 73,-784 12,-1091 -145,3 -699,252 -1266,60 -57,-20 -123,-34 -175,-67 -60,-38 -66,-67 -157,-81l18 267z"/>
   <path class="fil8" d="M35967 18206c-1,92 19,54 229,179l3816 2203c665,386 1394,781 2040,1178l1020 587c604,341 551,264 572,1046l-1 2957 14 -2921c17,-83 371,-253 444,-272 0,-108 -11,-208 -11,-315 -1,-345 -16,-446 -386,-649 -120,-66 -818,-456 -845,-499 -139,-52 -319,-173 -451,-248 -721,-413 -5893,-3428 -5987,-3445 -134,-25 -334,147 -454,199z"/>
   <path class="fil13" d="M8614 20800c-23,28 -9,14 -38,38 -104,87 -512,277 -574,338 -9,9 -24,25 -32,32 146,33 328,171 450,242 531,311 430,152 438,575 2,126 39,133 109,205 38,40 282,301 315,319 105,-40 140,-100 266,-119 97,201 575,953 590,1075l-233 122c9,69 148,563 184,593 13,-17 23,-36 51,-56l351 -195c174,-116 562,-304 681,-414 17,-162 -101,-405 -147,-563l242 -135c-19,-94 -552,-1020 -616,-1087 -88,29 -157,107 -260,124 -119,-113 -249,-324 -391,-395 -134,10 -70,12 -157,63 -52,31 -79,38 -141,76l-551 320c-77,43 -213,132 -286,151l5 -412c67,-50 183,-106 262,-152 259,-148 507,-328 781,-438l1 -87c-99,-88 -495,-297 -641,-380 -192,-108 -144,-115 -335,-4 -62,35 -235,158 -324,164z"/>
   <path class="fil4" d="M30681 24142c6,56 54,67 127,107l456 262c181,105 470,298 641,361 -34,-62 20,-14 -41,-69 236,-114 1209,-695 1499,-865 174,-102 311,-181 495,-289 166,-98 363,-173 456,-325 123,-199 33,-451 -137,-554 -147,-87 -331,-188 -496,-283 -136,-78 -379,-237 -518,-284 -14,536 5,490 -393,728 -228,136 -466,275 -700,407 -233,132 -468,269 -703,406 -226,133 -458,285 -686,398z"/>
   <path class="fil10" d="M6604 10672c73,-41 90,-39 118,-102 -43,-93 -674,-683 -815,-820 -96,-92 -191,-227 -306,-251 -104,155 -185,391 -274,571 -107,220 -797,1623 -776,1751 103,4 230,-94 316,-147 187,-116 172,-67 172,156l6 1134c127,-17 953,-530 1148,-636 17,-310 1,-1061 2,-1414l409 -242z"/>
   <path class="fil15" d="M22184 9765l44 -88c96,36 147,97 230,123l-62 393 -214 -105c67,187 98,122 212,131 5,0 11,0 16,1 51,10 74,25 90,75 8,24 7,19 14,49 31,121 -1,659 15,746 52,-64 48,-185 69,-263 207,59 2578,1602 2780,1655 -27,-74 -37,-87 -89,-120l-76 -159c101,-1 167,-16 231,25 3,2 8,7 11,9 5,3 17,14 22,18 3,2 9,6 12,9l56 44c25,20 164,-8 201,-39 -42,-59 -122,-97 -185,-136l-1338 -813c-144,-88 -1442,-859 -1536,-946l64 -374c126,33 650,381 799,471l1595 970c134,80 257,156 392,238 344,209 327,151 305,325 6,208 33,157 108,280 30,-97 9,-88 -18,-154 -44,-110 -3,-120 18,-146 140,-177 1,-33 41,-223 9,-41 -1,-36 11,-97 115,-5 156,23 258,-1 -24,-32 -4,-12 -35,-39l-2526 -1541c-149,-91 -774,-454 -859,-535l76 -398c-30,-48 2,0 -38,-27 -111,-76 -177,-196 -231,-314 -92,-3 -84,4 -173,-21 -30,30 -29,19 -50,58l104 84c35,22 66,40 92,57 -6,83 -43,320 -83,387l-230 -125 65 -396c-16,-45 -25,-37 -50,-65 -42,28 -36,28 -48,46l-25 49c-23,-25 -34,-39 -52,-70 -25,229 99,106 64,220l-37 43c-3,2 -11,6 -13,8 -2,2 -10,5 -14,8 15,190 17,210 112,294 114,102 39,-4 77,118 -82,6 -84,20 -173,20 -12,106 -4,140 -29,241z"/>
   <path class="fil14" d="M7273 17897c135,29 260,221 333,347 44,75 208,374 153,469 118,249 -68,624 -412,528 -461,-129 -854,-855 -712,-1279 115,-341 582,-229 638,-65zm-1010 -539l40 14c4,78 -46,157 -85,234 -72,-16 -147,-56 -193,-113 -11,20 -11,14 -18,55l-1 562c71,30 178,74 216,151 17,36 80,268 87,313l-134 76 347 630c102,-12 78,-42 179,-64 46,73 107,133 172,196 93,89 51,147 64,308l521 287 -3 -228 261 25 -10 65c70,28 37,0 88,80 26,40 36,67 52,98l408 -229c-77,-7 -129,-129 -148,-185 -36,-103 15,-62 75,-254l175 79c67,13 37,-17 40,-105 1,-47 -2,-107 -3,-155 0,-108 7,-218 -6,-324l-174 -100c-51,-42 -114,-279 -122,-359l128 -82c-26,-101 -285,-524 -349,-629l-175 66c-47,-81 -110,-137 -175,-201 -102,-98 -45,-136 -61,-310l-509 -277 -27 217 -220 -12c-44,-59 -141,-191 -142,-267l-373 208c13,109 67,118 75,230z"/>
   <path class="fil8" d="M3491 9023c-9,69 -179,381 -224,487 -74,178 -120,354 -183,538 139,64 244,136 377,215 100,58 303,184 396,213l-52 27c-34,15 -27,5 -61,23l134 -16c147,-342 114,-457 376,-926 364,-650 973,-1368 1730,-1574 159,-44 281,-56 443,-36 125,16 114,8 144,-26 -187,-47 -545,-357 -830,-423 -629,-144 -1337,369 -1701,779 -102,115 -192,214 -285,346 -60,84 -195,324 -264,373z"/>
   <path class="fil9" d="M9368 24163c-165,-90 -423,-421 -532,-608 -149,-255 -241,-494 -296,-832 -105,-118 -424,-254 -649,-228 -681,78 -541,1146 -150,1763 192,302 522,682 934,789 711,183 825,-685 693,-884z"/>
   <path class="fil12" d="M29873 28195l-4 329c-246,10 -128,-234 -164,-413 -20,-101 -213,-281 -103,-438 129,-183 419,154 405,365 -9,134 -58,105 -134,157zm-596 -1216c-87,-904 181,-770 628,-502 372,223 447,530 400,1075 -96,-12 -866,-497 -1028,-573zm-161 -111l-159 -69c-5,426 -52,987 54,1357 257,892 1196,1505 1525,950 128,-215 123,-1035 88,-1346 -189,-153 -158,-20 -157,-348 3,-422 -80,-788 -451,-1044 -1017,-701 -878,13 -900,500z"/>
   <path class="fil13" d="M28133 23909c-264,60 -710,441 -876,452 -22,33 36,30 -45,36 9,26 -7,55 112,81 50,11 104,16 150,18 416,22 728,-214 1059,-413 126,-76 156,-27 257,33l2333 1355c23,-55 143,-115 197,-143l664 -391 -79 -65c-171,-63 -460,-256 -641,-361l-456 -262c-73,-40 -121,-51 -127,-107 -124,-23 -480,-230 -554,-298 -114,-39 -370,-199 -476,-262 -274,-162 -204,-193 -480,-34l-702 413c-76,23 -258,14 -336,-52z"/>
   <path class="fil17" d="M43643 26356c-2,620 2,1240 -5,1860 -5,372 48,1558 -18,1826 21,33 -49,42 53,17 408,-287 407,-103 407,-518l9 -2715c0,-1211 -19,-2456 12,-3663 -73,19 -427,189 -444,272l-14 2921z"/>
   <path class="fil13" d="M32402 27434c138,559 111,1645 -21,2197 -147,618 -374,1045 -816,1444 -4,4 -27,28 -28,32 -23,64 -61,-10 14,46 740,-413 1212,-688 1555,-1496 302,-713 367,-1877 199,-2709 -137,30 -344,176 -463,250 -124,76 -295,189 -440,236z"/>
   <path class="fil7" d="M28791 20975c-105,11 -188,140 -319,149 -162,11 -212,-110 -354,-143l-3 185c88,-18 63,-21 134,-50 1,306 -96,103 -143,270l-9 253c97,45 448,282 549,281 134,-2 390,-234 545,-269 4,218 -18,177 -187,272 -68,38 -234,153 -297,168 -203,47 -452,-237 -623,-271l-7 234 181 -81 -1 162c-65,39 -128,84 -195,111 17,302 -117,166 552,547 334,190 219,102 726,-153 34,-56 36,-44 16,-103 -392,-238 -511,-206 -495,-453 106,40 209,117 311,172 99,53 185,112 288,169 170,95 495,-126 622,-226l21 -41c2,-5 5,-14 7,-18 2,-3 4,-10 6,-16 -70,-68 -201,-123 -302,-183 -158,-92 -220,-66 -217,-273 115,18 417,214 533,284 257,155 271,60 515,-70 19,-31 25,-43 41,-77 -125,-84 -298,-179 -449,-266 -292,-170 -201,-177 -507,-28 -100,34 -196,130 -283,149 -152,35 -361,-141 -598,-275 -160,-91 -186,-55 -185,-260 97,18 420,217 516,275 261,155 291,81 526,-66 27,-38 16,-25 27,-72 -63,-62 -593,-371 -660,-386 -72,-16 -86,-11 -143,18l-139 81z"/>
   <path class="fil9" d="M31123 25471c77,296 384,852 532,1083 198,309 503,716 747,880 145,-47 316,-160 440,-236 119,-74 326,-220 463,-250 -81,-128 -560,-432 -1056,-1444 -55,-113 -197,-499 -265,-567l-664 391c-54,28 -174,88 -197,143z"/>
   <path class="fil15" d="M41731 10099c130,13 420,274 587,305l-2 -312c-188,-91 -384,-219 -567,-326l-3991 -2360c-122,-39 -1082,-628 -1236,-715 -171,-97 -1130,-679 -1220,-700 -10,407 -110,243 783,769l5646 3339z"/>
   <path class="fil15" d="M43077 13603l-110 -56c-130,-50 -1385,-807 -1552,-902 -1291,-736 -2552,-1527 -3833,-2254 -127,-72 -249,-147 -382,-226 -103,-61 -271,-172 -386,-211l5 314c139,78 283,161 436,254 896,541 2123,1272 2997,1765 710,400 1466,882 2162,1270 159,88 278,170 424,250 152,83 752,471 865,484l-3 -287c-30,-77 -528,-281 -623,-401z"/>
   <path class="fil15" d="M43687 11743c-68,-7 -2154,-1245 -2184,-1282 -131,-42 -461,-256 -593,-336 -189,-114 -393,-228 -588,-342l-2327 -1369c-166,-99 -1071,-647 -1182,-679l-1 314c234,113 1443,842 1719,1002 607,351 1106,653 1710,1008 111,66 3324,1972 3451,2015l-5 -331z"/>
   <path class="fil15" d="M41735 13899c521,272 1583,936 2170,1275 158,92 634,400 768,429l-1 -296 -628 -389 -716 -407c-225,-138 -449,-266 -683,-403 -468,-274 -902,-537 -1369,-805 -200,-115 -2648,-1581 -2769,-1609l5 309c255,136 527,313 808,476l2415 1420z"/>
   <path class="fil15" d="M43160 13274c62,8 960,539 1130,646 62,39 310,202 383,205l2 -295c-66,-61 -248,-154 -317,-195 -86,-50 -983,-550 -1000,-603 -149,-50 -3371,-1963 -3640,-2124 -176,-106 -1099,-667 -1217,-697l12 315c182,93 405,236 591,344 484,280 3993,2323 4056,2404z"/>
   <path class="fil15" d="M39310 14711c78,13 357,190 446,244l2627 1546c88,52 366,235 445,234l-1 -292 -3646 -2152c-146,-85 -1180,-675 -1212,-724 -248,-90 -1000,-619 -1148,-645l3 299 2192 1300c98,55 227,102 294,190z"/>
   <path class="fil15" d="M43860 12946c128,13 322,211 475,236l-3 -304c-120,-64 -1225,-715 -1234,-738 -154,-54 -2087,-1214 -2299,-1337 -206,-119 -2154,-1292 -2296,-1332l1 308c5,2 5282,3075 5356,3167z"/>
   <path class="fil8" d="M26260 11663c111,10 551,340 707,401l77 -384 -2071 -1263c-238,-148 -1998,-1193 -2057,-1267l-76 398c85,81 710,444 859,535l2526 1541c31,27 11,7 35,39z"/>
   <path class="fil18" d="M22990 8739l1927 1170c298,190 660,403 960,583 139,83 890,564 970,561l65 -373c-516,-347 -1366,-810 -1923,-1170 -310,-200 -617,-376 -958,-585 -144,-87 -875,-554 -972,-571l-69 385z"/>
   <path class="fil9" d="M30127 23844c74,68 430,275 554,298 228,-113 460,-265 686,-398 235,-137 470,-274 703,-406 234,-132 472,-271 700,-407 398,-238 379,-192 393,-728l9 -242c-143,176 -97,180 -325,308l-2337 1357c-125,72 -263,166 -383,218z"/>
   <path class="fil12" d="M27532 13850l-120 458 213 17c96,0 206,14 275,51 27,119 -14,216 -24,310 -57,177 130,611 6,794 -45,101 -125,54 -215,88 -31,71 -29,69 -7,150 427,18 701,-152 977,-333 178,-118 195,-160 333,-318 88,-101 246,-262 311,-371l-1255 -702c-146,-84 -296,-156 -408,-250 -77,17 -11,-16 -54,46 -12,16 4,14 -32,60z"/>
   <path class="fil12" d="M18741 29307c65,-86 121,-102 158,-207 -1292,-342 -1538,312 -2163,303 -225,-4 -299,-170 -670,96 42,116 200,165 -151,329 -139,65 -273,111 -407,181 -319,165 -500,425 -226,703l345 -87c-4,-207 42,-236 184,-312 196,-106 529,-219 675,-325 136,-97 129,-126 163,-308 320,-33 429,103 958,-137 557,-252 612,-287 1134,-236z"/>
   <path class="fil12" d="M19240 30976c-21,-83 -32,-46 -52,-104 -59,-170 389,-303 589,-394 125,-58 256,-143 330,-259 124,-195 16,-310 -44,-439 -131,-10 -250,47 -374,65 0,204 -17,221 -184,314 -406,225 -809,229 -841,640 -260,6 -385,-47 -669,22 -181,43 -344,137 -512,207 -181,76 -344,149 -572,158 -135,6 -412,-98 -497,182 443,198 1119,90 1492,-90 182,-87 438,-214 677,-210 133,2 273,81 362,58 27,-7 268,-130 295,-150z"/>
   <path class="fil18" d="M22529 11090c15,184 -4,118 367,341 169,102 275,167 445,269l1769 1080c138,86 795,506 906,535l88 -382c-33,-9 -692,-393 -726,-451 -202,-53 -2573,-1596 -2780,-1655 -21,78 -17,199 -69,263z"/>
   <path class="fil19" d="M7315 16743c-73,53 -121,80 -199,119 -40,20 -62,28 -98,51 -66,42 -24,-19 -68,69l509 277c16,174 -41,212 61,310 65,64 128,120 175,201l175 -66c64,105 323,528 349,629l-128 82c8,80 71,317 122,359 14,-56 -11,-52 133,-123l319 -182c118,-58 88,-61 172,-106l-87 -337 138 -82 -360 -637 -155 76c-96,-93 -150,-169 -245,-245 -18,5 -302,166 -328,185l-251 143c-46,21 -15,7 -46,23 -4,2 -13,14 -15,9 -3,-5 -10,6 -15,9 -27,-314 -6,-245 248,-391l293 -162c63,-38 59,-17 63,-106 -127,-59 -245,-141 -380,-217 -104,-59 -100,-50 -192,6 -80,48 -121,73 -190,106z"/>
   <path class="fil15" d="M39752 13491c109,13 1400,806 1497,861 208,120 1415,854 1524,876l0 -310 -1213 -708c-272,-149 -526,-305 -776,-456 -264,-158 -2157,-1292 -2278,-1319l8 307 942 556c54,33 101,61 151,89 77,42 100,46 145,104z"/>
   <path class="fil8" d="M25746 12269c87,-40 62,-166 96,-265 22,-174 39,-116 -305,-325 -135,-82 -258,-158 -392,-238l-1595 -970c-149,-90 -673,-438 -799,-471l-64 374c94,87 1392,858 1536,946l1338 813c63,39 143,77 185,136z"/>
   <path class="fil19" d="M27591 11042l1690 935c293,170 610,267 681,621 48,238 -37,1166 25,1290 120,-28 127,-114 208,-182 36,-30 8,-6 39,-26l39 -1227c-52,-341 -287,-430 -544,-577l-1769 -990c-115,-25 -308,104 -369,156z"/>
   <path class="fil20" d="M16712 4161l206 107 11 -870c77,153 126,853 166,947 25,58 172,135 235,128l122 -710c17,-38 11,-25 30,-48l3 870c54,40 152,102 228,116l1 -1499 -322 -182c-67,125 -133,735 -171,931 1,-42 -142,-1076 -201,-1139 -45,-48 -243,-145 -306,-161l-2 1510z"/>
   <path class="fil12" d="M15418 9832c-754,296 -924,1645 -204,1390 252,-89 485,-381 596,-665 130,-332 85,-911 -392,-725z"/>
   <path class="fil13" d="M10431 24434l-1 996 475 -263c64,-42 108,-78 184,-80 57,-112 350,-200 463,-304 11,-179 3,-383 3,-565 0,-141 43,-398 -48,-478 26,45 8,-3 24,72 -141,53 -33,-29 -138,58l-962 564z"/>
   <path class="fil9" d="M7759 18713c-117,-69 -214,-205 -302,-342 -108,-169 -122,-269 -184,-474 -56,-164 -523,-276 -638,65 -142,424 251,1150 712,1279 344,96 530,-279 412,-528z"/>
   <path class="fil21" d="M40444 16121c146,14 1124,691 1356,760l1 -317c-111,-44 -212,-116 -323,-180 -463,-267 -1935,-1167 -2252,-1323 -157,-88 -598,-379 -714,-401l1 302c170,85 330,202 488,291l1443 868z"/>
   <path class="fil22" d="M23145 7569c103,69 224,135 328,198 107,64 223,133 325,196 308,191 1874,1163 1980,1177 16,-118 51,-211 43,-331 -211,-148 -449,-279 -644,-398 -227,-138 -424,-252 -663,-403l-973 -592c-72,-42 -252,-185 -339,-180l-57 333z"/>
   <path class="fil23" d="M27215 15613c214,-29 173,17 223,-165 26,-93 99,-168 136,-245 -91,-50 -162,-98 -129,-224 218,-57 122,111 245,149 76,-102 -15,-299 186,-442 10,-94 51,-191 24,-310 -69,-37 -179,-51 -275,-51 -226,8 -378,-20 -553,81 -72,42 -243,278 -270,365 -87,269 149,483 252,672 56,103 46,157 161,170z"/>
   <path class="fil24" d="M29277 26979c162,76 932,561 1028,573 47,-545 -28,-852 -400,-1075 -447,-268 -715,-402 -628,502z"/>
   <path class="fil21" d="M38628 13574c128,7 354,225 513,259l1 -306c-99,-58 -299,-147 -355,-222 -113,-32 -830,-471 -989,-564 -163,-95 -863,-536 -977,-560l1 302c150,112 1389,817 1704,1006l102 85z"/>
   <path class="fil20" d="M15858 2529c1,223 -25,826 35,996 69,199 321,479 603,413 81,-106 97,-256 68,-431 -63,-49 -140,-99 -216,-109l-14 287c-266,2 -231,-230 -230,-461 0,-350 -80,-765 129,-653 134,72 110,260 113,375 60,33 137,89 224,112 9,-323 -58,-497 -242,-643 -196,-155 -470,-261 -470,114z"/>
   <path class="fil20" d="M18299 4789c-210,25 -213,-151 -235,-326 -60,-52 -136,-97 -220,-115 -11,893 1174,1021 539,-10 -92,-150 -358,-449 -265,-667 165,-15 200,131 208,294 83,40 108,77 226,100 -4,-275 -112,-446 -259,-550 -178,-125 -440,-236 -444,123 -5,480 522,756 450,1151z"/>
   <path class="fil24" d="M40055 24693c-29,-61 -967,-1046 -1032,-1070l5 1196 1027 -126z"/>
   <path class="fil25" d="M22522 21080c96,-54 172,-97 281,-163 124,-75 177,-69 185,-155 14,-168 -27,-91 -58,-110 -28,42 -340,211 -419,257 -233,135 -219,166 -463,19 -284,-172 -584,-342 -855,-494l-1295 -747c-122,-72 -310,-190 -427,-240 -59,-7 -35,88 -31,139 161,128 551,326 749,440l1901 1098c240,138 216,51 432,-44z"/>
   <path class="fil9" d="M7316 21113c6,73 204,420 270,457l10 -54c124,-18 256,-126 374,-183l0 -125c8,-7 23,-23 32,-32 62,-61 470,-251 574,-338 29,-24 15,-10 38,-38l-179 -312c-88,10 -982,541 -1119,625z"/>
   <path class="fil9" d="M10430 25430l-110 -37c-90,-7 -90,24 -166,66 -74,40 -76,25 -128,90l-84 1c-67,100 -17,122 59,252 31,52 46,80 78,140 50,91 53,86 97,93 152,-56 899,-544 1100,-621l-187 -327c-76,2 -120,38 -184,80l-475 263z"/>
   <path class="fil26" d="M10089 24220c97,82 242,133 342,214l962 -564c105,-87 -3,-5 138,-58 -16,-75 2,-27 -24,-72l-335 -185c-119,110 -507,298 -681,414l-351 195c-28,20 -38,39 -51,56z"/>
   <path class="fil9" d="M10000 21499c-47,-118 -1,-311 -30,-457l-56 -22 -1 87c-274,110 -522,290 -781,438 -79,46 -195,102 -262,152l-5 412c73,-19 209,-108 286,-151l551 -320c62,-38 89,-45 141,-76 87,-51 23,-53 157,-63z"/>
   <path class="fil19" d="M8387 18874c13,106 6,216 6,324 1,48 4,108 3,155 -3,88 27,118 -40,105 77,37 285,-153 431,-181 36,-86 193,-130 269,-188 8,-116 26,-529 -17,-605 -24,62 4,11 -64,58l-243 148c-52,33 -118,73 -166,97 -31,15 -58,21 -93,38 -81,40 26,12 -86,49z"/>
   <path class="fil27" d="M9368 24163c108,-113 -227,-752 -279,-839 -109,-184 -366,-510 -549,-601 55,338 147,577 296,832 109,187 367,518 532,608z"/>
   <path class="fil25" d="M26486 22421c-37,25 -34,-41 -36,78 -1,52 11,66 27,110 56,-3 483,252 528,298 114,38 635,355 804,450 145,80 257,195 433,89 124,-75 279,-151 394,-234 9,-71 21,-110 -15,-158 -120,77 -234,133 -376,221 -78,49 -128,73 -229,30 -82,-34 -155,-83 -197,-132 -72,-5 -120,-23 -167,-47l-11 -318 -27 -29 12 292c-107,-40 -470,-246 -519,-316 -95,8 -156,-8 -228,-39l5 -407 -22 0 -10 322 -366 -210z"/>
   <path class="fil21" d="M36817 11004c144,104 416,246 560,331 106,62 497,313 587,321l0 -301c-178,-100 -1031,-633 -1145,-656l-2 305z"/>
   <path class="fil21" d="M36816 8794c206,73 1014,637 1145,636l0 -291c-140,-100 -396,-245 -554,-333 -126,-71 -470,-302 -595,-329l4 317z"/>
   <path class="fil21" d="M36824 11743c97,79 1056,641 1141,657l-5 -303c-156,-93 -1020,-630 -1141,-656l5 302z"/>
   <path class="fil21" d="M36827 13665c-10,274 -55,280 136,387l990 591c26,-92 30,-247 1,-319 -40,-46 -1065,-646 -1127,-659z"/>
   <path class="fil21" d="M36816 9527c161,97 1026,621 1142,643l-2 -305c-262,-118 -965,-599 -1138,-650l-2 312z"/>
   <path class="fil28" d="M29987 13888c-24,29 -34,59 -94,42 -97,-29 14,-36 -94,-75 -136,111 -107,261 -225,513 153,17 175,93 285,140l114 -121c28,-44 229,-199 294,-265l7 501c26,-70 23,-2118 -1,-2170l-39 1227c-31,20 -3,-4 -39,26 -81,68 -88,154 -208,182z"/>
   <path class="fil18" d="M22444 11943c236,129 963,643 1102,676l39 -266c-67,-52 -1027,-680 -1101,-687l-40 277z"/>
   <path class="fil25" d="M17332 17319c71,13 378,217 443,255 1121,638 704,517 1384,176l-2 -168c-158,50 -318,201 -459,254 -142,52 -359,-118 -466,-179 -302,-170 -589,-326 -858,-497 -83,8 -28,-29 -51,41 -16,48 0,72 9,118z"/>
   <path class="fil29" d="M27215 15613c109,67 295,94 445,105 -22,-81 -24,-79 7,-150 90,-34 170,13 215,-88 124,-183 -63,-617 -6,-794 -201,143 -110,340 -186,442 -123,-38 -27,-206 -245,-149 -33,126 38,174 129,224 -37,77 -110,152 -136,245 -50,182 -9,136 -223,165z"/>
   <path class="fil15" d="M35302 7150c131,81 827,509 923,528l3 -301c-117,-71 -858,-522 -918,-533l-8 306z"/>
   <path class="fil15" d="M35311 9383c145,78 297,171 452,262 99,59 367,233 468,257 3,-96 12,-223 -13,-296 -46,-58 -810,-505 -908,-527l1 304z"/>
   <path class="fil15" d="M19579 15855c71,56 280,171 382,226 146,79 345,-31 430,-117 5,-7 10,-25 12,-21 2,4 9,-15 12,-19 2,-3 13,-24 18,-30 -75,-72 -308,-198 -404,-250 -215,-116 -305,57 -471,120l21 91z"/>
   <path class="fil30" d="M20671 17585c-365,87 -372,415 -749,188 -148,-89 -583,-356 -720,-393 1,221 -46,134 306,329 698,387 483,462 1163,34l0 -158z"/>
   <path class="fil25" d="M18059 16872c255,143 494,280 759,439 217,129 306,7 617,-173 104,-60 87,-72 82,-223 -450,197 -421,389 -727,207 -150,-89 -584,-313 -685,-402 -91,35 -17,-20 -39,48 -14,45 -8,53 -7,104z"/>
   <path class="fil30" d="M28062 22246c67,-27 130,-72 195,-111l1 -162 -181 81 7 -234c171,34 420,318 623,271 63,-15 229,-130 297,-168 169,-95 191,-54 187,-272 -155,35 -411,267 -545,269 -101,1 -452,-236 -549,-281l9 -253c-16,26 0,-21 -22,52l-14 172c18,232 -26,238 -8,636z"/>
   <path class="fil25" d="M28027 22658c102,8 550,276 614,333 231,84 169,130 399,-8 114,-68 237,-138 337,-204l6 -126 -43 -13c-507,255 -392,343 -726,153 -669,-381 -535,-245 -552,-547 -76,92 5,223 -35,412z"/>
   <path class="fil30" d="M22528 21202c-80,-2 -49,53 -45,141 87,71 253,151 364,219 253,154 227,35 444,-41l456 -267 -7 -169c-580,210 -538,527 -934,279 -86,-54 -205,-105 -278,-162z"/>
   <path class="fil30" d="M29873 28195c76,-52 125,-23 134,-157 14,-211 -276,-548 -405,-365 -110,157 83,337 103,438 36,179 -82,423 164,413l4 -329z"/>
   <path class="fil30" d="M17214 18128c-83,17 -44,-39 -61,48 -12,140 107,161 334,294 280,164 215,64 466,-13l465 -275 5 -170c-166,51 -453,254 -617,343 -129,70 -225,-6 -319,-60 -61,-34 -238,-128 -273,-167z"/>
   <path class="fil15" d="M27285 22301l130 15c22,121 -48,191 -106,261 -56,68 -124,162 -202,178 49,70 412,276 519,316l-12 -292 -14 -411c-99,-58 -211,-135 -331,-175l16 108z"/>
   <path class="fil31" d="M25734 23045c37,49 275,167 351,212 275,163 183,74 412,-4 25,-50 32,-45 19,-101l-354 -218c-104,-23 -254,-192 -474,45l46 66z"/>
   <path class="fil30" d="M17934 18557c-33,49 -20,86 -13,152 106,82 233,143 366,221 252,147 203,30 427,-35 26,-27 379,-240 436,-241 45,-92 34,-87 29,-204 -204,66 -428,260 -624,350 -177,81 -469,-176 -621,-243z"/>
   <path class="fil15" d="M28150 20744c14,101 27,86 105,126 53,28 112,70 160,79 95,17 268,-91 325,-139l60 -69c-27,-67 -165,-131 -269,-190 -117,-66 -180,-129 -354,-109l-27 302z"/>
   <path class="fil25" d="M18692 18996l-16 150c112,83 232,141 368,222 240,142 233,24 431,-34 71,-61 173,-111 272,-167 168,-95 200,-53 193,-278 -192,72 -419,242 -606,341 -210,111 -359,-121 -642,-234z"/>
   <path class="fil26" d="M6561 16920c1,76 98,208 142,267l220 12 27 -217c44,-88 2,-27 68,-69 36,-23 58,-31 98,-51 78,-39 126,-66 199,-119l-101 -192c-81,18 -598,320 -653,369z"/>
   <path class="fil30" d="M16454 17688c-111,70 -12,-36 -48,57 -12,31 -15,43 -1,77 24,62 476,291 487,293 124,24 156,-43 264,-80 244,-227 535,-150 497,-468 -114,48 -205,115 -295,166 -419,234 -353,278 -627,122 -85,-47 -214,-112 -277,-167z"/>
   <path class="fil31" d="M24904 22570c49,50 250,147 327,193 148,89 234,160 394,13l66 -80c-19,-22 -489,-359 -646,-322 -58,13 -167,90 -196,127 5,5 14,17 17,21 3,3 9,10 11,14 4,4 10,12 13,16 4,4 10,12 14,18z"/>
   <path class="fil30" d="M29356 22537c197,106 193,154 414,23 100,-59 263,-143 351,-210 4,-123 3,-116 -39,-151 -127,100 -452,321 -622,226 -103,-57 -189,-116 -288,-169 -102,-55 -205,-132 -311,-172 -16,247 103,215 495,453z"/>
   <path class="fil32" d="M23321 21655c-44,3 -109,-47 -75,102 15,66 197,150 303,211 304,176 196,104 481,5 42,-45 203,-124 272,-165 170,-100 205,-59 206,-277 -162,45 -438,240 -592,327 -153,87 -214,25 -339,-48 -77,-44 -187,-92 -256,-155z"/>
   <path class="fil15" d="M26559 23524c40,46 273,167 352,213 187,109 203,134 392,7l61 -70c-48,-89 -263,-176 -369,-238 -264,-153 -209,-123 -454,1 -4,78 -15,8 18,87z"/>
   <path class="fil30" d="M24031 22072c-37,40 -30,60 -30,144 85,72 204,126 306,189 133,82 199,158 372,64 109,-60 203,-120 314,-185 225,-134 268,-114 273,-261 -50,-48 24,-33 -97,-26 -26,26 -502,311 -551,327 -133,45 -229,-43 -325,-100 -84,-49 -188,-104 -262,-152z"/>
   <path class="fil20" d="M26180 22770c115,63 255,145 359,207 120,72 284,154 412,0l54 -70c-45,-46 -472,-301 -528,-298 -136,-61 -225,18 -310,87l13 74z"/>
   <path class="fil26" d="M8356 19458l-175 -79c-60,192 -111,151 -75,254 19,56 71,178 148,185 71,-24 557,-304 630,-364l-97 -177c-146,28 -354,218 -431,181z"/>
   <path class="fil20" d="M28038 22759l235 68c31,140 -68,198 -159,251 -92,54 -182,89 -295,95 42,49 115,98 197,132 101,43 151,19 229,-30 142,-88 256,-144 376,-221l20 -63c-64,-57 -512,-325 -614,-333l11 101z"/>
   <path class="fil30" d="M25641 20400c448,179 402,519 1088,-7l7 -158c-159,32 -409,266 -546,267 -127,1 -383,-224 -551,-273l2 171z"/>
   <path class="fil20" d="M43668 8465c-211,139 85,682 328,551 208,-112 -104,-698 -328,-551z"/>
   <path class="fil30" d="M21901 18913c-67,14 -24,-14 -41,48 -8,27 -5,71 -5,99 57,36 106,69 159,98 60,35 131,60 162,111 219,70 158,166 420,9 115,-70 245,-145 356,-212l-1 -170c-614,277 -358,443 -1050,17z"/>
   <path class="fil15" d="M44464 8911c-220,105 55,644 300,568 235,-73 -52,-685 -300,-568z"/>
   <path class="fil30" d="M23712 19266c15,57 113,93 175,96 123,8 481,-226 565,-292 8,-191 9,-143 -34,-154 -97,58 -420,276 -530,266 -98,-9 -400,-222 -529,-274l-1 167 354 191z"/>
   <path class="fil15" d="M45248 9370c-226,124 102,690 329,551 190,-117 -97,-678 -329,-551z"/>
   <path class="fil30" d="M19555 16882c62,39 464,280 550,282 106,3 457,-230 543,-289l3 -159c-161,45 -414,270 -546,272 -132,2 -391,-224 -550,-270l0 164z"/>
   <path class="fil30" d="M22967 19958c3,-30 13,-77 9,-108 -18,-134 19,-40 -46,-82 -21,47 -181,121 -235,151 -60,35 -187,125 -265,127 -121,2 -398,-226 -553,-271 -8,220 26,175 200,276 66,38 243,151 295,166 190,50 468,-265 595,-259z"/>
   <path class="fil9" d="M27641 22808l11 318c47,24 95,42 167,47 113,-6 203,-41 295,-95 91,-53 190,-111 159,-251l-235 -68c-153,53 -209,103 -397,49z"/>
   <path class="fil32" d="M25665 21264c593,350 472,384 1010,49 97,-60 75,-71 71,-196 -190,41 -407,266 -554,256 -116,-9 -385,-228 -531,-273l4 164z"/>
   <path class="fil25" d="M24139 20229c-2,207 48,180 191,263 377,217 259,302 896,-107l10 -166c-152,52 -423,264 -528,275 -138,15 -395,-224 -569,-265z"/>
   <path class="fil30" d="M20313 17164c-6,213 39,172 194,263 360,211 295,250 621,55 104,-62 207,-110 281,-171l-1 -156c-146,33 -397,257 -525,273 -133,16 -394,-227 -570,-264z"/>
   <path class="fil30" d="M24494 20651c-161,37 -395,267 -543,271 -117,3 -418,-220 -550,-273 -12,222 61,200 206,284 368,214 281,241 674,8 173,-103 223,-67 213,-290z"/>
   <path class="fil25" d="M25247 21099c-150,41 -423,265 -535,266 -135,2 -383,-231 -549,-263 -13,198 -17,138 216,276 343,201 243,264 791,-70 104,-63 77,-67 77,-209z"/>
   <path class="fil30" d="M22931 18039c-158,32 -410,265 -545,268 -125,3 -394,-229 -550,-272 -4,171 -37,147 214,282 353,192 247,252 620,34 261,-152 266,-107 261,-312z"/>
   <path class="fil30" d="M29730 21511c13,-60 50,-161 -24,-177 -235,147 -265,221 -526,66 -96,-58 -419,-257 -516,-275 -1,205 25,169 185,260 237,134 446,310 598,275 87,-19 183,-115 283,-149z"/>
   <path class="fil30" d="M23397 19973c65,11 258,115 294,165 320,154 159,163 666,-124 127,-71 121,-49 117,-232 -141,36 -420,269 -544,271 -140,3 -422,-226 -548,-275l15 195z"/>
   <path class="fil25" d="M22607 18633c92,64 441,291 540,291 93,-1 454,-230 544,-290l0 -155c-164,34 -407,265 -544,266 -141,2 -382,-227 -549,-267l9 155z"/>
   <path class="fil32" d="M25212 19351c-115,40 -442,273 -544,274 -92,1 -443,-233 -546,-276 -15,223 51,191 215,289 377,226 286,226 665,1 177,-105 216,-57 210,-288z"/>
   <path class="fil32" d="M25986 20667c-189,63 -413,266 -536,268 -109,1 -417,-233 -550,-270 2,219 43,181 216,281 362,211 264,252 796,-70 103,-63 78,-79 74,-209z"/>
   <path class="fil30" d="M19917 18020c-151,49 -417,275 -550,268 -90,-4 -402,-224 -530,-272l-4 117c35,96 190,155 268,199 312,180 222,204 626,-35 151,-89 206,-58 190,-277z"/>
   <path class="fil25" d="M21442 18903c-150,39 -414,263 -534,266 -129,2 -379,-223 -552,-265 -5,210 64,190 220,279 80,45 245,157 315,165 84,9 372,-173 474,-236 101,-62 82,-70 77,-209z"/>
   <path class="fil25" d="M22178 19537c13,-28 33,-51 28,-100 -15,-156 23,-61 -58,-91 -56,64 -418,267 -498,261 -105,-6 -377,-219 -531,-270 -6,214 44,188 186,269 87,50 206,127 277,159 193,86 416,-197 596,-228z"/>
   <path class="fil25" d="M25963 19799c-143,46 -426,264 -534,266 -124,1 -388,-231 -547,-265 -6,184 -29,135 213,274 355,204 256,246 644,19 260,-152 231,-97 224,-294z"/>
   <path class="fil25" d="M22172 17604c-179,35 -416,277 -565,265 -89,-8 -411,-228 -524,-279 -27,216 53,199 210,290 399,231 264,225 668,0 150,-84 216,-67 211,-276z"/>
   <path class="fil30" d="M21423 18032c-163,49 -426,275 -553,266 -129,-9 -366,-227 -534,-264l1 154c612,310 388,411 896,116 152,-89 191,-52 190,-272z"/>
   <path class="fil25" d="M26461 22321l308 -177 -3 -169c-148,50 -420,266 -533,268 -75,1 -462,-219 -499,-266 -1,0 -78,12 -45,128 21,70 238,169 302,204 339,189 237,97 470,12z"/>
   <path class="fil32" d="M19603 18632c110,17 381,253 504,269 195,26 381,-224 541,-238 45,-93 37,-75 34,-194 -172,39 -415,268 -555,258 -169,-11 -415,-297 -534,-225l10 130z"/>
   <path class="fil32" d="M18806 16444c668,395 465,335 1070,6l0 -167c-141,47 -422,266 -532,266 -77,1 -472,-228 -500,-264 -66,28 -25,-3 -40,67 -7,31 0,60 2,92z"/>
   <path class="fil25" d="M22952 20569c357,153 155,145 677,-130 55,-29 116,-69 95,-152 -20,-78 13,-25 -47,-70 -42,50 -410,274 -507,268 -106,-7 -392,-222 -529,-272 -9,322 222,203 311,356z"/>
   <path class="fil25" d="M21103 18644c113,22 251,126 359,198 123,82 178,114 316,29l66 -56c90,-32 157,-77 234,-120 125,-70 107,-68 103,-223 -154,44 -421,273 -553,265 -84,-5 -428,-231 -528,-275l3 182z"/>
   <path class="fil25" d="M25248 21887c83,34 134,92 223,89 85,-3 139,-62 227,-91 210,-188 318,-53 306,-350 -167,57 -427,277 -551,269 -89,-6 -423,-233 -531,-279l5 174c94,42 236,119 321,188z"/>
   <path class="fil25" d="M22627 19523c57,5 281,138 303,176 387,173 160,124 773,-183l1 -123c-39,-30 3,-29 -69,-21 -114,68 -390,269 -525,236 -110,-26 -362,-236 -463,-242l-20 157z"/>
   <path class="fil25" d="M30116 22124c105,37 183,118 313,53 65,-32 207,-123 251,-160 3,-85 29,-130 -35,-135 -244,130 -258,225 -515,70 -116,-70 -418,-266 -533,-284 -3,207 59,181 217,273 101,60 232,115 302,183z"/>
   <path class="fil9" d="M27107 22755c78,-16 146,-110 202,-178 58,-70 128,-140 106,-261l-130 -15c-77,50 -97,83 -226,76 -151,-8 -72,-36 -175,-68l-5 407c72,31 133,47 228,39z"/>
   <path class="fil19" d="M29973 14387l-10 456c5,59 -27,2 18,52 55,-25 128,-67 176,-96 94,-55 101,-67 117,-176l-7 -501c-65,66 -266,221 -294,265z"/>
   <path class="fil26" d="M8213 18774l174 100c112,-37 5,-9 86,-49 35,-17 62,-23 93,-38 48,-24 114,-64 166,-97l243 -148c68,-47 40,4 64,-58l-202 -121c-84,45 -54,48 -172,106l-319 182c-144,71 -119,67 -133,123z"/>
   <path class="fil26" d="M8128 17138l-2 -222c-28,-72 11,-7 -49,-68 -4,89 0,68 -63,106l-293 162c-254,146 -275,77 -248,391 5,-3 12,-14 15,-9 2,5 11,-7 15,-9 31,-16 0,-2 46,-23l251 -143c26,-19 310,-180 328,-185z"/>
   <path class="fil30" d="M24230 18335c6,-33 15,-60 12,-94 -12,-139 11,-43 -39,-80 -486,294 -363,82 -865,-124 -4,252 8,148 368,386 268,178 320,-24 524,-88z"/>
   <path class="fil30" d="M26426 19708c4,-5 11,-17 13,-13 0,0 116,-83 83,-166 -26,-64 21,-32 -50,-39 -138,67 -262,201 -435,100 -129,-75 -286,-188 -419,-231 -3,248 26,150 336,358 312,208 261,38 472,-9z"/>
   <path class="fil25" d="M22711 17459c3,-31 14,-76 8,-108 -21,-106 28,-44 -56,-60 -112,82 -263,192 -428,102 -115,-63 -305,-195 -418,-225 -5,185 -18,147 199,272 67,38 144,88 217,132 240,143 317,-104 478,-113z"/>
   <path class="fil25" d="M23424 17921c4,-5 11,-17 13,-14 18,36 21,-27 22,-29 96,-178 -28,-158 -29,-159 -36,48 -115,83 -184,121 -239,130 -404,-175 -667,-231l3 156c125,73 270,160 392,238 210,133 285,-37 450,-82z"/>
   <path class="fil32" d="M21151 16603c0,-1 49,-42 50,-104 2,-149 9,-76 -75,-83 -34,38 -124,84 -173,110 -224,117 -319,-123 -653,-239l-7 158c149,87 272,156 411,243 216,137 272,-48 447,-85z"/>
   <path class="fil32" d="M24451 18834c8,21 -3,8 29,34 222,178 390,-81 506,-88 13,-78 35,-132 -11,-181 -129,71 -278,216 -453,115 -115,-66 -295,-186 -423,-235l0 162c87,54 246,158 352,193z"/>
   <path class="fil25" d="M25754 19211c4,-27 15,-76 10,-101 -15,-80 19,-51 -57,-59 -137,85 -261,195 -427,100 -101,-58 -319,-201 -419,-221 -5,174 16,165 145,235 75,41 151,88 231,140 267,174 295,-23 517,-94z"/>
   <path class="fil20" d="M28414 13460l121 70c56,-57 407,-746 417,-830l-136 -79c-74,203 -378,683 -402,839z"/>
   <path class="fil25" d="M19544 16014c128,65 284,179 412,248 112,60 179,39 266,-10 34,-19 171,-100 200,-129 13,-50 24,-36 11,-96 -15,-74 17,-24 -42,-63 -85,86 -284,196 -430,117 -102,-55 -311,-170 -382,-226 -66,26 -20,-20 -36,63 -7,36 -1,59 1,96z"/>
   <path class="fil28" d="M27226 13681c91,-10 145,12 204,40 89,42 101,24 102,129 36,-46 20,-44 32,-60 43,-62 -23,-29 54,-46 -51,-128 128,-171 139,-353 -152,3 -25,22 -241,117 -113,-117 -83,-101 -83,-454 -57,15 -66,29 -82,110l-125 517z"/>
   <path class="fil25" d="M21947 17024c2,-17 17,-91 12,-109 -19,-87 18,-51 -71,-62 -251,319 -578,-18 -829,-133 -9,173 -14,164 129,241 94,52 158,88 246,148 282,194 352,-90 513,-85z"/>
   <path class="fil20" d="M27512 21550l-5 139 -214 127c-5,161 -48,200 74,270 77,45 138,83 226,104 -6,-183 -22,-352 -44,-525 -9,-76 13,-279 -222,-289l-8 270 193 -96z"/>
   <path class="fil25" d="M26162 22934l354 218c134,40 167,136 327,67 5,-2 124,-73 124,-74 22,-22 39,-8 34,-78 -12,-163 13,-43 -50,-90 -128,154 -292,72 -412,0 -104,-62 -244,-144 -359,-207 -53,23 -28,106 -18,164z"/>
   <path class="fil32" d="M27303 23744c-189,127 -205,102 -392,-7 -79,-46 -312,-167 -352,-213 -202,145 283,345 367,394 109,63 162,117 297,50 70,-34 167,-83 149,-163 -26,-115 40,-56 -69,-61z"/>
   <path class="fil30" d="M25625 22776c-160,147 -246,76 -394,-13 -77,-46 -278,-143 -327,-193 -107,-7 -37,0 -56,45 -53,124 220,229 383,324 84,48 177,126 312,68 60,-26 170,-84 155,-159 -19,-92 15,-52 -73,-72z"/>
   <path class="fil30" d="M26497 23253c-229,78 -137,167 -412,4 -76,-45 -314,-163 -351,-212 -1,0 -100,25 -43,143 22,44 298,189 353,219 256,145 264,146 488,-13l-35 -141z"/>
   <path class="fil7" d="M44707 11829c64,40 351,225 424,231l1 -295c-57,-60 -339,-225 -423,-240l-2 304z"/>
   <path class="fil27" d="M7759 18713c55,-95 -109,-394 -153,-469 -73,-126 -198,-318 -333,-347 62,205 76,305 184,474 88,137 185,273 302,342z"/>
   <path class="fil32" d="M28118 20981c142,33 192,154 354,143 131,-9 214,-138 319,-149 5,-26 19,-77 13,-105 -15,-79 15,-49 -64,-60 -57,48 -230,156 -325,139 -48,-9 -107,-51 -160,-79 -78,-40 -91,-25 -105,-126l-32 237z"/>
   <path class="fil33" d="M29353 13454l-314 -51c-1,167 34,131 199,162 105,19 197,43 301,53 7,-142 -12,-135 -198,-310 -93,-88 -168,-171 -282,-250 -57,113 13,138 113,223 68,58 122,124 181,173z"/>
   <path class="fil27" d="M28336 13108c1,-162 -134,-220 -315,-402l309 54 7 -119 -497 -101c-20,186 7,111 205,325 48,52 231,221 291,243z"/>
   <path class="fil34" d="M7763 8810c-65,-2 -490,-270 -584,-320 -32,35 -41,-43 33,193 25,77 40,149 53,233 110,-4 110,-44 366,-53 6,-1 63,-5 64,-5 89,-28 19,42 68,-48z"/>
   <path class="fil9" d="M6413 22082c44,75 265,192 351,209 19,-85 48,-163 91,-240 38,-69 111,-158 -3,-214l-439 245z"/>
   <path class="fil9" d="M8887 26310l410 -224c6,-139 -56,-115 -189,-118 -106,-2 -163,-23 -261,-30l-3 366c24,17 -42,33 43,6z"/>
   <path class="fil34" d="M22424 8846l-52 7 -65 396 230 125c40,-67 77,-304 83,-387 -26,-17 -57,-35 -92,-57l-104 -84z"/>
   <path class="fil35" d="M22467 8427c103,31 143,101 242,119l71 -386c-120,-59 -139,-107 -241,-120 -48,107 -67,261 -72,387z"/>
   <path class="fil18" d="M22184 9765c14,87 4,88 -14,174 -5,25 -14,60 -12,89 0,4 1,11 2,15 1,3 3,10 4,13l18 32 214 105 62 -393c-83,-26 -134,-87 -230,-123l-44 88z"/>
   <path class="fil30" d="M29859 14508c-4,105 -169,331 -229,403 74,21 94,58 189,56 65,-2 145,-46 149,-61 2,-7 9,-7 13,-11 -45,-50 -13,7 -18,-52l10 -456 -114 121z"/>
   <path class="fil20" d="M42431 22436c53,198 332,295 276,27 -45,-218 -353,-314 -276,-27z"/>
   <path class="fil36" d="M26844 21948c-4,-96 -4,-113 5,-208 15,-148 -15,-132 -20,-170 -1,-12 -5,-14 -8,-20l2 196c-138,-40 -252,-162 -401,-203l8 154 308 190c28,18 32,21 56,35 32,18 7,5 50,26z"/>
   <path class="fil20" d="M43190 22899c66,-218 -142,-434 -244,-335 -85,83 25,396 244,335z"/>
   <path class="fil36" d="M26797 21059c-1,-140 42,-316 -22,-428l10 234c-137,-48 -258,-167 -384,-192 -5,180 6,161 141,238 77,45 173,112 255,148z"/>
   <path class="fil20" d="M41953 21987c-80,179 105,408 218,347 111,-60 9,-415 -218,-347z"/>
   <path class="fil37" d="M17436 6218l486 -279c46,-48 13,-9 33,-59 -72,-25 -90,-46 -154,-75 -70,37 -153,143 -211,207 -36,40 -56,61 -95,101 -20,21 -34,28 -53,58 -30,45 -42,15 -6,47z"/>
   <path class="fil30" d="M26752 20160l-11 -182c-149,-40 -219,-142 -358,-175l-2 158c94,50 248,161 371,199z"/>
   <path class="fil34" d="M8692 9560c-66,-12 -147,-71 -207,-106 -69,-40 -136,-75 -194,-113 -48,17 0,189 16,249l19 51 283 -46c118,-17 47,11 83,-35z"/>
   <path class="fil38" d="M7586 21570l385 34 -1 -271c-118,57 -250,165 -374,183l-10 54z"/>
   <path class="fil39" d="M27349 21214c68,34 76,60 167,77l-29 -433c-140,20 -133,14 -138,356z"/>
   <path class="fil38" d="M9942 25550l84 -1c52,-65 54,-50 128,-90 76,-42 76,-73 166,-66l-257 -148 -121 305z"/>
   <path class="fil26" d="M7458 20007c89,-40 166,-89 248,-138l10 -65 -261 -25 3 228z"/>
   <path class="fil40" d="M6025 17493c46,57 121,97 193,113 39,-77 89,-156 85,-234l-40 -14 -238 135z"/>
  </g>
 </g>
</svg>
