<?xml version="1.0" encoding="UTF-8"?>
<!DOCTYPE svg PUBLIC "-//W3C//DTD SVG 1.1//EN" "http://www.w3.org/Graphics/SVG/1.1/DTD/svg11.dtd">
<!-- Creator: CorelDRAW X7 -->
<svg xmlns="http://www.w3.org/2000/svg" xml:space="preserve" width="3in" height="3in" version="1.1" style="shape-rendering:geometricPrecision; text-rendering:geometricPrecision; image-rendering:optimizeQuality; fill-rule:evenodd; clip-rule:evenodd"
viewBox="0 0 3000 3000"
 xmlns:xlink="http://www.w3.org/1999/xlink">
 <defs>
  <style type="text/css">
   <![CDATA[
    .str0 {stroke:black;stroke-width:6.94488}
    .fil0 {fill:none}
    .fil66 {fill:#09005E}
    .fil34 {fill:#0C0264}
    .fil39 {fill:#0D0369}
    .fil44 {fill:#0E046C}
    .fil15 {fill:#0E056E}
    .fil42 {fill:#0E0570}
    .fil28 {fill:#100572}
    .fil31 {fill:#100773}
    .fil52 {fill:#110776}
    .fil19 {fill:#110777}
    .fil17 {fill:#120878}
    .fil33 {fill:#120879}
    .fil35 {fill:#12097B}
    .fil21 {fill:#13097C}
    .fil57 {fill:#130A80}
    .fil18 {fill:#14097E}
    .fil22 {fill:#140B82}
    .fil60 {fill:#150C83}
    .fil16 {fill:#160C86}
    .fil36 {fill:#180E8B}
    .fil26 {fill:#190E8D}
    .fil5 {fill:#1A0F90}
    .fil74 {fill:#3E41E2}
    .fil4 {fill:#4042E2}
    .fil24 {fill:#4143E5}
    .fil40 {fill:#4244E6}
    .fil55 {fill:#4345E3}
    .fil53 {fill:#4446EA}
    .fil63 {fill:#4A4CF4}
    .fil2 {fill:#4F51FE}
    .fil48 {fill:#4F52FE}
    .fil1 {fill:#4F52FF}
    .fil61 {fill:#5255FE}
    .fil11 {fill:#7C97F4}
    .fil64 {fill:#7D96F3}
    .fil73 {fill:#8FAFF7}
    .fil32 {fill:#91B3F9}
    .fil6 {fill:#91B3FA}
    .fil7 {fill:#92B4FA}
    .fil43 {fill:#BACEFB}
    .fil3 {fill:#BDD0FB}
    .fil12 {fill:#BFD2FB}
    .fil67 {fill:#D3DDFD}
    .fil75 {fill:#D5E1FD}
    .fil65 {fill:#D9E2FE}
    .fil9 {fill:#D9E3FD}
    .fil71 {fill:#DAE3FD}
    .fil70 {fill:#DCE3FE}
    .fil76 {fill:#DDE5FE}
    .fil47 {fill:#DDE6FD}
    .fil50 {fill:#E0E8FD}
    .fil72 {fill:#E1E7FC}
    .fil37 {fill:#E2E9FD}
    .fil46 {fill:#E4EBFD}
    .fil59 {fill:#E5534C}
    .fil13 {fill:#E5EBFD}
    .fil69 {fill:#E6ECFD}
    .fil10 {fill:#E7EDFC}
    .fil68 {fill:#E8EEFD}
    .fil54 {fill:#E9605A}
    .fil20 {fill:#FD7062}
    .fil25 {fill:#FD766B}
    .fil45 {fill:#FDA3A0}
    .fil8 {fill:#FDFEFE}
    .fil14 {fill:#FE7063}
    .fil29 {fill:#FE7265}
    .fil23 {fill:#FE7367}
    .fil51 {fill:#FE7D72}
    .fil49 {fill:#FEA5A3}
    .fil38 {fill:#FEADAA}
    .fil27 {fill:#FEB1AE}
    .fil56 {fill:#FF837B}
    .fil62 {fill:#FF928E}
    .fil30 {fill:#FF9A96}
    .fil41 {fill:#FF9E9A}
    .fil58 {fill:#FFA19E}
   ]]>
  </style>
    <clipPath id="id0">
     <rect x="557" y="1015" width="1895" height="990"/>
    </clipPath>
     <clipPath id="id1">
      <rect x="557" y="1015" width="1895" height="990"/>
     </clipPath>
 </defs>
 <g id="Layer_x0020_1">
  <metadata id="CorelCorpID_0Corel-Layer"/>
  <rect class="fil0 str0" x="-2168" y="794" width="1900" height="1167"/>
  <g id="_2070593354288">
   <g style="clip-path:url(#id0)">
    <image style="clip-path:url(#id1)" x="457" y="805" width="2085" height="1390" xlink:href="Game Development_Images\Game Development_ImgID1.png"/>
   </g>
   <g>
    <path class="fil1" d="M1806 1888c2,-3 18,-13 22,-16 4,-2 19,-15 23,-15 2,4 9,48 8,51 -4,1 -51,-17 -53,-20zm-144 -36c0,-4 9,-3 11,-2 0,3 2,1 -1,2 -1,0 -8,1 -10,0zm18 -2c1,-2 3,-1 6,-2 3,0 4,-1 6,1 -2,3 -10,4 -12,1zm36 -2c0,-3 1,-3 5,-3 3,-1 5,-2 7,1 -2,2 -9,2 -12,2zm36 -6c0,-3 1,-2 5,-3 3,0 4,-1 6,1 -1,2 2,0 -2,2l-9 0zm18 -3c1,-3 1,-2 5,-3l6 0c0,2 -1,2 -4,3 -6,1 -5,1 -7,0zm52 -13c1,-2 -1,-1 3,-2 5,-3 7,-3 9,-1 -1,2 -3,2 -6,3 -3,1 -3,1 -6,0zm35 -11c1,-3 2,-2 5,-3 3,-1 3,-2 6,-2 0,4 -1,3 -5,4 -3,1 -4,2 -6,1zm17 -6c1,-4 9,-6 11,-4 -1,2 2,0 -5,3 -3,1 -4,2 -6,1zm17 -7c1,-2 -2,-1 5,-3 3,-2 3,-3 6,-1 -1,3 2,0 -5,3 -3,1 -4,3 -6,1zm-304 -8c-1,3 -10,2 -12,0 2,-1 -2,-2 7,-2 1,0 3,0 4,1 2,0 0,0 1,1zm43 -1c0,-2 6,-3 9,-2 4,0 1,0 2,1 -1,2 2,1 -1,2 -1,0 -8,1 -10,-1zm278 2c0,-3 8,-6 10,-5 0,4 -8,6 -10,5zm194 -25c17,-5 24,20 8,24 -16,5 -24,-19 -8,-24zm-178 18c1,-3 2,-3 5,-4 3,-2 3,-3 6,-1 -1,2 -2,2 -5,4 -3,1 -4,2 -6,1zm-204 -6c0,-2 -1,-1 1,-2 3,-1 9,-2 10,-1 -2,3 -8,4 -11,3zm220 -2c1,-3 2,-3 6,-5 2,-1 5,-3 5,1 -2,1 -7,4 -11,4zm-185 -6c1,-3 9,-5 11,-3 -1,2 1,1 -2,2 -3,1 -7,2 -9,1zm201 -2c1,-4 2,-3 5,-5 3,-1 3,-2 6,-1 -1,3 -1,2 -4,4 -3,1 -3,2 -7,2zm-184 -2c1,-4 10,-5 12,-4 -1,3 1,1 -2,2 -3,1 -7,3 -10,2zm18 -6c1,-3 9,-5 11,-4 0,3 1,1 -2,3 -2,1 -7,3 -9,1zm182 -1c1,-3 8,-7 10,-6 0,3 -7,7 -10,6zm-165 -4c1,-3 2,-3 6,-4 3,-1 4,-2 5,0 -1,2 -8,5 -11,4zm17 -6c1,-3 1,-2 5,-4 3,-1 4,-2 6,-1 0,3 -1,3 -5,4 -2,1 -3,2 -6,1zm174 -6c0,3 -9,8 -10,7 -2,-2 7,-8 10,-7zm-157 -1c0,-3 9,-6 11,-5 -1,4 -1,2 -5,4 0,0 -5,2 -5,1 0,0 -1,0 -1,0zm162 -2c0,-3 2,-3 4,-4l4 -3c4,0 1,0 2,0 0,3 -4,5 -6,7 -4,1 -4,0 -4,0zm-145 -5c0,-2 2,-2 4,-4 3,-1 4,-2 7,-1 -1,3 -9,6 -11,5zm161 -5c-1,-3 6,-7 9,-7 0,4 -7,7 -9,7zm-145 -2c1,-4 9,-6 11,-6 -1,5 -9,6 -11,6zm16 -8c1,-3 3,-3 5,-4 7,-4 5,-2 6,-1 0,2 -8,6 -11,5zm143 0c0,-4 7,-8 10,-7 0,3 -1,2 -4,4 -2,2 -2,3 -6,3zm-411 -24c4,-2 37,-11 41,-11l18 24c4,6 6,0 8,4 -2,2 -3,1 -6,2 -2,3 -3,12 -3,15 -1,5 -2,11 -4,15l-32 8 -11 -10c-9,-10 -13,-12 -13,-18l2 -29zm285 15c0,-3 -2,0 2,-2 1,-1 1,-1 2,-2 7,-4 6,-1 6,-1 0,2 -8,7 -10,5zm-176 -5c1,-2 -1,-1 2,-2 5,-1 8,-2 10,0 -1,1 1,0 -3,2 -2,0 -7,1 -9,0zm317 3c0,-3 -1,-2 1,-4 3,-2 6,-5 8,-3 0,2 -6,7 -9,7zm-126 -7c2,-2 8,-7 11,-5 -1,3 1,1 -2,3 -6,3 -7,5 -9,2zm-156 -4c1,-3 2,-2 5,-3 6,-2 5,-2 7,0 -1,3 -9,4 -12,3zm296 -1c0,-3 7,-7 9,-7 1,3 -1,3 -3,5 -3,2 -3,3 -6,2zm-278 -4c0,-3 9,-5 11,-4 0,3 2,2 -2,3l-6 2c-2,0 -1,0 -2,0l-1 -1zm155 1c0,0 -2,0 0,-3l6 -3c4,-2 3,-1 3,0 0,2 -7,6 -9,6zm137 -8c0,-3 1,-3 4,-5 1,-1 3,-3 5,-3 0,3 -1,4 -3,6 -2,1 -3,2 -6,2zm-122 -2c-1,-3 8,-7 8,-7 3,0 0,0 2,1 0,2 -4,4 -7,6 -3,2 -3,0 -3,0zm-136 -2c1,-2 0,-2 2,-3 0,0 3,0 3,0 3,-1 3,-2 6,-2 0,3 -1,3 -4,4 -7,2 -5,2 -7,1zm17 -6c1,-3 2,-3 5,-4 7,-3 5,-2 6,-1 -1,3 2,1 -2,3 -3,1 -6,3 -9,2zm134 -2c0,-2 2,-3 4,-4 2,-2 3,-3 6,-3 0,4 -2,3 -5,5 -2,2 -2,3 -5,2zm121 1c-1,-4 1,-4 3,-6 2,-1 3,-3 5,-3 2,4 -6,9 -8,9zm-238 -6c0,-3 1,-3 5,-4 2,-1 3,-2 5,-2 1,1 1,-1 0,2 0,2 -8,4 -10,4zm132 -5c0,-3 1,-3 4,-5 2,-1 2,-2 5,-2 1,3 -6,7 -9,7zm-116 -2c1,-4 2,-3 5,-5 4,-2 5,-3 6,-1 2,2 -9,6 -11,6zm236 0c-1,-3 0,-2 3,-5 1,-1 3,-4 5,-3 2,2 -6,8 -8,8zm-219 -9c1,-2 -1,-1 2,-3 3,-1 6,-3 8,-3 0,3 -4,6 -7,6 -4,1 -3,0 -3,0zm113 1c1,-4 7,-8 10,-8 0,3 -2,3 -4,5 -2,2 -3,3 -6,3zm118 -4c1,-3 2,-4 4,-6 2,-1 2,-3 5,-2 0,2 -2,3 -3,5 -2,1 -2,3 -6,3zm-215 -6c1,-2 5,-4 7,-5 2,-1 1,0 2,0l1 0c0,2 -7,7 -10,5zm112 -1c0,-4 8,-9 9,-8 2,2 -6,8 -9,8zm-97 -7c1,-2 1,-3 5,-4 2,-2 3,-3 6,-3 0,4 -8,8 -11,7zm214 1c-1,-1 -1,-1 0,-3 2,-2 5,-6 8,-5 0,2 -6,8 -8,8zm-103 -6c0,-2 6,-8 9,-8 0,3 -3,6 -6,8 -4,2 -2,0 -3,0zm-95 -5c1,-3 -1,0 2,-3l5 -3c4,-1 2,0 3,1 -1,2 -3,3 -5,4 -4,3 -3,2 -5,1zm218 -11c0,1 1,-1 0,2 0,0 -6,9 -8,7 -2,-2 2,-4 3,-5 2,-2 3,-4 5,-4zm-108 5c-1,-1 -1,0 -1,-2 0,-1 7,-7 8,-7 1,1 1,0 1,2 -1,2 -7,7 -8,7zm-670 -41c8,0 16,7 19,11 4,6 7,12 6,22 -2,15 -14,26 -30,27 -18,-1 -32,-15 -30,-34 1,-10 6,-17 11,-20 4,-3 19,-10 24,-6zm575 37c1,-3 7,-7 10,-6 0,3 -4,5 -7,6 -2,2 -1,1 -3,0zm-410 -5c-4,-10 4,-8 16,-8 9,0 8,9 0,9 -6,0 -12,1 -16,-1zm-38 0c-4,-10 4,-8 16,-8 9,0 8,9 0,9 -6,0 -12,1 -16,-1zm-39 -1c-5,-9 13,-7 16,-7 4,0 7,0 7,5 0,6 -8,4 -17,4 -3,0 -5,0 -6,-2zm-38 -4c1,-4 6,-3 11,-3 3,0 10,-1 11,2 5,9 -10,7 -16,7 -4,0 -8,-1 -6,-6zm144 -3c-1,-4 0,-9 -1,-13 0,-4 0,-9 5,-9 5,-1 5,4 5,9 0,7 2,17 -9,13zm496 -3c3,-2 2,1 0,3 -9,8 -9,4 -6,1 2,-2 4,-3 6,-4zm-100 6c0,-3 7,-7 10,-7 0,4 -1,3 -4,5 -2,1 -3,3 -6,2zm15 -10c0,-4 6,-8 9,-8 0,3 -2,3 -4,5 -2,2 -3,3 -5,3zm91 -1c0,-1 -1,2 0,-1 0,-1 6,-7 8,-7 1,4 -6,9 -8,8zm-76 -11c-2,-3 0,-2 2,-4 3,-2 2,-3 6,-3 1,3 -7,8 -8,7zm89 -1c0,-3 6,-9 8,-9 1,3 -1,4 -3,5 -2,2 -2,4 -5,4zm-76 -10c0,-3 1,-3 4,-5 2,-2 2,-4 5,-3 1,3 -1,3 -4,5 -2,2 -2,4 -5,3zm-439 -24c0,-9 9,-9 9,0 0,11 2,20 -9,16 -1,-5 0,-11 0,-16zm527 21c1,-3 6,-8 9,-9 1,3 -1,3 -3,5 -2,2 -2,4 -6,4zm-75 -9c1,-3 4,-6 7,-8 3,-2 2,0 2,0 1,1 -5,9 -9,8zm-187 -5c3,-3 36,-10 44,-13 6,-1 6,-1 6,6 -1,7 -3,34 -5,38 -4,0 -10,-7 -15,-8 -1,2 -17,27 -20,28 -3,0 -18,-11 -19,-13 0,-3 3,-4 5,-6 6,-6 14,-14 19,-18 -2,-5 -14,-9 -15,-14zm201 -7c0,-4 6,-9 9,-9 0,4 -6,9 -9,9zm13 -13c-1,-3 5,-8 8,-9 0,4 -1,4 -3,6 -2,2 -3,3 -5,3zm-473 -31l2 1c1,4 1,14 1,17 -1,3 -2,5 -5,5 -3,0 -3,-2 -4,-4 -6,2 -152,1 -171,1 -12,0 -162,-1 -171,1 1,2 -1,0 2,2 4,1 2,1 4,4 3,0 3,-1 5,-2 7,2 12,16 11,26 0,8 -5,22 -11,25 -4,6 -16,8 -25,9l0 2 0 24c-1,21 -3,34 -8,53 -6,20 -8,31 -32,30l1 10 2 1c35,6 50,25 66,54 11,19 31,62 36,84l-4 1 23 69 12 0c-3,-9 -1,-29 -1,-39 0,-13 0,-26 0,-39 0,-26 -1,-53 0,-79 0,-14 0,-28 0,-42 0,-11 -3,-33 9,-33 2,-2 5,-1 8,-1 43,0 88,-1 132,0l32 0c7,0 52,-2 53,1 9,1 9,12 9,22l0 178c0,6 1,25 -1,29 0,4 -4,8 -8,8 -3,2 -57,1 -66,1l0 22c0,0 1,-1 1,-1l3 0c1,0 3,0 4,0 3,0 6,0 9,0 6,0 11,0 16,0 12,0 23,1 34,1l204 2c91,0 181,1 272,2 22,0 44,0 67,1 23,0 38,-5 53,-16 12,-8 23,-22 29,-39 17,-52 28,-127 24,-181 -2,-36 -9,-65 -23,-96 -2,-4 -5,-9 -6,-12l-3 3c-1,1 -1,1 -3,0 0,-2 3,-4 4,-6 -2,-2 -4,-6 -5,-8 -2,-3 -4,-5 -5,-9 -1,-2 -2,-1 -3,-3 -6,-4 -13,-10 -18,-15 -6,-5 -9,-9 -15,-15 -4,2 -2,4 -6,2 0,-2 2,-1 4,-5 -4,-3 -6,-7 -9,-10 -3,-1 -7,-4 -9,-6 -4,-2 -6,-3 -9,-5 -7,-4 -14,-7 -20,-10l-2 1c-3,3 -5,2 -3,-1 0,-1 0,1 1,-2 -8,-3 -15,-6 -23,-9 -9,-3 -17,-5 -25,-7 -8,0 -23,3 -29,-2l-1 2c-68,0 -137,0 -205,0 -64,0 -130,1 -193,0l-8 1 -3 2z"/>
    <path class="fil2" d="M1566 1476c0,-6 3,-6 8,-5 1,5 1,12 1,17 0,8 -9,8 -9,0l0 -12zm0 -38c0,-8 9,-8 9,0l0 12c0,8 -9,8 -9,0l0 -12zm-68 -19c-2,2 -17,21 -21,23 -1,3 -8,10 -11,13 -9,10 -25,30 -35,36 -16,8 -33,1 -49,-7 -23,-13 -18,-37 -15,-58l1 -13c1,0 1,0 1,0 -1,-4 0,-10 1,-15 0,-4 0,-11 2,-14 -1,-5 6,-58 7,-68 1,-7 1,-13 3,-19 1,-3 2,-5 3,-8 1,-3 1,-5 3,-7 0,-4 8,-15 11,-18 13,-17 33,-29 56,-33 19,-3 36,1 51,8 11,5 28,17 33,26l67 0 16 0c6,-7 9,-11 17,-17 31,-22 71,-24 103,-3 6,4 14,11 18,16 8,9 23,35 20,47l3 14c0,8 4,36 3,40l1 2c2,6 5,41 5,43 1,3 4,32 4,36l0 1c1,4 1,11 0,15 0,5 -2,9 -4,12 -5,8 -11,12 -21,16 -9,4 -16,8 -28,7 -20,-1 -28,-17 -40,-30l-17 -18c-8,-10 -24,-26 -33,-38 -3,-2 -4,-7 -9,-7 -4,-1 -11,0 -15,0 -26,0 -51,0 -76,0 -44,0 -33,-7 -53,16 -1,1 -1,1 -1,1 -1,1 0,1 -1,1zm-162 -26c-10,0 -9,-9 -1,-9l12 0c8,0 9,9 -1,9l-10 0zm-38 0c-10,0 -9,-9 -1,-9 4,0 21,-2 17,7 -2,4 -12,2 -16,2zm-22 -2c-2,4 -13,3 -18,2 -7,0 -7,-9 1,-9 9,0 19,-2 17,7zm-54 2c-10,0 -9,-9 -1,-9l11 0c9,0 9,9 0,9l-10 0zm-38 0c-10,0 -10,-9 0,-9l10 0c5,0 7,2 6,7 -2,4 -10,2 -16,2zm-22 -7c2,6 -1,8 -8,7 -4,0 -12,1 -14,-1 -2,-2 -2,-5 0,-6 2,-3 18,-2 22,0zm-30 -29c6,-3 6,4 6,9 0,5 1,12 -3,13 -6,3 -6,-4 -6,-9 0,-5 -2,-12 3,-13zm718 -10c-4,-10 6,-8 14,-8 3,0 7,-1 8,3 3,9 -17,6 -22,5zm-38 0c-4,-10 5,-8 17,-8 8,0 8,9 0,9 -6,0 -13,1 -17,-1zm-237 -116c0,-10 9,-9 9,-1l0 11c0,9 -9,10 -9,-1l0 -9zm0 -38c0,-10 9,-9 9,-1l0 11c0,8 -10,10 -10,-1l1 -9zm0 -38c0,-4 0,-7 4,-7 6,-1 5,9 5,17 0,8 -10,10 -9,-1l0 -9zm-439 164c3,3 2,7 2,12 0,4 1,9 -3,10 -9,4 -6,-14 -6,-20 -5,3 -11,4 -17,7 -34,13 -63,36 -85,66 -24,34 -40,74 -49,124 -31,5 -65,24 -84,38l-32 29c-1,2 -2,2 -3,4l-11 13c-4,5 -8,11 -12,18 -34,55 -46,125 -28,197 9,27 15,44 29,65 8,11 14,18 21,26 4,5 20,19 27,22 0,-6 -3,-12 -3,-18 -1,-2 -23,-109 -22,-115 -1,-1 -16,-71 -17,-79 0,-5 35,-104 39,-117 19,-4 38,-6 56,-8 31,-5 26,-4 58,-2l8 1c1,7 26,90 30,104 3,11 8,25 10,35 3,-1 6,-4 11,-6 5,-1 9,-2 14,-4 9,-2 19,-5 28,-7 2,-5 4,-14 5,-16 0,-4 10,-39 11,-44l1 -1c-13,0 -33,-18 -36,-26 -4,-10 3,-9 7,-12 0,-2 -6,-15 -8,-20 -1,-6 -4,-19 0,-24 1,-5 6,-10 10,-11 11,-4 10,2 16,3 1,-3 1,-3 3,-4 0,-8 13,-17 22,-20 11,-4 24,-4 37,-3 7,-2 15,-1 21,3 13,1 32,1 40,-7 -3,-2 -1,0 -2,-2 9,-2 159,-1 171,-1 19,0 165,1 171,-1 -1,-4 -1,-15 0,-18 2,-1 4,-3 6,-1l3 -2 8 -1c63,1 129,0 193,0 68,0 137,0 205,0l1 -2c-5,-1 -9,-5 -13,-6 -11,-2 -23,-3 -34,-3 -10,-1 -27,2 -30,-7 -1,-3 -2,-29 -3,-35 -7,-71 -27,-138 -65,-195 -6,-8 -11,-15 -17,-22 -17,-20 -35,-37 -59,-52 -51,-32 -114,-49 -178,-44 -77,6 -145,46 -195,102 -11,13 -22,27 -33,42l-21 34c-2,4 -4,9 -6,12 -7,-1 -14,-4 -21,-6 -41,-11 -80,-16 -123,-13 -9,1 -17,2 -25,3 -7,1 -17,5 -23,5z"/>
    <path class="fil3" d="M711 1423c2,2 5,16 6,19 9,27 30,54 52,70 4,4 9,7 14,10 2,2 14,8 15,9 9,3 22,9 30,14 5,2 9,5 14,8 3,2 10,7 11,10 3,-1 7,-5 10,-7 2,-2 7,-5 9,-7 -2,-1 -1,-1 -2,-4l-8 -35c-8,-34 -18,-83 -36,-109 -24,-38 -63,-64 -104,-78 -6,-2 -7,-2 -8,-4 4,-2 35,10 40,13 6,3 13,6 18,9 3,2 15,10 17,10l1 -3c0,0 0,0 0,0l236 0c4,0 6,-1 5,3 2,-1 2,-1 4,-3 -1,-1 -1,0 -2,-3 0,0 0,-2 -1,-2 -19,-74 -96,-194 -147,-249 -8,-9 -13,-13 -6,-14 8,-2 12,-1 24,-1 16,0 59,-1 73,0 0,0 1,0 1,0l2 0c-3,-3 -12,-6 -16,-8 3,0 6,0 8,-1 -7,-1 -8,1 -14,-2 -31,-14 -70,-26 -103,-34 -7,-1 -18,-5 -24,-1 -8,4 -5,15 -5,24 1,9 1,19 1,28 2,39 2,79 3,118 0,20 0,38 3,57 4,28 7,30 12,49 -6,-1 -14,-5 -21,-7 -21,-6 -43,-10 -65,-13 -30,-4 -68,-7 -98,-7 -9,0 -11,6 -4,14 3,5 7,10 11,15 7,11 13,21 20,32 6,11 12,24 16,37 4,10 9,32 8,43z"/>
    <path class="fil3" d="M2265 1278c-12,4 -49,15 -57,21l-12 5c-9,4 -37,20 -37,20 -2,2 -9,6 -12,8 -3,2 -8,7 -11,8 1,10 -3,17 -7,22 -3,4 -11,10 -18,10 -2,1 -4,1 -7,0l-9 14 -93 0 4 6 84 0 1 0 6 -4c6,-2 12,-6 20,-7 2,2 2,4 3,7l11 -1c4,4 3,5 1,10 -1,4 -2,9 -5,11 0,4 0,5 0,9 0,7 1,15 -1,21 -3,13 0,16 -7,36 -2,4 -6,12 -6,17 5,1 22,19 22,28l1 0c9,-32 41,-87 59,-114 7,-11 41,-58 52,-68 2,-2 3,-4 5,-6l16 -16c2,-2 3,-5 6,-4l0 3c0,0 -1,2 -1,2 -1,2 -1,4 -2,6 -4,0 -1,0 -4,-2l-18 21c-30,39 -54,72 -77,117 -9,16 -19,35 -25,53 0,0 0,0 0,0 0,0 1,0 1,0 3,0 0,-1 2,0 -1,9 -7,5 -10,20 0,-4 0,-1 -2,-2 2,8 3,11 5,17 7,3 33,29 37,35 -1,2 -3,4 -2,6 3,1 3,-1 5,-2l17 24c2,-1 12,-6 14,-7 5,-3 11,-6 15,-8 31,-21 49,-34 67,-72 15,-31 22,-84 19,-119 -2,-4 -5,-6 -6,-8 -15,-3 -40,-2 -28,-10l36 -27c-2,-8 1,-65 2,-77l1 -1 -31 -4 -7 19c-2,-1 -3,-2 -5,-4l-12 -13z"/>
    <path class="fil4" d="M1583 1112c2,2 1,9 1,12 0,4 0,10 -5,9 -5,0 -5,-5 -5,-9 1,-4 0,-8 1,-12 -13,-2 -58,14 -70,19 -10,5 -20,9 -29,15 -11,6 -20,12 -27,17l-12 9c-3,1 -6,4 -9,7 -2,1 -7,5 -8,7l-1 1c-3,2 -6,6 -9,7 -2,2 -4,4 -6,7 -3,3 -4,3 -7,6l-12 14c-2,2 -4,5 -6,7 -17,20 -36,47 -48,70 -3,4 -7,15 -10,15 -12,-4 -25,-8 -38,-11 -5,-1 -40,-7 -41,-8 -6,1 -14,-1 -20,-1 -7,-1 -14,-1 -21,-1 -14,-1 -27,1 -41,2l-22 4c-1,3 0,7 -8,5l-1 -4c-11,1 -36,12 -47,17 -7,3 -13,7 -20,11 -6,4 -12,8 -17,13 -2,1 -3,2 -5,4 -2,1 -4,3 -5,4 -2,2 -2,2 -4,3l-4 4c-19,19 -37,46 -48,71 -1,3 -4,10 -6,12 -2,7 -5,16 -8,23 -2,8 -4,16 -7,24l-1 4 -5 25c-8,2 -15,4 -23,6 -7,3 -15,7 -22,9 -2,2 -11,6 -14,6 -1,2 -15,10 -18,11l-3 3c-2,2 -7,5 -9,7 -3,2 -7,6 -10,7 -3,5 -8,7 -12,11 -4,4 -7,8 -11,12l-12 15c-4,5 -8,11 -12,16l-4 6c-3,7 -7,14 -11,21 -9,21 -18,45 -22,68 0,1 0,2 -1,3l-1 4c1,5 -1,14 -2,19 -1,7 -1,15 -1,22 0,13 0,28 2,41 5,-1 6,2 10,3l7 3c1,0 2,1 3,1 5,2 17,6 18,9l4 0c-18,-72 -6,-142 28,-197 4,-7 8,-13 12,-18l11 -13c1,-2 2,-2 3,-4l32 -29c19,-14 53,-33 84,-38 9,-50 25,-90 49,-124 22,-30 51,-53 85,-66 6,-3 12,-4 17,-7 2,-3 3,-4 7,-2 6,0 16,-4 23,-5 8,-1 16,-2 25,-3 43,-3 82,2 123,13 7,2 14,5 21,6 2,-3 4,-8 6,-12l21 -34c11,-15 22,-29 33,-42 50,-56 118,-96 195,-102 64,-5 127,12 178,44 24,15 42,32 59,52 6,7 11,14 17,22 38,57 58,124 65,195 1,6 2,32 3,35 3,9 20,6 30,7 11,0 23,1 34,3 -1,-2 -3,-3 -5,-5l-5 -5c0,0 -1,-1 -1,-1 0,1 1,3 -6,2 -3,0 -5,0 -8,0 -5,-1 -8,-2 -10,-4 -3,-4 -3,-20 -3,-27l-1 -3c-4,-1 -21,-29 -23,-37 -4,-5 -9,-25 -9,-34 0,-12 5,-18 13,-25 1,-1 2,-1 3,-3 0,-2 -1,-3 -1,-6 0,0 -1,-2 -1,-2 -1,-2 0,-1 -3,-2l0 2c-6,0 -16,1 -21,-1 -2,-5 -1,-8 5,-8 3,0 13,-1 15,0 2,-1 1,1 1,-1 0,-1 -1,-3 -1,-3 -1,-3 -2,-4 -2,-6 -1,-2 -2,-5 -2,-7 -9,-25 -18,-44 -31,-67 -4,-7 -9,-14 -14,-21 -2,-5 -14,-20 -18,-24l-19 -21 -23 -20c-8,-6 -14,-10 -22,-15 0,0 -1,-1 -1,-1 -1,-1 -1,0 -2,-1 -3,-1 -6,-4 -9,-5 -26,-14 -46,-22 -75,-29 -27,-7 -52,-10 -80,-9 -5,0 -10,0 -15,0 -2,0 -4,1 -7,1 -6,0 -5,0 -5,2z"/>
    <path class="fil5" d="M919 1662l4 -12 20 -1c2,1 1,-1 1,2l0 51c-2,2 0,1 -3,2l-8 2c-4,1 -7,2 -11,4 -5,2 -16,5 -21,6l18 -54zm61 -21c6,-1 14,-4 20,-4l18 60 -29 -1 -9 -55zm-96 129l26 113 19 84 -21 0c-7,0 -6,1 -7,1l103 0c2,-11 7,-83 9,-99 0,-11 3,-25 2,-35 -4,-24 0,-61 13,-84 1,-1 3,-6 5,-7 3,-5 6,-8 11,-12 -2,-10 -7,-24 -10,-35 -4,-14 -29,-97 -30,-104l-8 -1c1,2 -3,2 3,2 -2,-1 -64,7 -75,9 -2,0 -9,0 -10,2l-28 80c-2,7 -13,36 -12,41 2,13 8,31 10,45z"/>
    <path class="fil6" d="M1652 1094c-3,-3 -3,-8 3,-9 2,0 14,0 15,1 4,1 5,8 -2,8 -4,1 -13,1 -16,0zm-34 0c-7,0 -10,-9 1,-9 8,0 18,-1 16,6 -1,5 -10,3 -17,3zm-27 -9c6,0 9,6 5,9 -2,0 -13,1 -16,1 -6,1 -6,-4 -5,-10 4,0 12,0 16,0zm138 1c2,-1 13,-1 16,-1 5,1 6,7 2,9 -2,1 -14,1 -17,0 -5,0 -6,-6 -1,-8zm-40 7c-6,-12 19,-8 21,-7 1,1 5,8 -6,8 -4,1 -11,1 -15,-1zm-359 19c2,4 -1,41 -2,49 -1,23 -7,141 -7,152 3,0 7,-11 10,-15 12,-23 31,-50 48,-70 2,-2 4,-5 6,-7l12 -14c3,-3 4,-3 7,-6 2,-3 4,-5 6,-7 0,-12 -1,-21 7,-27 8,-7 21,-3 32,-4 7,-5 16,-11 27,-17 9,-6 19,-10 29,-15 12,-5 57,-21 70,-19l2 -2c3,-1 4,0 4,0 0,1 1,1 1,1 0,0 0,1 1,1 0,-2 -1,-2 5,-2 3,0 5,-1 7,-1 5,0 10,0 15,0 28,-1 53,2 80,9 29,7 49,15 75,29 3,1 6,4 9,5 2,-3 -5,-49 -6,-57l15 0c2,-1 1,0 1,-1 -5,1 -14,1 -19,0 -2,-4 -2,-6 2,-8l-1 -3c-2,-10 -6,-16 -16,-17 -9,-1 -23,1 -33,1 -99,2 -222,1 -320,-10 -10,-2 -20,-3 -29,-4 -12,-2 -18,-2 -27,4 -13,10 -8,40 -10,52 -1,3 0,1 -1,3z"/>
    <path class="fil7" d="M1875 1245c-2,-15 1,-16 15,-16l198 -3c15,0 18,1 18,16 0,15 -2,16 -17,16l-197 3c-16,0 -16,-2 -17,-16zm130 -114c22,-1 45,-1 66,-1 9,0 25,-3 30,4 2,2 5,22 -4,25 -4,2 -169,-2 -197,-2 -7,0 -27,1 -31,-3 -5,-3 -6,-20 4,-22 7,-1 25,-1 33,-1 31,0 70,1 99,0zm-141 -24c-1,1 -5,6 -6,8 -1,2 -1,2 -3,3 -2,2 -3,2 -4,3 1,1 1,24 1,28 1,9 2,19 2,28l5 57c5,7 10,14 14,21 13,23 22,42 31,67 0,2 1,5 2,7l32 -3 0 -1c-7,-2 -8,-23 -9,-25 -1,-2 -7,-4 -5,-11 1,-5 6,-5 11,-4 1,-3 1,-9 9,-12 7,-3 11,3 15,4 5,1 4,-1 12,1l0 -3c9,-1 13,6 12,15 11,0 8,-2 15,4 3,-2 69,-1 81,-1 4,0 25,-1 26,2 2,5 -6,4 -9,4l-97 0 -1 -5c0,11 -5,19 -16,18l-1 5 -2 7 109 -6c6,-3 10,-6 18,-6l9 2c0,-18 -1,-39 -1,-56 -1,-15 -2,-135 -5,-140 -3,-7 -13,-7 -22,-7 -55,0 -112,-3 -168,-4 -9,0 -50,-3 -55,0z"/>
    <path class="fil4" d="M2153 1580c12,2 31,10 35,17 4,2 1,0 4,3 1,1 1,1 2,1 2,3 3,4 1,7 -4,7 -32,-2 -40,-11 0,-1 -1,-1 -1,-1 0,0 0,0 0,0l-3 -2c-2,-1 -2,-1 -3,-3 1,4 3,6 5,9 1,2 3,6 5,8 4,-2 0,-3 5,-2 -1,4 -2,2 -3,5 1,3 4,8 6,12 14,31 21,60 23,96 4,54 -7,129 -24,181 -6,17 -17,31 -29,39 -15,11 -30,16 -53,16 -23,-1 -45,-1 -67,-1 -91,-1 -181,-2 -272,-2l-204 -2c-11,0 -22,-1 -34,-1 -5,0 -10,0 -16,0 -3,0 -6,0 -9,0 -1,0 -3,0 -4,0l-3 0c0,0 -1,1 -1,1 17,1 37,-5 37,16 18,1 42,0 60,0 9,0 10,2 10,11 87,1 173,1 260,2 65,1 129,1 194,2 11,0 22,0 33,0 6,0 29,-1 33,1 5,-1 23,0 29,0 20,0 39,-7 54,-20 2,-2 4,-6 7,-6 2,-4 5,-6 7,-10 18,-27 32,-112 35,-144 1,-10 2,-20 2,-30 0,-6 -1,-28 0,-32l0 -5c-1,-12 -3,-27 -4,-38 -4,-19 -6,-25 -9,-40l-2 -5 -15 -34c0,-2 -1,-3 -2,-4 -1,-3 -1,-2 -2,-5l-17 -24c-2,1 -2,3 -5,2 -1,-2 1,-4 2,-6 -4,-6 -30,-32 -37,-35 2,6 4,11 6,17 1,5 2,12 4,17z"/>
    <path class="fil8" d="M2352 1157c2,1 2,-2 2,4l-7 69c-1,12 -2,24 -3,37 -2,20 -7,13 -24,13l-1 1c-1,12 -4,69 -2,77l46 -34c3,-1 2,-1 4,-2 1,-3 1,-1 3,-3l0 -2c3,-2 0,-2 5,-2 2,0 4,0 5,0l163 0 0 -160c-60,0 -123,-1 -182,0 -2,0 -3,0 -5,0l-4 2z"/>
    <path class="fil3" d="M879 1080c2,4 10,10 13,14 32,32 57,64 83,103 18,28 43,73 56,103 3,9 13,31 14,40 5,-5 11,-9 17,-13 7,-4 13,-8 20,-11 11,-5 36,-16 47,-17l0 -6 -18 0 -1 -33 19 1c0,-6 -3,-19 4,-19 7,0 5,13 5,18 15,0 32,1 46,1 9,0 13,-2 14,-10 2,-24 0,-22 -23,-22 -20,-1 -52,0 -69,-1 -2,-6 -3,-13 -5,-19 -1,-4 -4,-13 -5,-16 18,-2 39,-1 56,-1 12,0 48,0 56,-2 2,-6 -4,-5 -10,-4 -8,0 -44,1 -46,0 -5,2 -9,3 -16,4 -5,0 -10,-2 -14,-4 -2,2 -24,1 -28,1 -5,-12 -15,-25 -16,-29 6,0 24,-1 29,1 1,-22 16,-25 20,-28 -19,1 -40,0 -59,0 -21,-1 -11,1 -22,-8l-16 -13c7,-1 144,-4 166,-4 8,0 15,-1 18,6 4,6 -3,77 -4,90 -2,29 -4,60 -8,89l5 0c4,-36 8,-73 10,-109 2,-19 3,-38 4,-57 1,-26 -10,-25 -34,-24l-146 3c-15,1 -16,2 -24,-3 -6,-4 -33,-21 -38,-22l-2 0c0,0 -1,0 -1,0 -14,-1 -57,0 -73,0 -12,0 -16,-1 -24,1z"/>
    <path class="fil6" d="M1132 1204c6,-2 6,5 6,10 0,4 1,12 -3,13 -6,3 -6,-4 -6,-9 0,-6 -2,-12 3,-14zm-161 -134c-2,1 -5,1 -8,1 4,2 13,5 16,8 5,1 32,18 38,22 8,5 9,4 24,3l146 -3c24,-1 35,-2 34,24 -1,19 -2,38 -4,57 -2,36 -6,73 -10,109l-5 0c4,-29 6,-60 8,-89 1,-13 8,-84 4,-90 -3,-7 -10,-6 -18,-6 -22,0 -159,3 -166,4l16 13c11,9 1,7 22,8 19,0 40,1 59,0 4,-1 11,-3 15,-1 3,0 3,1 7,1 10,0 21,0 31,1 8,0 23,-3 26,4 1,2 6,20 -9,21 -10,0 -20,0 -30,0 0,15 -6,23 -15,29 2,1 38,0 46,0 6,-1 12,-2 10,4 -8,2 -44,2 -56,2 -17,0 -38,-1 -56,1 1,3 4,12 5,16 2,6 3,13 5,19 17,1 49,0 69,1 23,0 25,-2 23,22 -1,8 -5,10 -14,10 -14,0 -31,-1 -46,-1 -1,8 -8,8 -9,1l-19 -1 1 33 18 0c0,-3 -1,-9 1,-11 2,-4 6,-2 8,1l0 10 22 1c14,-1 27,-3 41,-2 7,0 14,0 21,1 6,0 14,2 20,1l2 0c2,-40 6,-80 8,-119l6 -90c1,-14 -5,-16 -11,-20l5 0c-1,-1 0,0 -2,-1 -3,-1 -30,1 -34,1 -11,0 -23,0 -35,0 -23,1 -46,1 -70,2 -12,0 -131,3 -140,3z"/>
    <path class="fil3" d="M622 1634c-5,2 -11,6 -16,9 -21,12 -33,9 -30,19 2,8 19,31 26,37 2,3 4,4 6,6 10,11 20,15 30,21 15,4 20,9 42,8 11,-1 41,-6 43,-6l2 -1c0,0 0,0 0,0 1,0 2,-1 3,-1l16 -4c8,-2 15,-4 22,-5 1,0 1,-1 1,2l1 -4c1,-1 1,-2 1,-3 4,-23 13,-47 22,-68 4,-7 8,-14 11,-21 -23,-2 -32,-2 -55,8 -8,3 -15,7 -22,12 -4,2 -19,13 -20,12 -2,-2 1,-4 3,-6 2,-1 3,-2 5,-4 20,-17 51,-33 79,-32 2,1 5,1 8,1 7,2 6,2 6,3 4,-5 8,-11 12,-16l12 -15c-3,0 -13,-10 -17,-13 -2,-2 -5,-4 -8,-5 -3,-2 -7,-3 -9,-6 -7,0 -23,-12 -56,-4 -32,9 -55,30 -80,49l-38 27z"/>
    <path class="fil3" d="M2235 1598c-2,2 -6,3 -8,5l-15 10c-6,4 -4,5 -8,5l15 34 0 -2c12,-3 18,-5 32,-3 28,4 46,18 65,34 6,4 3,5 0,4l-8 -6c-3,-2 -6,-4 -10,-6 -18,-11 -42,-22 -64,-19 -4,1 -10,3 -13,3 3,15 5,21 9,40 1,11 3,26 4,38l0 5 1 -3 64 15c25,6 46,10 71,4 27,-7 49,-32 61,-50 12,-18 11,-20 -1,-23 -22,-7 -58,-34 -77,-48 -22,-17 -42,-34 -71,-41 -22,-5 -30,0 -47,4z"/>
    <path class="fil9" d="M2234 1740c-1,4 0,26 0,32 0,10 -1,20 -2,30 -3,32 -17,117 -35,144 -2,4 -5,6 -7,10 4,-3 14,-5 19,-7 6,-3 11,-5 17,-7 35,-15 63,-32 93,-54 13,-9 29,-22 39,-35 3,-4 6,-9 9,-15 6,-11 9,-25 9,-40 -1,-22 -6,-35 -6,-42 -25,6 -46,2 -71,-4l-64 -15 -1 3z"/>
    <path class="fil3" d="M789 1351c1,1 0,1 1,2 0,0 1,1 2,1 27,21 46,41 58,78 8,25 20,77 25,107 1,3 2,4 0,7 3,-1 17,-9 18,-11 -3,2 0,1 -1,0 4,-57 9,-90 4,-148 3,1 0,0 3,1l5 4c2,2 5,4 6,6l30 18c3,2 7,3 10,6 1,10 0,26 -1,37 0,16 -2,21 6,31l2 -1c0,0 0,0 0,0l1 -4c-3,-4 -3,-6 -3,-12 0,-6 0,-11 0,-16 0,-11 0,-22 1,-32 7,2 1,4 5,10 2,4 7,6 12,3 2,-2 5,-9 6,-12 11,-25 29,-52 48,-71l4 -4c1,-4 -1,-3 -5,-3l-236 0c0,0 0,0 0,0l-1 3z"/>
    <path class="fil10" d="M731 1958c1,-19 -1,-37 -1,-57 0,-5 0,-9 0,-14 0,-6 -1,-9 -1,-15l0 -23c0,-3 -1,-3 -1,-6 0,-10 1,-21 0,-30 -1,-9 -1,-19 -1,-29 0,-5 0,-8 0,-14l-1 -30c-1,-10 2,-11 -3,-12 -2,0 -32,5 -43,6 -22,1 -27,-4 -42,-8 1,13 3,24 4,37 1,13 1,26 1,39 1,55 -5,87 36,126 12,12 35,27 52,30z"/>
    <path class="fil6" d="M1846 1066c6,0 13,8 15,12 5,6 6,14 5,22 18,-1 39,1 58,1l172 5c24,0 20,17 21,38l3 143c0,8 0,21 1,29 1,1 3,2 5,4 2,1 3,3 5,5 2,4 5,9 5,15 3,-1 8,-6 11,-8 3,-2 10,-6 12,-8 0,-10 -2,-24 -2,-34 -5,-65 -12,-129 -23,-193 -2,-11 -3,-19 -12,-24 -7,-5 -55,-4 -68,-4l-140 -3c-23,-1 -48,-2 -70,-1l1 1c1,0 1,0 1,0z"/>
    <path class="fil11" d="M1242 1294c1,1 36,7 41,8 13,3 26,7 38,11 0,-11 6,-129 7,-152 1,-8 4,-45 2,-49 -3,-2 -7,-5 -10,-7l-28 -19c-9,-6 -30,-23 -40,-21l-5 0c6,4 12,6 11,20l-6 90c-2,39 -6,79 -8,119l-2 0z"/>
    <path class="fil10" d="M622 1634l38 -27c25,-19 48,-40 80,-49 33,-8 49,4 56,4 0,-2 0,-1 -1,-3 -1,-5 -1,-21 -1,-27 5,-1 0,0 5,0l-1 -1c-1,-1 -13,-7 -15,-9 -5,-3 -10,-6 -14,-10 -22,-16 -43,-43 -52,-70 -1,-3 -4,-17 -6,-19 1,6 -5,9 -7,11l-19 20c-28,36 -46,62 -57,111 -8,36 -3,42 -6,69z"/>
    <path class="fil12" d="M1217 1967l-17 0 -64 0c-16,1 -24,3 -40,1l-92 0 -103 0 -8 0 -10 -1c-5,4 -38,-1 -46,3 -2,4 -4,10 -3,16 4,3 15,2 22,2 54,0 112,0 165,-1 62,-1 125,0 188,-1 63,-1 126,0 189,-1l165 -1c18,0 15,1 18,-6 22,0 44,1 66,1 62,1 132,1 194,3 43,1 87,0 130,2 20,1 45,1 65,0 10,-1 21,-2 31,-2 10,0 24,1 33,0 -4,-2 -27,-1 -33,-1 -11,0 -22,0 -33,0 -65,-1 -129,-1 -194,-2 -87,-1 -173,-1 -260,-2 0,-9 -1,-11 -10,-11 -18,0 -42,1 -60,0 -24,1 -50,0 -74,0l-148 1c-7,0 -11,1 -18,1l-36 0c-3,0 -6,0 -9,0 -5,0 -7,1 -8,-1z"/>
    <path class="fil13" d="M723 1728c5,1 2,2 3,12l1 30c0,6 0,9 0,14 0,10 0,20 1,29 1,9 0,20 0,30 0,3 1,3 1,6l0 23c0,6 1,9 1,15 0,5 0,9 0,14 0,20 2,38 1,57 5,5 39,10 48,10l45 1c2,0 11,-1 13,1 8,-4 41,1 46,-3 -22,-6 -33,-12 -46,-24 -11,-10 -23,-24 -33,-39 -18,-28 -32,-62 -38,-103 -2,-13 -2,-28 -2,-41 0,-7 0,-15 1,-22 1,-5 3,-14 2,-19 0,-3 0,-2 -1,-2 -7,1 -14,3 -22,5l-16 4c-1,0 -2,1 -3,1 0,0 0,0 0,0l-2 1z"/>
    <path class="fil14" d="M1044 1731c-5,4 -8,7 -11,12l2 -1c2,4 3,4 6,7l2 1c0,0 0,0 0,0 3,2 1,2 6,6 4,2 2,2 9,8l8 8c0,0 0,0 0,0 0,0 0,0 1,0l4 4c2,1 1,3 0,5l-2 -4c-1,4 4,16 5,19l7 19c1,2 1,3 2,5l12 33c0,2 -4,4 -6,5 -2,3 -1,0 -1,3 2,0 0,-1 3,1 4,-2 4,-4 8,-6 0,-3 0,-4 -1,-7 -1,-1 -1,-1 -1,-3 -1,-1 -1,-2 -2,-3l-11 -30c-2,-8 -7,-24 -11,-31 0,0 0,0 1,0l0 0c0,0 1,1 0,-1l4 0c3,4 5,6 9,9 0,1 0,1 1,1l15 15c0,0 1,0 1,0l5 5c2,2 2,2 4,3 1,1 1,1 2,2 0,0 0,0 0,0 0,0 0,0 0,0 0,1 1,1 1,1l6 6c2,1 3,3 5,4l18 17c0,1 1,1 1,2l23 21c0,0 0,0 1,0l4 4c0,0 1,1 1,1l6 5c0,0 0,0 0,0 0,0 0,1 0,1 0,0 1,0 1,0 1,1 1,1 2,2 3,3 4,5 9,5 0,1 0,1 -1,1l0 2c-1,1 -1,0 -1,0 5,1 7,7 14,10 0,1 1,1 1,1l0 2 6 -69 13 39 3 -1 22 -8c2,-1 1,-1 3,-2 -1,-1 -1,-1 -2,-2l-1 -2c0,0 0,0 0,0l-7 -7c0,0 0,0 0,0 -3,-2 -2,-1 -4,-3 0,0 0,0 -1,0l-10 -10c-1,-1 -1,0 -2,-1l-6 -6c-2,-1 -3,-4 -5,-5 -2,-2 -3,-3 -5,-5 0,0 -1,-1 -1,-1l-15 -13c-5,4 -1,3 -1,3l-1 0c0,-1 0,-1 0,-1 -1,0 -1,0 -1,-1l-5 -3c0,2 1,1 2,2 4,2 0,1 6,2 -1,-7 0,-2 -3,-5l-10 -9c0,0 0,-1 -1,-1 0,0 0,0 0,0 0,0 0,0 0,0l-7 -6c-3,-3 -1,-2 -4,-5l-8 -7c0,-1 -1,-1 -1,-1 0,0 0,0 0,0 -3,-3 -4,-5 -8,-6 -1,1 0,-1 -1,1 -2,3 0,1 0,2l-7 -7c-1,-1 -3,-1 -3,-2 0,3 4,4 8,4 -1,-5 -1,-3 -4,-6l-7 -6c0,0 0,0 -1,-1 0,0 0,0 0,0 0,0 0,0 0,0l-6 -6c-5,-5 -5,-2 -6,-5 -2,-3 -5,-5 -8,-8l-4 -3c-1,-1 0,-1 -1,-3l-16 -6 1 -7c-9,2 -19,5 -28,7 -5,2 -9,3 -14,4 -5,2 -8,5 -11,6z"/>
    <path class="fil15" d="M1401 1928l11 1c0,0 0,0 0,0 0,0 0,1 1,1l0 20 -12 0 0 -22zm-13 -1c3,0 1,0 2,1l0 22c1,5 1,11 1,16l21 0c8,-1 15,-1 23,-1 0,-7 0,-12 0,-17l0 -14c0,-7 1,1 0,-4 0,-1 0,-1 0,-1l12 -1c-1,-1 2,-1 -1,-1l6 -8c3,-4 4,-3 8,-10l22 -25c1,-3 3,-3 5,-6l12 -14c4,-6 4,-4 6,-7 4,-5 2,-2 8,-9 0,0 0,0 0,0 4,-5 2,-3 8,-10l5 -6c1,0 1,0 1,0l11 -14c3,-3 4,-4 6,-5 2,-3 0,-2 3,-4l-1 -67c0,1 0,0 -1,1 -1,1 0,0 -1,1l-25 30c-2,2 -3,5 -6,7l-16 19c-1,1 -2,2 -3,3l-12 14c0,0 0,0 0,0l-7 8c0,1 0,1 -1,1l-22 25c0,1 0,1 0,1l-14 18c-3,3 -8,8 -11,11 0,0 0,0 0,1l-12 14c0,0 0,0 0,0l-27 31z"/>
    <path class="fil16" d="M1323 1792l0 25c1,8 0,23 0,31 0,5 0,10 1,15 0,3 0,5 0,8 0,2 -1,4 1,6 2,-1 4,-5 5,-7l7 -8 0 29c0,4 0,7 2,10 0,-8 -1,-46 0,-51l3 0c1,4 1,31 1,39l0 12c0,0 1,0 1,1l0 -3c0,-8 0,-15 0,-22 0,-7 -2,-20 2,-25 0,0 0,0 0,0 1,0 1,-1 1,-1l10 -11c0,-1 0,-1 0,-1 0,0 0,0 0,0l9 -11c4,-4 7,-8 11,-12l2 -2c0,0 0,0 0,-1l8 -9c0,0 1,-1 1,-1 0,-1 5,-7 10,-12 3,-2 4,-5 6,-8 1,-1 2,-1 3,-2l10 -12c3,-3 5,-6 8,-9l22 -27c3,-4 7,-7 11,-12l1 -1c3,-5 8,-9 11,-13l4 -5c0,0 0,0 1,0 0,0 0,0 0,-1 0,0 1,0 1,0l3 -4c0,0 0,-1 0,-1l7 -7 -32 0c-2,0 -26,1 -30,1 -8,0 -6,-1 -10,4l-11 14c0,0 -1,0 -1,0l-16 19c-2,3 1,1 -3,3l-6 8c-5,6 -4,3 -9,10l-16 18c-1,2 -2,2 -3,4l-1 2c-3,4 -3,3 -6,7 -1,1 -2,2 -3,4 -1,0 -1,0 -1,0l-1 2c-1,0 -1,1 -2,2 -2,1 -3,2 -4,4 -3,3 -3,6 -7,7 0,-3 0,-5 -1,-6z"/>
    <path class="fil17" d="M1596 1305c-2,0 -7,1 -8,-2 -4,-6 19,-4 22,-3 2,7 -7,5 -14,5zm-208 -23l0 1c2,-1 3,-2 6,0 5,2 3,0 10,3 5,1 11,1 15,4 10,-18 34,-31 57,-28 13,1 22,6 30,12 9,6 13,13 19,25 4,0 9,2 13,3 3,1 8,3 9,2 1,-7 4,-5 10,-5 5,0 10,0 13,1 1,2 1,2 0,5 -4,2 -12,1 -16,1 1,0 1,0 1,0 0,0 0,0 0,0l10 3c3,1 2,1 4,1 2,1 4,1 5,2 4,1 7,1 11,2 4,1 4,1 5,2 2,1 4,0 6,1l36 10c4,1 3,-1 4,3l0 -5c2,-6 -1,-20 11,-37 2,-4 6,-7 7,-10 -3,0 1,0 -3,-1 -3,-2 -9,-2 -16,-5l-10 -2c-7,-3 -7,-1 -14,-4 -1,0 -4,-1 -5,-1l-67 0c-5,-9 -22,-21 -33,-26 -15,-7 -32,-11 -51,-8 -23,4 -43,16 -56,33 -3,3 -11,14 -11,18z"/>
    <path class="fil18" d="M1524 1345l26 8c0,0 1,0 1,0l80 21c5,1 4,1 9,2l33 9c3,0 3,0 5,0 2,1 1,1 2,1l2 1c0,0 0,0 0,0l16 5c9,2 23,4 30,7 2,0 3,1 4,1 5,2 13,3 17,5l42 10c0,0 0,0 0,0l1 -8c0,-2 -3,-37 -5,-43l-1 -2 0 5c-10,-1 -37,-12 -42,-9 0,-5 0,-1 -1,-3l-1 1c-8,9 -14,15 -25,19 -13,5 -27,5 -39,1 -38,-12 -40,-48 -42,-51l0 5c-1,-4 0,-2 -4,-3l-36 -10c-2,-1 -4,0 -6,-1 -1,-1 -1,-1 -5,-2 -4,-1 -7,-1 -11,-2 -1,-1 -3,-1 -5,-2 -2,0 -1,0 -4,-1l-10 -3c0,0 0,0 0,0 0,0 0,0 -1,0 4,0 12,1 16,-1 -6,0 -19,0 -23,-1 -1,1 -6,-1 -9,-2 -4,-1 -9,-3 -13,-3 2,9 4,14 3,24 0,4 0,8 -1,12 -1,3 -3,8 -3,10z"/>
    <path class="fil19" d="M1344 1899l0 3c-1,4 5,8 10,8 6,0 13,0 19,0l7 -1 22 -25c0,0 0,0 0,0 0,0 0,-1 1,-1l27 -31c0,0 0,-1 0,-1 0,0 0,0 0,0 0,0 1,0 1,0l13 -16c0,0 0,0 0,0l17 -21c1,0 2,-1 2,-1 0,-1 1,-1 1,-2l17 -19c1,-1 1,-2 2,-2 1,-1 1,-2 2,-3 2,-2 2,-2 3,-3 2,-2 2,-3 2,-3 2,-3 3,-3 6,-7 0,0 0,0 0,-1l3 -3c4,-3 7,-8 10,-12l9 -9c0,-1 0,0 0,-1l1 -1c0,0 0,0 0,0l1 -1c0,0 0,-1 0,-1l18 -21c1,-1 1,0 2,-1 1,-1 1,-2 2,-3 4,-5 5,-3 4,-5l0 27 1 67 0 25c0,14 0,28 0,42l0 32c0,4 0,8 0,11 2,-4 1,-23 1,-29l0 -178c0,-10 0,-21 -9,-22l-17 1 -1 2c0,0 0,0 0,0 0,0 -1,0 -1,1l-18 22c-1,0 -1,1 -2,1 -1,1 0,0 -1,2 0,0 0,0 0,0l-2 3c0,0 -1,0 -1,0l-15 18c0,0 0,0 0,0l-26 31c0,0 0,0 0,0 -1,1 0,0 -2,1l-58 69c-1,2 -2,2 -3,4l-8 8c-2,2 -4,6 -6,8l-14 16c0,0 0,0 0,0l-1 1c0,0 0,0 0,0 -1,1 -1,1 -1,2 -1,2 -2,2 -3,4l-7 7c0,0 0,1 0,1l-4 5c-1,1 0,0 -2,1 -2,1 -1,1 -2,1z"/>
    <path class="fil20" d="M1112 1727c1,2 0,2 1,3l4 3c3,3 6,5 8,8 1,3 1,0 6,5l6 6c0,0 0,0 0,0 0,0 0,0 0,0 1,1 1,1 1,1l7 6c3,3 3,1 4,6 -4,0 -8,-1 -8,-4 0,1 2,1 3,2l7 7c0,-1 -2,1 0,-2 1,-2 0,0 1,-1 4,1 5,3 8,6 0,0 0,0 0,0 0,0 1,0 1,1l8 7c3,3 1,2 4,5l7 6c0,0 0,0 0,0 0,0 0,0 0,0 1,0 1,1 1,1l10 9c3,3 2,-2 3,5 -6,-1 -2,0 -6,-2 -1,-1 -2,0 -2,-2l5 3c0,1 0,1 1,1 0,0 0,0 0,1l1 0c0,0 -4,1 1,-3l15 13c0,0 1,1 1,1 2,2 3,3 5,5 2,1 3,4 5,5l6 6c1,1 1,0 2,1l10 10c1,0 1,0 1,0 2,2 1,1 4,3 0,0 0,0 0,0l7 7c0,0 0,0 0,0l1 2c1,1 1,1 2,2 3,0 15,-5 18,-7l4 -1c-5,-22 -25,-65 -36,-84 -16,-29 -31,-48 -66,-54 -2,0 -1,-1 -1,1 0,1 0,2 0,3 0,2 0,3 0,6 -10,3 -15,6 -29,7 -12,0 -20,-2 -31,-4z"/>
    <path class="fil5" d="M1479 1331c1,4 3,21 2,25 -4,4 -18,5 -19,-2 -1,-8 0,-18 -2,-26 -7,0 -15,0 -22,0 -8,0 -13,-4 -9,-12 2,-4 25,-3 31,-2 -1,-8 -1,-15 -2,-22 0,-8 0,-11 9,-11 9,0 8,5 9,13 0,7 1,13 1,20l20 0c9,0 7,13 0,14 -5,1 -12,0 -18,0l0 3zm-60 -41c-3,8 -8,15 -8,26 0,15 2,24 9,35 5,9 5,7 9,11 12,13 30,19 47,17 19,-3 24,-10 31,-13l12 -14c1,-2 2,-2 2,-3 1,-3 1,-2 3,-4 0,-2 2,-7 3,-10 1,-4 1,-8 1,-12 1,-10 -1,-15 -3,-24 -6,-12 -10,-19 -19,-25 -8,-6 -17,-11 -30,-12 -23,-3 -47,10 -57,28z"/>
    <path class="fil16" d="M1372 1384l1 5c3,0 3,0 6,1 7,1 1,-1 7,2 3,1 2,0 7,2l21 5c2,1 4,1 7,1 8,1 -3,1 10,3 6,1 0,2 11,3 4,1 3,0 5,2 5,2 17,4 23,5 7,1 -1,1 6,3 2,0 6,0 8,0 5,1 -4,-2 3,2 3,2 8,1 11,1 1,0 0,0 1,-1 0,0 0,0 1,-1 20,-23 9,-16 53,-16 25,0 50,0 76,0 -1,-3 0,-3 -8,-3 -5,-1 -4,-1 -7,-2l-46 -12c-5,-1 -3,-1 -7,-2 -8,-2 -4,-1 -11,-3 -8,-3 -7,-1 -12,-3l-11 -3c-6,-2 -8,-1 -13,-3l-7 -2c0,-1 0,0 0,-2 -7,3 -12,10 -31,13 -17,2 -35,-4 -47,-17 -4,-4 -4,-2 -9,-11 -7,-11 -9,-20 -9,-35 0,1 0,1 0,2l-1 6 -18 -5c-2,0 -3,1 -7,1l4 -2c-5,0 -5,-2 -10,-2 -1,10 -8,63 -7,68z"/>
    <path class="fil5" d="M1692 1335c18,-5 24,22 8,26 -19,5 -24,-22 -8,-26zm-28 -29c17,-4 23,21 6,26 -17,5 -25,-22 -6,-26zm58 0c8,-2 15,3 16,9 2,9 -3,16 -10,17 -17,4 -24,-22 -6,-26zm-30 -29c17,-5 25,22 7,26 -17,4 -24,-21 -7,-26zm-38 1c-1,3 -5,6 -7,10 -12,17 -9,31 -11,37 2,3 4,39 42,51 12,4 26,4 39,-1 11,-4 17,-10 25,-19l1 -1c5,-7 8,-13 10,-23 3,-13 1,-19 -1,-30 -5,-11 -8,-17 -15,-24 -15,-14 -38,-21 -59,-14 -15,5 -19,12 -24,14z"/>
    <path class="fil5" d="M2118 1547c1,-2 6,-9 8,-8 0,0 2,-1 1,2 -1,0 -1,1 -1,1 -4,4 -5,7 -8,5zm-37 -47c0,-3 6,-10 8,-9 2,3 -5,9 -8,9zm34 -43c0,-2 4,-9 8,-10 0,3 -4,10 -8,10zm-5 5c2,1 1,-1 2,1 -1,3 -4,6 -6,9l-2 0 -4 0c-1,3 -1,2 0,5 3,2 -5,9 -7,9 0,-2 0,-2 2,-5 1,-1 2,-2 2,-3 -1,-3 -2,-3 -4,-5 -8,0 -16,2 -24,2l-46 -2c-8,0 -20,0 -22,-3 -8,0 -16,4 -23,7 -3,2 -7,3 -10,4 -5,2 -8,1 -12,3 1,2 0,2 2,3 0,0 1,1 1,1l5 5c2,2 4,3 5,5 4,1 8,5 13,6 6,5 21,2 29,2 1,-1 12,-4 14,-4 17,-4 32,-4 47,6 2,-4 1,-5 6,-4 0,4 -1,5 -3,7 9,4 16,17 21,25 2,3 4,6 5,9 3,3 5,7 9,10 2,-2 1,-3 4,-3 1,2 1,2 0,3 -1,2 -1,1 -2,3 6,6 9,10 15,15 5,5 12,11 18,15 6,-2 8,-1 8,-8 -2,-5 -3,-12 -4,-17 -2,-6 -4,-11 -6,-17 -2,-6 -3,-9 -5,-17 -1,-1 1,0 -1,-1 -2,3 -4,7 -6,6 -1,-3 2,-5 4,-7 4,-6 0,-3 1,-8l-1 0c-1,2 0,2 -3,2l-16 -23c-5,-5 -5,-4 -5,-7 1,-1 1,0 2,0 0,-5 4,-13 6,-17 7,-20 4,-23 7,-36 2,-6 1,-14 1,-21 0,0 0,-1 0,-1 -1,-2 -1,-1 -2,-2 -1,4 -2,9 -4,13l-11 32c-1,3 -1,1 0,3z"/>
    <path class="fil21" d="M1344 1899c1,0 0,0 2,-1 2,-1 1,0 2,-1l4 -5c0,0 0,-1 0,-1l7 -7c1,-2 2,-2 3,-4 0,-1 0,-1 1,-2 0,0 0,0 0,0l1 -1c0,0 0,0 0,0l14 -16c2,-2 4,-6 6,-8l8 -8c1,-2 2,-2 3,-4l58 -69c2,-1 1,0 2,-1 0,0 0,0 0,0l26 -31c0,0 0,0 0,0l15 -18c0,0 1,0 1,0l2 -3c0,0 0,0 0,0 1,-2 0,-1 1,-2 1,0 1,-1 2,-1l18 -22c0,-1 1,-1 1,-1 0,0 0,0 0,0l1 -2 17 -1c-1,-3 -46,-1 -53,-1l-7 7c0,0 0,1 0,1l-3 4c0,0 -1,0 -1,0 0,1 0,1 0,1 -1,0 -1,0 -1,0l-4 5c-3,4 -8,8 -11,13l-1 1c-4,5 -8,8 -11,12l-22 27c-3,3 -5,6 -8,9l-10 12c-1,1 -2,1 -3,2 -2,3 -3,6 -6,8 -5,5 -10,11 -10,12 0,0 -1,1 -1,1l-8 9c0,1 0,1 0,1l-2 2c-4,4 -7,8 -11,12l-9 11c0,0 0,0 0,0 0,0 0,0 0,1l-10 11c0,0 0,1 -1,1 0,0 0,0 0,0 -4,5 -2,18 -2,25 0,7 0,14 0,22z"/>
    <path class="fil22" d="M1507 1366c0,2 0,1 0,2l7 2c5,2 7,1 13,3l11 3c5,2 4,0 12,3 7,2 3,1 11,3 4,1 2,1 7,2l46 12c3,1 2,1 7,2 8,0 7,0 8,3 4,0 11,-1 15,0 5,0 6,5 9,7 4,-2 0,-1 9,0l27 7c3,1 6,2 9,3l5 1c0,0 0,0 1,0l27 7c0,0 0,0 0,1l1 0c1,0 1,0 1,0 6,2 6,1 13,3 1,1 2,1 3,1 8,3 9,2 15,4 2,1 4,1 5,2 3,0 25,7 27,6 0,-4 -3,-33 -4,-36l-1 8c0,0 0,0 0,0l-42 -10c-4,-2 -12,-3 -17,-5 -1,0 -2,-1 -4,-1 -7,-3 -21,-5 -30,-7l-16 -5c0,0 0,0 0,0l-2 -1c-1,0 0,0 -2,-1 -2,0 -2,0 -5,0l-33 -9c-5,-1 -4,-1 -9,-2l-80 -21c0,0 -1,0 -1,0l-26 -8c-2,2 -2,1 -3,4 0,1 -1,1 -2,3l-12 14z"/>
    <path class="fil3" d="M1875 1245c1,14 1,16 17,16l197 -3c15,0 17,-1 17,-16 0,-15 -3,-16 -18,-16l-198 3c-14,0 -17,1 -15,16z"/>
    <path class="fil23" d="M1015 1834c1,2 2,5 2,7 1,4 1,5 2,7 1,2 2,4 3,5l11 16c1,2 2,3 3,5 4,5 2,4 5,5 0,0 1,-1 1,-1 0,0 0,0 0,0 1,-5 0,0 -1,-5l4 2c2,2 1,2 2,4l2 0c3,0 33,-15 39,-18 0,-3 -1,0 1,-3 2,-1 6,-3 6,-5l-12 -33c-1,-2 -1,-3 -2,-5l-7 -19c-1,-3 -6,-15 -5,-19l2 4c1,-2 2,-4 0,-5l-4 -4c-1,0 -1,0 -1,0 0,0 0,0 0,0l-8 -8c-7,-6 -5,-6 -9,-8 -5,-4 -3,-4 -6,-6 0,0 0,0 0,0l-2 -1c-3,-3 -4,-3 -6,-7l-2 1c-2,1 -4,6 -5,7 -13,23 -17,60 -13,84z"/>
    <path class="fil24" d="M766 1801c6,41 20,75 38,103 10,15 22,29 33,39 13,12 24,18 46,24l10 1 -8 -38c-7,-3 -23,-17 -27,-22 -7,-8 -13,-15 -21,-26 -14,-21 -20,-38 -29,-65l-4 0c-1,-3 -13,-7 -18,-9 -1,0 -2,-1 -3,-1l-7 -3c-4,-1 -5,-4 -10,-3z"/>
    <path class="fil3" d="M2005 1131c-29,1 -68,0 -99,0 -8,0 -26,0 -33,1 -10,2 -9,19 -4,22 4,4 24,3 31,3 28,0 193,4 197,2 9,-3 6,-23 4,-25 -5,-7 -21,-4 -30,-4 -21,0 -44,0 -66,1z"/>
    <path class="fil22" d="M860 1797c1,-3 3,-4 6,-7 0,-1 0,-1 0,-1 4,-5 6,-6 10,-11l2 -2c1,-1 2,-2 3,-3 1,-1 2,-2 3,-3 -2,-14 -8,-32 -10,-45 -1,-5 10,-34 12,-41l28 -80c1,-2 8,-2 10,-2 11,-2 73,-10 75,-9 -6,0 -2,0 -3,-2 -32,-2 -27,-3 -58,2 -18,2 -37,4 -56,8 -4,13 -39,112 -39,117 1,8 16,78 17,79z"/>
    <path class="fil16" d="M1653 1408c9,12 25,28 33,38l17 18c12,13 20,29 40,30 12,1 19,-3 28,-7 10,-4 16,-8 21,-16 2,-3 4,-7 4,-12 1,-4 1,-11 0,-15l0 -1c-2,1 -24,-6 -27,-6 -1,-1 -3,-1 -5,-2 -6,-2 -7,-1 -15,-4 -1,0 -2,0 -3,-1 -7,-2 -7,-1 -13,-3 0,0 0,0 -1,0l-1 0c0,-1 0,-1 0,-1l-27 -7c-1,0 -1,0 -1,0l-5 -1c-3,-1 -6,-2 -9,-3l-27 -7c-9,-1 -5,-2 -9,0z"/>
    <path class="fil25" d="M1004 1968l92 0 0 -1c-9,-4 -30,-45 -31,-48 -3,-2 -8,-14 -10,-18 -3,-6 -7,-14 -10,-20 2,-1 2,0 4,-2l-2 0c-1,-2 0,-2 -2,-4l-4 -2c1,5 2,0 1,5 0,0 0,0 0,0 0,0 -1,1 -1,1 -3,-1 -1,0 -5,-5 -1,-2 -2,-3 -3,-5l-11 -16c-1,-1 -2,-3 -3,-5 -1,-2 -1,-3 -2,-7 0,-2 -1,-5 -2,-7 1,10 -2,24 -2,35 -2,16 -7,88 -9,99z"/>
    <path class="fil5" d="M1477 1442c-3,1 -5,-1 -14,-3l-40 -10c-3,-1 -4,-1 -7,-2l-5 -1c0,0 0,0 0,0 -1,-1 -1,-1 -1,-1 0,0 0,0 0,0 -3,-1 -5,-1 -7,-1 -5,-1 -3,-2 -13,-4 -2,-1 -5,-1 -7,-2l-3 -1c-4,-1 -6,-2 -11,-2l0 -2c0,0 0,0 -1,0l-1 13c-3,21 -8,45 15,58 16,8 33,15 49,7 10,-6 26,-26 35,-36 3,-3 10,-10 11,-13z"/>
    <path class="fil26" d="M1323 1792c1,1 1,3 1,6 4,-1 4,-4 7,-7 1,-2 2,-3 4,-4 1,-1 1,-2 2,-2l1 -2c0,0 0,0 1,0 1,-2 2,-3 3,-4 3,-4 3,-3 6,-7l1 -2c1,-2 2,-2 3,-4l16 -18c5,-7 4,-4 9,-10l6 -8c4,-2 1,0 3,-3l16 -19c0,0 1,0 1,0l11 -14c4,-5 2,-4 10,-4 4,0 28,-1 30,-1 -44,-1 -89,0 -132,0 -3,0 -6,-1 -8,1 12,-2 9,8 9,19 0,9 0,18 0,27 0,18 1,38 0,56z"/>
    <path class="fil27" d="M1126 1926c-3,1 0,0 -3,3l-15 21c0,1 -1,1 -1,2l-1 1c-3,4 -9,9 -10,14l0 1c16,2 24,0 40,-1 2,-1 56,-11 63,-11 2,1 2,-3 1,2l1 -2 17 -6c1,0 1,1 1,1 3,2 3,4 6,6 3,1 5,2 8,3 2,-3 1,-4 2,-6 2,3 4,5 8,5 0,-5 -3,-9 -4,-14 2,2 1,2 3,3 2,2 2,2 4,3 2,2 4,3 7,5l3 0c1,-5 -2,-8 -3,-12 3,2 10,12 14,8 3,-3 2,-5 -2,-10 -8,-10 -12,-14 -24,-17 -6,0 -12,-2 -18,-2 -7,-1 -13,0 -19,-1 -6,0 -13,2 -18,0 -3,2 -24,3 -30,3 -9,1 -20,3 -29,4l-1 -3z"/>
    <path class="fil28" d="M1606 1265c1,0 4,1 5,1 7,3 7,1 14,4l10 2c7,3 13,3 16,5 4,1 0,1 3,1 5,-2 9,-9 24,-14 21,-7 44,0 59,14 7,7 10,13 15,24 4,1 0,0 4,2l5 2c2,0 2,0 4,0 5,1 2,1 7,3 2,0 6,1 8,1l0 -2c3,-12 -12,-38 -20,-47 -4,-5 -12,-12 -18,-16 -32,-21 -72,-19 -103,3 -8,6 -11,10 -17,17l-16 0z"/>
    <path class="fil29" d="M1095 1843l3 0c0,4 0,2 0,2l7 6c0,0 2,2 2,2l3 3c2,1 2,1 5,0 -2,3 -1,3 4,7 0,0 0,1 0,1l3 2c5,5 0,1 9,8 2,2 5,7 8,9l14 12c4,3 4,3 6,6 3,5 3,2 7,6l14 13c2,2 3,1 6,2 5,2 12,0 18,0l2 -21 0 -2c0,0 -1,0 -1,-1 -7,-3 -9,-9 -14,-10 0,0 0,1 1,0l0 -2c1,0 1,0 1,-1 -5,0 -6,-2 -9,-5 -1,-1 -1,-1 -2,-2 0,0 -1,0 -1,0 0,0 0,-1 0,-1 0,0 0,0 0,0l-6 -5c0,0 -1,-1 -1,-1l-4 -4c-1,0 -1,0 -1,0l-23 -21c0,-1 -1,-1 -1,-2l-18 -17c-2,-1 -3,-3 -5,-4l-6 -6c0,0 -1,0 -1,-1 0,0 0,0 0,0 0,0 0,0 0,0 -1,-1 -1,-1 -2,-2 -2,-1 -2,-1 -4,-3l-5 -5c0,0 -1,0 -1,0l-15 -15c-1,0 -1,0 -1,-1 -4,-3 -6,-5 -9,-9l-4 0c1,2 0,1 0,1l0 0c-1,0 -1,0 -1,0 4,7 9,23 11,31l11 30z"/>
    <path class="fil6" d="M907 1529c7,-2 15,-6 22,-9 8,-2 15,-4 23,-6l5 -25c0,0 0,0 0,0l-2 1c-8,-10 -6,-15 -6,-31 1,-11 2,-27 1,-37 -3,-3 -7,-4 -10,-6l-30 -18 -3 131z"/>
    <path class="fil30" d="M1253 1860c-2,1 -1,1 -3,2l-22 8 5 21c5,1 4,1 8,4 0,0 1,1 1,1l11 7c2,2 0,1 3,2 3,2 3,3 6,5l13 8c1,1 0,1 2,1l7 5c4,3 8,6 13,9 1,0 2,1 3,2 1,1 1,1 3,2 1,1 1,1 2,1l1 1c0,0 0,0 0,0l14 9c0,1 1,1 1,1 0,0 2,2 2,2 10,5 7,7 11,5l0 3c5,-1 17,-1 20,-3 8,-6 9,-5 20,-5l16 -1 0 -22c-12,-1 -34,0 -46,0 -6,0 -18,-1 -23,0 -9,2 -11,0 -15,-6l-12 0 -23 -69c-3,2 -15,7 -18,7z"/>
    <path class="fil27" d="M1135 1654c1,2 0,1 2,2 5,5 10,10 16,13 9,4 9,4 13,2 4,-2 8,-1 12,2 0,4 -1,6 -5,6 -11,2 -6,-2 -12,-4 -6,-2 -6,-2 -12,-5 -13,-7 -16,-14 -23,-23 -1,1 -11,4 -12,4 0,2 1,1 0,2l-1 1c2,2 1,0 2,3l2 6c1,4 2,5 4,8 9,15 24,28 43,31l6 1c24,1 26,-10 32,-30 5,-19 7,-32 8,-53 0,-1 -1,-1 -1,-1l-10 4c0,0 -1,1 -2,1 0,0 0,0 0,0l-9 4c0,0 -1,0 -1,0 0,0 0,1 0,1 -1,0 -1,0 -2,1l-4 2c-1,1 -1,1 -3,1l-33 17c-1,0 -1,0 -1,0l-7 2c-2,0 -1,0 -2,2z"/>
    <path class="fil25" d="M1914 1356c-1,2 -2,2 -3,3 -8,7 -13,13 -13,25 0,9 5,29 9,34 1,0 1,0 2,-1l4 5c1,2 2,4 4,5 2,3 6,6 8,8 3,3 6,5 10,7 6,3 6,2 7,1 2,-1 2,-3 1,-5 -3,1 -1,-1 -3,1 -2,2 -1,1 0,2l-1 -1c-1,0 -1,0 -1,0 -9,-5 -12,-8 -19,-16 -7,-9 -5,-8 -11,-16l39 -11c-1,1 1,3 2,5 2,3 7,12 11,13l1 0c0,-5 -1,-4 -5,-10l-5 -6c-1,-3 -2,-3 4,-4 3,-1 2,0 5,-2 3,-1 6,-1 9,-2 1,-1 4,-1 5,-1 0,-1 0,-1 1,-1l4 -1c2,-1 4,-1 6,-2 0,0 0,0 0,0 2,-1 1,0 2,-2 -2,1 1,14 2,16 1,5 0,4 0,6 1,5 0,1 2,3 0,0 0,0 0,0 0,0 1,-3 4,-5 2,-2 3,-3 6,-4 2,-3 6,-2 5,-8l-4 -6c-5,-7 -10,-15 -16,-22 -2,-3 -5,-8 -8,-10 -2,-2 -11,-5 -14,-5 -2,2 -1,10 -17,8 -16,-2 -10,-9 -13,-9l-3 0c-8,3 -10,4 -17,8z"/>
    <path class="fil31" d="M1373 1910c4,0 8,0 12,0 3,0 9,-1 6,3 -4,5 -14,-2 -20,5l-6 9 23 0 27 -31c0,0 0,0 0,0l12 -14c0,-1 0,-1 0,-1 3,-3 8,-8 11,-11l14 -18c0,0 0,0 0,-1l22 -25c1,0 1,0 1,-1l7 -8c0,0 0,0 0,0l12 -14c1,-1 2,-2 3,-3l16 -19c3,-2 4,-5 6,-7l25 -30c1,-1 0,0 1,-1 1,-1 1,0 1,-1l0 -27c1,2 0,0 -4,5 -1,1 -1,2 -2,3 -1,1 -1,0 -2,1l-18 21c0,0 0,1 0,1l-1 1c0,0 0,0 0,0l-1 1c0,1 0,0 0,1l-9 9c-3,4 -6,9 -10,12l-3 3c0,1 0,1 0,1 -3,4 -4,4 -6,7 0,0 0,1 -2,3 -1,1 -1,1 -3,3 -1,1 -1,2 -2,3 -1,0 -1,1 -2,2l-17 19c0,1 -1,1 -1,2 0,0 -1,1 -2,1l-17 21c0,0 0,0 0,0l-13 16c0,0 -1,0 -1,0 0,0 0,0 0,0 0,0 0,1 0,1l-27 31c-1,0 -1,1 -1,1 0,0 0,0 0,0l-22 25 -7 1z"/>
    <path class="fil32" d="M2289 1276l31 4c17,0 22,7 24,-13 1,-13 2,-25 3,-37l7 -69c0,-6 0,-3 -2,-4l1 1c-1,1 -33,51 -37,58 -2,3 -37,55 -37,58l10 2z"/>
    <path class="fil6" d="M2041 1347c-4,-1 -13,0 -17,0 -5,1 -15,1 -20,1l-19 0 -22 0 1 1c3,0 12,3 14,5 3,2 6,7 8,10 6,7 11,15 16,22l93 0 9 -14c-6,2 -16,-5 -19,-8 -4,-3 -9,-10 -9,-18l-14 1c-3,2 -17,2 -21,0z"/>
    <path class="fil11" d="M1782 1084c1,0 1,0 1,0 0,0 0,1 1,1 1,1 3,2 3,4 1,3 0,4 -3,5 0,1 1,0 -1,1l-15 0c1,8 8,54 6,57 1,1 1,0 2,1 0,0 1,1 1,1 8,5 14,9 22,15l23 20 -6 -71c0,-2 0,-2 -2,-3 -2,-2 -1,-2 -3,-4 -12,-17 -3,-43 22,-47 -5,1 -11,0 -17,1 -5,1 -8,3 -12,5 -5,3 -18,13 -22,14z"/>
    <path class="fil33" d="M860 1797c-1,6 21,113 22,115l1 -4c2,-3 2,0 5,-5l0 -1c1,0 1,0 1,0 0,0 1,-2 2,-2l13 -15c0,0 0,0 0,-1l3 -2 3 1 -26 -113c-1,1 -2,2 -3,3 -1,1 -2,2 -3,3l-2 2c-4,5 -6,6 -10,11 0,0 0,0 0,1 -3,3 -5,4 -6,7z"/>
    <path class="fil34" d="M1539 1927c4,0 8,-4 8,-8 0,-3 0,-7 0,-11l0 -32c0,-14 0,-28 0,-42 -1,3 -1,2 -2,4l-15 17c-8,9 -2,4 -8,11l-3 3c0,0 -1,0 -1,1l-15 17c0,0 0,0 0,1l-13 13c-1,1 -2,1 -2,2 -3,3 -1,1 -2,4 -1,3 -3,3 -7,7 0,1 0,2 -1,2l-3 4c-3,3 -2,3 -5,5l52 2c3,0 6,0 9,1 5,0 5,-1 8,-1z"/>
    <path class="fil35" d="M1306 1922c4,6 6,8 15,6 5,-1 17,0 23,0 12,0 34,-1 46,0 -1,-1 1,-1 -2,-1l-23 0 6 -9c6,-7 16,0 20,-5 -11,1 -22,0 -33,0 -11,1 -17,-2 -19,-12 -2,-3 -2,-6 -2,-10l0 -29 -7 8c-1,2 -3,6 -5,7 -2,-2 -1,-4 -1,-6 0,-3 0,-5 0,-8 -1,-5 -1,-10 -1,-15 0,-8 1,-23 0,-31 -3,7 2,57 -1,65l-1 -9c0,-1 0,-1 -1,2 0,-3 0,-10 -1,-13 -1,-6 0,-6 0,-13l-2 4c0,-3 -1,-15 -2,-19 -2,-7 -1,-13 -2,-19l-6 -39c0,-7 0,-10 -2,-11 -1,26 0,53 0,79 0,13 0,26 0,39 0,10 -2,30 1,39z"/>
    <path class="fil6" d="M2260 1272c-1,-3 1,-3 5,-7 11,-15 85,-102 86,-106 -4,1 -6,4 -10,6 -2,3 -6,5 -9,7 -5,4 -11,8 -17,13l-88 64c-3,2 -5,5 -8,7 -1,0 -12,7 -4,10 4,1 38,4 45,6z"/>
    <path class="fil36" d="M1369 1413l0 2c5,0 7,1 11,2l3 1c2,1 5,1 7,2 10,2 8,3 13,4 2,0 4,0 7,1 0,0 0,0 0,0 0,0 0,0 1,1 0,0 0,0 0,0l5 1c3,1 4,1 7,2l40 10c9,2 11,4 14,3 4,-2 19,-21 21,-23 -3,0 -8,1 -11,-1 -7,-4 2,-1 -3,-2 -2,0 -6,0 -8,0 -7,-2 1,-2 -6,-3 -6,-1 -18,-3 -23,-5 -2,-2 -1,-1 -5,-2 -11,-1 -5,-2 -11,-3 -13,-2 -2,-2 -10,-3 -3,0 -5,0 -7,-1l-21 -5c-5,-2 -4,-1 -7,-2 -6,-3 0,-1 -7,-2 -3,-1 -3,-1 -6,-1l-1 -5c-2,3 -2,10 -2,14 -1,5 -2,11 -1,15z"/>
    <path class="fil37" d="M1035 1348c1,-1 3,-3 5,-4 2,-2 3,-3 5,-4 -1,-9 -11,-31 -14,-40 -13,-30 -38,-75 -56,-103 -26,-39 -51,-71 -83,-103 -3,-4 -11,-10 -13,-14 -7,1 -2,5 6,14 51,55 128,175 147,249 1,0 1,2 1,2 1,3 1,2 2,3z"/>
    <path class="fil26" d="M1391 1966l-25 1c0,-10 2,-12 8,-16 -11,0 -12,-1 -20,5 -3,2 -15,2 -20,3l-56 6c-1,-2 -2,-4 -4,-7 -4,-5 -4,-5 -7,-6 -4,4 -11,-6 -14,-8 1,4 4,7 3,12l-3 0c2,4 0,7 2,11l-23 0 -15 0c1,2 3,1 8,1 3,0 6,0 9,0l36 0c7,0 11,-1 18,-1l148 -1c24,0 50,1 74,0 0,-21 -20,-15 -37,-16l0 -22 -26 0 -12 1c0,0 0,0 0,1 1,5 0,-3 0,4l0 14c0,5 0,10 0,17 -8,0 -15,0 -23,1l-21 0z"/>
    <path class="fil38" d="M1065 1919c1,3 22,44 31,48 1,-5 7,-10 10,-14l1 -1c0,-1 1,-1 1,-2l15 -21c3,-3 0,-2 3,-3l-15 -26c-3,-5 -5,-9 -7,-13 -2,-3 -6,-11 -8,-12l-2 -1 -9 14c-1,1 -1,1 -2,2l-15 19c-2,3 -2,3 -2,7 -1,1 0,2 -1,3z"/>
    <path class="fil23" d="M1088 1861c3,3 7,10 8,14 2,1 6,9 8,12 2,4 4,8 7,13l15 26 1 3c9,-1 20,-3 29,-4 6,0 27,-1 30,-3 -3,-1 -4,0 -6,-2l-14 -13c-4,-4 -4,-1 -7,-6 -2,-3 -2,-3 -6,-6l-14 -12c-3,-2 -6,-7 -8,-9 -9,-7 -4,-3 -9,-8l-3 -2c0,0 0,-1 0,-1 -5,-4 -6,-4 -4,-7 -3,1 -3,1 -5,0l-3 -3c0,0 -2,-2 -2,-2l-7 -6c0,0 0,2 0,-2l-3 0c1,1 1,2 2,3 0,2 0,2 1,3 1,3 1,4 1,7 -4,2 -4,4 -8,6 -3,-2 -1,-1 -3,-1z"/>
    <path class="fil32" d="M1822 1189l19 21c4,4 16,19 18,24l-5 -57c0,-9 -1,-19 -2,-28 0,-4 0,-27 -1,-28l-5 2c-5,2 -11,2 -17,1 -6,-2 -8,-4 -13,-6l6 71z"/>
    <path class="fil17" d="M1129 1590c5,4 4,5 7,9 3,-6 5,-6 14,-6 6,1 13,1 19,2 14,0 27,1 41,-1 9,-1 21,-3 25,-9 -5,-1 -4,0 -4,-4 -3,0 -5,1 -7,-1 -2,-2 1,-2 -6,-2l0 -4c-9,0 -7,-1 -7,-3 -7,1 -6,-1 -6,-3l-10 0 0 -3 -7 0 0 -3c-4,-1 -1,-1 -6,0 0,-3 2,-4 -7,-4l0 -3 -4 -1c-2,0 -1,1 -2,-1 -5,-3 3,1 -1,-1 0,0 -1,0 -1,0l-2 0c-2,0 -3,0 -5,0l-1 -3c-8,5 -26,28 -30,41z"/>
    <path class="fil39" d="M1447 1928l26 0c9,0 63,1 66,-1 -3,0 -3,1 -8,1 -3,-1 -6,-1 -9,-1l-52 -2c3,-2 2,-2 5,-5l3 -4c1,0 1,-1 1,-2 4,-4 6,-4 7,-7 1,-3 -1,-1 2,-4 0,-1 1,-1 2,-2l13 -13c0,-1 0,-1 0,-1l15 -17c0,-1 1,-1 1,-1l3 -3c6,-7 0,-2 8,-11l15 -17c1,-2 1,-1 2,-4l0 -25c-3,2 -1,1 -3,4 -2,1 -3,2 -6,5l-11 14c0,0 0,0 -1,0l-5 6c-6,7 -4,5 -8,10 0,0 0,0 0,0 -6,7 -4,4 -8,9 -2,3 -2,1 -6,7l-12 14c-2,3 -4,3 -5,6l-22 25c-4,7 -5,6 -8,10l-6 8c3,0 0,0 1,1z"/>
    <path class="fil40" d="M2080 1430c-3,3 -4,13 -6,17 -1,5 -3,6 -3,6 0,0 0,0 0,0 1,2 1,0 1,3 0,0 -1,3 -1,3 -1,2 -1,4 -2,5l-1 5c-8,0 -40,-2 -52,-3 -6,0 -12,-1 -14,2l-1 2c2,3 14,3 22,3l46 2c8,0 16,-2 24,-2l6 -1c0,4 -1,3 1,5 -1,-3 -1,-2 0,-5l4 0 0 -3c2,-1 5,-6 6,-7 -1,-2 -1,0 0,-3l11 -32c2,-4 3,-9 4,-13 1,1 1,0 2,2 0,0 0,1 0,1 0,-4 0,-5 0,-9l0 -1c-5,1 -3,1 -7,3 -6,3 -8,4 -13,7 0,0 0,0 0,0 0,0 -1,1 -1,1l-7 3c0,1 -1,1 -1,1 0,0 0,0 0,0l-5 3c-4,2 -12,8 -13,5z"/>
    <path class="fil41" d="M1241 1925c12,3 16,7 24,17 4,5 5,7 2,10 3,1 3,1 7,6 2,3 3,5 4,7l56 -6 0 -3c-4,2 -1,0 -11,-5 0,0 -2,-2 -2,-2 0,0 -1,0 -1,-1l-14 -9c0,0 0,0 0,0l-1 -1c-1,0 -1,0 -2,-1 -2,-1 -2,-1 -3,-2 -1,-1 -2,-2 -3,-2 -5,-3 -9,-6 -13,-9l-7 -5c-2,0 -1,0 -2,-1l-13 -8c-3,-2 -3,-3 -6,-5 -3,-1 -1,0 -3,-2l-11 -7c0,0 -1,-1 -1,-1 -4,-3 -3,-3 -8,-4l8 34z"/>
    <path class="fil19" d="M882 1912c0,6 3,12 3,18l8 38 8 0c1,0 0,-1 7,-1l21 0 -19 -84 -3 -1 -3 2c0,1 0,1 0,1l-13 15c-1,0 -2,2 -2,2 0,0 0,0 -1,0l0 1c-3,5 -3,2 -5,5l-1 4z"/>
    <path class="fil42" d="M1186 1539c-6,0 -11,1 -16,3l-9 5c-2,2 -1,1 -2,2l1 3c2,0 3,0 5,0l2 0c0,0 1,0 1,0 4,2 -4,-2 1,1 1,2 0,1 2,1l4 1 0 3c9,0 7,1 7,4 5,-1 2,-1 6,0l0 3 7 0 0 3 10 0c0,2 -1,4 6,3 0,2 -2,3 7,3l0 4c7,0 4,0 6,2 2,2 4,1 7,1 0,4 -1,3 4,4 6,-3 11,-17 11,-25 1,-10 -4,-24 -11,-26 -2,1 -2,2 -5,2 -2,-3 0,-3 -4,-4 -8,8 -27,8 -40,7z"/>
    <path class="fil43" d="M1864 1107c5,-3 46,0 55,0 56,1 113,4 168,4 9,0 19,0 22,7 3,5 4,125 5,140 0,17 1,38 1,56l6 2c-1,-8 -1,-21 -1,-29l-3 -143c-1,-21 3,-38 -21,-38l-172 -5c-19,0 -40,-2 -58,-1l-2 7z"/>
    <path class="fil44" d="M1305 1765c2,1 2,4 2,11l6 39c1,6 0,12 2,19 1,4 2,16 2,19l2 -4c0,7 -1,7 0,13 1,3 1,10 1,13 1,-3 1,-3 1,-2l1 9c3,-8 -2,-58 1,-65l0 -25c1,-18 0,-38 0,-56 0,-9 0,-18 0,-27 0,-11 3,-21 -9,-19 -12,0 -9,22 -9,33 0,14 0,28 0,42z"/>
    <path class="fil3" d="M1979 1324c-1,2 -2,5 -3,8l-5 7c6,0 12,-1 15,1 2,4 1,6 -1,8l19 0c-7,-9 1,-9 9,-9 8,0 14,-1 11,8 4,0 13,-1 17,0 -5,-8 2,-8 10,-8 8,0 14,-2 11,8l14 -1c-1,-6 1,-12 3,-17 3,-6 6,-6 9,-11l-109 6z"/>
    <path class="fil45" d="M1097 1714l-1 7 16 6c11,2 19,4 31,4 14,-1 19,-4 29,-7 0,-3 0,-4 0,-6 0,-1 0,-2 0,-3 0,-2 -1,-1 1,-1l-2 -1 -1 -10 -6 -1c-3,1 -27,-2 -31,-2 -5,0 -28,0 -31,-2 -1,2 -3,11 -5,16z"/>
    <path class="fil46" d="M872 1549l3 -3c2,-3 1,-4 0,-7 -5,-30 -17,-82 -25,-107 -12,-37 -31,-57 -58,-78 -1,0 -2,-1 -2,-1 -1,-1 0,-1 -1,-2 -2,0 -14,-8 -17,-10 -5,-3 -12,-6 -18,-9 -5,-3 -36,-15 -40,-13 1,2 2,2 8,4 41,14 80,40 104,78 18,26 28,75 36,109l8 35c1,3 0,3 2,4z"/>
    <path class="fil47" d="M1816 1118c5,2 7,4 13,6 6,1 12,1 17,-1 -5,0 -2,-1 -3,-2l0 -54 3 -1c0,0 0,0 -1,0l-1 -1c0,-1 -1,-1 -1,-1l-10 0c-25,4 -34,30 -22,47 2,2 1,2 3,4 2,1 2,1 2,3z"/>
    <path class="fil17" d="M1743 1355c1,2 1,-2 1,3 5,-3 32,8 42,9l0 -5c1,-4 -3,-32 -3,-40l-3 -14 0 2c-2,0 -6,-1 -8,-1 -5,-2 -2,-2 -7,-3 -2,0 -2,0 -4,0l-5 -2c-4,-2 0,-1 -4,-2 2,11 4,17 1,30 -2,10 -5,16 -10,23z"/>
    <path class="fil48" d="M1206 1901l-2 21c6,1 12,0 19,1 6,0 12,2 18,2l-8 -34 -5 -21 -3 1 -13 -39 -6 69z"/>
    <path class="fil49" d="M1136 1599c-1,8 1,13 -1,22 -1,7 -3,13 -5,20 3,-3 1,3 2,-2 0,0 -1,1 1,0 4,-1 -2,1 5,-3l15 -8c2,-1 2,-2 4,-2 3,-1 2,0 3,1 0,-3 0,-2 5,-5l2 -1c0,0 0,0 0,0l1 0c0,0 1,0 1,-1l3 -1c4,-2 -1,0 7,-4 0,0 1,0 1,0l1 -1c4,-3 4,-2 4,0 1,-3 1,-2 6,-5l1 0c1,0 1,-1 1,-1l1 0c0,0 0,0 1,-1l5 -3c3,-2 3,-1 5,-2l3 -2c2,-3 -1,-3 2,-4l0 -2c-14,2 -27,1 -41,1 -6,-1 -13,-1 -19,-2 -9,0 -11,0 -14,6z"/>
    <path class="fil32" d="M2001 1400c1,7 4,13 7,19 8,1 42,-2 45,-1 3,-1 7,-4 10,-7l27 -19 -84 0c1,6 -3,5 -5,8z"/>
    <path class="fil13" d="M796 1562c2,3 6,4 9,6 3,1 6,3 8,5 4,3 14,13 17,13 4,-4 7,-8 11,-12 4,-4 9,-6 12,-11 -1,-3 -8,-8 -11,-10 -5,-3 -9,-6 -14,-8 -8,-5 -21,-11 -30,-14l1 1c-5,0 0,-1 -5,0 0,6 0,22 1,27 1,2 1,1 1,3z"/>
    <path class="fil6" d="M2278 1102c2,3 -35,70 -39,80 1,0 4,0 4,0 3,0 2,-1 3,1 1,-1 1,-1 7,-1l22 1c8,-1 6,-11 6,-25 0,-9 1,-53 -1,-58 -2,1 -1,1 -2,2z"/>
    <path class="fil32" d="M2367 1322c1,1 2,-1 0,2 -3,8 -44,67 -46,72l7 1c8,1 22,4 29,4 6,0 6,-4 6,-9l5 -44c0,-7 3,-23 2,-29 -2,2 -2,0 -3,3z"/>
    <path class="fil46" d="M893 1535c3,0 12,-4 14,-6l3 -131c-1,-2 -4,-4 -6,-6l-5 -4c-3,-1 0,0 -3,-1 5,58 0,91 -4,148 1,1 -2,2 1,0z"/>
    <path class="fil50" d="M2136 1519c-1,5 3,2 -1,8 -2,2 -5,4 -4,7 2,1 4,-3 6,-6 2,1 0,0 1,1 2,1 2,-2 2,2 3,-15 9,-11 10,-20 -2,-1 1,0 -2,0 0,0 -1,0 -1,0 0,0 0,0 0,0 6,-18 16,-37 25,-53 23,-45 47,-78 77,-117l18 -21c3,2 0,2 4,2 1,-2 1,-4 2,-6 0,0 1,-2 1,-2l0 -3c-3,-1 -4,2 -6,4l-16 16c-2,2 -3,4 -5,6 -11,10 -45,57 -52,68 -18,27 -50,82 -59,114z"/>
    <path class="fil51" d="M1907 1418c2,8 19,36 23,37 2,-1 2,1 6,-1 3,-1 9,-1 15,-4 1,-1 1,0 2,-2 -3,-4 -6,-5 -9,-10 1,-10 10,-19 16,-23 -4,-1 -9,-10 -11,-13 -1,-2 -3,-4 -2,-5l-39 11c6,8 4,7 11,16 7,8 10,11 19,16 0,0 0,0 1,0l1 1c-1,-1 -2,0 0,-2 2,-2 0,0 3,-1 1,2 1,4 -1,5 -1,1 -1,2 -7,-1 -4,-2 -7,-4 -10,-7 -2,-2 -6,-5 -8,-8 -2,-1 -3,-3 -4,-5l-4 -5c-1,1 -1,1 -2,1z"/>
    <path class="fil11" d="M2351 1159c-1,4 -75,91 -86,106 -4,4 -6,4 -5,7 0,3 0,1 2,3 2,2 2,2 3,3l12 13c2,2 3,3 5,4l7 -19 -10 -2c0,-3 35,-55 37,-58 4,-7 36,-57 37,-58 -2,0 -1,-1 -2,1z"/>
    <path class="fil16" d="M1114 1653c1,-1 0,0 0,-2 -1,-2 -3,0 -7,-3 -2,-2 -4,-4 -6,-6 -6,-12 -1,-38 6,-46 2,-3 5,-4 7,-6 -5,0 1,0 -8,-4l-23 -10c-1,0 -1,0 -1,0l-1 -1c-2,-1 -2,-2 -3,-1l-1 -3c-4,5 -1,18 0,24 2,5 8,18 8,20 -4,3 -11,2 -7,12 3,8 23,26 36,26z"/>
    <path class="fil47" d="M1367 1643c0,-16 0,-40 1,-59l4 -1c-5,-4 -20,3 -24,6 -5,3 -10,10 -11,20 -2,19 12,33 30,34z"/>
    <path class="fil46" d="M1136 1190c7,-1 11,-2 16,-4 9,-6 15,-14 15,-29 -1,-7 -2,-11 -6,-16 -2,-2 -3,-4 -6,-5 -2,-2 -5,-3 -6,-5 -4,0 -4,-1 -7,-1l-6 1c0,10 0,20 0,30 0,7 -1,25 0,29z"/>
    <path class="fil42" d="M980 1641l9 55 29 1 -18 -60c-6,0 -14,3 -20,4z"/>
    <path class="fil47" d="M2088 1318c-3,5 -6,5 -9,11 -2,5 -4,11 -3,17 0,8 5,15 9,18 3,3 13,10 19,8 3,1 5,1 7,0l-5 -1 0 -59c-8,0 -12,3 -18,6z"/>
    <path class="fil6" d="M2317 1358l-36 27c-12,8 13,7 28,10 0,-3 12,-17 14,-19 4,-4 43,-51 44,-54 -2,1 -1,1 -4,2l-46 34z"/>
    <path class="fil32" d="M2227 1182c0,-3 3,-6 6,-10l32 -49c3,-4 12,-17 13,-21 -3,2 -3,3 -6,5l-47 43c-2,1 -3,3 -5,5l-15 14c-5,5 -9,6 -9,11 5,2 23,0 31,2z"/>
    <path class="fil38" d="M1992 1442l-8 6c-1,0 -1,0 -1,0 0,1 0,1 0,1 -1,0 -1,1 -1,1 0,0 0,0 0,0l-6 6c0,0 0,0 0,0l-2 1c1,1 1,1 2,4 6,3 17,6 26,7 2,-3 8,-2 14,-2 12,1 44,3 52,3l1 -5c-4,-1 -4,2 -6,-3 -4,-2 -6,-6 -11,-9 -6,-3 -9,0 -15,1 -6,3 -2,5 -11,3 -19,-4 -15,-4 -23,-12 -2,-2 -5,-10 -8,-7l1 7c-1,-1 -2,-2 -4,-2z"/>
    <path class="fil46" d="M2111 1372c7,0 15,-6 18,-10 4,-5 8,-12 7,-22 0,-6 -3,-11 -5,-15 -2,-2 -3,-4 -5,-5 -2,-2 -4,-3 -5,-4l-6 -2 -9 -2 0 59 5 1z"/>
    <path class="fil47" d="M1127 1131c-4,3 -19,6 -20,28 -1,6 2,12 4,17 2,2 4,4 5,6 2,2 4,2 6,4 4,2 9,4 14,4 -1,-4 0,-22 0,-29 0,-10 0,-20 0,-30l6 -1c-4,-2 -11,0 -15,1z"/>
    <path class="fil38" d="M1130 1641l-2 4c1,1 2,2 3,4 1,1 1,1 2,2l2 3c1,-2 0,-2 2,-2l7 -2c0,0 0,0 1,0l33 -17c2,0 2,0 3,-1l4 -2c1,-1 1,-1 2,-1 0,0 0,-1 0,-1 0,0 1,0 1,0l9 -4c0,0 0,0 0,0 1,0 2,-1 2,-1l10 -4c0,0 1,0 1,1l0 -24c-3,1 0,1 -2,4l-3 2c-2,1 -2,0 -5,2l-5 3c-1,1 -1,1 -1,1l-1 0c0,0 0,1 -1,1l-1 0c-5,3 -5,2 -6,5 0,-2 0,-3 -4,0l-1 1c0,0 -1,0 -1,0 -8,4 -3,2 -7,4l-3 1c0,1 -1,1 -1,1l-1 0c0,0 0,0 0,0l-2 1c-5,3 -5,2 -5,5 -1,-1 0,-2 -3,-1 -2,0 -2,1 -4,2l-15 8c-7,4 -1,2 -5,3 -2,1 -1,0 -1,0 -1,5 1,-1 -2,2z"/>
    <path class="fil52" d="M919 1662l-18 54c5,-1 16,-4 21,-6 4,-2 7,-3 11,-4l8 -2c3,-1 1,0 3,-2l0 -51c0,-3 1,-1 -1,-2l0 26c-2,-1 -3,-1 -3,-2l0 -1c-4,0 -3,1 -5,0 -5,-1 -12,-4 -15,-4l0 -4c-1,-1 -1,-1 -1,-2z"/>
    <path class="fil46" d="M1367 1643c16,-1 28,-12 30,-27 1,-10 -2,-16 -6,-22 -3,-4 -11,-11 -19,-11l-4 1c-1,19 -1,43 -1,59z"/>
    <path class="fil51" d="M1961 1415c5,9 28,23 31,27 2,0 3,1 4,2l-1 -7 -4 -28c-2,-2 -1,2 -2,-3 0,-2 1,-1 0,-6 -1,-2 -4,-15 -2,-16 -1,2 0,1 -2,2 0,0 0,0 0,0 -2,1 -4,1 -6,2l-4 1c-1,0 -1,0 -1,1 -1,0 -4,0 -5,1 -3,1 -6,1 -9,2 -3,2 -2,1 -5,2 -6,1 -5,1 -4,4l5 6c4,6 5,5 5,10z"/>
    <path class="fil45" d="M1049 1879c-2,2 -2,1 -4,2 3,6 7,14 10,20 2,4 7,16 10,18 1,-1 0,-2 1,-3 0,-4 0,-4 2,-7l15 -19c1,-1 1,-1 2,-2l9 -14 2 1c-1,-4 -5,-11 -8,-14 -6,3 -36,18 -39,18z"/>
    <path class="fil53" d="M2097 1388l-6 4c0,1 0,1 -1,4 -2,7 -10,31 -10,34 1,3 9,-3 13,-5l5 -3c0,0 0,0 0,0 0,0 1,0 1,-1l7 -3c0,0 1,-1 1,-1 0,0 0,0 0,0 5,-3 7,-4 13,-7 4,-2 2,-2 7,-3l0 1c3,-2 4,-7 5,-11 2,-5 3,-6 -1,-10l-11 1c-3,0 -20,2 -23,0z"/>
    <path class="fil54" d="M1116 1595c6,-3 12,1 12,7 0,4 -2,12 -2,17 -9,49 -24,16 -22,0 1,-8 6,-22 12,-24zm-2 -5c-2,2 -5,3 -7,6 -7,8 -12,34 -6,46 2,2 4,4 6,6 4,3 6,1 7,3 1,0 11,-3 12,-4 7,9 10,16 23,23 6,3 6,3 12,5 6,2 1,6 12,4 4,0 5,-2 5,-6 -4,-3 -8,-4 -12,-2 -4,2 -4,2 -13,-2 -6,-3 -11,-8 -16,-13 -2,-1 -1,0 -2,-2l-2 -3c-1,-1 -1,-1 -2,-2 -1,-2 -2,-3 -3,-4l2 -4c2,-7 4,-13 5,-20 2,-9 0,-14 1,-22 -3,-4 -2,-5 -7,-9 -3,-1 -6,-2 -10,-1l-5 1z"/>
    <path class="fil55" d="M2011 1506c8,2 16,4 25,7 8,3 15,6 23,9 4,-2 2,-3 6,-4 2,3 -1,2 -2,6 6,3 13,6 20,10 3,2 5,3 9,5 2,2 6,5 9,6 -1,-3 -3,-6 -5,-9 -5,-8 -12,-21 -21,-25 2,-2 3,-3 3,-7 -5,-1 -4,0 -6,4 -15,-10 -30,-10 -47,-6 -2,0 -13,3 -14,4z"/>
    <path class="fil56" d="M1930 1455l1 3c2,1 5,5 6,7 2,2 4,4 6,7 3,3 9,10 13,12 4,-2 7,-1 12,-3 3,-1 7,-2 10,-4 7,-3 15,-7 23,-7l1 -2c-9,-1 -20,-4 -26,-7 -5,-2 -8,-4 -12,-6 -4,-3 -7,-5 -11,-7 -1,2 -1,1 -2,2 -6,3 -12,3 -15,4 -4,2 -4,0 -6,1z"/>
    <path class="fil48" d="M1838 1562c3,3 10,6 13,10 0,4 -9,10 -11,13 -3,2 -4,4 -7,6 -2,2 -5,4 -6,6 3,3 9,8 13,10 1,-1 0,-1 2,-2l3 -5c4,-5 13,-19 15,-22 6,1 9,6 14,7l3 -34 -39 11z"/>
    <path class="fil57" d="M1379 1316c5,0 5,2 10,2l-4 2c4,0 5,-1 7,-1l18 5 1 -6c0,-1 0,-1 0,-2 0,-11 5,-18 8,-26 -4,-3 -10,-3 -15,-4 -7,-3 -5,-1 -10,-3 -3,-2 -4,-1 -6,0l0 -1c-2,2 -2,4 -3,7 -1,3 -2,5 -3,8 -2,6 -2,12 -3,19z"/>
    <path class="fil3" d="M1167 1157c10,0 20,0 30,0 15,-1 10,-19 9,-21 -3,-7 -18,-4 -26,-4 -10,-1 -21,-1 -31,-1 1,2 4,3 6,5 3,1 4,3 6,5 4,5 5,9 6,16z"/>
    <path class="fil22" d="M2053 1418c-1,3 -3,4 -5,6 -1,1 -2,2 -3,3l-3 3c3,1 3,0 6,2 6,4 3,1 10,7l1 1c0,0 0,0 1,0 0,0 2,1 2,1 3,1 3,1 6,4 2,1 3,2 6,2 2,-4 3,-14 6,-17 0,-3 8,-27 10,-34 1,-3 1,-3 1,-4l-1 0 -27 19c-3,3 -7,6 -10,7z"/>
    <path class="fil58" d="M1953 1448c4,2 7,4 11,7 4,2 7,4 12,6 -1,-3 -1,-3 -2,-4l2 -1c0,0 0,0 0,0l6 -6c0,0 0,0 0,0 0,0 0,-1 1,-1 0,0 0,0 0,-1 0,0 0,0 1,0l8 -6c-3,-4 -26,-18 -31,-27l-1 0c-6,4 -15,13 -16,23 3,5 6,6 9,10z"/>
    <path class="fil39" d="M1460 1314l-4 1c0,0 -3,0 -4,0 2,2 1,1 4,1 6,3 -1,1 4,3l9 5c0,0 1,1 2,1l7 4c0,1 1,1 1,2l0 -3c6,0 13,1 18,0 7,-1 9,-14 0,-14l-20 0c0,-7 -1,-13 -1,-20 -1,-8 0,-13 -9,-13 -9,0 -9,3 -9,11 1,7 1,14 2,22z"/>
    <path class="fil50" d="M1626 1733c3,-2 10,-3 14,-4 19,-6 6,-5 31,17 -2,2 -10,3 -14,4 -6,2 -11,4 -13,2 -6,-4 -9,-9 -14,-14 -1,-1 -1,-2 -2,-2 -2,-2 -1,0 -2,-3zm48 10c-4,-3 -18,-17 -20,-19 -1,-3 8,-27 9,-28 1,2 14,18 14,20 2,6 -2,18 -3,27zm-50 -14c0,-5 1,-11 1,-17 1,-11 0,-10 6,-11 9,-2 19,-5 27,-7 0,2 -7,24 -8,26 -1,3 -22,8 -26,9zm-2 -29l-2 29c0,6 4,8 13,18l11 10 32 -8c2,-4 3,-10 4,-15 0,-3 1,-12 3,-15 3,-1 4,0 6,-2 -2,-4 -4,2 -8,-4l-18 -24c-4,0 -37,9 -41,11z"/>
    <path class="fil31" d="M1479 1331c0,-1 -1,-1 -1,-2l-7 -4c-1,0 -2,-1 -2,-1l-9 -5c-5,-2 2,0 -4,-3 -3,0 -2,1 -4,-1 1,0 4,0 4,0l4 -1c-6,-1 -29,-2 -31,2 -4,8 1,12 9,12 7,0 15,0 22,0 2,8 1,18 2,26 1,7 15,6 19,2 1,-4 -1,-21 -2,-25z"/>
    <path class="fil30" d="M1991 1409l4 28c3,-3 6,5 8,7 8,8 4,8 23,12 9,2 5,0 11,-3 -2,-2 -8,-6 -10,-9 -3,-2 -8,-8 -10,-12 -4,-5 -6,-8 -9,-13 -3,-6 -6,-12 -7,-19 -3,1 -4,2 -6,4 -3,2 -4,5 -4,5 0,0 0,0 0,0z"/>
    <path class="fil13" d="M1846 1123l5 -2c1,-1 2,-1 4,-3 2,-1 2,-1 3,-3 1,-2 5,-7 6,-8l2 -7c1,-8 0,-16 -5,-22 -2,-4 -9,-12 -15,-12l-3 1 0 54c1,1 -2,2 3,2z"/>
    <path class="fil41" d="M1102 1698c3,2 26,2 31,2 4,0 28,3 31,2 -19,-3 -34,-16 -43,-31 -2,-3 -3,-4 -4,-8l-2 -6c-1,-3 0,-1 -2,-3 -1,5 -11,40 -11,44z"/>
    <path class="fil18" d="M1077 1571l1 3c1,-1 1,0 3,1l1 1c0,0 0,0 1,0l23 10c9,4 3,4 8,4l5 -1c2,-8 5,-13 7,-19 -6,-2 -11,-8 -20,-9 0,-1 0,0 0,-2 -2,1 -2,1 -3,4 -6,-1 -5,-7 -16,-3 -4,1 -9,6 -10,11z"/>
    <path class="fil19" d="M1106 1559c0,2 0,1 0,2 9,1 14,7 20,9 1,0 6,-8 8,-10 3,-4 5,-6 9,-9 7,-7 12,-10 22,-15 -13,-1 -26,-1 -37,3 -9,3 -22,12 -22,20z"/>
    <path class="fil25" d="M1116 1595c-6,2 -11,16 -12,24 -2,16 13,49 22,0 0,-5 2,-13 2,-17 0,-6 -6,-10 -12,-7z"/>
    <path class="fil48" d="M1813 1888c2,1 37,14 42,16l-6 -41c-2,0 -34,22 -36,25z"/>
    <path class="fil50" d="M1877 1551l-3 34c-5,-1 -8,-6 -14,-7 -2,3 -11,17 -15,22l-3 5c-2,1 -1,1 -2,2 -4,-2 -10,-7 -13,-10 1,-2 4,-4 6,-6 3,-2 4,-4 7,-6 2,-3 11,-9 11,-13 -3,-4 -10,-7 -13,-10l39 -11zm-46 9c1,5 13,9 15,14 -5,4 -13,12 -19,18 -2,2 -5,3 -5,6 1,2 16,13 19,13 3,-1 19,-26 20,-28 5,1 11,8 15,8 2,-4 4,-31 5,-38 0,-7 0,-7 -6,-6 -8,3 -41,10 -44,13z"/>
    <path class="fil48" d="M1624 1729c4,-1 25,-6 26,-9 1,-2 8,-24 8,-26 -8,2 -18,5 -27,7 -6,1 -5,0 -6,11 0,6 -1,12 -1,17z"/>
    <path class="fil59" d="M1165 1536c-10,5 -15,8 -22,15 -4,3 -6,5 -9,9 -2,2 -7,10 -8,10 -2,6 -5,11 -7,19 4,-1 7,0 10,1 4,-13 22,-36 30,-41 1,-1 0,0 2,-2l9 -5c5,-2 10,-3 16,-3 -6,-4 -14,-5 -21,-3z"/>
    <path class="fil6" d="M1122 1186c-2,-2 -4,-2 -6,-4 -1,-2 -3,-4 -5,-6 -2,-5 -5,-11 -4,-17 -5,-2 -23,-1 -29,-1 1,4 11,17 16,29 4,0 26,1 28,-1z"/>
    <path class="fil47" d="M802 1623l4 -6c0,-1 1,-1 -6,-3 -3,0 -6,0 -8,-1 -28,-1 -59,15 -79,32 -2,2 -3,3 -5,4 -2,2 -5,4 -3,6 1,1 16,-10 20,-12 7,-5 14,-9 22,-12 23,-10 32,-10 55,-8z"/>
    <path class="fil26" d="M2027 1444c2,3 8,7 10,9 6,-1 9,-4 15,-1 5,3 7,7 11,9 2,-2 6,-5 8,-8 0,0 0,0 0,0 0,0 2,-1 3,-6 -3,0 -4,-1 -6,-2 -3,-3 -3,-3 -6,-4 0,0 -2,-1 -2,-1 -1,0 -1,0 -1,0l-1 -1c-7,-6 -4,-3 -10,-7 -3,-2 -3,-1 -6,-2 -3,1 -5,4 -8,7 -2,3 -5,4 -7,7z"/>
    <path class="fil60" d="M1947 1298c2,5 1,9 0,14 3,-1 3,-8 6,-11 7,0 17,9 29,11 11,1 16,-7 16,-18l0 0c-7,-6 -4,-4 -15,-4 -2,2 -13,3 -18,4 -4,1 -11,5 -18,4z"/>
    <path class="fil38" d="M1946 1322c1,4 4,6 8,8 4,3 3,1 6,1 3,-1 3,0 4,2 -4,3 -11,-1 -13,-3 -6,-5 -6,-7 -8,-9l-3 1 -2 3 0 1c1,3 2,3 2,6 3,1 2,2 4,4 1,1 4,3 5,4 5,2 9,3 14,3l7 -3c0,0 0,-1 0,-1l1 0 5 -7c1,-3 2,-6 3,-8l2 -7c-7,3 -8,1 -17,3 -3,1 -7,0 -10,0 -9,0 -8,-1 -8,2z"/>
    <path class="fil46" d="M2219 1652l2 5c3,0 9,-2 13,-3 22,-3 46,8 64,19 4,2 7,4 10,6l8 6c3,1 6,0 0,-4 -19,-16 -37,-30 -65,-34 -14,-2 -20,0 -32,3l0 2z"/>
    <path class="fil48" d="M1626 1733c1,3 0,1 2,3 1,0 1,1 2,2 5,5 8,10 14,14 2,2 7,0 13,-2 4,-1 12,-2 14,-4 -25,-22 -12,-23 -31,-17 -4,1 -11,2 -14,4z"/>
    <path class="fil11" d="M2309 1395c1,2 4,4 6,8l7 7c3,-3 4,-9 6,-13l-7 -1c2,-5 43,-64 46,-72 2,-3 1,-1 0,-2 -1,3 -40,50 -44,54 -2,2 -14,16 -14,19z"/>
    <path class="fil11" d="M2227 1182c1,2 13,12 16,13l3 -12c-1,-2 0,-1 -3,-1 0,0 -3,0 -4,0 4,-10 41,-77 39,-80l0 0c-1,4 -10,17 -13,21l-32 49c-3,4 -6,7 -6,10z"/>
    <path class="fil61" d="M1674 1743c1,-9 5,-21 3,-27 0,-2 -13,-18 -14,-20 -1,1 -10,25 -9,28 2,2 16,16 20,19z"/>
    <path class="fil43" d="M2008 1419c3,5 5,8 9,13 2,4 7,10 10,12 2,-3 5,-4 7,-7 3,-3 5,-6 8,-7l3 -3c1,-1 2,-2 3,-3 2,-2 4,-3 5,-6 -3,-1 -37,2 -45,1z"/>
    <path class="fil43" d="M1998 1294l1 5 97 0c3,0 11,1 9,-4 -1,-3 -22,-2 -26,-2 -12,0 -78,-1 -81,1l0 0z"/>
    <path class="fil34" d="M2166 1601c0,-3 1,-3 3,-5 3,-3 1,-4 5,-4 0,4 -1,3 -3,6 -2,2 -2,3 -5,3zm-21 -13c1,2 2,1 3,3 1,2 1,2 3,3l3 2c0,0 0,0 0,0 0,0 1,0 1,1 6,2 10,5 17,7 9,3 17,4 16,-7 -4,-7 -23,-15 -35,-17 0,7 -2,6 -8,8z"/>
    <path class="fil62" d="M1692 1277c-17,5 -10,30 7,26 18,-4 10,-31 -7,-26z"/>
    <path class="fil32" d="M1664 1306c-19,4 -11,31 6,26 17,-5 11,-30 -6,-26z"/>
    <path class="fil40" d="M1692 1335c-16,4 -11,31 8,26 16,-4 10,-31 -8,-26z"/>
    <path class="fil54" d="M1722 1306c-18,4 -11,30 6,26 7,-1 12,-8 10,-17 -1,-6 -8,-11 -16,-9z"/>
    <path class="fil43" d="M1906 1329c0,2 1,3 2,6 0,0 1,2 1,3 0,2 1,0 -1,1l1 2c1,0 1,0 2,0 0,3 -1,3 -2,5 3,1 2,0 3,2 0,0 1,2 1,2 0,3 1,4 1,6 7,-4 9,-5 17,-8 -5,0 -8,-4 -5,-8 2,-2 9,-1 12,-1l2 -7c0,-3 -1,-3 -2,-6l-32 3z"/>
    <path class="fil50" d="M1813 1888c2,-3 34,-25 36,-25l6 41c-5,-2 -40,-15 -42,-16zm-7 0c2,3 49,21 53,20 1,-3 -6,-47 -8,-51 -4,0 -19,13 -23,15 -4,3 -20,13 -22,16z"/>
    <path class="fil19" d="M1938 1325l2 -3c-7,-2 -9,-4 -7,-12 1,-6 3,-10 7,-13 6,-3 1,-3 8,-10 7,-7 6,-5 9,-8l2 -1c0,0 0,0 0,-1 -4,-1 -8,-7 -15,-4 -8,3 -8,9 -9,12 -5,-1 -10,-1 -11,4 -2,7 4,9 5,11 1,2 2,23 9,25z"/>
    <path class="fil32" d="M958 1485c3,-8 5,-16 7,-24 3,-7 6,-16 8,-23 -5,3 -10,1 -12,-3 -4,-6 2,-8 -5,-10 -1,10 -1,21 -1,32 0,5 0,10 0,16 0,6 0,8 3,12z"/>
    <path class="fil28" d="M919 1662c0,1 0,1 1,2l0 4c3,0 10,3 15,4 2,1 1,0 5,0l0 1c0,1 1,1 3,2l0 -26 -20 1 -4 12z"/>
    <path class="fil33" d="M1971 1278c-3,2 -13,0 -23,16 -3,5 -1,4 -1,4 7,1 14,-3 18,-4 5,-1 16,-2 18,-4 1,-9 -3,-16 -12,-15l0 3z"/>
    <path class="fil63" d="M1959 1277c0,1 0,1 0,1l-2 1c-3,3 -2,1 -9,8 -7,7 -2,7 -8,10 -4,3 -6,7 -7,13 -2,8 0,10 7,12l3 -1c2,2 2,4 8,9 2,2 9,6 13,3 -1,-2 -1,-3 -4,-2 -3,0 -2,2 -6,-1 -4,-2 -7,-4 -8,-8l-2 -1c1,-3 2,-7 3,-9 1,-5 2,-9 0,-14 0,0 -2,1 1,-4 10,-16 20,-14 23,-16 -8,-2 -7,0 -12,-1z"/>
    <path class="fil41" d="M1938 1339c0,1 -1,4 -1,5 -1,3 -1,2 -3,4 3,0 -3,7 13,9 16,2 15,-6 17,-8l-1 -1 0 -5c-5,0 -9,-1 -14,-3 -1,-1 -4,-3 -5,-4 -2,-2 -1,-3 -4,-4l-2 7z"/>
    <path class="fil49" d="M1947 1312c-1,2 -2,6 -3,9l2 1c0,-3 -1,-2 8,-2 3,0 7,1 10,0 9,-2 10,0 17,-3l1 -5c-12,-2 -22,-11 -29,-11 -3,3 -3,10 -6,11z"/>
    <path class="fil64" d="M1339 1901c2,10 8,13 19,12 11,0 22,1 33,0 3,-4 -3,-3 -6,-3 -4,0 -8,0 -12,0 -6,0 -13,0 -19,0 -5,0 -11,-4 -10,-8 0,-1 -1,-1 -1,-1l0 -12c0,-8 0,-35 -1,-39l-3 0c-1,5 0,43 0,51z"/>
    <path class="fil25" d="M1136 1967l64 0 0 -9c1,-5 1,-1 -1,-2 -7,0 -61,10 -63,11z"/>
    <path class="fil32" d="M1958 1487c-2,-1 -1,-1 -2,-3 -4,-2 -10,-9 -13,-12 -2,-3 -4,-5 -6,-7 -1,-2 -4,-6 -6,-7 0,7 0,23 3,27 2,2 5,3 10,4 3,0 5,0 8,0 7,1 6,-1 6,-2z"/>
    <path class="fil48" d="M1410 1194c3,-1 6,-5 9,-7l1 -1c0,0 -3,1 -1,-8 1,-2 2,-4 4,-5 3,-2 9,-3 12,-2 2,1 0,0 2,1l12 -9c-11,1 -24,-3 -32,4 -8,6 -7,15 -7,27z"/>
    <path class="fil34" d="M1374 1951c-6,4 -8,6 -8,16l25 -1c0,-5 0,-11 -1,-16l-16 1z"/>
    <path class="fil65" d="M2200 1609c1,3 1,2 2,5 1,1 2,2 2,4 4,0 2,-1 8,-5l15 -10c2,-2 6,-3 8,-5 -3,0 -5,-2 -6,-4 -4,2 -10,5 -15,8 -2,1 -12,6 -14,7z"/>
    <path class="fil66" d="M1401 1950l12 0 0 -20c-1,0 -1,-1 -1,-1 0,0 0,0 0,0l-11 -1 0 22z"/>
    <path class="fil50" d="M2103 1774c11,-5 17,12 7,16 -11,5 -19,-11 -7,-16zm-1 -4c-16,5 -8,29 8,24 16,-4 9,-29 -8,-24z"/>
    <path class="fil67" d="M1129 1293l0 6 1 4c8,2 7,-2 8,-5l22 -4 -22 -1 0 -10c-2,-3 -6,-5 -8,-1 -2,2 -1,8 -1,11z"/>
    <path class="fil48" d="M2103 1774c-12,5 -4,21 7,16 10,-4 4,-21 -7,-16z"/>
    <path class="fil31" d="M1233 1960c2,2 1,3 1,6l-2 1 23 0c-2,-4 0,-7 -2,-11 -3,-2 -5,-3 -7,-5 -2,-1 -2,-1 -4,-3 -2,-1 -1,-1 -3,-3 1,5 4,9 4,14 -4,0 -6,-2 -8,-5 -1,2 0,3 -2,6z"/>
    <path class="fil4" d="M1200 1958l0 9 17 0c-2,-5 0,-11 2,-16 0,0 0,-1 -1,-1l-17 6 -1 2z"/>
    <path class="fil39" d="M2135 1519c0,-9 -17,-27 -22,-28 -1,0 -1,-1 -2,0 0,3 0,2 5,7l16 23c3,0 2,0 3,-2z"/>
    <path class="fil65" d="M1129 1261c1,7 8,7 9,-1 0,-5 2,-18 -5,-18 -7,0 -4,13 -4,19z"/>
    <path class="fil65" d="M1575 1085c-1,6 -1,11 5,10 3,0 14,-1 16,-1 4,-3 1,-9 -5,-9 -4,0 -12,0 -16,0z"/>
    <path class="fil65" d="M1129 1321c0,6 -3,24 6,20 4,-1 3,-6 3,-10 0,-5 1,-9 -2,-12 -4,-2 -5,-1 -7,2z"/>
    <path class="fil68" d="M1784 1094c3,-1 4,-2 3,-5 0,-2 -2,-3 -3,-4 -1,0 -1,-1 -1,-1 0,0 0,0 -1,0 -2,1 -2,1 -7,1 -2,0 -5,0 -7,0l-1 -2c0,0 -1,0 -1,0l1 3c-4,2 -4,4 -2,8 5,1 14,1 19,0z"/>
    <path class="fil46" d="M1729 1086c-5,2 -4,8 1,8 3,1 15,1 17,0 4,-2 3,-8 -2,-9 -3,0 -14,0 -16,1z"/>
    <path class="fil69" d="M2041 1347c4,2 18,2 21,0 3,-10 -3,-8 -11,-8 -8,0 -15,0 -10,8z"/>
    <path class="fil65" d="M1132 1204c-5,2 -3,8 -3,14 0,5 0,12 6,9 4,-1 3,-9 3,-13 0,-5 0,-12 -6,-10z"/>
    <path class="fil46" d="M1298 1393c4,0 14,2 16,-2 4,-9 -13,-7 -17,-7 -8,0 -9,9 1,9z"/>
    <path class="fil37" d="M1276 1391c2,-9 -8,-7 -17,-7 -8,0 -8,9 -1,9 5,1 16,2 18,-2z"/>
    <path class="fil65" d="M1132 1357c-5,1 -3,8 -3,13 0,5 0,12 6,9 4,-1 3,-8 3,-13 0,-5 0,-12 -6,-9z"/>
    <path class="fil37" d="M1689 1093c4,2 11,2 15,1 11,0 7,-7 6,-8 -2,-1 -27,-5 -21,7z"/>
    <path class="fil50" d="M1652 1094c3,1 12,1 16,0 7,0 6,-7 2,-8 -1,-1 -13,-1 -15,-1 -6,1 -6,6 -3,9z"/>
    <path class="fil70" d="M1850 1347c5,1 25,4 22,-5 -1,-4 -5,-3 -8,-3 -8,0 -18,-2 -14,8z"/>
    <path class="fil65" d="M1428 1616c6,0 21,2 16,-7 -1,-3 -8,-2 -11,-2 -5,0 -10,-1 -11,3 -2,5 2,6 6,6z"/>
    <path class="fil70" d="M1618 1094c7,0 16,2 17,-3 2,-7 -8,-6 -16,-6 -11,0 -8,9 -1,9z"/>
    <path class="fil71" d="M1162 1386c-4,-2 -20,-3 -22,0 -2,1 -2,4 0,6 2,2 10,1 14,1 7,1 10,-1 8,-7z"/>
    <path class="fil47" d="M1466 1616c9,0 17,2 17,-4 0,-5 -3,-5 -7,-5 -3,0 -21,-2 -16,7 1,2 3,2 6,2z"/>
    <path class="fil68" d="M1566 1528c1,2 1,4 4,4 3,0 4,-2 5,-5 0,-3 0,-13 -1,-17l-2 -1c-2,-2 -4,0 -6,1 -1,3 -1,14 0,18z"/>
    <path class="fil46" d="M2004 1348c5,0 15,0 20,-1 3,-9 -3,-8 -11,-8 -8,0 -16,0 -9,9z"/>
    <path class="fil72" d="M1963 1343l0 5 22 0c2,-2 3,-4 1,-8 -3,-2 -9,-1 -15,-1l-1 0c0,0 0,1 0,1l-7 3z"/>
    <path class="fil65" d="M1575 1155l0 9c-1,11 9,9 9,1 0,-8 1,-18 -5,-17 -4,0 -4,3 -4,7z"/>
    <path class="fil47" d="M1184 1393c6,0 14,2 16,-2 1,-5 -1,-7 -6,-7l-10 0c-10,0 -10,9 0,9z"/>
    <path class="fil9" d="M1575 1112c-1,4 0,8 -1,12 0,4 0,9 5,9 5,1 5,-5 5,-9 0,-3 1,-10 -1,-12 -1,0 -1,-1 -1,-1 0,0 -1,0 -1,-1 0,0 -1,-1 -4,0l-2 2z"/>
    <path class="fil68" d="M1566 1553c0,5 -1,11 0,16 11,4 9,-5 9,-16 0,-9 -9,-9 -9,0z"/>
    <path class="fil65" d="M1812 1347c4,2 11,1 17,1 8,0 8,-9 0,-9 -12,0 -21,-2 -17,8z"/>
    <path class="fil10" d="M1336 1393l10 0c10,0 9,-9 1,-9l-12 0c-8,0 -9,9 1,9z"/>
    <path class="fil68" d="M1566 1476l0 12c0,8 9,8 9,0 0,-5 0,-12 -1,-17 -5,-1 -8,-1 -8,5z"/>
    <path class="fil68" d="M1566 1607c11,4 9,-6 9,-13 0,-5 0,-10 -5,-9 -5,0 -5,5 -5,9 1,4 0,9 1,13z"/>
    <path class="fil47" d="M1909 1346c1,-2 2,-2 2,-5 -1,0 -1,0 -2,0l-1 -2c-2,-1 -12,0 -15,0 -6,0 -7,3 -5,8 5,2 15,1 21,1l0 -2z"/>
    <path class="fil13" d="M1537 1615c4,2 10,1 16,1 8,0 9,-9 0,-9 -12,0 -20,-2 -16,8z"/>
    <path class="fil50" d="M1222 1393l10 0c9,0 9,-9 0,-9l-11 0c-8,0 -9,9 1,9z"/>
    <path class="fil37" d="M1499 1615c4,2 10,1 16,1 8,0 9,-9 0,-9 -12,0 -20,-2 -16,8z"/>
    <path class="fil65" d="M1575 1193l-1 9c0,11 10,9 10,1l0 -11c0,-8 -9,-9 -9,1z"/>
    <path class="fil65" d="M1575 1231l0 9c0,11 9,10 9,1l0 -11c0,-8 -9,-9 -9,1z"/>
    <path class="fil68" d="M1566 1438l0 12c0,8 9,8 9,0l0 -12c0,-8 -9,-8 -9,0z"/>
    <path class="fil34" d="M1217 1967l15 0 2 -1c0,-3 1,-4 -1,-6 -3,-1 -5,-2 -8,-3 -3,-2 -3,-4 -6,-6 -2,5 -4,11 -2,16z"/>
    <path class="fil73" d="M2188 1597c1,11 -7,10 -16,7 -7,-2 -11,-5 -17,-7 8,9 36,18 40,11 2,-3 1,-4 -1,-7 -1,0 -1,0 -2,-1 -3,-3 0,-1 -4,-3z"/>
    <path class="fil74" d="M1610 1300c-3,-1 -26,-3 -22,3 1,3 6,2 8,2 7,0 16,2 14,-5z"/>
    <path class="fil74" d="M1547 1304c4,1 17,1 23,1 1,-3 1,-3 0,-5 -3,-1 -8,-1 -13,-1 -6,0 -9,-2 -10,5z"/>
    <path class="fil3" d="M1420 1186c1,-2 6,-6 8,-7 3,-3 6,-6 9,-7 -2,-1 0,0 -2,-1 -3,-1 -9,0 -12,2 -2,1 -3,3 -4,5 -2,9 1,8 1,8z"/>
    <path class="fil44" d="M2097 1388c3,2 20,0 23,0 -1,-3 -1,-5 -3,-7 -8,1 -14,5 -20,7z"/>
    <path class="fil50" d="M1931 1348l3 0c2,-2 2,-1 3,-4 0,-1 1,-4 1,-5 -3,0 -10,-1 -12,1 -3,4 0,8 5,8z"/>
    <path class="fil32" d="M2063 1461c2,5 2,2 6,3 1,-1 1,-3 2,-5 0,0 1,-3 1,-3 0,-3 0,-1 -1,-3 -2,3 -6,6 -8,8z"/>
    <path class="fil67" d="M2100 1477c-2,-2 -1,-1 -1,-5l-6 1c2,2 3,2 4,5 0,1 -1,2 -2,3 -2,3 -2,3 -2,5 2,0 10,-7 7,-9z"/>
    <path class="fil46" d="M2158 1608c-1,2 -4,4 -4,6 2,1 2,1 3,0l3 -3c1,-3 2,-1 3,-5 -5,-1 -1,0 -5,2z"/>
    <path class="fil47" d="M1940 1780c4,0 9,-3 11,-4 0,-4 -3,-2 -5,-1 -4,2 -5,2 -6,5z"/>
    <path class="fil47" d="M1922 1706c2,3 3,1 9,-2 3,-2 1,0 2,-3 -3,-2 -9,3 -11,5z"/>
    <path class="fil65" d="M1720 1782c3,1 9,0 11,-3 -1,-1 -7,0 -10,1 -2,1 -1,0 -1,2z"/>
    <path class="fil65" d="M1731 1710c2,1 7,0 9,0 4,-2 2,-1 3,-2 -2,-2 -5,-1 -10,0 -3,1 -1,0 -2,2z"/>
    <path class="fil46" d="M2068 1599c2,1 9,-4 8,-8 -2,0 -8,6 -8,7 -1,3 0,0 0,1z"/>
    <path class="fil37" d="M2032 1553c3,0 9,-5 9,-9 -3,0 -9,5 -9,9z"/>
    <path class="fil47" d="M1857 1815c2,1 3,0 6,-1 4,-1 5,0 5,-4 -3,0 -3,1 -6,2 -3,1 -4,0 -5,3z"/>
    <path class="fil70" d="M1822 1826c3,1 3,1 6,0 3,-1 5,-1 6,-3 -2,-2 -4,-2 -9,1 -4,1 -2,0 -3,2z"/>
    <path class="fil37" d="M2033 1724c4,0 4,-1 6,-3 3,-2 4,-1 4,-4 -3,-1 -10,3 -10,7z"/>
    <path class="fil75" d="M1630 1793c2,2 9,1 10,1 3,-1 0,0 1,-2 -1,-1 2,-1 -2,-1 -3,-1 -9,0 -9,2z"/>
    <path class="fil47" d="M1939 1698c2,0 9,-4 9,-6 0,-1 1,-2 -3,0l-6 3c-2,3 0,3 0,3z"/>
    <path class="fil47" d="M1885 1657c0,0 -1,1 3,0 3,0 7,-3 7,-6 -2,0 -5,2 -8,3 -3,2 -1,1 -2,3z"/>
    <path class="fil47" d="M1956 1772c4,0 4,-1 7,-2 3,-2 3,-1 4,-4 -3,-1 -3,0 -6,1 -3,2 -4,1 -5,5z"/>
    <path class="fil67" d="M1575 1794c2,2 11,3 12,0 -1,-1 1,-1 -1,-1 -1,-1 -3,-1 -4,-1 -9,0 -5,1 -7,2z"/>
    <path class="fil37" d="M2027 1635c1,0 -1,2 3,0 3,-2 6,-5 6,-8 -3,0 -9,6 -9,8z"/>
    <path class="fil72" d="M2062 1604c-2,1 -4,2 -6,4 -3,3 -3,7 6,-1 2,-2 3,-5 0,-3z"/>
    <path class="fil70" d="M1772 1770c3,1 7,-1 10,-2 3,-1 1,1 2,-2 -2,-1 -11,0 -12,4z"/>
    <path class="fil47" d="M1841 1746c0,0 1,0 1,0 0,1 5,-1 5,-1 4,-2 4,0 5,-4 -2,-1 -11,2 -11,5z"/>
    <path class="fil37" d="M2013 1647c3,0 11,-6 9,-8 -1,-1 -9,4 -9,8z"/>
    <path class="fil50" d="M1932 1630c2,1 1,2 5,-1 2,-1 4,-2 5,-4 -1,-1 1,-2 -3,-1l-5 3c-3,3 -1,0 -2,3z"/>
    <path class="fil47" d="M1874 1732c2,0 10,-1 11,-6 -2,0 -10,2 -11,6z"/>
    <path class="fil37" d="M2104 1472l2 0c2,-3 5,-6 6,-9 -1,-2 0,0 -2,-1 -1,1 -4,6 -6,7l0 3z"/>
    <path class="fil76" d="M1835 1680c3,1 6,-1 9,-2 4,-2 1,0 2,-3 -1,-1 1,-2 -6,1 -3,1 -4,1 -5,4z"/>
    <path class="fil76" d="M1824 1753c3,1 4,0 6,-1 4,-1 5,-1 5,-4 -2,-1 -3,0 -6,1 -4,2 -4,1 -5,4z"/>
    <path class="fil37" d="M2118 1547c3,2 4,-1 8,-5 0,0 0,-1 1,-1 1,-3 -1,-2 -1,-2 -2,-1 -7,6 -8,8z"/>
    <path class="fil50" d="M2018 1565c4,1 10,-7 9,-8 0,0 1,-2 -2,0 -3,2 -6,5 -7,8z"/>
    <path class="fil72" d="M2048 1713c3,0 9,-5 9,-7 -2,-2 -5,1 -8,3 -2,2 -1,1 -1,4z"/>
    <path class="fil46" d="M2166 1601c3,0 3,-1 5,-3 2,-3 3,-2 3,-6 -4,0 -2,1 -5,4 -2,2 -3,2 -3,5z"/>
    <path class="fil47" d="M1891 1802c2,2 3,0 6,-1 7,-3 4,0 5,-3 -3,-2 -3,-1 -6,1 -7,2 -4,1 -5,3z"/>
    <path class="fil71" d="M1755 1774c2,1 6,0 9,-1 3,-1 1,0 2,-2 -2,-2 -10,0 -11,3z"/>
    <path class="fil47" d="M1924 1788c2,1 3,0 6,-1 3,-2 4,-2 5,-4 -3,-2 -3,-1 -6,1 -3,1 -4,1 -5,4z"/>
    <path class="fil75" d="M1662 1852c2,1 9,0 10,0 3,-1 1,1 1,-2 -2,-1 -11,-2 -11,2z"/>
    <path class="fil72" d="M2062 1701c3,1 3,0 6,-2 2,-2 4,-2 3,-5 -2,0 -9,4 -9,7z"/>
    <path class="fil65" d="M1716 1848c3,0 10,0 12,-2 -2,-3 -4,-2 -7,-1 -4,0 -5,0 -5,3z"/>
    <path class="fil37" d="M2110 1555c-2,4 -4,3 -4,5 4,2 2,0 6,-2 1,-2 1,-1 2,-3 1,-1 1,-1 0,-3 -3,0 -2,1 -4,3z"/>
    <path class="fil65" d="M1680 1850c2,3 10,2 12,-1 -2,-2 -3,-1 -6,-1 -3,1 -5,0 -6,2z"/>
    <path class="fil70" d="M1790 1764c2,2 7,0 9,-1 3,-2 2,0 2,-3 -2,-1 -10,1 -11,4z"/>
    <path class="fil72" d="M1954 1688c0,0 0,2 3,0 3,-2 7,-4 7,-6 -2,-1 1,-1 -2,-1 0,0 -9,4 -8,7z"/>
    <path class="fil72" d="M1962 1610c3,1 4,-1 6,-2 3,-2 4,-1 4,-5 -3,0 -10,4 -10,7z"/>
    <path class="fil65" d="M1766 1702c3,1 11,0 12,-3 -2,-2 -1,-2 -7,0 -3,1 -4,0 -5,3z"/>
    <path class="fil72" d="M1969 1678c3,1 3,0 5,-2 3,-2 5,-1 5,-5 -3,0 -4,1 -6,3 -2,1 -4,2 -4,4z"/>
    <path class="fil72" d="M2005 1577c3,1 3,-1 5,-3 3,-2 5,-2 4,-5 -3,-1 -3,1 -5,3 -3,2 -4,2 -4,5z"/>
    <path class="fil37" d="M2104 1666c2,0 10,-6 8,-8 -2,-1 -4,2 -5,3 -3,3 -4,2 -3,5z"/>
    <path class="fil72" d="M2019 1734c2,0 9,-3 9,-7 -3,0 -10,4 -9,7z"/>
    <path class="fil47" d="M1858 1739c2,1 10,-2 11,-5 -3,-1 -4,0 -7,1 -2,2 -4,2 -4,4z"/>
    <path class="fil71" d="M1784 1697l1 1c1,0 0,0 2,0l6 -2c4,-1 2,0 2,-3 -2,-1 -11,1 -11,4z"/>
    <path class="fil70" d="M1852 1673c2,0 10,-2 10,-4 1,-3 1,-1 0,-2 -2,0 -3,1 -5,2 -4,1 -5,1 -5,4z"/>
    <path class="fil37" d="M2076 1690c3,0 4,-1 6,-2 2,-2 3,-3 3,-6 -2,0 -4,2 -5,3 -3,2 -4,2 -4,5z"/>
    <path class="fil47" d="M1916 1640c3,1 11,-3 11,-7 -3,0 -4,1 -6,3 -4,1 -4,2 -5,4z"/>
    <path class="fil72" d="M1947 1620c2,1 1,2 3,0 3,-1 7,-3 7,-6 -3,-1 -9,3 -10,6z"/>
    <path class="fil70" d="M1818 1686c2,1 0,1 7,-1 3,-1 4,-1 4,-4 -3,0 -3,1 -6,2 0,0 -3,0 -3,0 -2,1 -1,1 -2,3z"/>
    <path class="fil47" d="M1907 1715c2,2 10,-3 10,-5 0,0 1,-3 -6,1 -1,1 -1,1 -2,2 -4,2 -2,-1 -2,2z"/>
    <path class="fil72" d="M2003 1744c0,0 0,1 4,0 2,-2 6,-4 6,-7 -1,0 2,0 -2,0l-4 3c-2,1 -4,1 -4,4z"/>
    <path class="fil47" d="M1874 1809c2,1 3,0 6,-1 7,-3 4,-1 5,-3 -2,-2 -10,0 -11,4z"/>
    <path class="fil46" d="M2150 1619c-2,0 -3,2 -5,4 -1,1 -5,3 -3,5 2,2 8,-7 8,-7 1,-3 0,-1 0,-2z"/>
    <path class="fil72" d="M1984 1668c3,0 10,-4 9,-7 -3,0 -3,1 -5,2 -3,2 -4,2 -4,5z"/>
    <path class="fil46" d="M2090 1679c2,0 10,-5 8,-9 -2,0 -3,2 -5,3 -2,2 -4,2 -3,6z"/>
    <path class="fil72" d="M2059 1522c-1,3 -1,1 -1,2 -2,3 0,4 3,1l2 -1c1,-4 4,-3 2,-6 -4,1 -2,2 -6,4z"/>
    <path class="fil70" d="M1807 1759c3,1 10,-2 11,-4 -1,-2 -2,-1 -5,0 -4,1 -5,1 -6,4z"/>
    <path class="fil37" d="M2045 1540c2,0 3,-1 5,-3 2,-2 3,-2 3,-6 -3,1 -9,6 -8,9z"/>
    <path class="fil37" d="M2042 1624c1,0 7,-5 8,-7 0,-2 0,-1 -1,-2 -1,0 -8,6 -8,7 0,2 0,1 1,2z"/>
    <path class="fil72" d="M1992 1588c1,1 9,-4 8,-7 -4,0 -3,1 -6,3 -2,2 -4,1 -2,4z"/>
    <path class="fil72" d="M1998 1658c3,0 4,-1 6,-3 2,-2 4,-2 4,-5 -3,0 -9,4 -10,8z"/>
    <path class="fil70" d="M1868 1666c2,0 13,-4 11,-6 -1,-2 -2,-1 -6,1 -3,2 -4,1 -5,5z"/>
    <path class="fil72" d="M1972 1763c3,1 10,-3 10,-6 -2,-1 -9,3 -10,6z"/>
    <path class="fil47" d="M1901 1648c3,2 10,-3 10,-5l-1 0c-1,0 0,-1 -2,0 -2,1 -6,3 -7,5z"/>
    <path class="fil47" d="M1890 1724c3,1 11,-3 11,-5 -1,-1 1,-3 -6,1 -2,1 -4,1 -5,4z"/>
    <path class="fil72" d="M1998 1747c-3,-1 -12,5 -10,7 1,1 10,-4 10,-7z"/>
    <path class="fil47" d="M1908 1795c2,1 10,-1 10,-5 -2,-1 -10,2 -10,5z"/>
    <path class="fil37" d="M2081 1500c3,0 10,-6 8,-9 -2,-1 -8,6 -8,9z"/>
    <path class="fil72" d="M1977 1600c2,0 3,-1 5,-3 2,-2 4,-2 4,-5 -3,0 -9,4 -9,8z"/>
    <path class="fil37" d="M2093 1574c4,0 4,-2 6,-4 2,-2 4,-2 3,-5 -3,1 -8,6 -9,9z"/>
    <path class="fil46" d="M2115 1457c4,0 8,-7 8,-10 -4,1 -8,8 -8,10z"/>
    <path class="fil37" d="M2130 1641c2,0 8,-6 8,-8 -3,-1 -6,3 -8,5 -1,2 -1,2 0,3z"/>
    <path class="fil71" d="M1770 1839c2,1 1,1 7,0 3,-1 4,-1 4,-3l-6 0c-4,1 -4,0 -5,3z"/>
    <path class="fil9" d="M1752 1842l9 0c4,-2 1,0 2,-2 -2,-2 -3,-1 -6,-1 -4,1 -5,0 -5,3z"/>
    <path class="fil37" d="M2116 1654c4,0 4,-2 6,-3 1,-2 3,-3 3,-5 -3,-1 -3,1 -5,2 -2,2 -3,3 -4,6z"/>
    <path class="fil50" d="M2081 1587c3,0 3,-2 5,-4 2,-1 4,-2 3,-5 -2,0 -8,6 -8,9z"/>
   </g>
  </g>
 </g>
</svg>
