<?xml version="1.0" encoding="UTF-8"?>
<!DOCTYPE svg PUBLIC "-//W3C//DTD SVG 1.1//EN" "http://www.w3.org/Graphics/SVG/1.1/DTD/svg11.dtd">
<!-- Creator: CorelDRAW X7 -->
<svg xmlns="http://www.w3.org/2000/svg" xml:space="preserve" width="3in" height="3in" version="1.1" style="shape-rendering:geometricPrecision; text-rendering:geometricPrecision; image-rendering:optimizeQuality; fill-rule:evenodd; clip-rule:evenodd"
viewBox="0 0 3000 3000"
 xmlns:xlink="http://www.w3.org/1999/xlink">
 <defs>
  <style type="text/css">
   <![CDATA[
    .str0 {stroke:black;stroke-width:6.94488}
    .fil0 {fill:none}
    .fil11 {fill:black}
    .fil67 {fill:#000001}
    .fil58 {fill:#000002}
    .fil33 {fill:#001117}
    .fil40 {fill:#001777}
    .fil29 {fill:#00259B}
    .fil15 {fill:#0035BD}
    .fil60 {fill:#0036B0}
    .fil61 {fill:#0051EB}
    .fil37 {fill:#0054F2}
    .fil31 {fill:#0055E9}
    .fil9 {fill:#0056F3}
    .fil68 {fill:#0063C7}
    .fil36 {fill:#11181C}
    .fil42 {fill:#1775EB}
    .fil16 {fill:#1A2D33}
    .fil62 {fill:#1C2D30}
    .fil41 {fill:#1C2E34}
    .fil74 {fill:#260400}
    .fil27 {fill:#35474C}
    .fil39 {fill:#38474A}
    .fil20 {fill:#38474D}
    .fil35 {fill:#3887F3}
    .fil26 {fill:#3A4045}
    .fil72 {fill:#3A4853}
    .fil71 {fill:#3E484C}
    .fil54 {fill:#437EDD}
    .fil63 {fill:#488DDF}
    .fil18 {fill:#5397F3}
    .fil43 {fill:#555E66}
    .fil56 {fill:#5597F1}
    .fil51 {fill:#657B9A}
    .fil57 {fill:#6B97DF}
    .fil59 {fill:#6E8FBB}
    .fil8 {fill:#6F7A7D}
    .fil10 {fill:#72A4F3}
    .fil38 {fill:#73797D}
    .fil34 {fill:#747A7E}
    .fil19 {fill:#8A9396}
    .fil44 {fill:#8C9296}
    .fil49 {fill:#8CB3EB}
    .fil17 {fill:#8CB5F4}
    .fil66 {fill:#8E9699}
    .fil22 {fill:#8EB5F3}
    .fil65 {fill:#8F9197}
    .fil73 {fill:#97B5DC}
    .fil52 {fill:#999CA0}
    .fil55 {fill:#9CC4F1}
    .fil24 {fill:#A4ABAD}
    .fil14 {fill:#A4C3F4}
    .fil28 {fill:#A7C5F6}
    .fil53 {fill:#AEB4B7}
    .fil50 {fill:#B4BABD}
    .fil70 {fill:#B72101}
    .fil45 {fill:#BD4427}
    .fil23 {fill:#BDC2C3}
    .fil6 {fill:#BEBEC0}
    .fil48 {fill:#BEC2C2}
    .fil32 {fill:#C2C3C5}
    .fil25 {fill:#D1D1D1}
    .fil30 {fill:#D75438}
    .fil21 {fill:#D7D7D7}
    .fil69 {fill:#DA542E}
    .fil2 {fill:#DADCE0}
    .fil3 {fill:#DCDDE0}
    .fil46 {fill:#DCE9F0}
    .fil13 {fill:#DFDFDF}
    .fil7 {fill:#E3E3E3}
    .fil47 {fill:#E7E9E8}
    .fil4 {fill:#E9E9E9}
    .fil64 {fill:#EAEAEA}
    .fil12 {fill:#EFEFEF}
    .fil5 {fill:#F4F3F4}
    .fil1 {fill:#F6F6F6}
   ]]>
  </style>
 </defs>
 <g id="Layer_x0020_1">
  <metadata id="CorelCorpID_0Corel-Layer"/>
  <rect class="fil0 str0" x="-2168" y="794" width="1900" height="1167"/>
  <g id="_2070593688000">
   <path class="fil1" d="M1858 1057c1,10 -4,67 -5,83l-16 227c0,3 -1,7 -1,10 0,7 1,7 -1,10 1,10 -3,30 -1,39l130 0 -3 40c-1,11 -7,92 -6,97l1 8c3,-15 5,-32 16,-41 13,-10 21,8 10,29 -7,13 -29,80 -28,84l16 -24c6,-9 11,-16 17,-24l18 -23c6,-7 14,-17 26,-14 0,10 -7,19 -15,28l-24 29c-1,2 -3,4 -5,6 -3,4 -6,6 -10,11 -5,8 -14,16 -18,25 4,-2 27,-28 42,-28 8,0 15,6 2,17 -4,2 -8,4 -11,6 -4,3 -7,5 -10,8l-10 7c-8,8 -18,21 -23,30 -5,9 -16,39 -16,52 4,-6 3,-1 5,-11 1,-6 2,-10 4,-14 9,1 3,1 5,2 2,2 -3,4 3,2 2,-1 5,-5 6,-6 3,-3 11,-9 15,-6l2 -4c3,-10 6,-32 12,-37 9,1 10,12 9,21 -2,8 -6,15 -7,22 13,-13 39,-64 55,-62 17,3 -14,28 -17,32 -5,5 -9,10 -14,15l-13 16 32 -19c7,-4 26,-16 36,-12 3,8 -24,19 -32,23 -10,5 -32,14 -38,20 9,-2 22,-9 32,-7 5,2 5,4 5,9 -8,6 -24,2 -47,15 -10,6 -25,21 -30,31 8,-2 20,-13 31,-9 3,9 -15,14 -27,21 -1,0 -1,1 -2,1l-2 2c2,3 1,2 1,5l179 0c2,-7 0,-6 7,-7l0 -589c0,-22 1,-189 -1,-196l-278 0c0,4 0,7 1,12 0,13 -1,30 -1,38l-6 0z"/>
   <path class="fil2" d="M1469 1094c16,4 23,7 33,16 24,19 26,42 28,69 1,13 3,31 3,44 1,0 2,0 2,1 3,-8 9,-12 17,-14 4,-3 9,-2 14,-2l49 0c18,0 38,1 34,30 -2,19 -8,35 -16,49 -4,8 -7,12 -12,20 -5,7 -11,12 -16,17l26 0 0 31 -30 0c-3,-3 -1,-19 -2,-25l-20 13c-2,2 -1,1 -2,3l6 37 87 0 15 -87c-2,-4 -6,-1 -10,-7 -2,-4 -1,-11 -1,-17 5,-1 22,0 29,0 0,-1 0,-2 0,-2 1,-2 1,-2 1,-2l8 -39 34 0c-1,7 -3,14 -4,21 -3,16 -1,9 2,20 5,3 10,2 16,2 6,0 12,0 18,0 0,13 -1,21 -15,22l3 84 2 5 37 0 21 -302 -4 1c-1,1 0,4 -1,0l-352 0c0,0 0,1 0,1 0,0 -1,0 -1,1l-27 0c-7,0 -7,0 -8,2 6,0 13,0 19,0 3,0 5,-1 8,-1 3,0 7,0 9,2 -3,0 -6,0 -9,0l-8 1c-7,0 -13,0 -19,-1 -13,-2 -11,2 -19,2 -5,0 -15,0 -19,0 1,4 -1,2 4,3l22 -1c0,0 0,0 1,0 0,0 0,0 1,0 4,1 4,2 9,2 7,0 28,-1 33,0 1,0 3,1 4,1z"/>
   <path class="fil3" d="M1290 1025l63 0c12,0 76,-2 82,1 2,10 -4,9 -13,9 -25,0 -136,1 -143,-2 -2,-8 3,-8 11,-8zm-251 215l241 -1 0 5 -3 35c-1,17 -2,33 -3,49 -1,10 -4,43 -3,50l0 5c16,0 32,0 48,0 11,0 38,2 48,0l11 -35c-2,-5 -17,-11 -29,-25 -9,-11 -15,-19 -21,-33 -7,-15 -16,-53 -8,-68 2,-4 9,-11 15,-11 3,-4 2,-6 2,-12l-1 -37c0,-27 13,-53 38,-63 12,-5 36,-7 45,-6 6,1 19,0 26,0 8,0 16,0 24,1 -1,0 -3,-1 -4,-1 -5,-1 -26,0 -33,0 -5,0 -5,-1 -9,-2 -1,0 -1,0 -1,0 -1,0 -1,0 -1,0l-22 1c-5,-1 -3,1 -4,-3 4,0 14,0 19,0 8,0 6,-4 19,-2 6,1 12,1 19,1l8 -1c3,0 6,0 9,0 -2,-2 -6,-2 -9,-2 -3,0 -5,1 -8,1 -6,0 -13,0 -19,0 1,-2 1,-2 8,-2l27 0c0,-1 1,-1 1,-1 0,0 0,-1 0,-1l352 0c1,4 0,1 1,0l4 -1 2 -33 24 -1 -23 332 1 4 5 0 0 4c2,-3 1,-3 1,-10 0,-3 1,-7 1,-10l16 -227c1,-16 6,-73 5,-83l2 -17c-6,2 -194,1 -202,1 -63,-3 -143,2 -202,-1l2 -30c6,-2 179,0 202,0l202 -1 -1 12c0,0 0,0 0,-1 0,0 1,0 1,-1 1,-4 1,-6 0,-10 -10,-2 -238,0 -260,0 -28,0 -58,-1 -87,0 0,-19 0,-38 0,-56 0,-24 13,-22 35,-22l335 0c24,0 242,-1 250,1 6,2 10,9 11,17 1,52 0,113 0,166 0,222 -2,446 0,668 0,23 -15,20 -36,20 -18,0 -37,0 -55,0 -29,0 -76,1 -104,0 -1,0 -3,0 -4,0 -3,-1 0,3 -2,-1 -1,0 -1,0 -2,1 -2,2 0,0 -2,2 15,-5 186,4 197,-4 9,-5 8,-12 8,-24l0 -834c-9,-13 -4,-12 -31,-12 -70,0 -582,-2 -588,0 -5,1 -10,5 -12,11 -2,5 0,57 -1,66l-36 1c0,-8 1,-61 0,-66 -2,-4 -6,-10 -11,-11 -6,-3 -249,-1 -267,-1l-314 0c-13,0 -32,-3 -36,6 6,-3 4,-6 15,-6 184,0 370,0 554,0 24,0 51,-5 57,11 1,3 0,60 0,67l-210 0 -16 228 -198 0c-2,0 -5,0 -7,0 -7,0 -5,1 -6,3z"/>
   <path class="fil4" d="M1252 2018c14,-5 15,20 6,22 -13,4 -15,-18 -6,-22zm-92 0c15,-5 20,19 6,22 -15,4 -22,-18 -6,-22zm303 -159c-3,3 -1,14 -1,18 0,37 -2,105 0,134l66 22 1 1c1,3 1,9 1,12 -7,2 -33,-2 -41,-4 -11,-1 -31,-4 -40,-4 -17,0 -69,11 -81,8l0 -10c-7,-1 -6,-2 -10,2 -4,4 -12,3 -15,-1 -3,-3 -2,-2 -8,-2l-12 0c-1,-5 0,-9 1,-13 1,-5 1,-9 4,-10l0 -4 -23 -7c-2,2 -8,0 -8,0l-32 1c1,-4 1,-3 0,-8 0,1 0,1 0,1 -2,6 0,1 -2,12 -1,10 -15,15 -16,-5 -11,2 -27,1 -39,2 -12,0 -9,0 -8,-1 -7,1 -17,5 -24,8 -6,2 -18,9 -16,-4l-2 -1c0,0 -1,0 -1,0l-1 0c-3,-1 -3,-1 -7,0 -65,1 -138,7 -202,13 -14,2 -35,5 -49,9 -33,10 12,16 18,17 11,3 23,3 34,5 11,2 26,4 36,4 12,1 25,2 37,3 52,5 102,4 150,8l77 2c26,0 51,2 78,2 52,0 104,1 157,1 52,0 105,-2 156,-1 27,0 52,-2 77,-2 26,0 53,-1 78,-2 25,-2 51,-2 76,-3 48,-4 160,-8 198,-19l11 -4c1,-1 -1,-1 3,-1 0,-7 -2,-8 -15,-11 -6,-2 -15,-4 -21,-4 -14,-2 -28,-4 -43,-6 -67,-5 -119,-9 -186,-11 -31,-1 -65,-1 -96,-4l0 10 68 21 0 13 -6 0c-16,0 -68,-9 -78,-8 -18,2 -62,10 -77,8l0 -13 68 -22c1,-50 0,-103 0,-153 0,-12 -1,-145 0,-153l-2 0 0 97c-46,0 -93,1 -139,1 -8,0 -27,1 -33,-2 -9,-7 -8,-12 -8,-26 0,-23 -1,-48 0,-70l-2 0c0,10 -1,82 1,88 5,16 27,12 41,12 46,0 94,-1 140,0l0 197c-77,0 -155,-4 -233,-2 0,-18 2,-133 0,-141z"/>
   <path class="fil5" d="M1861 1021l-1 17 0 2 -2 17 6 0c0,-8 1,-25 1,-38 -1,-5 -1,-8 -1,-12l278 0c2,7 1,174 1,196l0 589c-7,1 -5,0 -7,7l-179 0c0,-3 1,-2 -1,-5 -5,2 -8,6 -11,8 2,4 -1,0 2,1 1,0 3,0 4,0 28,1 75,0 104,0 18,0 37,0 55,0 21,0 36,3 36,-20 -2,-222 0,-446 0,-668 0,-53 1,-114 0,-166 -1,-8 -5,-15 -11,-17 -8,-2 -226,-1 -250,-1l-335 0c-22,0 -35,-2 -35,22 0,18 0,37 0,56 29,-1 59,0 87,0 22,0 250,-2 260,0 1,4 1,6 0,10 0,1 -1,1 -1,1 0,1 0,1 0,1z"/>
   <path class="fil5" d="M1462 1774l5 2c13,11 13,21 9,37 -3,13 -8,32 -13,43l0 3c2,8 0,123 0,141 78,-2 156,2 233,2l0 -197c-46,-1 -94,0 -140,0 -14,0 -36,4 -41,-12 -2,-6 -1,-78 -1,-88l-53 0c3,16 -3,57 1,69z"/>
   <path class="fil6" d="M1723 1379c-2,3 -1,6 -2,10 0,4 -1,5 -6,4l0 -10 -38 0 1 -4c-2,2 -1,2 -2,5 -2,7 -7,6 -6,-1l-87 0 11 63c2,7 6,17 -4,16 -5,-9 -14,-74 -19,-80 -3,3 -39,2 -42,0 1,15 3,47 4,65 0,4 2,20 -5,15 -4,-2 -6,-35 -6,-41l-5 -39c0,0 0,0 0,0 0,-1 0,-1 0,-1l-1 2c-14,0 -28,0 -42,0 -6,0 -38,2 -41,-1 -3,5 1,-2 -1,3l-15 61c-2,7 -2,18 -10,16 -2,-5 12,-70 15,-80 -6,3 -33,1 -42,1 -1,-1 -2,3 -1,-3 0,0 0,0 0,0 0,1 0,1 0,1 -2,4 -1,0 -1,2 0,0 -1,1 -1,2l-5 15c-3,7 -5,13 -7,20 -3,7 -14,35 -14,40l4 7c8,-2 16,-5 22,0 2,7 -1,11 -4,15 0,0 0,0 0,0l2 1c8,6 -3,11 -9,11 1,2 3,9 2,14l2 2c0,1 0,1 0,1 0,1 1,1 1,1 2,7 0,-4 0,2 -2,2 -1,2 -4,3l0 6c2,-2 0,0 2,-2 3,-3 -1,1 2,-2l1 -2 197 0 0 9c2,-2 3,-20 3,-24l3 0 143 0c0,-12 2,-27 2,-39 1,-6 1,-13 2,-19 0,-4 -1,-16 2,-18l77 0 4 -43 -37 0 -2 -5c0,6 3,11 -5,10 -1,-5 1,-8 -2,-12l1 7 -37 0 0 -4z"/>
   <path class="fil5" d="M1723 2002c31,3 65,3 96,4 67,2 119,6 186,11 15,2 29,4 43,6 6,0 15,2 21,4 13,3 15,4 15,11 3,-4 1,-1 2,-6l2 -6 184 0 0 -83c-92,0 -184,0 -276,0 -12,0 -24,-1 -35,0 -6,0 -10,1 -16,1l-52 0c-12,0 -20,-1 -32,-1 -46,0 -92,0 -138,0l0 59z"/>
   <path class="fil5" d="M1371 1519c-2,5 -2,5 -5,8 -3,15 -12,27 -28,28 0,3 -1,0 1,2 1,0 1,1 2,1 0,0 0,0 0,0 9,2 19,8 21,14l3 4c1,1 2,3 2,5 1,3 2,7 2,11 0,8 -1,16 -2,24 -2,13 -10,31 -4,43 10,-1 -6,-3 13,-1l1 3c22,-3 24,-15 33,-8 4,3 6,5 8,8 13,0 17,-4 31,-10 8,-3 7,-1 13,4 3,2 9,6 11,9l-6 8 32 -1 42 0 0 12 43 -1 1 -7 61 -4 -1 -5c-1,-6 -2,-11 -4,-17 -14,-3 -67,1 -80,0 -3,0 -1,0 -3,-1l-1 0 12 -122 0 -9 -197 0 -1 2z"/>
   <path class="fil7" d="M728 1942l0 1 190 0c7,0 7,2 14,2l238 0c11,0 21,0 31,0 11,0 29,1 32,-1l-49 0 0 -110c-6,-1 -11,0 -16,0l-3 1c4,1 2,21 2,28 0,7 1,26 0,32 -15,1 -167,0 -192,0 -28,0 -33,3 -32,-7 0,-25 -1,-52 0,-77l81 0c2,1 0,0 1,2 1,0 1,1 1,2l1 2 0 -6 56 0 -1 12c2,-2 2,-8 2,-12 11,-1 49,-1 58,1l2 -11c-8,2 -179,1 -201,1l0 -83c5,-2 74,-2 82,-1 1,3 0,1 1,4l1 3 0 -7 56 0 0 7 1 -7c3,0 52,-1 55,0 0,6 0,1 2,3l-3 -12c-7,1 -182,0 -195,0 -1,-4 -1,-76 0,-83 5,-2 76,-2 82,0l2 6 0 -6 56 0 0 6 2 -6 30 -1c-3,3 -2,1 -4,2l-1 4c4,-1 6,-3 11,-3 5,0 9,0 14,0 9,0 18,0 27,1l0 -4 -20 0c-9,-1 -6,-6 -5,-14 3,-12 4,-24 2,-37 0,-3 0,-6 -1,-8 0,-2 0,-3 -1,-4l-1 -4c-1,12 0,28 0,41l-212 0c-1,10 0,160 0,188 0,8 1,9 -3,12l0 -197c2,2 1,88 1,98 0,33 0,67 0,100l-64 0 -1 -3c-2,-2 -2,-1 -5,-3l-4 -2c-2,-4 -1,-192 -1,-213l0 -616c0,-13 -1,-14 3,-25 -4,2 -4,6 -4,11l0 820c0,15 -2,21 5,31 5,4 -3,4 13,4 16,1 48,-2 61,1l0 136c-6,2 -186,1 -197,1z"/>
   <path class="fil8" d="M1931 1594l-48 1 1 -20 48 0 -1 19zm-137 -32c2,3 2,3 2,7l-8 1c0,-6 1,-6 6,-8zm139 4l-40 0 1 -19 40 -1 -1 20zm-143 -14l95 0 0 8 -96 0 1 -8zm90 -18l4 2 0 5 -8 0c0,-5 0,-5 4,-7zm55 3l-40 0 1 -19 41 0 -2 19zm-49 -6c-4,1 -86,1 -95,0l0 -7 96 0c0,1 -1,3 -1,4l0 3zm-94 -19c0,-5 1,-5 5,-7 3,2 4,2 3,7l-8 0zm1 -9c0,-6 -1,-8 5,-8l2 0 89 0 0 7c-5,2 -86,1 -96,1zm106 -14l39 0c1,5 0,15 -1,20l-40 0 2 -20zm-138 4l1 -4 11 0 -2 29 -28 0 0 -12 5 0c1,3 0,0 1,4l0 1c0,0 1,1 1,1l16 0 1 -17 -6 -2zm-4 9c-2,1 -2,1 -7,1l-21 0c3,-7 0,-20 3,-27 3,-2 10,-1 14,-1 10,0 12,-2 13,2 1,4 0,9 0,13 0,3 0,5 -1,7 0,4 1,5 -1,5zm-39 0c9,2 9,13 9,23 -1,8 -2,20 -4,27 -1,7 -2,20 -2,27 -1,10 -2,19 -3,30l233 0c1,-8 1,-16 2,-23l1 -21c1,0 1,-1 1,-1 0,0 0,0 0,-1 -1,-5 5,-86 6,-97l-154 0 1 -15c-4,2 -1,1 -5,2l0 -13 -63 0 1 6c9,0 19,0 28,0 10,0 22,-1 23,4 3,3 1,5 -1,7 -3,2 0,1 -4,2 -1,0 -45,1 -46,-1 0,6 -1,4 1,10 -1,0 -1,-1 -1,-1l-2 -2c-4,-2 -3,0 -11,0l1 -9c3,-2 0,1 -1,-3l1 -20c-3,-1 -4,0 -6,-2l1 -4 0 -1c-3,2 -2,14 -2,18 -1,6 -1,13 -2,19 0,12 -2,27 -2,39z"/>
   <path class="fil9" d="M1369 1206l1 3 38 0c8,0 11,-1 17,3 4,3 7,8 9,13 2,9 -2,18 4,38 11,33 35,42 38,45 7,1 19,-9 24,-13 6,-5 12,-11 17,-18 9,-14 17,-33 16,-54 0,-13 -2,-31 -3,-44 -2,-27 -4,-50 -28,-69 -10,-9 -17,-12 -33,-16 -8,-1 -16,-1 -24,-1 -7,0 -20,1 -26,0 -2,2 -5,3 -8,3 -16,5 -30,19 -37,34 -9,21 -6,51 -5,76z"/>
   <path class="fil8" d="M1211 1403c-2,4 1,1 -3,3l-29 0 2 -32c6,-1 12,0 18,0 2,0 6,-1 8,0 7,0 6,-1 6,4l-2 25zm5 -28c5,-2 25,-1 31,-1l-1 31c-5,2 -26,1 -32,1l2 -31zm-141 6l-1 15 -1 10 -32 0 1 -21 0 -9c1,-4 0,-1 1,-2 2,-2 18,-2 27,-2 12,1 1,1 11,0l54 0c5,0 9,2 12,2l32 0 -3 32 -31 0c-6,0 -1,1 -17,1 -9,0 -16,-1 -22,0 -2,0 -2,0 -4,0l-18 1c-7,0 -6,-1 -7,-3 -1,-3 0,-10 -1,-14l-1 -13c1,2 1,-2 1,1 -1,2 -1,2 -1,2zm37 -42l-2 32 -31 0c-2,-8 1,-29 2,-30 0,0 0,0 0,-1 0,0 0,0 0,-1l31 0zm72 0l31 0 -2 32 -31 0 2 -32zm-69 0l31 1 -2 31 -31 0 2 -32zm-71 32c0,-3 1,-30 2,-31 2,-2 26,-1 32,-1l-3 32 -31 0zm103 0c0,-3 2,-30 2,-30 2,-3 26,-2 32,-2l-2 32 -32 0zm111 -60l1 5 -13 0c-2,0 -6,0 -8,0 -1,0 -4,0 -4,0 0,0 -1,-1 -1,-1 0,0 -1,0 -1,0l-1 -1c0,0 0,0 0,0 -1,3 -1,2 -3,3l-11 0c-7,0 -12,-1 -19,-1l0 -35 11 0c1,6 -1,6 12,6l1 -2c1,-3 0,-3 2,-4l23 0 -1 5c1,0 3,0 4,0l4 2c0,0 0,0 0,0l4 3 0 -3 10 0 0 9c1,3 3,3 3,6 0,1 -1,6 -1,7l-3 2 -9 -1zm-209 -23l22 0 0 9c0,6 0,11 -3,15 -15,-2 -21,3 -22,-4l1 -15c0,-4 -1,-4 2,-5zm28 17c-2,-1 -5,0 -5,-5 3,-1 6,-1 10,-1l-2 24 -23 0c0,-9 -1,-8 2,-10 7,2 0,0 4,5l13 0 1 -13zm-27 -36c-2,-7 2,-7 9,-7 16,0 34,-1 50,1 2,7 -1,7 -8,7 -17,0 -35,2 -51,-1zm-24 153l241 0 3 -43c0,0 1,0 1,0 0,-1 0,-1 0,-1 -1,-7 2,-40 3,-50 1,-16 2,-32 3,-49l-153 0c-1,-11 3,-24 1,-34l-85 0 -1 -5 -13 182z"/>
   <path class="fil10" d="M1557 1648l1 0c2,1 0,1 3,1 13,1 66,-3 80,0l0 -1c-5,-2 -11,-1 -16,-1 0,0 0,0 0,0 0,1 6,-4 8,-9 3,-6 1,-12 2,-18 5,-1 11,0 16,0 5,0 11,-2 14,2 -1,5 1,10 2,14 1,3 1,5 2,8 0,2 1,5 2,6l0 -2c7,0 14,0 21,0 9,0 13,1 18,-4 9,-10 4,-21 8,-34l0 -1c1,-11 2,-20 3,-30 0,-7 1,-20 2,-27 2,-7 3,-19 4,-27 0,-10 0,-21 -9,-23l-143 0c8,15 8,9 4,35 -1,12 -9,95 -11,100 -2,5 -6,10 -11,11z"/>
   <path class="fil5" d="M1723 1942l146 0c-4,-9 -7,2 -11,-27 -2,-11 -3,-22 -4,-33 -2,-11 -3,-22 -5,-34 -1,-8 -4,-25 -4,-33l36 0c0,-1 1,1 0,-3l-3 -8 -155 0 0 138z"/>
   <path class="fil11" d="M1222 1746l-4 0c-2,3 -2,4 -3,8 -13,43 8,41 14,47 1,0 24,4 29,4 29,1 37,0 64,-2 7,0 12,-2 18,-2 0,2 -5,31 -5,33 -1,15 -3,31 -5,46 -1,16 -1,32 -3,47 0,8 -2,25 0,31l-1 11 36 1 2 -3c2,-11 11,-50 14,-66 3,-11 5,-22 7,-33 2,-11 3,-25 6,-34 1,-10 2,-22 4,-31l5 0c-2,-1 0,-1 -3,-1 -4,-1 0,-1 -3,0 2,-12 2,-25 -4,-33 -11,-12 -34,-19 -51,-22 -4,-1 -27,-4 -29,-7 -33,5 -53,9 -88,6z"/>
   <path class="fil12" d="M1168 1834l0 -1c-6,-1 -8,-4 -11,-9 -10,-1 -16,-1 -15,-12 -9,-2 -47,-2 -58,-1 0,4 0,10 -2,12 1,6 -5,6 -11,6l-38 -1c-6,0 -7,-5 -6,-11l-1 -2c0,-1 0,-2 -1,-2 -1,-2 1,-1 -1,-2l-81 0c-1,25 0,52 0,77 -1,10 4,7 32,7 25,0 177,1 192,0 1,-6 0,-25 0,-32 0,-7 2,-27 -2,-28l3 -1z"/>
   <path class="fil5" d="M1696 1705l-180 0c-1,22 0,47 0,70 0,14 -1,19 8,26 6,3 25,2 33,2 46,0 93,-1 139,-1l0 -97z"/>
   <path class="fil12" d="M1083 1725c1,14 -11,11 -28,11 -17,0 -30,4 -28,-11l-1 -3c-1,-3 0,-1 -1,-4 -8,-1 -77,-1 -82,1l0 83c22,0 193,1 201,-1 4,-19 2,-62 -3,-80 -2,-2 -2,3 -2,-3 -3,-1 -52,0 -55,0l-1 7z"/>
   <path class="fil13" d="M1881 1812c1,4 0,2 0,3l-36 0c0,8 3,25 4,33 2,12 3,23 5,34 1,11 2,22 4,33 4,29 7,18 11,27l-146 0 0 1c46,0 92,0 138,0 12,0 20,1 32,1l52 0c6,0 10,-1 16,-1 11,-1 23,0 35,0 92,0 184,0 276,0l0 -1 -313 0c5,-9 8,-1 11,-27l13 -100c-14,-1 -32,0 -44,0 -5,0 -4,1 -4,-2 -4,2 -6,2 -10,2l0 -4 -2 4 -18 0 -8 0c0,-4 0,-7 1,-10 0,-3 1,-2 -1,-2 -2,4 -1,6 -1,12 -4,-1 -10,-1 -13,0 1,-4 -1,-3 -2,-3z"/>
   <path class="fil12" d="M1138 1709c-8,-26 -10,-34 -22,-58 -6,-10 -7,-8 -6,-20l1 -4c2,-1 1,1 4,-2l-30 1 -2 6c1,14 -9,11 -21,11 -8,0 -25,1 -32,-1 -2,-2 -4,-5 -3,-10l-2 -6c-6,-2 -77,-2 -82,0 -1,7 -1,79 0,83 13,0 188,1 195,0z"/>
   <path class="fil4" d="M1955 1563c0,1 0,1 0,1 0,0 0,1 -1,1l-1 21c-1,7 -1,15 -2,23l-1 0c-1,0 -1,0 -1,0l-18 1c-6,0 -13,0 -19,0l5 31c4,22 2,90 -4,101 -2,-2 -3,-13 -4,-18 -3,-12 -6,-23 -13,-33 -1,-3 -3,-6 -4,-7 -2,-2 -4,-4 -7,-4 -2,15 7,27 4,38 4,1 2,-2 3,3 3,7 5,26 4,35 -1,11 -1,37 1,47 2,0 1,-1 1,2l6 0c1,2 1,3 2,5 0,3 0,2 -1,5l18 0 2 -4c0,-13 14,-39 19,-47 0,0 0,2 0,2l1 4c3,-4 6,-9 8,-13l8 -15c2,-4 7,-9 9,-12 6,-10 2,-9 3,-18l-2 4c-4,-3 -12,3 -15,6 -1,1 -4,5 -6,6 -6,2 -1,0 -3,-2 -2,-1 4,-1 -5,-2 -2,4 -3,8 -4,14 -2,10 -1,5 -5,11 0,-13 11,-43 16,-52 5,-9 15,-22 23,-30l10 -7c3,-3 6,-5 10,-8 3,-2 7,-4 11,-6 13,-11 6,-17 -2,-17 -15,0 -38,26 -42,28 4,-9 13,-17 18,-25 4,-5 7,-7 10,-11 2,-2 4,-4 5,-6l24 -29c8,-9 15,-18 15,-28 -12,-3 -20,7 -26,14l-18 23c-6,8 -11,15 -17,24l-16 24c-1,-4 21,-71 28,-84 11,-21 3,-39 -10,-29 -11,9 -13,26 -16,41l-1 -8z"/>
   <path class="fil5" d="M1723 1804l154 0c-3,-11 -16,-26 -21,-32 -8,-8 -25,-18 -22,-28 12,-3 28,16 34,21 -3,-22 -29,-59 -49,-65l0 5 -96 0 0 99z"/>
   <path class="fil14" d="M1438 1361l0 1 78 0 12 0 18 -5c8,-2 12,-4 18,-6l2 2 0 -3c4,-2 7,-4 11,-4 1,-2 0,-1 2,-3l20 -13c1,6 -1,22 2,25l-1 -30 1 -3 -20 -20c-3,3 -7,15 -10,19l-7 -19c-10,2 -24,18 -63,14 -5,-1 -6,-2 -10,-3 -7,-1 -4,1 -8,-4 -1,1 2,2 -3,1 -6,-1 -2,1 -4,-2 -3,-3 -27,-12 -38,-45 -6,-20 -2,-29 -4,-38 -2,-5 -5,-10 -9,-13 -6,-4 -9,-3 -17,-3 -7,4 -36,2 -37,1l30 1c-1,2 0,1 -3,3 -4,3 -9,8 -10,18 -2,25 7,59 21,78 10,13 20,24 34,33 8,4 13,8 22,11 5,2 21,7 25,7l-52 0z"/>
   <path class="fil6" d="M1026 1422c3,1 9,1 12,1l199 0 -2 23 -5 71 70 1c-1,-8 -9,-16 -3,-27 2,-4 3,-3 3,-7 -2,-8 -3,-10 4,-14 5,-3 13,-4 19,-3 4,-4 7,-8 14,-10l7 -2 23 -72c-10,2 -37,0 -48,0 -16,0 -32,0 -48,0l0 -5c0,0 0,0 0,1 0,0 -1,0 -1,0l-3 43 -241 0z"/>
   <path class="fil15" d="M1229 1801c-6,-6 -27,-4 -14,-47 1,-4 1,-5 3,-8l4 0 -6 -1c0,-16 6,-61 8,-81 1,-8 4,-19 1,-26 -4,-10 -7,-10 -20,-10 -9,0 -19,1 -28,0l-15 1 -41 0c1,3 2,-1 5,6l6 11c10,19 10,20 17,39 12,31 14,68 13,100 0,11 -2,21 -1,26 12,-7 54,-13 68,-10z"/>
   <path class="fil16" d="M1698 1705c-1,8 0,141 0,153 0,50 1,103 0,153l-68 22 0 13c15,2 59,-6 77,-8 10,-1 62,8 78,8 -2,-4 -1,-8 -1,-13l-68 -22 0 -306 5 0 0 303c1,7 0,2 2,4l0 -10 0 -59 0 -1 0 -138 0 0 0 -99 96 0 0 -5 0 -5 -230 0c-1,3 0,5 0,8l96 0c2,0 5,0 7,0 7,1 6,1 6,2z"/>
   <path class="fil17" d="M1335 1211c-6,0 -13,7 -15,11 -8,15 1,53 8,68 6,14 12,22 21,33 12,14 27,20 29,25 3,-8 13,-8 12,4 10,6 23,7 32,9 5,1 2,0 3,2 4,-7 0,-27 15,-18 2,6 -1,10 -2,16l52 0c-4,0 -20,-5 -25,-7 -9,-3 -14,-7 -22,-11 -14,-9 -24,-20 -34,-33 -14,-19 -23,-53 -21,-78 1,-10 6,-15 10,-18 3,-2 2,-1 3,-3l-30 -1c1,1 30,3 37,-1l-38 0 -1 -3c-2,2 0,-1 -1,1 0,0 -1,1 -1,2 -6,0 -11,0 -17,0 -8,0 -8,0 -15,2z"/>
   <path class="fil18" d="M1230 1626c-1,3 -1,4 -1,7 -1,4 0,5 -4,5 3,7 0,18 -1,26 -2,20 -8,65 -8,81l6 1c35,3 55,-1 88,-6 2,-1 4,-1 6,0 3,-2 19,-6 22,-6l2 -28c5,-2 84,-1 96,-1l-5 0 -91 0 0 -10c0,0 0,0 -2,0 -1,-1 -2,-1 -3,-1 -1,0 -4,0 -6,0 -4,0 -8,1 -12,0l0 -10 27 0 0 -2c0,0 0,0 0,0 -1,1 -1,-1 -2,-2l-1 -2c-1,0 -4,0 -6,0 -6,1 -3,1 -4,2 -2,2 3,2 -4,2 -1,1 -5,0 -6,0 -5,-3 -6,-1 -13,-1 -6,0 -9,-1 -14,-2 -1,2 -3,2 -3,2 0,0 -2,0 -3,0 -1,0 -4,-1 -6,-1 -24,-6 -34,-33 -36,-56l-10 1c0,-6 -2,-5 -3,-6 0,5 1,7 -3,7z"/>
   <path class="fil19" d="M1818 1334c12,-4 8,15 7,23 0,9 1,25 -6,27 -12,3 -8,-15 -8,-23 1,-14 0,-25 7,-27zm14 -268c2,-4 5,-7 8,-9 2,2 5,6 6,9l-14 0zm-6 15l-21 302 -4 43 25 0c-1,-6 1,-17 1,-24 1,-5 0,-21 2,-23l23 -332 -24 1 -2 33z"/>
   <path class="fil5" d="M1671 1650c0,7 3,13 3,19l2 2 15 0 0 11c9,2 54,1 66,1 23,0 45,0 67,0l-6 -7c-2,-2 -5,-4 -7,-6l-29 -27c-3,-3 -12,-10 -10,-17 12,-5 42,30 51,39 3,4 12,15 16,16 -2,-6 -13,-30 -17,-37 -7,-13 -9,-16 -14,-25 -8,-13 5,-10 -47,-10 -14,0 -29,0 -43,1 -4,13 1,24 -8,34 -5,5 -9,4 -18,4 -7,0 -14,0 -21,0l0 2z"/>
   <path class="fil20" d="M1431 1705l5 0 0 41c0,3 0,5 0,7 0,8 0,6 -1,6 2,3 1,5 1,10 0,49 1,100 0,149l-1 7c0,0 0,1 0,1 2,2 0,-1 1,2 1,5 0,82 0,83 -7,2 -25,10 -31,9 -2,2 0,1 -3,2 0,0 -4,1 -4,1 -2,1 -4,2 -7,2 -2,2 -7,3 -10,4 -1,-2 -1,-1 -2,-3l0 4c-11,3 -9,4 -14,4l-27 0c-3,1 -2,0 -3,1 6,0 5,-1 8,2 1,-2 0,-1 1,-3l15 0 -1 4c4,-4 3,-3 10,-2l0 10c12,3 64,-8 81,-8 9,0 29,3 40,4 8,2 34,6 41,4 0,-3 0,-9 -1,-12l-1 -1 0 13 -5 0 0 -13 -68 -21c-2,-2 -4,-4 -4,-6l0 -293c-2,-1 -3,-2 -6,-2 0,-5 1,-6 1,-11 -8,0 -11,0 -14,1l-1 4z"/>
   <path class="fil11" d="M1316 1740c17,-2 53,9 67,14 19,7 24,14 27,35l1 13c1,6 1,-5 0,2 0,0 0,0 0,1 2,0 5,0 7,0 1,1 4,1 4,1 5,1 2,-2 2,3 -5,4 -8,19 -11,25 -5,18 -11,37 -16,56 -3,10 -14,52 -13,59l-1 3c9,2 29,10 37,9l7 -15c2,-7 7,-14 8,-20 0,0 0,-1 0,-1l1 -7c1,-49 0,-100 0,-149 0,-5 1,-7 -1,-10 -25,-10 -68,-22 -97,-25 -3,0 -19,4 -22,6z"/>
   <path class="fil21" d="M1824 1683c4,0 7,0 10,0 1,0 3,-1 5,0 3,0 1,-1 4,1l0 10 -24 1 0 5c20,6 46,43 49,65 -6,-5 -22,-24 -34,-21 -3,10 14,20 22,28 5,6 18,21 21,32l-154 0 0 0 155 0 3 8c1,0 3,-1 2,3 3,-1 9,-1 13,0 0,-6 -1,-8 1,-12 -2,-10 -2,-36 -1,-47 1,-9 -1,-28 -4,-35 -1,-5 1,-2 -3,-3 0,5 -3,13 -3,18 -1,7 -2,14 -2,21 -4,-4 -8,-22 -9,-27 -2,-10 -4,-19 -5,-30 -3,-29 4,-51 -3,-63 -22,0 -14,42 -15,47 0,2 0,1 -1,2l-27 -76 88 0c6,0 13,0 19,0l18 -1c0,0 0,0 1,0l1 0 -233 0 0 1c14,-1 29,-1 43,-1 52,0 39,-3 47,10 5,9 7,12 14,25 4,7 15,31 17,37 -4,-1 -13,-12 -16,-16 -9,-9 -39,-44 -51,-39 -2,7 7,14 10,17l29 27c2,2 5,4 7,6l6 7z"/>
   <path class="fil9" d="M1110 1631c-1,12 0,10 6,20 12,24 14,32 22,58l3 12c5,18 7,61 3,80l-2 11c-1,11 5,11 15,12 3,5 5,8 11,9l4 0c7,-4 42,-7 52,-8 18,-1 40,1 57,4 13,2 28,9 33,-4 9,-24 -28,-18 -48,-18l-6 -1c0,0 -1,0 -1,0 0,0 -1,-1 -1,-1 -5,0 -28,-4 -29,-4 -14,-3 -56,3 -68,10 -1,-5 1,-15 1,-26 1,-32 -1,-69 -13,-100 -7,-19 -7,-20 -17,-39l-6 -11c-3,-7 -4,-3 -5,-6l41 0c-9,-1 -18,-1 -27,-1 -5,0 -9,0 -14,0 -5,0 -7,2 -11,3z"/>
   <path class="fil5" d="M1266 1941l56 0c3,0 0,0 4,-2 0,-2 -1,-5 -1,-6l2 -6c2,-15 2,-31 3,-47 2,-15 4,-31 5,-46l-71 -1 0 42c0,5 2,4 2,11 0,18 -1,37 0,55z"/>
   <path class="fil5" d="M1889 1718c3,-11 -6,-23 -4,-38 3,0 5,2 7,4 1,1 3,4 4,7 7,10 10,21 13,33 1,5 2,16 4,18 6,-11 8,-79 4,-101l-5 -31 -88 0 27 76c1,-1 1,0 1,-2 1,-5 -7,-47 15,-47 7,12 0,34 3,63 1,11 3,20 5,30 1,5 5,23 9,27 0,-7 1,-14 2,-21 0,-5 3,-13 3,-18z"/>
   <path class="fil18" d="M1234 1601l-4 25c4,0 3,-2 3,-7 1,1 3,0 3,6l10 -1 -1 -15c-11,-56 18,-63 31,-23 7,21 10,58 40,67l1 -3c11,1 10,-1 12,9l4 -1c8,-1 8,2 14,0 2,-9 7,-37 9,-43l5 -15c0,-4 1,-9 2,-13 0,-5 0,-10 -1,-15 -2,-6 -12,-12 -21,-14l-2 1c1,6 4,21 3,28 -2,-2 -4,-7 -8,-7 -3,0 -7,4 -9,5 -9,-4 -8,-11 -23,7 -2,-15 -4,-28 -11,-40 -6,-1 -9,1 -15,1 -12,-1 -27,6 -31,13 -6,11 -8,22 -11,35z"/>
   <path class="fil22" d="M1552 1210c-8,2 -14,6 -17,14 0,-1 -1,-1 -2,-1 1,21 -7,40 -16,54 -5,7 -11,13 -17,18 -5,4 -17,14 -24,13 2,3 -2,1 4,2 5,1 2,0 3,-1 4,5 1,3 8,4 4,1 5,2 10,3 39,4 53,-12 63,-14l-18 -43 44 18c0,-4 6,-14 8,-18 7,-19 4,-30 10,-39 3,-4 9,-10 13,-10l-69 0z"/>
   <path class="fil23" d="M1860 1040l0 -2c-3,3 -5,2 -12,2 -27,0 -183,1 -190,-1l2 -29c-23,0 -196,-2 -202,0l-2 30c59,3 139,-2 202,1 8,0 196,1 202,-1z"/>
   <path class="fil24" d="M1860 1038l1 -17 1 -12 -202 1 -2 29c7,2 163,1 190,1 7,0 9,1 12,-2z"/>
   <path class="fil21" d="M1233 1944c3,-2 6,-1 11,-2 0,7 1,19 -1,25 3,-1 1,1 2,-4 0,0 0,-4 0,-5l0 -78c-1,2 -1,-1 -1,3 -1,12 1,45 0,59l-11 0 0 -109 -61 0 -4 0 0 1c5,0 10,-1 16,0l0 110 49 0z"/>
   <path class="fil25" d="M1973 1712c-1,9 3,8 -3,18 -2,3 -7,8 -9,12l-8 15c-2,4 -5,9 -8,13l-1 -4c0,0 0,-2 0,-2 -5,8 -19,34 -19,47l0 4c4,0 6,0 10,-2 2,-3 5,-5 6,-8 2,-2 0,0 2,-2 1,-1 1,-1 2,-1 3,-2 6,-6 11,-8l2 -2c1,0 1,-1 2,-1 12,-7 30,-12 27,-21 -11,-4 -23,7 -31,9 5,-10 20,-25 30,-31 23,-13 39,-9 47,-15 0,-5 0,-7 -5,-9 -10,-2 -23,5 -32,7 6,-6 28,-15 38,-20 8,-4 35,-15 32,-23 -10,-4 -29,8 -36,12l-32 19 13 -16c5,-5 9,-10 14,-15 3,-4 34,-29 17,-32 -16,-2 -42,49 -55,62 1,-7 5,-14 7,-22 1,-9 0,-20 -9,-21 -6,5 -9,27 -12,37z"/>
   <path class="fil26" d="M1927 1460c0,-5 -1,-4 4,-4l22 0c-1,7 -3,5 -11,5 -5,0 -11,1 -15,-1zm22 -8c-2,0 -18,0 -21,-2 0,-4 0,-3 4,-3l21 0c0,5 1,4 -4,5zm-45 6c-1,-3 -3,-1 5,-8 -2,-6 -8,-5 -4,-10 4,0 9,7 10,9l-11 9zm-5 -3c-6,6 -6,3 -7,2 -2,-3 3,-5 5,-8 -1,-3 -3,-3 -4,-5 -2,-6 5,-6 11,5 -2,2 -3,3 -5,6zm42 -13c-14,0 -12,1 -12,-4 2,-1 15,-1 19,-1 1,0 3,0 4,1 2,0 1,0 2,1 -1,4 1,3 -13,3zm-218 -11c2,2 3,1 6,2l80 0 -1 18 -1 15 154 0 3 -40 -130 0 -8 0 -25 0 -77 0 0 1 239 1c-1,6 3,4 -12,4l-107 0c-20,0 -40,-1 -60,-1 -20,0 -41,1 -61,0z"/>
   <path class="fil26" d="M1266 1274c0,0 -20,1 -23,-1 1,-5 -2,-4 12,-4 3,0 6,0 8,0 7,0 4,0 6,3 -2,2 0,1 -3,2zm-10 -10c-15,0 -11,1 -12,-2 2,-2 0,-1 3,-2l17 0c6,0 4,-1 5,2 -1,4 -4,2 -13,2zm-37 6c1,-6 3,-3 6,-8 -1,-2 -4,-4 -4,-5 -1,-2 0,-4 2,-4 2,1 7,8 9,9 -2,2 -8,8 -11,10l-2 -2zm-11 0c-1,-3 4,-6 6,-8 -2,-3 -4,-3 -5,-5 -2,-4 2,-9 12,5 -2,2 -4,4 -6,6 -6,6 -6,4 -7,2zm60 -15c-2,0 0,0 -2,0l-21 0c0,-7 3,-5 10,-5 5,0 10,0 15,0l0 4c-2,1 0,0 -2,1zm-143 -10c2,10 -2,23 -1,34l153 0 3 -35c-6,3 -65,1 -78,1 -13,0 -26,0 -39,0 -11,0 -27,1 -38,0z"/>
   <path class="fil17" d="M1245 1609c3,13 11,33 16,43 8,13 16,24 33,27 5,1 8,2 14,2 7,0 8,-2 13,1 -3,-4 -2,-8 -3,-14 -1,-7 -1,-11 -1,-18l-1 3c-30,-9 -33,-46 -40,-67 -13,-40 -42,-33 -31,23z"/>
   <path class="fil27" d="M1564 1694c-6,2 -44,1 -55,1 -19,0 -37,0 -56,0 -15,0 -107,-2 -113,0l0 10 91 0 1 -4c3,-1 6,-1 14,-1 0,5 -1,6 -1,11 3,0 4,1 6,2l0 293c0,2 2,4 4,6l0 -307 6 0 53 0 2 0 180 0 2 0c0,-1 1,-1 -6,-2 -2,0 -5,0 -7,0l-96 0c0,-3 -1,-5 0,-8l230 0 24 -1 0 -10 -1 0 0 10 -278 0z"/>
   <path class="fil28" d="M1552 1210l69 0c-4,0 -10,6 -13,10 -6,9 -3,20 -10,39 -2,4 -8,14 -8,18l18 7 -19 9c2,6 16,16 20,22 -1,3 -5,7 -8,7l-1 3 5 -1c5,-5 11,-10 16,-17 5,-8 8,-12 12,-20 8,-14 14,-30 16,-49 4,-29 -16,-30 -34,-30l-49 0c-5,0 -10,-1 -14,2z"/>
   <path class="fil15" d="M1142 1625l20 0 15 1 22 -1c8,-9 7,-39 6,-52 -1,-7 -1,-20 -6,-24 -4,-1 -54,-1 -59,0 6,0 7,-1 8,5 5,17 5,39 2,57 -1,9 -2,13 -8,14z"/>
   <path class="fil5" d="M1137 1549l3 0c5,-1 55,-1 59,0 5,4 5,17 6,24 3,4 2,8 2,13 0,5 0,9 0,14 8,0 22,-2 27,1 3,-13 5,-24 11,-35 4,-7 19,-14 31,-13 4,-4 12,-1 16,-3 2,-2 2,-4 5,-5 2,0 5,0 8,0 1,-3 2,-3 3,-5 1,-2 1,-4 2,-5 -1,-2 0,-2 -2,-3 -5,-5 -4,-9 -8,-14l-70 -1 5 -71c-2,2 -2,7 -2,11 0,6 -1,7 -1,13 0,0 2,0 0,-1 -3,-2 2,-3 -2,0 -2,3 -2,8 -2,10l0 25c0,1 1,1 1,1 1,10 -1,11 -1,14 4,3 62,1 68,1 -1,8 1,11 0,19 -4,1 -73,0 -80,0 -12,0 -10,-1 -18,2 -4,1 -56,0 -63,0 -1,6 0,2 -1,8l3 0z"/>
   <path class="fil5" d="M1338 1734c29,3 72,15 97,25 1,0 1,2 1,-6 0,-2 0,-4 0,-7l0 -41c-12,0 -91,-1 -96,1l-2 28z"/>
   <path class="fil28" d="M1335 1211c7,-2 7,-2 15,-2 6,0 11,0 17,0 0,-1 1,-2 1,-2 1,-2 -1,1 1,-1 -1,-25 -4,-55 5,-76 7,-15 21,-29 37,-34 3,0 6,-1 8,-3 -9,-1 -33,1 -45,6 -25,10 -38,36 -38,63l1 37c0,6 1,8 -2,12z"/>
   <path class="fil29" d="M1564 1694l278 0 0 -10 -192 0 -66 0 -20 0c1,1 1,1 1,2 0,0 0,2 0,2 0,2 0,4 -1,6z"/>
   <path class="fil20" d="M1245 1880l0 78c0,1 0,5 0,5 -1,5 1,3 -2,4l0 2c4,3 2,2 2,2 1,4 0,12 -2,15 3,0 3,4 3,8 0,3 0,5 1,8 1,20 15,15 16,5 2,-11 0,-6 2,-12 0,0 0,0 0,-1 0,-1 -1,-2 0,-4 1,-6 -1,-4 3,-4l-2 -2c0,-1 0,-1 0,-1 -1,-1 0,-4 0,-5 0,-3 0,-6 -1,-9 2,-1 -1,0 3,0 -3,-4 -3,-4 -2,-12 0,-6 -1,-11 0,-16 -1,-18 0,-37 0,-55 0,-7 -2,-6 -2,-11l0 -42 -2 0 0 46 -15 0 1 -46 -2 0c0,8 2,43 -1,47z"/>
   <path class="fil5" d="M1364 1967c0,3 1,3 2,5 1,3 -3,9 -3,16 -2,2 -2,2 -8,2 1,1 0,-3 1,1l1 10 12 -1c4,-2 4,-6 9,-7l4 -21 -8 -1c3,-24 5,-18 10,-22 -1,-7 10,-49 13,-59 5,-19 11,-38 16,-56l-3 -1c-1,0 -1,0 -2,0l-17 1c-3,9 -4,23 -6,34 -2,11 -4,22 -7,33 -3,16 -12,55 -14,66z"/>
   <path class="fil30" d="M1344 1536c0,1 1,2 -4,1 -3,-1 -7,-3 -8,-8 6,3 2,4 12,7zm-36 -4c2,1 1,1 2,3 -1,1 -1,3 -2,5 -1,2 -2,2 -3,5 -1,1 -1,1 -2,2 0,0 0,0 0,1l-3 1c-1,21 21,35 32,24 5,-5 1,-12 2,-18l4 0c16,-1 25,-13 28,-28 -6,0 -5,1 -10,-2l1 8c-4,0 -5,0 -8,-2 1,-2 2,-9 5,-10l0 -7c-4,2 -1,3 -5,6 -2,2 -5,2 -8,1 -7,-2 -5,-8 -6,-12l-11 -1c-1,6 0,10 -4,12 -2,-2 -1,-4 -2,-12 -1,-1 -1,-1 -1,-2 -7,-4 -14,-3 -13,8 1,9 7,9 7,14 0,5 0,3 -3,4z"/>
   <path class="fil2" d="M1697 1297c-3,13 -7,28 -10,41 -2,9 -9,34 -9,41l-1 4 38 0 4 -89 -20 0 -2 3z"/>
   <path class="fil2" d="M1730 1296c0,13 -3,28 -4,41 -1,9 -4,35 -3,42l0 4 37 0 -1 -7c1,-9 -2,-29 -3,-39 -2,-12 -4,-28 -4,-39 -3,-4 1,-2 -3,-4 -2,0 -6,0 -7,0 -5,0 -9,-1 -12,2z"/>
   <path class="fil11" d="M1300 1518c4,5 3,9 8,14 3,-1 3,1 3,-4 0,-5 -6,-5 -7,-14 -1,-11 6,-12 13,-8l6 0 0 -9c6,-2 11,-6 17,-7 5,-1 18,-2 23,-2l3 6c6,0 17,-5 9,-11l-2 -1c0,0 0,0 0,0 3,-4 6,-8 4,-15 -6,-5 -14,-2 -22,0l-4 -7c-4,-2 -8,-3 -14,-3 -7,2 -10,6 -14,10 -6,-1 -14,0 -19,3 -7,4 -6,6 -4,14 0,4 -1,3 -3,7 -6,11 2,19 3,27z"/>
   <path class="fil31" d="M1340 1695c6,-2 98,0 113,0 19,0 37,0 56,0 11,0 49,1 55,-1 1,-2 1,-4 1,-6 0,0 0,-2 0,-2 0,-1 0,-1 -1,-2l-24 0 -155 0 -41 0 -27 0 0 10c4,1 8,0 12,0 2,0 5,0 6,0 1,0 2,0 3,1 2,0 2,0 2,0z"/>
   <path class="fil32" d="M1685 1296c3,-3 5,-2 11,-2 2,2 1,-1 1,3l2 -3 20 0c3,0 10,-1 11,2 3,-3 7,-2 12,-2 1,0 5,0 7,0 4,2 0,0 3,4l0 -4 11 0c14,-1 15,-9 15,-22 -6,0 -12,0 -18,0 -6,0 -11,1 -16,-2 0,2 1,1 0,1l-6 0c-8,2 -25,1 -34,1l0 -4c0,0 0,0 -1,2 0,0 0,1 0,2 -7,0 -24,-1 -29,0 0,6 -1,13 1,17 4,6 8,3 10,7z"/>
   <path class="fil33" d="M1455 2012l68 21 0 13 5 0 0 -13 -66 -22c-2,-29 0,-97 0,-134 0,-4 -2,-15 1,-18l0 -3c-2,-3 0,1 -1,-2l0 -8c0,-12 -2,-69 0,-72 -4,-12 2,-53 -1,-69l-6 0 0 307z"/>
   <path class="fil11" d="M1785 2046l6 0 0 -13 -68 -21c-2,-2 -1,3 -2,-4l0 -303 -5 0 0 306 68 22c0,5 -1,9 1,13z"/>
   <path class="fil5" d="M1278 1972c1,2 16,9 19,9 7,-2 16,-1 23,-1 1,-3 0,-4 0,-8 1,-4 1,-5 2,-10 0,-6 0,-13 -1,-19l-54 0 0 16c3,2 -3,1 4,1 -2,6 3,-5 -2,3l-2 3 9 1c0,0 1,1 1,1l1 4z"/>
   <path class="fil2" d="M1433 1382c3,3 35,1 41,1 14,0 28,0 42,0l1 -2 -1 -19 -78 0c-2,5 -5,15 -5,20z"/>
   <path class="fil29" d="M1258 1805c0,0 1,1 1,1 0,0 1,0 1,0l6 1c20,0 57,-6 48,18 -5,13 -20,6 -33,4 -17,-3 -39,-5 -57,-4 -10,1 -45,4 -52,8l61 0 13 0 2 0 14 0 2 0 71 1c0,-2 5,-31 5,-33 -6,0 -11,2 -18,2 -27,2 -35,3 -64,2z"/>
   <path class="fil34" d="M1279 1033c7,3 118,2 143,2 9,0 15,1 13,-9 -6,-3 -70,-1 -82,-1l-63 0c-8,0 -13,0 -11,8z"/>
   <path class="fil35" d="M1569 1526l-12 122c5,-1 9,-6 11,-11 2,-5 10,-88 11,-100 4,-26 4,-20 -4,-35l-3 0c0,4 -1,22 -3,24z"/>
   <path class="fil34" d="M1204 1307c5,-1 19,0 25,0 0,7 -3,4 -10,4 -5,0 -10,1 -15,0l0 -4zm38 4l0 -9 10 0c0,4 1,6 -1,9 -2,1 -6,0 -9,0zm-12 -10c-3,2 -20,1 -26,1l1 -4c2,-1 22,-1 25,0l0 3zm24 -13l-1 9 -10 1 0 -10 11 0zm-36 5c-14,0 -11,1 -13,-3 2,-2 0,-1 2,-2l18 0c1,0 2,0 4,0 2,1 0,0 2,1 -1,5 0,4 -13,4zm40 18l-2 0 1 -9 10 0 0 10 3 -2c0,-1 1,-6 1,-7 0,-3 -2,-3 -3,-6l-11 0 1 -6 -4 -3c0,0 0,0 0,0l-4 -2c-1,0 -3,0 -4,0l1 -5 -23 0c-2,1 -1,1 -2,4l-1 2c-13,0 -11,0 -12,-6l-11 0 0 35c7,0 12,1 19,1l11 0c2,-1 2,0 3,-3 0,0 0,0 0,0l1 1c0,0 1,0 1,0 0,0 1,1 1,1 0,0 3,0 4,0 2,0 6,0 8,0l13 0 -1 -5z"/>
   <path class="fil36" d="M1125 1245c11,1 27,0 38,0 13,0 26,0 39,0 13,0 72,2 78,-1l0 -5 -241 1 1 5 85 0z"/>
   <path class="fil37" d="M1641 1648l0 1c2,6 3,11 4,17 2,2 2,2 2,4l3 1c4,0 8,0 13,0 2,0 5,0 7,0 5,0 4,1 4,-2 0,-6 -3,-12 -3,-19 -1,-1 -2,-4 -2,-6 -1,-3 -1,-5 -2,-8 -1,-4 -3,-9 -2,-14 -6,-2 -21,-1 -29,-1l5 27z"/>
   <path class="fil30" d="M1377 1661c-1,2 0,2 -5,2 -2,0 -4,-1 -6,-1 -4,-1 -9,-1 -12,-1 -4,-1 -8,-1 -11,-1 -2,0 -4,0 -6,-1l-4 -1 -4 1 2 19 34 0c2,0 5,-1 7,0 1,0 1,0 2,0 2,0 2,0 3,1l6 0c5,-13 20,-14 34,-12l-1 -3 2 -3c-2,-3 -4,-5 -8,-8 -9,-7 -11,5 -33,8z"/>
   <path class="fil5" d="M1245 1880c3,-4 1,-39 1,-47l-13 0 0 109 11 0c1,-14 -1,-47 0,-59 0,-4 0,-1 1,-3z"/>
   <path class="fil8" d="M1425 1363l-3 19c-3,10 -17,75 -15,80 8,2 8,-9 10,-16l15 -61c2,-5 -2,2 1,-3 0,-5 3,-15 5,-20l0 -1c1,-6 4,-10 2,-16 -15,-9 -11,11 -15,18z"/>
   <path class="fil8" d="M1378 1348l-11 35 -23 72 -7 2c6,0 10,1 14,3 0,-5 11,-33 14,-40 2,-7 4,-13 7,-20l5 -15c0,-1 1,-2 1,-2 0,-2 -1,2 1,-2 0,0 0,0 0,-1 0,0 0,0 0,0l11 -28c1,-12 -9,-12 -12,-4z"/>
   <path class="fil5" d="M1427 1946l-7 15c2,3 1,0 2,4l-8 15 -6 -1 -3 0c-1,5 -4,7 -4,12 2,7 0,3 -2,9l36 0c1,-7 1,-52 -1,-57 -5,1 -3,-1 -7,3z"/>
   <path class="fil34" d="M1566 1353c1,9 6,21 5,29 5,6 14,71 19,80 10,1 6,-9 4,-16l-11 -63 -6 -37c-4,0 -7,2 -11,4l0 3z"/>
   <path class="fil2" d="M1528 1362l1 20c3,2 39,3 42,0 1,-8 -4,-20 -5,-29l-2 -2c-6,2 -10,4 -18,6l-18 5z"/>
   <path class="fil38" d="M1791 1457c-11,1 -22,0 -33,0 -12,0 -26,3 -25,-4 1,-5 7,-4 13,-4 10,0 40,-1 46,1 -1,-5 -13,-4 -23,-4 -9,0 -19,0 -28,0l-1 -6 63 0 0 13c4,-1 1,0 5,-2l1 -18 -80 0 -1 20c1,4 4,1 1,3l-1 9c8,0 7,-2 11,0l2 2c0,0 0,1 1,1 -2,-6 -1,-4 -1,-10 1,2 45,1 46,1 4,-1 1,0 4,-2z"/>
   <path class="fil2" d="M1379 1380c-1,6 0,2 1,3 9,0 36,2 42,-1l3 -19c-1,-2 2,-1 -3,-2 -9,-2 -22,-3 -32,-9l-11 28z"/>
   <path class="fil39" d="M1160 2007c-2,13 10,6 16,4 7,-3 17,-7 24,-8 6,-6 30,-9 35,-15 -2,-3 -1,-12 0,-16 -13,5 -26,12 -39,18 -11,5 -27,11 -36,17z"/>
   <path class="fil11" d="M1310 1740c2,3 25,6 29,7 17,3 40,10 51,22 6,8 6,21 4,33 3,-1 -1,-1 3,0 3,0 1,0 3,1l5 1 6 1c0,-1 0,-1 0,-1 1,-7 1,4 0,-2l-1 -13c-3,-21 -8,-28 -27,-35 -14,-5 -50,-16 -67,-14 -2,-1 -4,-1 -6,0z"/>
   <path class="fil36" d="M1723 1431c20,1 41,0 61,0 20,0 40,1 60,1l107 0c15,0 11,2 12,-4l-239 -1 -1 4z"/>
   <path class="fil40" d="M1214 1406c6,0 27,1 32,-1l1 -31c-6,0 -26,-1 -31,1l-2 31z"/>
   <path class="fil21" d="M1177 1626l0 2c9,1 19,0 28,0 13,0 16,0 20,10 4,0 3,-1 4,-5 0,-3 0,-4 1,-7l4 -25c-5,-3 -19,-1 -27,-1 0,-5 0,-9 0,-14 0,-5 1,-9 -2,-13 1,13 2,43 -6,52l-22 1z"/>
   <path class="fil23" d="M1044 1371l31 0 3 -32c-6,0 -30,-1 -32,1 -1,1 -2,28 -2,31z"/>
   <path class="fil19" d="M1081 1339c0,1 0,1 0,1 0,1 0,1 0,1 -1,1 -4,22 -2,30l31 0 2 -32 -31 0z"/>
   <path class="fil34" d="M1517 1381c0,0 0,0 0,1 0,0 0,0 0,0l5 39c0,6 2,39 6,41 7,5 5,-11 5,-15 -1,-18 -3,-50 -4,-65l-1 -20 -12 0 1 19z"/>
   <path class="fil41" d="M1147 1371l32 0 2 -32c-6,0 -30,-1 -32,2 0,0 -2,27 -2,30z"/>
   <polygon class="fil37" points="1145,1406 1176,1406 1179,1374 1147,1374 "/>
   <polygon class="fil11" points="1182,1371 1213,1371 1215,1339 1184,1339 "/>
   <path class="fil42" d="M1141 1405c2,-7 2,-23 2,-31l-29 0 -3 16c0,4 0,10 0,15 7,1 25,2 30,0z"/>
   <polygon class="fil43" points="1113,1371 1144,1371 1146,1340 1115,1339 "/>
   <path class="fil13" d="M1027 1725c-2,15 11,11 28,11 17,0 29,3 28,-11l0 -7 -56 0 0 7z"/>
   <path class="fil13" d="M1027 1632c-1,5 1,8 3,10 7,2 24,1 32,1 12,0 22,3 21,-11l0 -6 -56 0 0 6z"/>
   <path class="fil13" d="M1027 1817c-1,6 0,11 6,11l38 1c6,0 12,0 11,-6l1 -12 -56 0 0 6z"/>
   <polygon class="fil11" points="1932,1575 1884,1575 1883,1595 1931,1594 "/>
   <path class="fil11" d="M1335 2035c1,-1 0,0 3,-1l27 0c5,0 3,-1 14,-4l0 -4c-3,-1 -11,-2 -16,-4 -4,-2 -9,-6 -12,-9 -3,-2 -6,-1 -11,-1 -4,0 -8,0 -12,0 -3,1 -3,5 -4,10 -1,4 -2,8 -1,13l12 0z"/>
   <path class="fil37" d="M1136 1558l1 4c1,1 1,2 1,4 1,2 1,5 1,8 2,13 1,25 -2,37 -1,8 -4,13 5,14 6,-1 7,-5 8,-14 3,-18 3,-40 -2,-57 -1,-6 -2,-5 -8,-5l-3 0c0,2 -1,5 -1,9z"/>
   <path class="fil11" d="M1554 1266l43 18c-4,4 -12,4 -15,8l20 20c2,3 0,3 0,4 -1,1 -5,-3 -5,-4 -2,-2 -4,-4 -6,-6 -4,-4 -8,-9 -12,-11l-7 15c-3,-5 -18,-41 -18,-44zm10 36l7 19c3,-4 7,-16 10,-19l20 20c3,0 7,-4 8,-7 -4,-6 -18,-16 -20,-22l19 -9 -18 -7 -44 -18 18 43z"/>
   <path class="fil11" d="M1463 1856c5,-11 10,-30 13,-43 4,-16 4,-26 -9,-37l-5 -2c-2,3 0,60 0,72l0 8c1,3 -1,-1 1,2z"/>
   <path class="fil44" d="M1715 1383l0 10c5,1 6,0 6,-4 1,-4 0,-7 2,-10 -1,-7 2,-33 3,-42 1,-13 4,-28 4,-41 -1,-3 -8,-2 -11,-2l-4 89z"/>
   <path class="fil20" d="M1382 1972c6,3 19,4 26,7l6 1 8 -15c-1,-4 0,-1 -2,-4 -8,1 -28,-7 -37,-9l1 -3c-5,4 -7,-2 -10,22l8 1z"/>
   <path class="fil44" d="M1685 1296l-15 87c-1,7 4,8 6,1 1,-3 0,-3 2,-5 0,-7 7,-32 9,-41 3,-13 7,-28 10,-41 0,-4 1,-1 -1,-3 -6,0 -8,-1 -11,2z"/>
   <path class="fil35" d="M1467 1672l-4 0 -28 3 -1 8 -9 1c-7,-1 -35,-2 -40,0l155 0c-3,-2 -33,-1 -41,-1l0 -12 -32 1z"/>
   <path class="fil45" d="M1418 1661l-2 3 1 3c5,2 5,5 8,8 5,-1 13,-3 18,-5 6,-1 13,1 20,2l4 0 6 -8c-2,-3 -8,-7 -11,-9 -6,-5 -5,-7 -13,-4 -14,6 -18,10 -31,10z"/>
   <path class="fil44" d="M1752 1298c0,11 2,27 4,39 1,10 4,30 3,39 3,4 1,7 2,12 8,1 5,-4 5,-10l-3 -84 -11 0 0 4z"/>
   <path class="fil4" d="M1427 1946c4,-4 2,-2 7,-3 2,5 2,50 1,57l-36 0c2,-6 4,-2 2,-9 -2,2 -5,9 -5,12 4,6 4,10 9,17 6,1 24,-7 31,-9 0,-1 1,-78 0,-83 -1,-3 1,0 -1,-2 -1,6 -6,13 -8,20z"/>
   <path class="fil46" d="M1597 1284l-43 -18c0,3 15,39 18,44l7 -15c4,2 8,7 12,11 2,2 4,4 6,6 0,1 4,5 5,4 0,-1 2,-1 0,-4l-20 -20c3,-4 11,-4 15,-8z"/>
   <path class="fil11" d="M1897 1509l40 0c1,-5 2,-15 1,-20l-39 0 -2 20z"/>
   <polygon class="fil11" points="1937,1518 1896,1518 1895,1537 1935,1537 "/>
   <path class="fil39" d="M1273 1987c5,5 27,9 32,14l23 7c1,-4 1,-9 0,-12 -3,-1 -28,-12 -31,-15 -3,0 -18,-7 -19,-9l-2 0 0 15c-2,1 2,1 -3,0z"/>
   <path class="fil20" d="M1329 1987l25 1 9 0c0,-7 4,-13 3,-16 -1,-2 -2,-2 -2,-5l-2 3 -36 -1 1 -11c-1,3 -1,7 -2,9l-1 1c0,0 -1,1 -1,1 -1,2 0,-2 -1,2l0 15 7 1z"/>
   <path class="fil30" d="M1338 1504c2,-2 6,-5 10,-1l-8 2c-2,0 -1,0 -2,-1zm-15 2c9,1 18,-1 25,3 6,3 13,4 20,5 -1,-5 -3,-4 -4,-8l4 2c1,-5 -1,-12 -2,-14l-3 -6c-5,0 -18,1 -23,2 -6,1 -11,5 -17,7l0 9z"/>
   <path class="fil44" d="M1793 1503c10,0 91,1 96,-1l0 -7 -89 0 -2 0c-6,0 -5,2 -5,8z"/>
   <polygon class="fil11" points="1934,1546 1894,1547 1893,1566 1933,1566 "/>
   <polygon class="fil47" points="1789,1560 1885,1560 1885,1552 1790,1552 "/>
   <path class="fil11" d="M1369 2000c-2,5 -5,3 -6,9 2,4 23,14 28,16 3,0 5,-1 7,-2 0,0 4,-1 4,-1 3,-1 1,0 3,-2 -5,-7 -5,-11 -9,-17 -4,-3 -14,-8 -18,-10 -5,1 -5,5 -9,7z"/>
   <path class="fil31" d="M1886 1528c0,-1 1,-3 1,-4l-96 0 0 7c9,1 91,1 95,0l0 -3z"/>
   <path class="fil15" d="M1211 1403l2 -25c-10,-1 -21,1 -30,-1 0,4 1,7 1,12 -1,7 -3,11 -2,15l22 0c5,-1 5,0 6,-1 0,0 0,0 1,0z"/>
   <path class="fil29" d="M1391 1834l17 -1c1,0 1,0 2,0l3 1c3,-6 6,-21 11,-25l-15 -3c-1,-1 -1,0 -2,-1 -4,-1 -1,0 -2,-1l-5 -1 -5 0c-2,9 -3,21 -4,31z"/>
   <path class="fil14" d="M1276 1553c6,0 9,-2 15,-1 7,12 9,25 11,40 15,-18 14,-11 23,-7 2,-1 6,-5 9,-5 4,0 6,5 8,7 1,-7 -2,-22 -3,-28l2 -1c0,0 0,0 0,0 -1,0 -1,-1 -2,-1 -2,-2 -1,1 -1,-2l-4 0c-1,6 3,13 -2,18 -11,11 -33,-3 -32,-24l3 -1c0,-1 0,-1 0,-1 1,-1 1,-1 2,-2 -3,0 -6,0 -8,0 -3,1 -3,3 -5,5 -4,2 -12,-1 -16,3z"/>
   <path class="fil22" d="M1383 1679l1 3 -8 1 1 -4c-1,-1 -1,-1 -3,-1 -1,0 -1,0 -2,0 -2,-1 -5,0 -7,0 -1,2 0,0 -1,4 -5,-1 -4,-1 -6,0l-4 1c-3,0 -7,0 -9,-1l-1 0 0 2 41 0c5,-2 33,-1 40,0l0 -9c-3,-3 -3,-6 -8,-8 -14,-2 -29,-1 -34,12z"/>
   <path class="fil35" d="M1584 1682l0 2 66 0c-1,-5 -1,-8 0,-13l-3 -1c0,-2 0,-2 -2,-4l1 5 -61 4 -1 7z"/>
   <path class="fil17" d="M1074 1396l1 -15 0 -3c-5,-3 -27,-3 -27,1 0,0 -1,1 -1,1l1 10c1,5 0,9 0,14l18 0c0,0 0,-1 0,0 0,0 1,-1 1,-1l2 -6 5 -1z"/>
   <polygon class="fil16" points="1262,1833 1248,1833 1247,1879 1262,1879 "/>
   <path class="fil17" d="M1650 1671c-1,5 -1,8 0,13l192 0 1 0c-3,-2 -1,-1 -4,-1 -2,-1 -4,0 -5,0 -3,0 -6,0 -10,0 -22,0 -44,0 -67,0 -12,0 -57,1 -66,-1l0 -11 -15 0 -2 -2c0,3 1,2 -4,2 -2,0 -5,0 -7,0 -5,0 -9,0 -13,0z"/>
   <path class="fil48" d="M1818 1334c-7,2 -6,13 -7,27 0,8 -4,26 8,23 7,-2 6,-18 6,-27 1,-8 5,-27 -7,-23z"/>
   <path class="fil12" d="M1266 1941c-1,5 0,10 0,16 -1,8 -1,8 2,12 3,0 6,1 8,3l2 0 -1 -4c0,0 -1,-1 -1,-1l-9 -1 2 -3c5,-8 0,3 2,-3 -7,0 -1,1 -4,-1l0 -16 54 0c1,6 1,13 1,19 -1,5 -1,6 -2,10 0,4 1,5 0,8 -7,0 -16,-1 -23,1 3,3 28,14 31,15 2,-1 1,-7 1,-9l-7 -1 0 -15c1,-4 0,0 1,-2 0,0 1,-1 1,-1l1 -1c1,-2 1,-6 2,-9 -2,-6 0,-23 0,-31l-2 6c0,1 1,4 1,6 -4,2 -1,2 -4,2l-56 0z"/>
   <path class="fil30" d="M1328 1996c1,3 1,8 0,12l0 4c4,0 8,0 12,0 5,0 8,-1 11,1 0,-6 -1,-5 0,-12 1,-4 2,-10 3,-13l-25 -1c0,2 1,8 -1,9z"/>
   <path class="fil18" d="M1079 1376c3,1 1,-1 2,3 1,2 0,2 0,4 -3,14 5,2 3,14l-2 5c0,-4 0,-4 -1,-8 0,0 -6,-1 -2,10 2,0 3,-1 4,-1 4,0 3,0 6,0 6,1 7,0 11,0 0,-9 0,-13 4,-22 -1,-1 -2,-2 -2,-2 -4,-4 -2,-3 -5,-4l-18 1 0 0z"/>
   <path class="fil22" d="M1361 1600c0,11 0,22 -2,32 -2,10 -4,21 -5,29 3,0 8,0 12,1 2,0 4,1 6,1 5,0 4,0 5,-2l-1 -3c-19,-2 -3,0 -13,1 -6,-12 2,-30 4,-43 1,-8 2,-16 2,-24 0,-4 -1,-8 -2,-11 0,-2 -1,-4 -2,-5l-3 -4c1,5 1,10 1,15 -1,4 -2,9 -2,13z"/>
   <path class="fil49" d="M1540 1684l24 0 20 0 0 -2 -43 1 0 -12 -42 0 0 12c8,0 38,-1 41,1z"/>
   <path class="fil50" d="M1713 1263c0,-5 3,-15 4,-20 1,-6 3,-5 19,-4l-4 24 -19 0zm29 -30l-28 0 -7 36 28 0 7 -36z"/>
   <path class="fil9" d="M1757 1502c2,0 1,-1 1,-5 1,-2 1,-4 1,-7 0,-4 1,-9 0,-13l-24 0c-1,2 0,0 0,2 1,10 -2,11 4,11l0 11c6,0 12,0 18,1z"/>
   <path class="fil51" d="M1141 1405c-5,2 -23,1 -30,0 0,-5 0,-11 0,-15l3 -16 29 0c0,8 0,24 -2,31zm-99 -20l1 -5c0,-2 0,-3 1,-5l3 -1c1,0 3,0 4,0 3,0 5,0 8,0 5,0 11,0 16,0l0 4 0 3c0,0 0,0 1,-2 0,-3 0,1 -1,-1l1 13c3,-4 0,-10 3,-15l0 0 1 -1c1,0 1,0 1,-1l29 1c-2,8 -1,22 -3,30 -5,1 -23,1 -30,0 1,2 0,3 7,3l18 -1c2,0 2,0 4,0 6,-1 13,0 22,0 16,0 11,-1 17,-1l2 -32c-3,0 -7,-2 -12,-2l-54 0c-10,1 1,1 -11,0 -9,0 -25,0 -27,2 -1,1 0,-2 -1,2l0 9z"/>
   <path class="fil30" d="M1378 1993c4,2 14,7 18,10 0,-3 3,-10 5,-12 0,-5 3,-7 4,-12l3 0c-7,-3 -20,-4 -26,-7l-4 21z"/>
   <path class="fil52" d="M1735 1269l-28 0 7 -36 28 0 -7 36zm-31 -1l0 4c9,0 26,1 34,-1l6 0c1,0 0,1 0,-1 -3,-11 -5,-4 -2,-20 1,-7 3,-14 4,-21l-34 0 -8 39z"/>
   <path class="fil50" d="M1791 1457c2,-2 4,-4 1,-7 -6,-2 -36,-1 -46,-1 -6,0 -12,-1 -13,4 -1,7 13,4 25,4 11,0 22,1 33,0z"/>
   <path class="fil53" d="M1050 1269c16,3 34,1 51,1 7,0 10,0 8,-7 -16,-2 -34,-1 -50,-1 -7,0 -11,0 -9,7z"/>
   <path class="fil47" d="M1351 2013c3,3 8,7 12,9 5,2 13,3 16,4 1,2 1,1 2,3 3,-1 8,-2 10,-4 -5,-2 -26,-12 -28,-16 1,-6 4,-4 6,-9l-12 1 -1 -10c-1,-4 0,0 -1,-1 6,0 6,0 8,-2l-9 0c-1,3 -2,9 -3,13 -1,7 0,6 0,12z"/>
   <path class="fil46" d="M1626 1340c-2,3 2,1 -8,2 0,8 1,7 -2,8 -3,-1 -2,-1 -2,-8 -1,0 -5,0 -5,0 -3,-1 -2,0 -3,-2 1,-3 0,-2 8,-2 0,-1 0,-5 0,-5 1,-4 -1,-1 2,-3 3,2 1,-2 2,8 10,1 6,-1 8,2zm-23 13l25 0 0 -25 -25 -1 0 26z"/>
   <path class="fil54" d="M1246 1624c2,23 12,50 36,56 2,0 5,1 6,1 1,0 3,0 3,0 0,0 2,0 3,-2 -17,-3 -25,-14 -33,-27 -5,-10 -13,-30 -16,-43l1 15z"/>
   <path class="fil55" d="M1321 1682c1,0 5,1 6,0 7,0 2,0 4,-2 1,-1 -2,-1 4,-2 2,0 5,0 6,0l1 2c1,1 1,3 2,2 0,0 0,0 0,0l1 0c2,1 6,1 9,1l4 -1c2,-1 1,-1 6,0 1,-4 0,-2 1,-4l-34 0 -2 -19c-2,-10 -1,-8 -12,-9 0,7 0,11 1,18 1,6 0,10 3,14z"/>
   <path class="fil25" d="M1713 1263l19 0 4 -24c-16,-1 -18,-2 -19,4 -1,5 -4,15 -4,20z"/>
   <path class="fil5" d="M1235 1988c-5,6 -29,9 -35,15 -1,1 -4,1 8,1 12,-1 28,0 39,-2 -1,-3 -1,-5 -1,-8 0,-4 0,-8 -3,-8l-8 2z"/>
   <path class="fil56" d="M1079 1376c-3,5 0,11 -3,15 1,4 0,11 1,14 7,1 25,1 30,0 2,-8 1,-22 3,-30l-29 -1c0,1 0,1 -1,1l-1 1 18 -1c3,1 1,0 5,4 0,0 1,1 2,2 -4,9 -4,13 -4,22 -4,0 -5,1 -11,0 -3,0 -2,0 -6,0 -1,0 -2,1 -4,1 -4,-11 2,-10 2,-10 1,4 1,4 1,8l2 -5c2,-12 -6,0 -3,-14 0,-2 1,-2 0,-4 -1,-4 1,-2 -2,-3z"/>
   <path class="fil5" d="M1265 1994c1,5 1,4 0,8l32 -1c0,0 6,2 8,0 -5,-5 -27,-9 -32,-14 -2,0 -3,1 -5,-1 -4,0 -2,-2 -3,4 -1,2 0,3 0,4z"/>
   <path class="fil11" d="M1743 1518l28 0 2 -29 -11 0 -1 4 6 2 -1 17 -16 0c0,0 -1,-1 -1,-1l0 -1c-1,-4 0,-1 -1,-4l-5 0 0 12z"/>
   <path class="fil57" d="M1333 1658l4 1c2,1 4,1 6,1 3,0 7,0 11,1 1,-8 3,-19 5,-29 2,-10 2,-21 2,-32l-5 15c-2,6 -7,34 -9,43 -6,2 -6,-1 -14,0z"/>
   <path class="fil49" d="M1042 1385l-1 21 32 0 1 -10 -5 1 -2 6c0,0 -1,1 -1,1 0,-1 0,0 0,0l-18 0c0,-5 1,-9 0,-14l-1 -10c0,0 1,-1 1,-1 0,-4 22,-4 27,-1l0 -4c-5,0 -11,0 -16,0 -3,0 -5,0 -8,0 -1,0 -3,0 -4,0l-3 1c-1,2 -1,3 -1,5l-1 5z"/>
   <path class="fil31" d="M1252 2018c-9,4 -7,26 6,22 9,-2 8,-27 -6,-22z"/>
   <path class="fil6" d="M1826 1426l8 0c-2,-9 2,-29 1,-39l0 -4 -5 0 -1 -4c-2,2 -1,18 -2,23 0,7 -2,18 -1,24z"/>
   <path class="fil58" d="M1603 1327l25 1 0 25 -25 0 0 -26zm-2 28l30 0 0 -31 -26 0 -5 1 1 30z"/>
   <path class="fil31" d="M1168 2033c-9,4 -14,-3 -10,-8 4,-4 12,-2 10,8zm-8 -15c-16,4 -9,26 6,22 14,-3 9,-27 -6,-22z"/>
   <path class="fil9" d="M1067 1309c0,-4 -1,-4 -1,-8 0,-9 2,-6 -1,-9 -3,2 -1,-1 -2,4l-1 11c-1,-3 0,0 0,-4 0,-1 0,-2 0,-4 0,-2 0,-5 0,-7 -4,0 -9,-1 -13,1l-1 16c2,2 1,1 5,1l14 -1z"/>
   <path class="fil59" d="M1344 1510l2 0 4 3c-1,6 -2,6 -9,6 -3,-4 -4,-3 -3,-10 4,0 3,-1 6,1zm-26 -2l6 0 11 1c1,4 -1,10 6,12 3,1 6,1 8,-1 4,-3 1,-4 5,-6l0 7 2 4c5,3 4,2 10,2 3,-3 3,-3 5,-8 -3,3 1,-1 -2,2 -2,2 0,0 -2,2 -5,5 -13,1 -10,-7 3,-2 4,-2 6,0l4 1c3,-1 2,-1 4,-3 0,-6 2,5 0,-2 0,0 -1,0 -1,-1 0,0 0,0 0,-1 0,4 1,4 -2,4 -7,-1 -14,-2 -20,-5 -7,-4 -16,-2 -25,-3l-6 0c0,1 0,1 1,2z"/>
   <path class="fil60" d="M1211 1403c-1,0 -1,0 -1,0 -1,1 -1,0 -6,1l-22 0c-1,-4 1,-8 2,-15 0,-5 -1,-8 -1,-12 9,2 20,0 30,1 0,-5 1,-4 -6,-4 -2,-1 -6,0 -8,0 -6,0 -12,-1 -18,0l-2 32 29 0c4,-2 1,1 3,-3z"/>
   <path class="fil61" d="M1757 1502c-6,-1 -12,-1 -18,-1l0 -11c-6,0 -3,-1 -4,-11 0,-2 -1,0 0,-2l24 0c-1,-4 -3,-2 -13,-2 -4,0 -11,-1 -14,1 -3,7 0,20 -3,27l21 0c5,0 5,0 7,-1z"/>
   <path class="fil11" d="M1072 1300c0,5 3,4 5,5l-1 13 -13 0c-4,-5 3,-3 -4,-5 -3,2 -2,1 -2,10l23 0 2 -24c-4,0 -7,0 -10,1z"/>
   <path class="fil62" d="M1235 1972c-1,4 -2,13 0,16l8 -2c2,-3 3,-11 2,-15 0,0 2,1 -2,-2 -2,0 -6,1 -8,3z"/>
   <path class="fil62" d="M1268 1986c2,2 3,1 5,1 5,1 1,1 3,0l0 -15c-2,-2 -5,-3 -8,-3 -4,0 -1,-1 -3,0 1,3 1,6 1,9 0,1 -1,4 0,5 0,0 0,0 0,1l2 2z"/>
   <path class="fil63" d="M1641 1648l-5 -27c8,0 23,-1 29,1 -3,-4 -9,-2 -14,-2 -5,0 -11,-1 -16,0 -1,6 1,12 -2,18 -2,5 -8,10 -8,9 0,0 0,0 0,0 5,0 11,-1 16,1z"/>
   <path class="fil64" d="M1425 1675l0 9 9 -1 1 -8 28 -3c-7,-1 -14,-3 -20,-2 -5,2 -13,4 -18,5z"/>
   <path class="fil31" d="M1049 1293c4,-2 9,-1 13,-1 0,2 0,5 0,7 0,2 0,3 0,4 0,4 -1,1 0,4l1 -11c1,-5 -1,-2 2,-4 3,3 1,0 1,9 0,4 1,4 1,8 4,-5 0,-5 4,-12l0 -9 -22 0 0 5z"/>
   <path class="fil11" d="M1614 1338c-8,0 -7,-1 -8,2 1,2 0,1 3,2 0,0 4,0 5,0 0,7 -1,7 2,8 3,-1 2,0 2,-8 10,-1 6,1 8,-2 -2,-3 2,-1 -8,-2 -1,-10 1,-6 -2,-8 -3,2 -1,-1 -2,3 0,0 0,4 0,5z"/>
   <path class="fil53" d="M1205 1298l-1 4c6,0 23,1 26,-1l0 -3c-3,-1 -23,-1 -25,0z"/>
   <path class="fil65" d="M1927 1460c4,2 10,1 15,1 8,0 10,2 11,-5l-22 0c-5,0 -4,-1 -4,4z"/>
   <path class="fil53" d="M1205 1290c2,4 -1,3 13,3 13,0 12,1 13,-4 -2,-1 0,0 -2,-1 -2,0 -3,0 -4,0l-18 0c-2,1 0,0 -2,2z"/>
   <path class="fil52" d="M1929 1438c0,5 -2,4 12,4 14,0 12,1 13,-3 -1,-1 0,-1 -2,-1 -1,-1 -3,-1 -4,-1 -4,0 -17,0 -19,1z"/>
   <path class="fil53" d="M1229 1307c-6,0 -20,-1 -25,0l0 4c5,1 10,0 15,0 7,0 10,3 10,-4z"/>
   <path class="fil66" d="M1214 1262c-2,2 -7,5 -6,8 1,2 1,4 7,-2 2,-2 4,-4 6,-6 -10,-14 -14,-9 -12,-5 1,2 3,2 5,5z"/>
   <path class="fil66" d="M1245 1255l21 0c2,0 0,0 2,0 2,-1 0,0 2,-1l0 -4c-5,0 -10,0 -15,0 -7,0 -10,-2 -10,5z"/>
   <path class="fil66" d="M1897 1449c-2,3 -7,5 -5,8 1,1 1,4 7,-2 2,-3 3,-4 5,-6 -6,-11 -13,-11 -11,-5 1,2 3,2 4,5z"/>
   <path class="fil66" d="M1928 1450c3,2 19,2 21,2 5,-1 4,0 4,-5l-21 0c-4,0 -4,-1 -4,3z"/>
   <path class="fil52" d="M1243 1273c3,2 23,1 23,1 3,-1 1,0 3,-2 -2,-3 1,-3 -6,-3 -2,0 -5,0 -8,0 -14,0 -11,-1 -12,4z"/>
   <path class="fil52" d="M1244 1262c1,3 -3,2 12,2 9,0 12,2 13,-2 -1,-3 1,-2 -5,-2l-17 0c-3,1 -1,0 -3,2z"/>
   <path class="fil67" d="M1168 2033c2,-10 -6,-12 -10,-8 -4,5 1,12 10,8z"/>
   <path class="fil52" d="M1225 1262c-3,5 -5,2 -6,8l2 2c3,-2 9,-8 11,-10 -2,-1 -7,-8 -9,-9 -2,0 -3,2 -2,4 0,1 3,3 4,5z"/>
   <polygon class="fil53" points="1254,1288 1243,1288 1243,1298 1253,1297 "/>
   <path class="fil68" d="M1071 1297c-4,7 0,7 -4,12l-14 1c-4,0 -3,1 -5,-1l1 -16 0 -5c-3,1 -2,1 -2,5l-1 15c1,7 7,2 22,4 3,-4 3,-9 3,-15z"/>
   <polygon class="fil53" points="1258,1291 1257,1297 1268,1297 1268,1288 1258,1288 "/>
   <polygon class="fil53" points="1258,1311 1267,1312 1267,1302 1257,1302 1256,1311 "/>
   <path class="fil53" d="M1242 1311c3,0 7,1 9,0 2,-3 1,-5 1,-9l-10 0 0 9z"/>
   <path class="fil52" d="M1909 1450c-8,7 -6,5 -5,8l11 -9c-1,-2 -6,-9 -10,-9 -4,5 2,4 4,10z"/>
   <path class="fil61" d="M1343 2037c3,4 11,5 15,1l1 -4 -15 0c-1,2 0,1 -1,3z"/>
   <path class="fil5" d="M1905 1815c1,-3 1,-2 1,-5 -1,-2 -1,-3 -2,-5l-6 0c-1,3 -1,6 -1,10l8 0z"/>
   <path class="fil69" d="M1346 1510c1,5 1,5 -3,5 -2,-3 -1,-3 1,-5 -3,-2 -2,-1 -6,-1 -1,7 0,6 3,10 7,0 8,0 9,-6l-4 -3z"/>
   <path class="fil30" d="M1363 1516c1,4 1,5 -3,5 -1,-3 -1,-5 3,-5zm4 7l0 -6 -4 -1c-2,-2 -3,-2 -6,0 -3,8 5,12 10,7z"/>
   <path class="fil23" d="M1832 1066l14 0c-1,-3 -4,-7 -6,-9 -3,2 -6,5 -8,9z"/>
   <path class="fil70" d="M1356 1525l-2 -4c-3,1 -4,8 -5,10 3,2 4,2 8,2l-1 -8z"/>
   <path class="fil11" d="M1324 1508l-6 0c1,8 0,10 2,12 4,-2 3,-6 4,-12z"/>
   <path class="fil71" d="M1792 1512l8 0c1,-5 0,-5 -3,-7 -4,2 -5,2 -5,7z"/>
   <path class="fil71" d="M1794 1562c-5,2 -6,2 -6,8l8 -1c0,-4 0,-4 -2,-7z"/>
   <path class="fil72" d="M1880 1534c-4,2 -4,2 -4,7l8 0 0 -5 -4 -2z"/>
   <polygon class="fil27" points="1162,1629 1177,1628 1177,1626 1162,1625 "/>
   <path class="fil73" d="M1424 1809c0,-5 3,-2 -2,-3 0,0 -3,0 -4,-1 -2,0 -5,0 -7,0l-6 -1c1,1 -2,0 2,1 1,1 1,0 2,1l15 3z"/>
   <polygon class="fil12" points="1383,1679 1377,1679 1376,1683 1384,1682 "/>
   <path class="fil74" d="M1344 1536c-10,-3 -6,-4 -12,-7 1,5 5,7 8,8 5,1 4,0 4,-1z"/>
   <path class="fil74" d="M1338 1504c1,1 0,1 2,1l8 -2c-4,-4 -8,-1 -10,1z"/>
   <path class="fil11" d="M1368 1514c3,0 2,0 2,-4l-2 -2 -4 -2c1,4 3,3 4,8z"/>
   <path class="fil11" d="M1346 1510l-2 0c-2,2 -3,2 -1,5 4,0 4,0 3,-5z"/>
   <path class="fil11" d="M1363 1516c-4,0 -4,2 -3,5 4,0 4,-1 3,-5z"/>
  </g>
 </g>
</svg>
