<?xml version="1.0" encoding="UTF-8"?>
<!DOCTYPE svg PUBLIC "-//W3C//DTD SVG 1.1//EN" "http://www.w3.org/Graphics/SVG/1.1/DTD/svg11.dtd">
<!-- Creator: CorelDRAW X7 -->
<svg xmlns="http://www.w3.org/2000/svg" xml:space="preserve" width="3in" height="3in" version="1.1" style="shape-rendering:geometricPrecision; text-rendering:geometricPrecision; image-rendering:optimizeQuality; fill-rule:evenodd; clip-rule:evenodd"
viewBox="0 0 3000 3000"
 xmlns:xlink="http://www.w3.org/1999/xlink">
 <defs>
  <style type="text/css">
   <![CDATA[
    .str0 {stroke:black;stroke-width:6.94488}
    .fil0 {fill:none}
    .fil57 {fill:#0C2B6F}
    .fil23 {fill:#100F51}
    .fil1 {fill:#110F51}
    .fil6 {fill:#111052}
    .fil24 {fill:#111175}
    .fil8 {fill:#121281}
    .fil58 {fill:#121282}
    .fil2 {fill:#141254}
    .fil12 {fill:#151E65}
    .fil45 {fill:#181966}
    .fil20 {fill:#19144D}
    .fil39 {fill:#282889}
    .fil29 {fill:#29298A}
    .fil13 {fill:#5A7EF1}
    .fil52 {fill:#5B7DF2}
    .fil37 {fill:#5C7FF2}
    .fil54 {fill:#6282EE}
    .fil16 {fill:#7E91F5}
    .fil7 {fill:#8092F6}
    .fil62 {fill:#941A23}
    .fil48 {fill:#A77341}
    .fil9 {fill:#A77342}
    .fil50 {fill:#B71C25}
    .fil26 {fill:#C32A00}
    .fil38 {fill:#D0A173}
    .fil14 {fill:#D73604}
    .fil40 {fill:#DA4915}
    .fil18 {fill:#DB3903}
    .fil15 {fill:#DC3902}
    .fil4 {fill:#E2E8FD}
    .fil30 {fill:#E4E7EE}
    .fil5 {fill:#E6EDFE}
    .fil34 {fill:#E7E6ED}
    .fil51 {fill:#E9EDFE}
    .fil44 {fill:#F17510}
    .fil3 {fill:#F1F2FE}
    .fil28 {fill:#F3A37F}
    .fil21 {fill:#F4A47F}
    .fil60 {fill:#F6C7B5}
    .fil56 {fill:#F7C8AC}
    .fil41 {fill:#F84616}
    .fil32 {fill:#F87D19}
    .fil42 {fill:#F8C896}
    .fil33 {fill:#F9CC98}
    .fil35 {fill:#FA8B27}
    .fil49 {fill:#FACB99}
    .fil25 {fill:#FACC99}
    .fil19 {fill:#FBC9B4}
    .fil47 {fill:#FBFBFC}
    .fil63 {fill:#FCFCFE}
    .fil46 {fill:#FD5C24}
    .fil11 {fill:#FD922A}
    .fil10 {fill:#FD932C}
    .fil61 {fill:#FD9C88}
    .fil53 {fill:#FDFDFD}
    .fil27 {fill:#FE5921}
    .fil17 {fill:#FE5A22}
    .fil55 {fill:#FE932B}
    .fil22 {fill:#FECEB7}
    .fil59 {fill:#FEF2EB}
    .fil31 {fill:#FFE7DD}
    .fil43 {fill:#FFF9F5}
    .fil36 {fill:white}
   ]]>
  </style>
 </defs>
 <g id="Layer_x0020_1">
  <metadata id="CorelCorpID_0Corel-Layer"/>
  <rect class="fil0 str0" x="-2168" y="794" width="1900" height="1167"/>
  <g id="_2033968833232">
   <path class="fil1" d="M1213 1559c26,0 58,0 83,0l0 11 -85 0c0,-6 0,-9 2,-11zm380 -85l8 -4c2,3 3,6 5,8 4,-3 1,-3 1,-7 1,-2 0,-1 1,-2l2 6c5,0 2,-3 7,-4 -2,5 -5,3 -4,8 3,-1 3,-2 5,-2 3,2 6,5 7,9 -3,-1 -1,0 -3,-2 -1,-1 -1,-3 -4,-6 -5,3 -4,2 -5,8l5 -1 3 11c0,1 0,1 -1,1 -1,-3 -2,-7 -3,-11 -5,2 -4,1 -6,5 -2,2 -3,4 -7,3 -4,-7 1,-11 -5,-14 -3,3 -5,7 -9,8 2,-3 7,-9 10,-10 1,1 1,1 1,2l2 2c2,-3 0,-8 -2,-10 -2,1 -3,1 -4,2 -3,1 -3,1 -4,0zm-517 251l45 0c3,-5 5,-9 8,-15 3,-5 2,-14 2,-21 -4,1 -3,-5 -3,-8 -5,2 -6,3 -7,-3 -2,3 -1,35 -1,42l-11 0 0 -62c0,-2 -3,-6 -5,-8 -1,-3 -3,-6 -5,-9 -1,3 0,75 0,79l-11 0 0 -186 10 -1c2,11 -1,48 1,54 1,-5 3,-10 5,-15 1,-4 5,-11 6,-14l-1 -25 11 1c0,3 0,4 1,6 4,-5 10,-10 17,-12 9,-3 17,-3 26,-4 -1,-3 -2,-6 -2,-10 -13,-2 -13,-4 -17,-14 -7,0 -52,1 -54,-1 3,-3 45,-1 53,-1 -3,-13 -2,-13 2,-22 -9,-1 -51,1 -55,-1 2,-3 51,0 56,-1 3,-2 4,-4 6,-5l5 -5c0,0 0,0 1,0l-52 0c-4,0 -14,1 -16,-2 5,-2 64,1 74,-1l36 1c6,0 34,-1 37,0 -1,2 1,1 -3,2 -1,0 -4,0 -5,0l-56 0 -2 10 91 0 1 -22c-29,0 -58,0 -87,0 -9,0 -84,1 -86,-1 2,-2 37,-1 43,-1 16,0 123,1 130,-1 0,-4 0,-13 3,-15 1,2 1,5 1,7l5 1c1,3 3,6 2,11 -2,6 -4,0 -3,9 4,22 4,44 -7,63 -2,7 -6,10 -9,14l28 0 0 8c-13,0 -41,-2 -51,0 -7,2 -17,3 -20,7 -3,5 -4,17 -2,23l78 0 0 9 -78 0 2 26 71 0 0 11 -71 0 1 6 78 0 0 9 -78 0 0 8 63 0 0 7 -62 0 0 8 34 0 0 8 -33 0 1 6 60 0 0 11 -60 0 1 4 18 0 0 9 -18 0 0 4 61 0c0,3 0,7 -1,9l-59 0 0 13 50 0c3,0 3,-1 6,-1 8,-2 23,-2 31,-1 9,0 22,3 29,3l25 0c-2,-6 -5,-14 -8,-20 -2,-8 -4,-15 -6,-23 -3,-13 -4,-40 1,-52 2,-14 10,-34 15,-47 2,-4 5,-10 6,-13 -10,-1 -32,-1 -44,-1 -3,0 -12,1 -15,-1 4,-2 51,0 60,0 5,-14 22,-41 41,-43 0,-4 2,-9 -2,-11 -3,-1 -3,0 -5,-2 -1,-1 -2,-4 0,-5 1,-4 0,-2 -3,-6 -12,0 -106,0 -111,-1 -1,-7 0,-79 0,-93 0,-11 -2,-90 0,-94 3,2 2,40 2,45l0 141 107 0 1 -11 -97 0 -1 -5c10,-3 98,1 103,-1l24 -12 -4 0c-1,0 -2,0 -3,0 -17,0 -114,0 -119,-1l0 -10 162 0c1,-2 1,-2 3,-3 -2,4 -4,5 0,9 3,0 10,0 13,0 4,-1 6,-4 8,-7 -2,-1 -3,-1 -5,-2l-3 -4c3,2 6,4 9,5l0 -15 -2 -2c-3,1 -6,5 -8,7 0,0 0,0 0,0l-2 2c0,0 0,0 0,0 0,0 -1,1 -1,1 -4,1 -4,2 -9,6 2,-4 6,-5 8,-8l-173 0 0 -43 150 0 1 2c0,0 1,2 1,2l17 0 0 21 8 0 1 14c1,-1 7,-7 8,-8 3,-6 -1,-117 2,-123 2,3 1,11 1,15l0 105c2,-2 1,-1 2,-3 1,0 1,0 1,-1 2,-1 0,0 2,-1l2 -5c6,1 11,2 17,2 5,-1 9,-3 14,-4 -1,0 -1,0 -1,0l-2 -1c-1,0 0,1 -2,0 0,0 15,-2 18,-2 4,0 13,3 17,0l-14 0c1,0 1,0 2,-1 3,-1 17,-1 20,1 14,0 11,8 11,20l43 0c3,0 4,-1 6,1 -5,2 -40,-1 -49,0 -2,4 -3,8 -4,11 -1,4 -4,7 -5,11 5,0 16,-1 20,0 -2,2 -16,1 -21,1 -4,6 -8,13 -15,15 0,0 -1,1 -2,1 -2,1 0,0 -1,1l-30 63c3,1 3,1 5,7 -3,0 -2,0 -3,2l0 1c-1,1 -1,0 -2,1 -1,3 1,0 -1,3l-5 0 -9 19 123 0c2,0 1,0 2,1l0 71c-1,4 0,-1 -1,3l4 2 0 -343 -85 0 -1 4c4,1 10,-1 13,1 -1,2 -6,1 -9,1 -5,0 -5,0 -6,4 9,1 14,-1 16,2l-16 0 -2 5c4,0 15,-1 17,1 -2,2 -13,0 -17,1l-2 4 20 0c-2,3 -4,2 -10,2 -4,0 -7,0 -11,0l-1 4c4,0 19,-1 21,1 -2,2 -18,1 -22,1l-2 4c6,1 21,-1 25,1 -2,1 0,0 -3,1l-10 0c-4,0 -9,0 -13,0l-2 5 22 0c6,0 5,0 6,1l-29 0 -2 5c6,0 28,-1 30,1 -3,2 -25,0 -31,0l-2 5c9,1 32,-2 33,1 -2,1 -28,1 -33,1 -3,1 -2,3 -4,6 -4,7 -8,7 -9,10 -3,3 4,2 -15,2 1,-2 1,-1 8,-1l1 -5 -10 -1c6,-3 10,4 12,-5 -3,0 -9,0 -11,-1 3,-1 9,0 12,-1l2 -4c-4,-1 -11,1 -15,-1 3,-2 12,-1 16,-1l1 -12c-3,2 -14,2 -17,0 3,-1 9,0 13,0l4 -1 2 -41 -66 0c2,7 5,13 7,20 2,4 5,18 6,20l16 1 0 8 -14 0 -1 10 3 0 0 8 9 0 0 6 5 0 0 13 -180 0 0 -27 150 1 -6 -11 -144 0 0 -8 139 -1 -6 -9 -134 0 1 -14 126 1 -9 -18 -343 0 0 415z"/>
   <path class="fil2" d="M1816 1690c1,11 1,22 0,34 -1,16 -5,15 -12,23 -4,19 -8,40 -13,59 -8,38 -11,33 29,33 48,0 95,-1 143,0l8 -88c0,0 -1,-1 -1,0l-2 -1c-2,-1 0,1 -2,-1 2,-2 3,-1 5,-1l5 -53 -2 -1c-3,-1 0,1 -3,-2 2,0 0,0 2,0 1,-1 2,-1 3,-1 0,-5 0,-9 0,-13l5 -41 -3 -1 4 -54c-4,3 -15,31 -17,37 -2,7 -12,35 -11,41 2,3 6,8 5,13 -3,-1 -5,-3 -5,-3 0,-1 0,-1 0,-1l0 12c-3,-1 -3,-4 -4,-7 -1,3 0,3 -2,5 -1,-1 -1,1 -2,-4 0,-1 -1,-4 -1,-4 0,3 0,4 -2,6 -2,-2 0,-1 -2,-3l-75 0c-2,0 0,0 -1,-1 4,-2 69,1 76,-1l0 -6 -60 0c-1,0 -3,0 -4,0 -4,0 -1,1 -3,-1 6,-2 56,1 68,-1l0 -6 -63 0c-4,0 -17,2 -19,-1 4,-2 71,0 82,-1l1 -6c-10,0 -68,1 -72,0 2,-3 13,-1 17,-1 14,0 45,0 55,-1l1 -6c-9,0 -64,1 -68,0 2,-2 0,-1 2,-1l66 0 1 -7c-11,0 -69,2 -73,-1 3,-2 2,-1 2,-1l58 0c15,0 13,2 14,-6 -17,0 -57,1 -74,0l-3 -1c0,0 0,0 0,0 0,0 1,0 1,0 5,-2 63,0 76,-1l1 -6c-9,0 -68,1 -70,-1 3,-2 60,0 70,-1l1 -6c-15,-1 -45,0 -63,0 -3,0 -6,1 -8,-1l1 0c5,-2 -4,0 1,-1 6,-1 62,2 70,0l1 -6c-9,0 -64,2 -67,-1 3,-2 58,-1 66,-1 2,-1 2,-4 2,-6 -3,0 -67,0 -69,0 -2,-1 -1,0 -2,-1 4,-2 62,0 72,-1l1 -6c-13,-1 -45,0 -61,0l-7 0c-2,-1 0,0 -2,-1 4,-2 60,-1 70,-1 2,-1 2,-3 2,-6 -11,0 -22,0 -34,0 -4,0 -29,1 -31,-1 4,-2 56,-1 65,-1 2,-1 2,-3 3,-6 -12,-1 -73,2 -78,-1 1,0 1,0 1,0l78 -1 1 -6c-9,0 -70,2 -73,-1 3,-2 64,-1 73,-1 2,0 2,-1 3,-3l5 -12c-24,-1 -50,-1 -75,-1 -51,0 -45,-4 -51,24 -3,13 -24,119 -26,122z"/>
   <path class="fil3" d="M2201 1527c-2,-46 51,-61 75,-34l5 7c5,7 7,19 7,27 -8,1 -83,1 -87,0zm89 -103l30 0c3,1 14,12 16,15 16,16 29,45 32,71 1,6 2,13 0,19 -2,7 -7,6 -14,4 -18,-5 -23,-3 -25,-16 -2,-21 -12,-43 -26,-56 4,-8 7,-10 4,-13 -3,2 -3,6 -7,11l-7 -6c-3,-2 -6,-3 -7,-7 -1,-5 3,-17 4,-22zm-55 -25c25,-3 21,6 16,26 -2,9 -2,12 -13,13 -22,2 -37,9 -53,23 -16,15 -11,24 -29,19 -18,-4 -30,-4 -17,-23 7,-12 14,-20 23,-28 19,-16 41,-27 73,-30zm-64 -40c0,9 2,36 -2,41 -8,2 -33,1 -44,1 -14,0 -30,0 -44,0l21 0c-2,4 -10,5 6,22 2,3 3,4 5,6l-11 18c-6,0 -15,-2 -21,-3 -9,-1 -9,5 -11,12 -4,9 -3,10 4,15 3,2 12,7 15,9l-5 22c-6,0 -17,1 -23,3 -4,2 -4,4 -4,9 0,5 0,9 0,14l-13 -1 1 1c26,1 54,0 80,0 53,0 109,1 161,0 7,0 13,0 20,0 19,0 14,-1 19,22l3 17 1 -2c25,7 38,5 12,37 -1,1 -1,1 -2,3 -1,1 -1,1 -2,1 -1,2 0,1 -2,2 2,7 3,15 4,22l4 21c0,0 0,0 1,0 0,1 0,1 0,1l0 -3c2,-1 7,-6 9,-7 3,3 4,4 8,6 6,3 13,9 17,6 1,0 5,-6 6,-7 5,-6 10,-6 3,-16 -3,-4 -9,-11 -11,-15l10 -17c8,-1 19,5 27,3 1,0 11,-18 7,-23 -3,-2 -16,-10 -21,-13l5 -21c7,0 13,-2 20,-3 9,-2 7,-4 7,-14 0,-10 2,-11 -8,-14 -10,-2 -17,-1 -18,-5l-3 -19c5,-3 10,-6 15,-9 7,-4 9,-5 5,-15 -6,-19 -7,-11 -31,-9 -2,-6 -9,-15 -10,-20 8,-12 21,-18 13,-25 -2,-2 -8,-11 -9,-12 -5,-3 -12,3 -16,4 0,7 1,15 -2,18 -2,2 -86,2 -89,0 -1,-1 -2,-1 -2,-4l0 -79c-8,-1 -8,3 -11,9 -2,4 -4,10 -5,14l-20 0c-4,0 -8,-23 -12,-25 -1,0 -21,1 -22,4 -2,3 -2,22 -2,26l-20 6c-4,-3 -11,-12 -13,-14z"/>
   <path class="fil1" d="M2231 1672c1,4 -1,7 -5,5l0 -4 5 -1zm-1 -14c-2,-7 8,-6 4,1l-4 -1zm9 -23c2,6 -7,7 -5,0l5 0zm-1 -14c-1,-4 2,-6 4,-4 3,2 0,5 -4,4zm4 -19c-1,-5 3,-6 5,-4 2,4 -2,5 -5,4zm8 -23c1,2 2,3 0,4 -2,2 -3,1 -4,1 -1,-4 0,-6 4,-5zm0 -14c-2,-4 1,-5 5,-5 0,4 -1,7 -5,5zm-224 72c2,1 9,1 11,1l3 11c0,3 0,2 -2,3 4,1 4,7 6,15 1,4 2,14 3,17 -1,-15 -7,-32 -9,-46l10 -1 7 39c9,0 85,-1 89,0l1 1c-3,3 -16,1 -22,1l-67 0 1 13c4,0 79,0 82,1 1,0 1,0 1,0 0,0 1,0 1,0 -2,3 -6,2 -10,2l-74 0 2 18 72 0c2,0 4,0 6,0 3,0 2,0 4,2 -2,0 0,0 -2,0l-80 1 1 32c7,2 75,0 82,1 3,0 1,0 3,1 -1,2 0,1 -4,1l-38 0c-14,0 -28,0 -43,0l1 13 89 0 -4 -43 93 0c1,-8 16,-75 19,-89 3,-14 7,-29 10,-44 1,-7 3,-15 4,-22 6,-26 7,-21 -55,-21l-109 0c-17,0 -37,-1 -54,1 5,8 5,30 34,38 10,3 21,1 31,-2 4,-1 15,-5 18,-9 1,-1 3,-4 4,-5 -4,0 -16,2 -19,-1 4,-2 12,-1 17,-1 9,0 5,-5 11,-5 2,5 -5,7 -7,10 8,-5 2,-5 15,-5 10,0 54,-1 58,0 -1,2 0,1 -2,2l-61 0c-4,0 -3,-1 -4,2 0,5 1,-3 1,3 0,2 -3,5 -4,6l4 -2c0,0 0,0 0,-1 0,0 1,0 1,0 -1,5 -3,8 -5,10 -3,4 -1,2 -3,4 -2,3 -16,12 -19,15 10,1 65,-1 69,1 -1,1 0,1 -5,1l-61 0c-10,0 -9,2 -17,4 -21,7 -44,2 -61,-12 -2,-2 -3,-4 -6,-5 2,3 2,7 3,11l13 1 -12 1 2 29c16,1 135,-1 139,1 -1,1 0,0 -2,1 0,0 -2,0 -2,0 -2,0 -4,0 -6,0l-112 0c-7,0 -15,-1 -21,0 -6,0 -13,1 -19,0z"/>
   <path class="fil4" d="M1657 1504c7,-5 18,-11 26,-15 6,-4 22,-15 29,-13 4,7 3,40 3,53 -1,5 0,13 -4,15 -9,5 -40,-12 -49,-22 -8,-8 -4,-3 -5,-18zm0 -81c2,1 17,10 20,11 18,11 25,14 11,23l-31 17 0 -51zm57 -55l26 0c0,-18 3,-18 19,-12 13,4 25,11 35,20 1,1 4,4 4,4 0,0 3,5 3,6 2,5 -4,8 -7,9 -3,2 -9,6 -12,7l0 30c28,-15 40,-34 43,8 1,6 1,8 1,13 -6,40 -4,36 -49,10 -6,-4 -14,-7 -17,-12l-18 0c-3,18 -27,17 -30,0 -3,0 -5,0 -8,0 -3,0 -3,0 -5,-2 -1,-2 -1,-72 0,-78 -3,2 -1,39 -1,46 -5,-2 -39,-22 -41,-24 0,-3 -1,-12 0,-14 1,-1 6,-5 8,-7 4,-3 10,-8 16,-11 8,-3 12,-5 21,-7 13,-4 12,2 12,14zm-58 309l1 1 0 -123c2,1 6,3 7,5 -1,5 -5,14 -4,20 3,2 11,6 16,6 3,-4 7,-11 10,-17l16 4c0,5 0,16 2,19 1,4 12,5 16,4 3,-4 5,-14 5,-20l2 0c4,-3 6,-19 6,-25 -3,-2 -8,-7 -8,-13 0,-6 8,-7 15,-6 -1,-10 0,-20 0,-30 0,-7 -2,-22 3,-26 4,-1 9,2 12,4 3,2 5,6 8,7 1,-2 0,-1 -1,-3 5,2 16,9 22,12 7,4 19,9 18,16 -1,4 -13,14 -17,17l-22 12c3,3 7,5 8,11 1,6 0,11 -2,16l11 -4c2,2 2,4 6,8 7,7 5,12 21,1 1,-9 -5,-15 -6,-21 4,-3 8,-6 12,-9 3,1 13,7 15,10 3,-5 2,-14 8,-23 -3,0 -5,-4 -7,-5 3,-5 7,-9 9,-14 6,1 13,5 21,4 1,-1 5,-10 6,-13 -3,-4 -13,-11 -17,-12l4 -17c6,1 11,1 16,0 6,-1 6,-4 6,-10 1,-11 -7,-9 -19,-13l-1 -16c0,0 0,0 1,-1 9,-4 19,-1 17,-13 -5,0 -10,0 -15,0 -5,0 -10,1 -13,-2 -1,-3 -1,-84 0,-91l-1 43 -12 5c-2,-2 -9,-10 -10,-13 0,-1 11,-15 10,-18 -1,-2 -9,-9 -11,-10 -3,1 -7,4 -9,6 -3,2 -5,4 -8,6 -2,-1 -12,-7 -14,-9 2,-4 5,-13 5,-18 0,-4 -14,-8 -14,-8 -4,2 -10,12 -11,17l-17 -4 0 -15 -20 0c-1,4 -2,9 -4,12l-16 1 -4 -13c-5,0 -8,0 -12,-1l-1 -4c-3,1 -4,1 -7,3 -1,7 2,14 1,20 -2,2 -12,5 -16,6 -1,-2 -5,-8 -7,-10 -2,-2 -5,-8 -9,-4l0 -14c0,-1 0,-1 0,-2 -1,-1 -1,-1 -1,-2l0 376z"/>
   <path class="fil5" d="M1001 1269c-2,-4 -4,-1 -13,-2 -4,-1 -7,-3 -10,-5 -8,-5 -10,-13 -6,-18 7,-8 21,-19 33,-24 42,-20 36,-1 36,35 0,11 -2,7 -14,14 0,0 0,-1 0,-1l-2 -1c-2,-1 -3,-1 -6,-1 -12,0 -8,0 -9,3 4,2 10,1 15,1 -6,2 -10,10 -17,9 -4,-1 -12,-8 -17,-9 4,0 7,0 10,-1zm140 -9c-7,4 -14,8 -21,12 -13,7 -13,10 -22,3 -11,-9 -17,-9 -21,-12 -5,-3 -3,-21 -3,-29 0,-10 0,-21 10,-22 13,-2 58,22 61,37 3,-2 5,-3 8,-5 0,-2 -1,-5 0,-7 2,1 2,4 2,7 8,1 8,2 13,3 2,-2 2,-4 5,-4 1,3 -2,4 -4,5 1,3 3,7 4,10 1,0 3,0 4,0l4 1c-1,2 0,1 -3,1 -6,1 -4,-2 -5,3 -2,8 -3,5 -4,10 6,2 4,3 5,5 -4,-1 -4,-3 -7,-4 -6,2 -5,2 -12,3 -1,2 -1,4 -3,5 -1,-2 0,-2 0,-5 -1,-2 -3,-2 -6,-4 -1,-2 -3,-4 -4,-5 -2,1 -3,2 -6,2 0,-2 3,-3 5,-4l0 -6zm-233 88c0,-6 -1,-21 2,-26 3,-2 11,-2 17,-5 3,-1 11,-5 13,-7 -1,-7 2,-16 6,-19 7,-7 12,-2 18,0l1 9c3,-2 2,-3 2,-6 6,3 11,6 17,9 8,5 10,3 8,15 9,1 7,0 9,10 0,6 1,11 1,17 1,35 -7,31 -27,45 -3,2 -9,6 -11,8 -2,2 -7,9 -9,9 -1,-3 0,-3 -3,-5 -5,-6 -26,-21 -33,-24 0,7 -11,7 -12,13 -1,3 2,8 4,9 3,1 7,-1 10,-1 5,-2 7,-2 10,1 1,2 3,6 3,9 -2,5 -13,10 -9,15 -5,0 -9,0 -14,0l-10 0c-4,1 -2,0 -3,2l124 0c-4,-4 -24,0 -32,-2 -3,0 -16,-12 -18,-14 -6,-10 2,-16 9,-20 7,-4 14,-8 21,-12 10,-6 9,-4 16,1 15,12 23,8 23,18 1,9 1,23 0,32 0,11 -9,16 -19,11l1 40c0,0 0,0 0,0l2 -5c1,-2 2,-2 3,-4 3,0 8,0 10,2 9,4 -4,19 15,18l0 -121c-24,-2 -45,-26 -38,-54 4,-13 11,-21 20,-27 17,-10 31,-3 38,-3l132 0c3,-1 9,-4 10,-6 1,-4 -2,-9 -4,-11 -5,-1 -7,1 -12,1 -5,1 -6,-1 -8,-4 -4,-10 3,-11 8,-16 5,-4 -1,-14 -8,-12 -10,4 -11,8 -17,-1 -5,-7 4,-11 6,-17 1,-3 -4,-13 -13,-7 -7,5 -8,8 -16,0 -6,-5 4,-11 3,-20 -2,-2 -5,-4 -10,-4 -6,4 -8,13 -17,9 -3,-2 -6,-3 -5,-9 1,-5 2,-7 2,-12 -15,-11 -13,3 -20,9 -4,0 -10,0 -12,-3 -4,-5 5,-20 -10,-19 -10,1 -4,16 -14,16 -6,1 -9,0 -10,-4 -1,-3 -1,-10 -3,-12 -2,-2 -9,-2 -11,0 -6,6 4,17 -12,18 -11,1 -6,-14 -15,-14 -4,-1 -8,2 -9,5 -1,7 7,16 -8,19 -4,1 -6,-3 -8,-6 -2,-2 -4,-7 -8,-6 -4,1 -8,3 -8,7 1,10 10,13 -3,20 -8,4 -11,-10 -19,-8 -2,1 -7,5 -6,8 0,3 4,7 5,10 3,5 0,7 -3,10 -7,8 -13,-5 -20,-3 -3,1 -6,6 -6,9 2,7 14,7 8,18 -7,11 -10,1 -21,2 -2,2 -5,6 -4,10 1,6 14,6 12,14 0,3 -2,8 -5,9 -7,2 -17,-6 -18,7 -1,9 13,8 15,12 1,4 1,11 -3,13 -4,2 -10,0 -13,3 -3,2 -3,10 0,12 2,1 10,2 13,2l0 13z"/>
   <path class="fil4" d="M1339 1184c16,-4 20,20 6,23 -15,4 -22,-18 -6,-23zm-27 18c12,-1 19,7 17,19 3,0 5,1 8,2 4,0 7,0 10,1 3,6 17,27 18,31 -20,9 -33,4 -49,0l0 -22c-2,2 0,44 -1,51l-15 0c-5,-1 3,2 -2,0l-1 -1c2,-2 13,-1 16,-1l0 -14c-3,0 -6,1 -8,-1 1,-1 1,0 2,-1l6 0 0 -5c-3,-1 -6,0 -9,-1 1,-3 2,-2 9,-2l0 -5c-7,-2 -18,-12 -21,-17 3,-3 8,-5 12,-7 -6,-8 -6,-11 -3,-20l-19 10c-6,-14 -6,-29 -1,-44 3,-10 12,-25 21,-29 2,3 5,8 8,13 19,32 5,12 4,36 0,6 1,4 -2,7zm84 -23c1,4 -2,2 3,3 0,0 4,0 5,0 6,5 0,32 -3,38 -4,10 -13,23 -20,26 -4,-9 -9,-17 -14,-26 -5,-8 -4,-4 0,-12 3,-7 2,-10 3,-17 4,-4 10,-6 15,-9 5,-3 11,-8 17,-10l2 7 -8 0zm-78 -43c12,-7 31,-6 44,-1 10,3 27,13 30,21 -2,1 -29,17 -31,18 -3,0 -8,-4 -12,-5 -15,-4 -8,9 -31,-33zm-113 150l-132 0 -3 0c-1,0 -1,0 -1,0l-1 1 344 0 0 -1 -28 0 -1 -10c3,-2 6,-5 10,-7 3,-2 6,-5 10,-7l11 6c4,-4 3,-6 10,-10 4,-2 9,-3 14,-5l-5 -5c-2,-2 -3,-3 -5,-5 -7,-7 -6,-7 -4,-12 8,-21 2,-18 21,-19l-3 -15 13 0 0 -9c-6,-3 -10,-5 -18,-5 0,-1 0,-1 0,-1l0 -3 -7 0c-1,-5 -3,-10 -4,-14 -4,-14 2,-7 13,-22 3,-5 -2,-10 -5,-13 -6,-9 -3,-10 -24,0 -6,2 -4,2 -13,-4 -4,-3 -8,-6 -11,-9 0,-6 3,-13 3,-20 0,-7 -6,-7 -12,-9 -9,-3 -10,-2 -14,5 -2,4 -5,12 -7,14 -5,0 -22,0 -26,-1 -5,-15 -7,-14 -10,-21 -6,0 -17,3 -21,6 -1,7 1,17 2,24 -3,2 -19,14 -21,15 -4,-3 -14,-9 -20,-10 -4,-1 -6,3 -8,6 -5,7 -8,9 -4,14 1,2 2,3 3,4 14,15 12,5 5,29 -3,8 -3,5 -21,8 -6,1 -7,2 -6,9 0,3 -1,12 0,14 3,3 19,3 23,6 2,1 7,19 8,23 -2,3 -6,6 -8,8 -11,12 -10,10 -4,19 2,3 5,6 7,9 8,0 19,-9 23,-9 2,0 16,12 19,14l-1 12 -91 0z"/>
   <path class="fil6" d="M1533 1705l82 0 0 9 -82 -1 0 -8zm0 -14l83 0 -1 8 -82 0 0 -8zm0 -15l82 0 0 8 -82 0 0 -8zm0 -14l82 0 0 8 -82 0 0 -8zm0 -15l82 0 1 6 -1 2 -82 0 0 -8zm0 -14l82 0 0 7 0 1 -82 0 0 -8zm0 -15l82 0 0 8 -82 0 0 -8zm0 -14l82 0 1 5 -1 3 -82 0 0 -8zm0 -15l82 0 0 1 0 7 -82 0 0 -8zm-103 40l0 89 -18 0 0 8 221 0 0 -52 -1 -2c-4,-1 -10,-4 -12,-6 1,-1 3,-1 3,-1 0,-1 0,0 1,-1 -3,0 -6,-1 -6,-4 2,-1 2,0 5,0 -3,-2 -6,-3 -7,-7 5,0 7,2 11,2 -2,-1 -6,-3 -5,-5 2,-1 4,0 7,1 1,-4 0,1 1,-3l0 -71 -126 1c-2,5 0,2 0,6 0,2 0,5 0,7 -2,20 -7,10 -16,18 -2,1 -3,2 -5,3l-5 4c5,0 32,-1 34,1 -6,2 -30,-3 -41,2 -28,14 -28,2 -28,17 0,14 0,29 0,44 0,6 1,41 -1,43 -2,-4 -1,-83 -1,-95l-11 1z"/>
   <path class="fil7" d="M1053 1370l0 121c-2,75 0,159 0,236 0,13 4,22 17,22 6,1 34,-1 38,1 2,-2 11,-20 12,-24 -5,0 -25,0 -33,0 -3,0 -8,1 -11,-1l0 -415 343 0c-3,-8 -6,-13 -7,-23l-344 0c-17,3 -15,17 -15,34 0,16 0,33 0,49z"/>
   <path class="fil8" d="M1278 1712l-59 0 -1 -9 61 0 -1 9zm-148 -49c4,7 4,18 1,26 0,7 1,16 -2,21 -3,6 -5,10 -8,15l-45 0c3,2 8,1 11,1 8,0 28,0 33,0 -1,4 -10,22 -12,24l-10 24c-8,23 -18,57 -18,82 5,1 8,4 12,5 8,-19 20,-41 29,-58 7,-12 17,-23 21,-33l12 -21c3,-7 19,-28 23,-46 2,2 1,0 1,3 0,0 -1,3 -1,3l-7 17 10 0 4 23c3,12 15,100 13,107 1,1 0,0 1,2 0,1 0,2 0,3 0,1 0,3 1,4 4,1 12,4 14,6 3,-8 3,-13 4,-15 0,-4 3,-19 3,-24 1,-10 1,-19 1,-28 0,-18 -1,-36 -2,-55l0 -23 49 0c-1,2 -6,5 -9,9 -3,3 -6,8 -5,13 4,-2 6,-5 9,-8 2,-1 3,-2 4,-4 2,-2 2,-2 4,-5 1,-1 2,-2 3,-4 30,-1 57,2 85,14 3,1 6,3 9,4 -7,-6 -30,-12 -42,-15 -14,-3 -31,-4 -45,-4 -8,0 -6,0 -6,-2 -3,0 -3,1 -6,1l-50 0 0 -13 59 0c1,-2 1,-6 1,-9l-61 0 0 -4 0 -9 -1 -4 0 -11 -1 -6 33 0 -33 0 0 -8 33 0 -34 0 0 -8 -1 -7 0 -8 78 0 0 -9 -78 0 0 0 78 0 0 9 -78 0 -1 -4c-8,6 -15,6 -28,6 -10,0 -24,-1 -33,-2 -2,-3 -5,-12 -6,-15 -5,-14 -14,-33 -12,-49 -4,4 -3,13 -3,20 0,8 0,15 0,23 0,8 1,43 -1,46z"/>
   <path class="fil7" d="M2261 1684c16,-5 24,20 8,25 -17,5 -25,-19 -8,-25zm-207 -139c17,-2 37,-1 54,-1l109 0c62,0 61,-5 55,21 -1,7 -3,15 -4,22 -3,15 -7,30 -10,44 -3,14 -18,81 -19,89l15 0 16 0 -3 35 10 -5c1,-7 3,-15 4,-22l28 -129c1,-7 4,-15 5,-21 4,22 8,46 11,69 4,22 36,204 35,209l20 0 -28 -153c-1,-8 -9,-46 -8,-51 0,0 0,0 0,-1 -1,0 -1,0 -1,0l-4 -21c-1,-7 -2,-15 -4,-22 -1,-7 -7,-36 -7,-41l-3 -17c-5,-23 0,-22 -19,-22 -7,0 -13,0 -20,0 -52,1 -108,0 -161,0 -26,0 -54,1 -80,0 1,3 3,4 5,8 2,2 3,5 4,9z"/>
   <path class="fil4" d="M665 1759c14,-4 21,18 7,22 -14,4 -22,-17 -7,-22zm-33 -13c14,-5 21,17 8,21 -14,5 -23,-15 -8,-21zm66 0c15,-4 19,18 6,22 -15,3 -20,-18 -6,-22zm12 -32c14,-6 22,15 9,20 -7,3 -13,-1 -15,-5 -2,-6 -1,-12 6,-15zm-92 0c15,-6 21,15 9,20 -14,7 -24,-15 -9,-20zm142 30l3 -19c-3,0 -11,-2 -12,-4 -1,-1 -2,-11 -2,-13 -2,-8 -1,-6 4,-10 3,-1 8,-5 9,-6 0,-3 -4,-14 -7,-15 -2,0 -13,3 -17,3l-11 -14c-2,-3 6,-11 6,-16 1,-4 -3,-5 -5,-6 -6,-5 -6,-9 -20,7l-6 -2c4,10 2,26 2,38 0,14 3,26 -10,29 8,47 -61,44 -51,0 -9,-2 -10,-8 -10,-18 0,-9 0,-19 0,-28 -55,36 -27,122 39,119 30,-2 52,-23 59,-48 7,-26 -3,-53 -23,-68 -4,-3 -4,-4 -3,-10 5,2 13,10 16,14 4,5 9,10 12,18 7,15 8,32 3,49 -8,27 -34,51 -68,51 -52,0 -86,-54 -64,-102 5,-10 19,-27 29,-30 0,-17 4,-19 21,-19 13,0 26,0 39,1l-4 -1c0,-6 0,-13 -2,-18 -4,-2 -14,-3 -16,0 -2,2 -4,11 -5,15l-20 3c-2,-4 -7,-11 -10,-14 -3,0 -5,1 -8,2 -9,4 -8,2 -3,22 -3,1 -5,3 -8,6 -2,2 -6,5 -8,6 -3,-1 -13,-8 -16,-7 0,0 -11,9 -8,14 2,4 10,9 10,13l-5 13c-5,14 -20,-7 -21,15 -1,13 9,8 17,12l2 20c-14,10 -16,7 -11,18 4,9 2,8 20,3 2,1 11,13 13,15 -1,6 -7,12 -7,18 2,2 10,8 13,8 2,-1 5,-4 7,-5 1,-2 4,-6 6,-6 0,0 17,5 18,8 2,4 -1,-4 0,1l1 6c0,8 -1,13 16,12 2,-3 3,-5 4,-8 1,-3 1,-7 2,-9 4,-1 17,-4 21,-3 2,3 7,12 10,14 2,0 12,-4 13,-5 2,-3 -1,-10 -2,-13 -1,-7 1,-7 5,-11 3,-2 7,-5 10,-7 4,1 8,4 12,6 6,3 7,-1 10,-5 4,-5 5,-6 1,-11 -3,-2 -7,-5 -9,-8 0,-4 2,-6 3,-10 1,-2 2,-3 2,-5 2,-6 3,-5 14,-5z"/>
   <path class="fil9" d="M1963 1839l-2 17 0 9 16 1c1,0 1,0 2,0 1,-1 1,-1 1,-1 -3,-2 -6,-2 -10,-3l2 -6 6 -17c2,-7 14,-42 18,-54 1,-7 2,-13 4,-19 4,0 25,1 28,0l1 -1c-1,-1 0,-1 -2,-1 -2,-1 -22,-1 -26,-1l3 -13c4,0 19,1 22,-1 -1,-2 -1,-1 -4,-1l-18 0c2,-10 4,-20 6,-30 3,-13 6,-21 3,-31 -2,4 -18,80 -20,90 -3,12 -21,81 -25,85 1,-6 5,-16 7,-23 8,-25 13,-42 18,-69 6,-27 14,-57 19,-83 1,-5 -1,-7 -1,-12 2,3 8,34 9,40 3,14 6,28 8,41 3,14 5,28 8,42 2,14 6,27 8,41l4 17 2 10 21 0c-2,-3 -4,-3 -9,-4l-1 -6 0 -17 0 -73 89 0 0 -3 -89 0 -1 -13c15,0 29,0 43,0l38 0c4,0 3,1 4,-1 -2,-1 0,-1 -3,-1 -7,-1 -75,1 -82,-1l-1 -32 80 -1c2,0 0,0 2,0 -2,-2 -1,-2 -4,-2 -2,0 -4,0 -6,0l-72 0 -2 -18 74 0c4,0 8,1 10,-2 0,0 -1,0 -1,0 0,0 0,0 -1,0 -3,-1 -78,-1 -82,-1l-1 -13 67 0c6,0 19,2 22,-1l-1 -1c-4,-1 -80,0 -89,0l-7 -39 -10 1c2,14 8,31 9,46 -1,-3 -2,-13 -3,-17 -2,-8 -2,-14 -6,-15 2,-1 2,0 2,-3l-3 -11c-2,0 -9,0 -11,-1 -5,-1 -17,1 -24,0 -7,0 -14,2 -21,0l-5 41c0,4 0,8 0,13 -1,0 -2,0 -3,1 -2,0 0,0 -2,0 3,3 0,1 3,2l2 1 -5 53c-2,0 -3,-1 -5,1 2,2 0,0 2,1l2 1c0,-1 1,0 1,0l-8 88z"/>
   <path class="fil10" d="M1977 1528c-3,4 -6,12 -9,17l-5 12c-1,2 -1,3 -3,3 -9,0 -70,-1 -73,1 3,3 64,1 73,1l-1 6 -78 1c0,0 0,0 -1,0 5,3 66,0 78,1 -1,3 -1,5 -3,6 -9,0 -61,-1 -65,1 2,2 27,1 31,1 12,0 23,0 34,0 0,3 0,5 -2,6 -10,0 -66,-1 -70,1 2,1 0,0 2,1l7 0c16,0 48,-1 61,0l-1 6c-10,1 -68,-1 -72,1 1,1 0,0 2,1 2,0 66,0 69,0 0,2 0,5 -2,6 -8,0 -63,-1 -66,1 3,3 58,1 67,1l-1 6c-8,2 -64,-1 -70,0 -5,1 4,-1 -1,1l-1 0c2,2 5,1 8,1 18,0 48,-1 63,0l-1 6c-10,1 -67,-1 -70,1 2,2 61,1 70,1l-1 6c-13,1 -71,-1 -76,1 0,0 -1,0 -1,0 0,0 0,0 0,0l3 1c17,1 57,0 74,0 -1,8 1,6 -14,6l-58 0c0,0 1,-1 -2,1 4,3 62,1 73,1l-1 7 -66 0c-2,0 0,-1 -2,1 4,1 59,0 68,0l-1 6c-10,1 -41,1 -55,1 -4,0 -15,-2 -17,1 4,1 62,0 72,0l-1 6c3,4 7,4 12,4 -1,-6 9,-34 11,-41 2,-6 13,-34 17,-37l-4 54 3 1c7,2 14,0 21,0 7,1 19,-1 24,0 6,1 13,0 19,0 6,-1 14,0 21,0l112 0c2,0 4,0 6,0 0,0 2,0 2,0 2,-1 1,0 2,-1 -4,-2 -123,0 -139,-1l-2 -29 12 -1 -13 -1c-1,-4 -1,-8 -3,-11 3,1 4,3 6,5 17,14 40,19 61,12 8,-2 7,-4 17,-4l61 0c5,0 4,0 5,-1 -4,-2 -59,0 -69,-1 3,-3 17,-12 19,-15 2,-2 0,0 3,-4 2,-2 4,-5 5,-10 0,0 -1,0 -1,0 0,1 0,1 0,1l-4 2c1,-1 4,-4 4,-6 0,-6 -1,2 -1,-3 1,-3 0,-2 4,-2l61 0c2,-1 1,0 2,-2 -4,-1 -48,0 -58,0 -13,0 -7,0 -15,5 2,-3 9,-5 7,-10 -6,0 -2,5 -11,5 -5,0 -13,-1 -17,1 3,3 15,1 19,1 -1,1 -3,4 -4,5 -3,4 -14,8 -18,9 -10,3 -21,5 -31,2 -29,-8 -29,-30 -34,-38 -1,-4 -2,-7 -4,-9 -2,-4 -4,-5 -5,-8l-1 -1c-3,-2 -6,-5 -11,-8l-8 -3c0,3 -4,17 -6,29 -6,1 -37,2 -41,0 -1,-1 0,0 0,-2l10 -27c-5,2 -8,7 -11,12z"/>
   <path class="fil11" d="M771 1666c-2,3 -7,51 -8,59l-3 19c-3,21 -6,43 -8,65 -3,19 -5,45 -10,63 0,3 0,2 4,2 1,1 4,1 5,1l1 -2c4,-15 22,-27 34,-100 2,-10 3,-17 5,-27 8,-26 17,-50 25,-75 2,6 14,93 15,100 4,34 10,68 14,102 1,2 1,1 1,1l10 -1c1,-34 2,-70 2,-104 0,-34 -2,-69 -2,-103 -6,0 -12,-15 -13,-23l-25 3 0 12c-4,0 -4,-1 -5,-5 -2,-10 2,-6 -24,-8 -4,8 -11,19 -17,22l-1 -1z"/>
   <path class="fil12" d="M905 1627l0 -150c1,1 7,9 8,10 -4,-1 -2,0 -3,2l3 1c1,1 1,0 2,1 2,0 6,7 8,9 3,3 4,2 9,2l9 0c2,1 1,1 3,2 -3,3 -9,1 -17,2 2,2 5,5 6,7 6,7 5,2 10,5 -1,3 1,3 -4,3l3 4c-8,0 -26,-1 -32,0 1,4 -4,3 16,3 15,0 19,-2 22,5l-29 0c-4,0 -7,-1 -9,1 3,3 19,2 24,2 16,0 15,-2 20,4l-41 0c-3,1 -2,0 -3,1 2,4 5,3 11,3l35 0c4,1 0,3 8,3 8,0 31,-1 36,1 -1,3 2,3 -9,3l-29 0c2,0 2,2 4,4l-50 0c-4,0 -4,-1 -6,2 1,1 2,1 6,1l41 0c13,0 10,-1 16,7 3,3 8,10 11,12 -9,0 -43,-1 -48,1 1,4 -3,3 11,3l39 0c5,5 1,3 6,4 4,1 -3,-1 1,0 2,1 1,0 2,1 -1,3 3,3 -3,2 4,5 8,11 12,16l12 15c0,-18 1,-174 0,-178 -5,-1 -86,0 -105,0l-5 0c-2,1 0,0 -1,1 -2,2 -1,146 -1,174 0,2 0,4 0,6 0,3 0,3 1,5z"/>
   <path class="fil13" d="M2277 1750c17,-3 24,3 31,13 12,20 14,49 -10,63 -12,6 -23,6 -38,7l-1 23 101 0c1,-5 -31,-187 -35,-209 -3,-23 -7,-47 -11,-69 -1,6 -4,14 -5,21l-28 129c-1,7 -3,15 -4,22z"/>
   <path class="fil14" d="M1360 1726l4 12c-20,-10 -19,-7 -28,-11 0,0 0,-1 -1,-1 -7,0 -20,-3 -29,-3 -8,-1 -23,-1 -31,1 0,2 -2,2 6,2 14,0 31,1 45,4 12,3 35,9 42,15 -3,-1 -6,-3 -9,-4 -28,-12 -55,-15 -85,-14 -1,2 -2,3 -3,4l44 18 33 11c10,3 27,8 37,3 -4,15 -1,60 3,76l4 18 3 14 7 -1 2 -13 2 -19c4,-29 6,-58 7,-88l-1 -24 0 -8c0,-13 -1,-27 -1,-40 0,-5 1,-14 -1,-18 -3,-5 -5,-8 -5,-14 -10,1 -26,-1 -35,-3 -5,-1 -22,-8 -23,-12 -5,12 -4,39 -1,52 2,8 4,15 6,23 3,6 6,14 8,20z"/>
   <path class="fil10" d="M1173 1524l-9 0c-9,1 -17,1 -26,4 -7,2 -13,7 -17,12 -1,3 -4,5 -6,9 -2,2 -3,6 -5,9 -1,3 -5,10 -6,14 -2,5 -4,10 -5,15l-1 3 20 11c5,-9 11,-29 18,-31 0,2 -1,1 -2,4 -2,16 7,35 12,49 1,3 4,12 6,15 9,1 23,2 33,2 13,0 20,0 28,-6l1 -5 0 0 -1 -6 0 -11 -2 -26 0 -9c-2,-6 -1,-18 2,-23 3,-4 13,-5 20,-7 10,-2 38,0 51,0l0 -8 -28 0c3,-4 7,-7 9,-14l-10 -17c0,-1 0,-1 0,-1 -3,3 -3,5 -6,7 -8,7 -17,10 -27,12 -13,2 -35,-1 -49,-2z"/>
   <path class="fil15" d="M2150 1763l0 3c-1,0 1,18 2,20 -6,0 -26,-1 -30,1l1 0c4,1 24,1 29,1l1 11c-3,0 -83,0 -86,1l-1 0c2,2 7,1 10,1l77 1 3 37 2 17 0 3c6,2 37,1 45,1 0,-5 22,-61 25,-70 4,-11 9,-23 13,-34 4,-11 10,-25 13,-36l-15 0 -93 0 4 43z"/>
   <path class="fil16" d="M1548 1278c2,14 2,18 0,32l85 0 0 343 2 2c-1,-3 -1,-3 0,-4 3,2 4,4 6,7 2,5 4,8 6,11 2,2 7,7 9,8l0 -376c-4,-18 -22,-14 -40,-14 -17,0 -36,1 -53,0 -5,1 -8,2 -13,2l-2 -14c-1,1 -1,1 0,3z"/>
   <path class="fil13" d="M1271 1751l-16 88 133 0c-4,-16 -7,-61 -3,-76 -10,5 -27,0 -37,-3l-33 -11 -43 1c0,4 1,0 -1,1z"/>
   <path class="fil17" d="M1758 1594l-11 3c-11,2 -24,10 -28,18 -6,10 -4,28 -8,40 -4,12 -12,22 -20,27 -16,9 -32,-2 -34,-4l-1 -1c-2,-1 -7,-6 -9,-8 -2,-3 -4,-6 -6,-11 -5,3 -7,7 -9,14l1 2c2,2 3,6 5,8 1,2 3,5 5,7 4,5 8,9 13,13 8,4 13,7 24,8 2,-2 3,-1 6,-1 10,-1 27,-14 32,-20 9,-11 15,-28 17,-43 2,6 2,60 2,72 9,0 13,1 21,3 0,-19 1,-27 11,-38 6,-7 19,-15 33,-15l0 -7c0,-15 -5,-33 -10,-46 -3,-7 -6,-13 -11,-17 -7,-5 -13,-3 -23,-4z"/>
   <path class="fil18" d="M1567 1181c12,9 19,37 2,47l-2 -47zm-55 -41c-17,1 -28,9 -35,19 -6,9 -13,25 -16,37 4,1 9,1 13,1 2,0 4,0 6,0 3,0 3,0 5,-2 1,-4 6,-16 9,-18l-1 20 36 0 14 58 29 0 -1 -7c32,-10 35,-32 24,-66 -12,-35 -27,-41 -60,-42 -2,3 -2,5 -6,5 -2,-7 0,-3 3,-9l-3 2c-1,1 1,0 -1,1 -4,3 -7,1 -9,1 -2,0 -5,0 -7,0z"/>
   <path class="fil19" d="M1491 1459c0,-3 5,-10 7,-12 2,1 4,1 6,1l7 1c-4,0 -11,0 -13,1 3,2 9,1 13,1l-2 8c-5,1 -13,3 -18,0zm33 -12l-1 10 -12 2c0,-7 0,-5 2,-8l0 -2c0,0 0,-1 0,0l11 -2zm-32 -3c0,0 0,0 0,1 3,1 3,1 4,2 -1,3 -3,5 -5,8l0 -9c0,-2 -1,-1 1,-2zm9 -4l11 0 -2 7c-4,1 -8,1 -11,-1l2 -6zm12 0l14 0c-2,5 -1,5 -6,6 -3,1 -6,1 -9,1l1 -7zm-21 4l-1 -3c0,-1 0,-3 0,-4 0,-2 2,-4 3,-5l8 3c-1,4 0,3 -4,4 2,3 2,0 1,3 0,1 -1,3 -1,4l-6 -2zm37 -6c1,-4 5,-4 10,-5 3,-1 7,-3 10,-3 0,1 -4,7 -5,8l-15 0zm-33 -9c5,-2 -1,-4 9,-3l-3 8 -6 -5zm20 -2l-3 8 -8 -1c-1,-1 -1,1 -1,-2l2 -5 10 0zm-2 8c1,-2 2,-6 3,-7 2,-3 18,-7 22,-7 -2,4 -4,5 -6,9 2,-1 0,0 2,-1 0,0 1,-1 1,-1l5 -7 15 0c-1,3 -4,6 -7,7 -5,2 -12,5 -17,5 -1,0 -4,2 -18,2zm-50 25c-1,4 0,5 2,7 7,1 16,-2 23,0l2 0c4,-1 22,0 28,0 4,0 9,0 13,1 6,1 8,2 12,3l-5 -3 -1 -3 0 -3 -14 0 0 -3c3,-2 8,-1 11,-1l1 0c-3,-2 -8,-1 -12,-1 1,-12 2,-13 18,-13l-2 11 0 0c1,-2 1,-3 2,-5 0,-2 1,-4 2,-6l4 1c5,0 2,0 4,-2 1,-2 0,-2 1,-5l-7 1c1,-3 2,-6 4,-8 2,-3 5,-2 8,-2l0 -1 -6 0 5 -5c4,-3 2,0 3,-4l6 1 1 -1c-3,-2 -17,-2 -20,-1 -1,1 -1,1 -2,1l14 0c-4,3 -13,0 -17,0 -3,0 -18,2 -18,2 2,1 1,0 2,0l2 1c0,0 0,0 1,0 -5,1 -9,3 -14,4 -6,0 -11,-1 -17,-2l-2 5c-2,1 0,0 -2,1 0,1 0,1 -1,1 -1,2 0,1 -2,3l0 -105c0,-4 1,-12 -1,-15 -3,6 1,117 -2,123 -1,1 -7,7 -8,8l-1 -14 -8 0 0 -21 -17 0c0,0 -1,-2 -1,-2l-1 -2 -150 0 0 43 173 0c-2,3 -6,4 -8,8 5,-4 5,-5 9,-6 0,0 1,-1 1,-1 0,0 0,0 0,0l2 -2c0,0 0,0 0,0 2,-2 5,-6 8,-7l2 2 0 15c-3,-1 -6,-3 -9,-5l3 4c2,1 3,1 5,2 -2,3 -4,6 -8,7 -3,0 -10,0 -13,0 -4,-4 -2,-5 0,-9 -2,1 -2,1 -3,3z"/>
   <path class="fil17" d="M768 1625l7 -1 -1 18c2,3 10,3 14,3 -3,8 -11,19 -17,21l1 1c6,-3 13,-14 17,-22 26,2 22,-2 24,8 1,4 1,5 5,5l0 -12 25 -3c1,8 7,23 13,23l-2 -39c3,-2 12,-5 14,-9 -4,1 -4,3 -8,4 -2,2 -5,3 -9,4 -12,2 -32,1 -44,-3 -4,-1 -7,-2 -10,-3 -3,-1 -7,-2 -10,-3 2,-2 3,-3 5,-6 1,-1 3,-5 5,-6 7,1 0,3 16,2 14,-1 36,-5 42,-16 5,2 18,12 20,16 0,4 -3,3 -4,9 1,-1 0,0 2,-2 12,-13 12,-52 9,-68 -3,-12 -9,-19 -19,-23 -8,-4 -25,-7 -35,-7l-6 0c-2,3 -1,4 -4,4 -3,0 -2,0 -3,-1l-2 -3c0,9 3,6 -2,15 -8,15 -1,86 -40,93 -4,0 -3,-1 -3,1z"/>
   <path class="fil20" d="M905 1627c0,1 -1,0 2,1l53 0c9,0 51,1 55,-1 1,-2 1,-5 1,-8l-12 -15c-4,-5 -8,-11 -12,-16 6,1 2,1 3,-2 -1,-1 0,0 -2,-1 -4,-1 3,1 -1,0 -5,-1 -1,1 -6,-4l-39 0c-14,0 -10,1 -11,-3 5,-2 39,-1 48,-1 -3,-2 -8,-9 -11,-12 -6,-8 -3,-7 -16,-7l-41 0c-4,0 -5,0 -6,-1 2,-3 2,-2 6,-2l50 0c-2,-2 -2,-4 -4,-4l29 0c11,0 8,0 9,-3 -5,-2 -28,-1 -36,-1 -8,0 -4,-2 -8,-3l-35 0c-6,0 -9,1 -11,-3 1,-1 0,0 3,-1l41 0c-5,-6 -4,-4 -20,-4 -5,0 -21,1 -24,-2 2,-2 5,-1 9,-1l29 0c-3,-7 -7,-5 -22,-5 -20,0 -15,1 -16,-3 6,-1 24,0 32,0l-3 -4c5,0 3,0 4,-3 -5,-3 -4,2 -10,-5 -1,-2 -4,-5 -6,-7 8,-1 14,1 17,-2 -2,-1 -1,-1 -3,-2l-9 0c-5,0 -6,1 -9,-2 -2,-2 -6,-9 -8,-9 -1,-1 -1,0 -2,-1l-3 -1c1,-2 -1,-3 3,-2 -1,-1 -7,-9 -8,-10l0 150z"/>
   <path class="fil17" d="M2286 1385c2,0 2,-1 4,0 1,6 -5,5 -4,0zm29 -14c13,-6 17,13 8,17 -5,2 -11,0 -12,-4 -2,-5 -1,-10 4,-13zm15 0c4,-2 3,1 7,0 5,-2 6,-1 8,2 1,-1 9,-7 11,1 1,2 1,5 1,8 0,8 2,1 3,7l-6 0c0,-6 1,-12 -1,-16 -5,-1 -7,0 -7,5 0,13 2,5 3,11l-6 0c0,-5 1,-11 -1,-15 0,-1 -7,-5 -7,8 1,8 2,1 3,7l-8 0c0,-6 2,1 2,-9 0,-1 0,-5 0,-6 0,-1 0,0 -2,-3zm-23 14c0,2 1,2 -2,3 -2,1 -4,1 -6,1 -3,-1 -6,-4 -6,-8 -1,-10 5,-12 14,-10 0,4 0,4 -1,5 -3,-1 0,-1 -2,-3 -7,-1 -9,2 -8,9 2,8 7,3 11,3zm-31 -46l0 79c0,3 1,3 2,4 3,2 87,2 89,0 3,-3 2,-11 2,-18 0,-15 0,-29 0,-44 0,-34 2,-30 -14,-30l-66 0c-10,0 -13,-2 -13,9z"/>
   <path class="fil21" d="M1895 1367c2,-1 4,1 5,2 4,-2 3,-4 9,-6 0,-2 -1,-4 0,-6 2,2 2,3 2,6 6,1 6,1 10,3 2,-2 3,-3 6,-4 -1,3 -2,3 -5,5l4 7c1,0 3,0 3,0l3 1c0,0 0,0 1,0 -1,1 -1,1 -1,1 0,0 -1,0 -1,0 -3,1 -2,0 -5,1 -1,5 -2,6 -3,9 1,2 3,1 3,5 -2,-1 -3,-1 -5,-4 -4,2 -5,3 -10,3 -1,3 -1,4 -3,4 -1,-1 0,-2 1,-5 -3,0 -4,-1 -6,-2l-3 -4c-2,1 -2,1 -5,2 1,-3 2,-2 4,-4 0,-6 0,-6 1,-11 -6,-2 -5,-2 -5,-3zm-33 -12c-2,-2 -4,-3 -4,-6 3,0 4,3 6,4 6,-1 6,-1 12,0 2,-2 2,-3 4,-4 0,3 -1,3 -2,5 3,3 5,4 6,9 2,0 5,0 6,1 -1,2 -3,1 -5,2l-4 8c2,3 3,2 3,5 -3,0 -2,-1 -4,-3 -6,3 -5,3 -13,3 -1,3 0,3 -3,5 -1,-3 1,-3 1,-6 -4,-3 -7,-4 -8,-10 -2,0 -4,0 -6,-1 1,-2 3,-1 6,-1 0,-6 2,-9 5,-11zm-18 -28c-1,7 -1,88 0,91 3,3 8,2 13,2 5,0 10,0 15,0 14,0 28,0 43,0 28,0 25,3 25,-15l0 -63c0,-6 2,-14 -2,-18 -4,-1 -88,-1 -93,0l-1 3z"/>
   <path class="fil10" d="M2131 1344c13,-5 18,15 7,19 -6,2 -11,-1 -13,-6 -2,-5 -1,-11 6,-13zm-14 11c0,8 1,6 2,8l-7 0c2,-4 1,0 2,-3l0 -14c-6,-1 -3,1 -7,2l1 -5 16 0 0 5c-5,-1 1,-2 -7,-2 0,3 0,6 0,9zm28 8c2,-4 2,1 2,-4l0 -12c-1,-4 -1,0 -2,-4 6,0 8,4 12,10l4 4c0,-2 0,-6 0,-8 0,-7 -1,-1 -2,-6l7 0c-1,5 -2,-5 -2,20 -4,0 -10,-10 -14,-15 -1,14 1,12 2,15l-7 0zm-46 0c0,0 1,0 1,0 0,-1 0,-1 0,-1 1,-2 1,-1 1,-3 2,-11 -1,-15 -2,-16l7 0c-1,5 -2,-4 -2,13 0,7 1,3 2,7l-7 0zm-14 -16c-1,-3 -2,-1 -2,-4 6,0 13,-1 15,4 2,7 -4,9 -10,9 -1,3 -1,3 1,5 3,7 -2,-3 1,2l-7 0c1,-4 2,0 2,-7 0,-3 0,-6 0,-9zm-4 54c14,0 30,0 44,0 11,0 36,1 44,-1 4,-5 2,-32 2,-41 0,-12 0,-24 0,-37 0,-5 1,-13 -3,-15 -3,-1 -64,0 -74,0 -7,0 -14,-1 -16,2 -2,3 -2,85 0,90l3 2z"/>
   <path class="fil11" d="M1438 1253c-5,2 -10,3 -14,5 -7,4 -6,6 -10,10 -2,7 -3,8 -2,18l0 1c1,10 4,15 7,23l9 18 7 13 6 9c2,3 4,7 5,9l6 11 3 2c4,-2 7,-11 9,-13l0 -9c-1,-2 -4,-16 -6,-20 -2,-7 -5,-13 -7,-20 -3,-3 -9,-17 -6,-22 1,-1 0,-1 3,-1l71 -2c1,-2 2,-6 3,-8 1,-3 2,-6 4,-7 -3,6 -5,11 -7,19 -1,6 -1,14 -2,21l-2 41 -4 1c-4,0 -10,-1 -13,0 3,2 14,2 17,0l-1 12c-4,0 -13,-1 -16,1 4,2 11,0 15,1 3,1 5,3 8,5 1,-8 18,-42 25,-80l1 -12c1,-1 1,-1 1,-1 -1,-2 -1,-2 0,-3l2 14c5,0 8,-1 13,-2 5,-3 8,-5 10,-9 2,-5 2,-12 0,-16l-118 0 -2 -11 -15 2z"/>
   <path class="fil15" d="M1749 1417l0 -4c3,1 1,0 3,3 3,0 4,0 6,-2 0,-6 -4,-3 -8,-7 -2,-4 2,-10 10,-7l0 5c-4,-2 0,-1 -3,-3 -2,-1 -3,0 -4,0 -3,7 6,4 7,10 1,6 -6,8 -11,5zm-2 -2c-4,4 -5,4 -11,2 0,-4 0,-3 1,-4 2,1 1,2 2,3 4,0 6,0 6,-4 -3,-3 -5,-2 -8,-5 -1,-4 0,-7 4,-7 3,-1 7,-1 6,3 0,3 0,1 -1,2 0,-1 0,0 0,-1 -1,0 -1,-1 -1,-1l-1 -1c-6,-1 -7,3 -2,5 5,2 6,2 5,8zm-12 0c-2,3 -6,4 -10,3 -8,-3 -9,-23 10,-17 0,2 0,2 -1,4 -3,-2 0,0 -2,-3 -7,-1 -11,2 -10,9 1,3 3,5 5,5 5,1 5,-3 8,-1zm-36 -44c-1,6 -1,76 0,78 2,2 2,2 5,2 3,0 5,0 8,0l30 0 18 0c6,0 18,2 21,-2 2,-5 1,-12 1,-17l0 -30c0,-6 0,-13 0,-19 0,-6 2,-14 -4,-15 -7,-2 -30,0 -38,0l-26 0c-3,0 -6,0 -9,0 -4,0 -5,-1 -6,3z"/>
   <path class="fil11" d="M1347 1631c1,4 18,11 23,12 9,2 25,4 35,3 2,2 1,3 2,7 1,2 2,4 3,6 0,-16 -1,-13 5,-31 -23,-9 -26,-19 -30,-39 4,-4 6,-6 10,-8 4,-3 7,-5 12,-6 2,7 2,10 5,17 3,5 6,10 10,12 3,-11 7,-25 12,-36l2 -5c0,3 -4,10 -3,12 0,2 6,8 8,8 3,-7 8,-16 13,-20 -2,-5 -5,-11 -7,-15 -4,-7 -6,-8 -10,-13 -4,-3 -9,-7 -15,-8l-2 10c-5,1 -9,-5 -10,-11 -19,2 -36,29 -41,43 -9,0 -56,-2 -60,0 3,2 12,1 15,1 12,0 34,0 44,1 -1,3 -4,9 -6,13 -5,13 -13,33 -15,47z"/>
   <path class="fil22" d="M1725 1724l8 -2c5,-1 20,1 25,4 0,1 3,32 4,36 -14,5 -52,0 -66,-5 -1,-14 18,-31 29,-33zm12 -6l-4 0c-3,0 -6,1 -9,1 -3,1 -5,3 -8,3 -2,2 -6,4 -8,6 -3,3 -5,4 -8,8 -4,5 -7,11 -8,20l-13 -2c1,3 2,4 4,5 1,1 1,0 2,1 4,2 2,0 3,3 2,-2 1,-1 7,1 9,2 22,4 24,4l1 1c0,0 0,0 1,0 2,0 24,0 29,0 0,6 -1,20 1,24l0 -24 8 -1 1 30 -9 -5 0 44c-7,2 -14,2 -20,3 -6,1 -12,2 -18,4 -10,3 -28,13 -29,13 1,1 2,1 3,2 6,-9 48,-20 64,-19 0,6 -2,2 -12,8 -5,3 -9,6 -12,9l4 0c0,-3 13,-10 20,-11l0 7 9 0 0 -7 6 1c1,11 3,9 13,9 1,2 1,0 1,3 0,0 0,-1 0,-1 0,0 1,0 1,0 1,-1 0,-1 2,-1l0 -1c-2,-1 -3,-2 -5,-3 -4,-3 -9,-6 -12,-8l2 -4c14,-1 43,8 50,15 1,0 2,0 3,1 2,2 0,0 1,2 1,0 1,0 1,0 0,0 0,0 1,-1 0,0 1,-1 1,-1l-1 -1c-4,-1 -8,-4 -12,-6 -13,-7 -29,-11 -44,-12l0 -1c0,2 0,0 -1,1l-7 -1 0 -69c8,-1 18,-6 25,-9 8,-5 9,-5 17,-11 1,-1 0,0 2,-1 7,-8 11,-7 12,-23 1,-12 1,-23 0,-34 -2,-10 -2,-19 -12,-22 -2,-1 -1,-4 -2,-7l0 7c-14,0 -27,8 -33,15 -10,11 -11,19 -11,38 -8,-2 -12,-3 -21,-3z"/>
   <path class="fil23" d="M2061 1839l95 0 -3 -37 -77 -1c-3,0 -8,1 -10,-1l1 0c3,-1 83,-1 86,-1l-1 -11c-5,0 -25,0 -29,-1l-1 0c4,-2 24,-1 30,-1 -1,-2 -3,-20 -2,-20l-89 0 0 73z"/>
   <path class="fil7" d="M957 1630c9,-4 13,8 7,12 -8,4 -15,-7 -7,-12zm59 -11c0,3 0,6 -1,8 -4,2 -46,1 -55,1l-53 0c-3,-1 -2,0 -2,-1 -1,-2 -1,-2 -1,-5 0,-2 0,-4 0,-6 0,-28 -1,-172 1,-174 1,-1 -1,0 1,-1l5 0c19,0 100,-1 105,0 1,4 0,160 0,178zm7 -139l-1 -40 0 -14 -124 0c-2,14 0,38 0,54 0,20 -1,158 0,164 7,2 24,1 32,1l89 0c1,0 1,0 2,-1l1 0c1,-1 1,-149 1,-164z"/>
   <path class="fil11" d="M1623 1749c-5,9 -15,41 -18,52 -4,18 -7,38 -12,56 -8,0 -8,1 -15,3 -1,1 -2,2 -3,5l29 0 1 -4c1,0 1,0 1,0 1,-2 3,-5 5,-7 1,-2 3,-3 4,-6 26,-40 23,-56 34,-79 6,-12 14,-15 30,-15l13 2c1,-9 4,-15 8,-20 3,-4 5,-5 8,-8 2,-2 6,-4 8,-6 -3,-1 -7,-1 -10,-3 -5,1 -19,-2 -25,-3 -9,-1 -16,-1 -25,-1 -12,2 -16,4 -22,12 -3,6 -8,15 -11,22z"/>
   <path class="fil7" d="M1412 1726l1 24 42 0c0,0 0,0 0,1 1,1 1,1 2,2l-1 -4 167 0c3,-7 8,-16 11,-22 6,-8 10,-10 22,-12l0 -13c-5,-4 -9,-8 -13,-13 -2,-2 -4,-5 -5,-7 -2,-2 -3,-6 -5,-8l0 52 -221 0z"/>
   <path class="fil24" d="M937 1803c-1,-8 -2,-10 0,-19 1,-4 5,-13 8,-14 2,6 -1,13 -3,18 -1,3 -3,13 -5,15zm-2 25l16 1c-2,3 -6,5 -7,10 0,-1 0,-1 1,-2 6,-6 16,-20 30,-21 8,0 10,3 14,6 -1,-2 0,-1 -1,-2 -6,-7 -15,-4 -21,-3 1,-9 3,-29 4,-40 0,-3 1,-12 2,-14l54 -1c-1,-7 -8,-17 -13,-21 -6,-4 -15,-7 -25,-7 -4,4 -5,2 -8,1 0,0 0,-1 -1,-1 -2,0 -6,0 -9,0 -27,2 -45,17 -54,35 -7,14 -11,41 2,53 4,4 9,6 16,6z"/>
   <path class="fil7" d="M1486 1216c15,-3 19,18 5,22 -7,1 -13,-3 -14,-9 -1,-7 3,-12 9,-13zm-25 -20l-6 1 -13 0 3 15 8 39 2 11 118 0 -1 -7 -29 0 -14 -58 -36 0c-1,0 -4,0 -5,0 -1,0 -1,0 -2,-1 -2,0 0,2 -1,-1 -2,2 -2,2 -5,2 -2,0 -4,0 -6,0 -4,0 -9,0 -13,-1z"/>
   <path class="fil23" d="M1422 1527c6,1 11,5 15,8l0 -27 26 0 0 61c3,2 12,3 17,3 6,-1 9,-5 13,-7 3,-2 9,-8 11,-11 10,-12 4,-7 8,-12 3,1 -3,-1 1,1 3,1 1,1 2,0l28 -62c3,-5 3,-5 1,-9 0,0 0,-1 0,-1 -4,-1 -6,-2 -12,-3 -4,-1 -9,-1 -13,-1 -6,0 -24,-1 -28,0l0 35 -55 0c1,17 -2,30 -22,21 3,3 5,2 8,4z"/>
   <path class="fil22" d="M1747 1280l-4 0 6 -15c1,-2 1,-1 3,-2 2,1 0,0 2,1l2 7c2,4 3,6 4,9l-4 0 -1 -5 -7 0 -1 5zm-29 0l-4 0c1,-3 3,-5 4,-9 2,-4 2,-7 5,-8 3,2 2,3 4,8 2,3 3,6 4,9l-4 0c0,0 0,-1 0,0 0,0 0,-1 0,-1 0,0 0,0 0,0l-1 -4 -7 0c0,0 0,2 0,2l-1 3zm-23 24l1 4c4,1 7,1 12,1l24 0 20 0c5,0 13,1 17,-1 1,-5 1,-67 0,-72 -5,-2 -67,-2 -73,0 -2,7 -1,56 -1,68z"/>
   <path class="fil25" d="M1463 1569c-4,-2 -6,-4 -9,-6 -5,4 -10,13 -13,20 3,4 12,10 19,12 13,3 15,0 26,-3 -7,6 -31,15 -43,14 0,-7 1,-18 -2,-20l0 20c-7,0 -13,1 -19,-2 -4,-2 -7,-7 -10,-12 -3,-7 -3,-10 -5,-17 -5,1 -8,3 -12,6 -4,2 -6,4 -10,8 4,20 7,30 30,39l15 1 11 -1c0,12 -1,91 1,95 2,-2 1,-37 1,-43 0,-15 0,-30 0,-44 0,-15 0,-3 28,-17 11,-5 35,0 41,-2 -2,-2 -29,-1 -34,-1l5 -4c2,-1 3,-2 5,-3 9,-8 14,2 16,-18 0,-2 0,-5 0,-7 0,-4 -2,-1 0,-6l126 -1c-1,-1 0,-1 -2,-1l-123 0 9 -19 5 0c2,-3 0,0 1,-3 1,-1 1,0 2,-1l0 -1c1,-2 0,-2 3,-2 -2,-6 -2,-6 -5,-7 -1,0 -2,1 -3,1l-2 -1c-1,1 1,1 -2,0 -4,-2 2,0 -1,-1 -4,5 2,0 -8,12 -2,3 -8,9 -11,11 -4,2 -7,6 -13,7 -5,0 -14,-1 -17,-3z"/>
   <path class="fil26" d="M2203 1860l55 0 1 -4 1 -23c1,-3 0,-8 2,-11 -1,-6 3,-45 4,-54l1 -13 3 -35 -16 0c-3,11 -9,25 -13,36 -4,11 -9,23 -13,34 -3,9 -25,65 -25,70z"/>
   <path class="fil13" d="M1406 1838c6,1 46,1 58,1 3,0 6,1 7,-2 1,-6 -5,-34 -7,-42 -2,-14 -4,-29 -7,-42 -1,-1 -1,-1 -2,-2 0,-1 0,-1 0,-1l-42 0c-1,30 -3,59 -7,88z"/>
   <path class="fil13" d="M1011 1784c14,-5 18,15 6,19 -13,3 -17,-16 -6,-19zm-22 38c1,1 1,1 2,2l57 0 1 -8 4 -16 6 -38 -32 0 -54 1c-1,2 -2,11 -2,14 -1,11 -3,31 -4,40 6,-1 15,-4 21,3 1,1 0,0 1,2z"/>
   <path class="fil27" d="M935 1828c-4,20 -4,33 10,42 4,3 14,7 21,7 10,1 15,-2 23,-4l12 8c4,3 8,5 13,7 3,1 11,3 16,4 3,1 13,2 15,3l0 -10c-5,-6 -9,-11 -14,-17 -4,-5 -9,-12 -14,-16 -2,0 -2,0 -5,-3l-18 -21c-1,0 -1,-1 -2,-1 -1,-2 0,0 -1,-3 -1,-1 -1,-1 -2,-2 -4,-3 -6,-6 -14,-6 -14,1 -24,15 -30,21 -1,1 -1,1 -1,2 1,-5 5,-7 7,-10l-16 -1z"/>
   <path class="fil28" d="M686 1670c2,-1 6,-1 9,0 -2,2 -2,1 -4,3l0 10 7 1c0,-3 -1,-4 1,-5 1,2 1,3 1,6l-15 0c1,-2 -1,-1 4,-1l0 -12c-5,-1 -2,-1 -3,-2zm-17 0l4 0 3 8c4,-8 1,-8 8,-8 -1,3 -2,7 -1,12 0,2 1,2 2,3l-6 0c1,-3 3,1 1,-12 -2,6 -1,7 -4,8 -2,-2 -2,-5 -3,-8 -1,17 0,7 2,12l-6 1c1,-5 -2,3 0,-2 2,-3 2,-8 1,-11 0,-4 0,1 -1,-3zm-15 7c-1,-3 -1,-5 0,-7 2,-1 2,0 6,0 3,0 5,-1 7,0 0,1 0,2 0,3 0,0 0,2 0,2 0,2 0,1 0,2 -3,-2 -1,0 -2,-3 -1,-2 1,-2 -4,-2l0 12c3,0 2,-1 4,0 -2,2 -8,2 -9,0 4,-3 3,3 3,-12l-3 0c0,0 0,0 0,0 0,4 -1,4 -2,5zm-17 -7l6 0c-1,4 -2,-2 -2,6l6 0c0,-8 -1,-2 -2,-6l6 0c0,0 -3,4 -2,11 1,5 0,1 2,4l-6 1c1,-3 1,-2 2,-3 0,-2 0,-3 0,-5l-6 0c0,1 0,3 0,4 1,3 1,0 2,3l-6 0c1,-3 1,1 2,-3 1,-5 -1,-10 -2,-12zm-4 -7l0 7c0,9 0,19 0,28 0,10 1,16 10,18l51 0c13,-3 10,-15 10,-29 0,-12 2,-28 -2,-38 -3,-1 -3,-4 -9,-4 -13,-1 -26,-1 -39,-1 -17,0 -21,2 -21,19z"/>
   <path class="fil17" d="M905 1712c1,-4 14,-15 17,-17 -5,-8 -16,-13 -17,-18 5,0 15,13 19,15 2,-2 6,-5 9,-8 5,-5 5,-7 9,-7 0,3 -13,14 -16,17 1,3 10,10 13,13 1,1 4,3 2,5 -2,0 -14,-14 -17,-16 -3,3 -6,6 -9,8 -7,7 -6,8 -10,8zm-15 8c1,5 4,8 7,10 5,2 48,2 53,1 4,-1 8,-4 10,-8 1,-4 1,-47 0,-51 -1,-12 -12,-11 -24,-11 -9,0 -26,-1 -35,0 -12,1 -11,12 -11,24 0,11 -1,25 0,35z"/>
   <path class="fil23" d="M1978 1839l66 0c-2,-14 -6,-27 -8,-41 -3,-14 -5,-28 -8,-42 -2,-13 -5,-27 -8,-41 -1,-6 -7,-37 -9,-40 0,5 2,7 1,12 -5,26 -13,56 -19,83 -5,27 -10,44 -18,69 -2,7 -6,17 -7,23 4,-4 22,-73 25,-85 2,-10 18,-86 20,-90 3,10 0,18 -3,31 -2,10 -4,20 -6,30l18 0c3,0 3,-1 4,1 -3,2 -18,1 -22,1l-3 13c4,0 24,0 26,1 2,0 1,0 2,1l-1 1c-3,1 -24,0 -28,0 -2,6 -3,12 -4,19 -4,12 -16,47 -18,54z"/>
   <path class="fil7" d="M1836 1530c-6,9 -5,18 -8,23 1,4 -10,49 -12,58 -2,9 -4,18 -6,28 -2,9 -4,20 -6,29 10,3 10,12 12,22 2,-3 23,-109 26,-122 6,-28 0,-24 51,-24 25,0 51,0 75,1 3,-5 6,-13 9,-17 -23,-1 -49,0 -72,0l-54 0c-8,0 -9,0 -15,2z"/>
   <path class="fil29" d="M1455 1372l-3 -2 -150 -1 0 27 180 0 0 -13 -5 0 0 -6 -9 0 0 -8 -3 0 1 -10 -2 0c1,8 0,13 -3,19 -2,3 -6,11 -10,9 -3,-4 2,-11 4,-15z"/>
   <path class="fil21" d="M711 1464c6,-2 10,5 4,7 -5,3 -11,-4 -4,-7zm-5 -17c-7,-10 13,-11 18,-4 5,10 -7,11 -9,16 0,1 0,1 -2,2l-2 0c-1,-5 0,-6 4,-8 10,-5 4,-12 -3,-11 -6,1 -1,4 -6,5zm43 39c1,-4 0,-28 0,-34 0,-32 1,-27 -42,-27 -31,0 -27,-2 -27,42 0,11 -2,24 8,26 4,2 27,1 34,1 12,0 24,2 27,-8z"/>
   <path class="fil7" d="M1785 1759l-17 78 0 1c15,1 31,5 44,12 4,2 8,5 12,6l137 0 2 -17c-48,-1 -95,0 -143,0 -40,0 -37,5 -29,-33 5,-19 9,-40 13,-59 -2,1 -1,0 -2,1 -8,6 -9,6 -17,11z"/>
   <path class="fil30" d="M1404 1857l-2 13c8,1 19,2 19,10l1 -1c2,-1 25,-1 28,-1 10,0 20,0 30,-1 38,0 124,-2 161,-7 2,0 4,0 6,-1l4 -1 -2 -3c-2,0 -5,0 -7,0 -3,0 -5,1 -5,-2l-31 -2c0,0 0,0 -1,0l-1 4 -29 0c1,-3 2,-4 3,-5 -15,0 -31,-1 -46,-2 -8,0 -16,0 -24,-1 -4,0 -19,1 -21,-1 -8,3 -70,1 -83,1z"/>
   <path class="fil31" d="M668 1590c-14,1 -31,0 -45,0 -6,0 -6,1 -6,-5l0 -33c4,-2 43,-1 51,-1 1,7 1,35 0,39zm-64 9c2,12 16,10 28,10 48,0 49,6 49,-28 0,-48 6,-49 -28,-49 -48,0 -49,-6 -49,29 0,9 -1,29 0,38z"/>
   <path class="fil30" d="M1213 1871l14 7c0,-1 -1,0 1,0l179 1c-3,-4 -12,-3 -12,-8l-3 -14c-25,0 -52,0 -77,0 -13,0 -25,0 -38,0 -9,0 -30,2 -36,-1 -3,2 -9,1 -12,1 -6,0 -10,1 -12,-1 -1,2 -1,7 -4,15z"/>
   <path class="fil23" d="M1171 1477c10,7 6,13 10,17 6,5 4,4 21,4 5,0 13,-1 16,1 -2,1 -3,1 -6,1 -2,0 -4,0 -6,0 -13,0 -23,-3 -26,9l-5 0c1,1 3,1 4,2 -2,5 -4,4 -8,6l2 7c14,1 36,4 49,2 10,-2 19,-5 27,-12 3,-2 3,-4 6,-7 1,-4 3,-10 5,-15 1,-5 2,-11 2,-16l-91 0 0 1z"/>
   <path class="fil5" d="M991 1320c1,3 2,23 1,24 -1,3 -13,10 -17,11 -3,7 -4,10 -10,14 -6,3 -14,3 -20,-1 -5,-2 -9,-8 -10,-15 -2,-10 5,-15 6,-18l-2 -6c-1,-4 -1,-11 0,-15 -10,3 -14,8 -28,9 -1,10 -1,21 0,31 1,11 2,16 10,22 11,7 29,18 35,27 5,-3 7,-9 27,-21 3,-2 7,-4 10,-6 10,-9 6,-41 4,-55l-6 -1z"/>
   <path class="fil27" d="M749 1613c2,-1 1,0 2,-1 4,-6 0,-6 17,-19 5,-4 3,-3 8,-10 6,-10 22,-40 25,-50 0,-3 1,-6 0,-9 -1,-8 -1,-7 -3,-7 -9,0 -24,4 -31,8 -22,11 -25,51 -21,73 1,5 3,11 3,15z"/>
   <path class="fil32" d="M1688 1763c-2,6 -7,16 -9,23l-26 71c-10,0 -11,1 -16,6 0,3 2,2 5,2 2,0 5,0 7,0 23,0 12,0 18,-6 1,-2 3,-3 5,-5 3,-3 6,-7 9,-10 17,-20 33,-48 40,-75 -1,0 -1,0 -1,0l-1 -1c-2,0 -15,-2 -24,-4 -6,-2 -5,-3 -7,-1z"/>
   <path class="fil17" d="M1988 1516l-10 27c0,2 -1,1 0,2 4,2 35,1 41,0 2,-12 6,-26 6,-29l3 -11c-2,-2 -5,-4 -2,-8 4,-5 2,1 6,-2 7,-3 9,-15 9,-23 -4,-7 -9,-11 -20,-10 -10,1 -12,7 -15,14 -6,11 -17,38 -18,40z"/>
   <path class="fil7" d="M1241 1856c6,3 27,1 36,1 13,0 25,0 38,0 25,0 52,0 77,0l-4 -18 -133 0c-4,0 -12,-2 -14,2 -2,2 -1,12 0,15z"/>
   <path class="fil33" d="M798 1517c2,0 2,-1 3,7 1,3 0,6 0,9 -3,10 -19,40 -25,50 -5,7 -3,6 -8,10 -17,13 -13,13 -17,19 -1,1 0,0 -2,1 4,4 4,5 8,8 3,2 8,3 11,4 0,-2 -1,-1 3,-1 39,-7 32,-78 40,-93 5,-9 2,-6 2,-15l1 -1c0,0 2,-3 0,-6l-2 -1c0,0 -1,0 -1,0l-1 0c-4,-1 2,2 -2,-1 -1,-1 -1,-3 -1,-1 -6,0 -2,0 -3,-2 -1,4 -2,3 -3,6 -1,2 -1,3 -1,4 -1,3 1,1 -2,3z"/>
   <path class="fil34" d="M856 1873l-10 1c0,0 0,1 -1,-1 -15,0 -32,-1 -47,-1 -8,0 -16,0 -24,1 -4,0 -19,1 -22,0l-1 2c-1,0 -4,0 -5,-1 -4,0 -4,1 -4,-2l-1 2c-4,-1 -6,0 -10,1 -7,1 -22,1 -26,5 3,4 16,4 22,5 39,3 151,5 177,-4 -1,-2 0,-2 -2,-3 0,0 -2,-1 -2,-1 -2,0 -4,0 -6,-1l-38 -3z"/>
   <path class="fil35" d="M1725 1724c-11,2 -30,19 -29,33 14,5 52,10 66,5 -1,-4 -4,-35 -4,-36 -5,-3 -20,-5 -25,-4l5 1 0 9 -4 -1 -1 -4 -8 -3z"/>
   <path class="fil36" d="M796 1425c3,-5 -3,-16 0,-21 2,2 1,14 3,20 5,1 4,1 5,-7 0,-2 1,-4 1,-6l1 -3c0,0 0,0 0,-1 0,0 0,0 1,0 0,1 0,0 0,2 0,2 -2,11 -2,16 4,0 4,-2 6,-6 4,-8 10,-20 12,-28 9,-41 -54,-38 -45,-1 1,5 13,34 18,35z"/>
   <path class="fil37" d="M2266 1768c-1,9 -5,48 -4,54 25,-2 41,-4 42,-31 1,-12 -4,-23 -11,-27 -12,-7 -21,1 -27,4z"/>
   <path class="fil38" d="M1403 1508l4 1c0,-13 3,-17 18,-21 7,-2 5,-2 10,-4 2,-5 8,-5 4,-13 -3,-2 -8,-1 -11,0l-24 12c-5,2 -93,-2 -103,1l1 5 97 0 -1 11 -107 0 0 -141c0,-5 1,-43 -2,-45 -2,4 0,83 0,94 0,14 -1,86 0,93 5,1 99,1 111,1 3,4 4,2 3,6z"/>
   <path class="fil39" d="M1099 1641c-7,-15 -8,-35 -1,-51l1 -3c-2,-6 1,-43 -1,-54l-10 1 0 186 11 0c0,-4 -1,-76 0,-79z"/>
   <polygon class="fil39" points="1435,1341 1428,1328 1302,1327 1301,1341 "/>
   <path class="fil33" d="M868 1618c2,0 3,0 3,-2 1,-6 4,-5 4,-9 -2,-4 -15,-14 -20,-16 -6,11 -28,15 -42,16 -16,1 -9,-1 -16,-2 -2,1 -4,5 -5,6 -2,3 -3,4 -5,6 3,1 7,2 10,3 3,1 6,2 10,3 12,4 32,5 44,3 4,-1 7,-2 9,-4 4,-1 4,-3 8,-4z"/>
   <path class="fil39" d="M1428 1471c3,-1 8,-2 11,0l27 0 0 -4c-2,-2 -3,-3 -2,-7l-162 0 0 10c5,1 102,1 119,1 1,0 2,0 3,0l4 0z"/>
   <path class="fil7" d="M1451 1310l66 0c1,-7 1,-15 2,-21 2,-8 4,-13 7,-19 -2,1 -3,4 -4,7 -1,2 -2,6 -3,8l-71 2c-3,0 -2,0 -3,1 -3,5 3,19 6,22z"/>
   <path class="fil33" d="M1099 1641c2,3 4,6 5,9 2,2 5,6 5,8 1,1 1,1 1,1l1 2c4,4 9,12 10,17 1,6 2,5 7,3 0,3 -1,9 3,8 3,-8 3,-19 -1,-26 -3,-4 -5,-9 -7,-13 -2,-5 -3,-11 -5,-15 -4,-11 -3,-24 0,-34l-20 -11c-7,16 -6,36 1,51z"/>
   <path class="fil39" d="M1405 1646c0,6 2,9 5,14 2,4 1,13 1,18 0,13 1,27 1,40l18 0 0 -89 -15 -1c-6,18 -5,15 -5,31 -1,-2 -2,-4 -3,-6 -1,-4 0,-5 -2,-7z"/>
   <polygon class="fil7" points="2061,1856 2158,1856 2156,1839 2061,1839 "/>
   <path class="fil27" d="M1053 1800l-4 16 1 0c4,-2 8,-3 12,-2 3,9 0,12 -2,20 -2,7 -3,15 -4,22 -1,7 -7,39 -5,44l5 2 3 -7c4,-23 28,-71 20,-91 -5,-12 -16,-8 -26,-4z"/>
   <path class="fil18" d="M2277 1750l-10 5 -1 13c6,-3 15,-11 27,-4 7,4 12,15 11,27 -1,27 -17,29 -42,31 -2,3 -1,8 -2,11 15,-1 26,-1 38,-7 24,-14 22,-43 10,-63 -7,-10 -14,-16 -31,-13z"/>
   <path class="fil30" d="M1092 1861c5,4 13,8 14,13l96 3c0,-1 -6,-5 -4,-10 0,-2 0,-1 1,-2 -1,-1 -1,-3 -1,-4 0,-1 0,-2 0,-3 -1,-2 0,-1 -1,-2l-1 2c-17,0 -34,0 -52,1l-52 2z"/>
   <path class="fil7" d="M1406 1838l-2 19c13,0 75,2 83,-1 1,-4 1,-12 0,-16 -9,-3 -12,1 -16,-3 -1,3 -4,2 -7,2 -12,0 -52,0 -58,-1z"/>
   <path class="fil40" d="M1162 1514c1,-1 1,0 1,-2 -3,-2 -5,-2 -6,-6 -1,-5 3,-4 7,-4 4,-8 4,-15 6,-22l1 -3 0 -1 1 -2 2 -10 56 0c1,0 4,0 5,0 4,-1 2,0 3,-2 -3,-1 -31,0 -37,0l-36 -1c-10,2 -69,-1 -74,1 2,3 12,2 16,2l52 0c-1,0 -1,0 -1,0l-5 5c-2,1 -3,3 -6,5 -5,1 -54,-2 -56,1 4,2 46,0 55,1 -4,9 -5,9 -2,22 -8,0 -50,-2 -53,1 2,2 47,1 54,1 4,10 4,12 17,14z"/>
   <path class="fil25" d="M1172 1474l-1 2 91 0c0,5 -1,11 -2,16 -2,5 -4,11 -5,15 0,0 0,0 0,1l10 17c11,-19 11,-41 7,-63 -1,-9 1,-3 3,-9 1,-5 -1,-8 -2,-11l-5 -1c0,-2 0,-5 -1,-7 -3,2 -3,11 -3,15 -7,2 -114,1 -130,1 -6,0 -41,-1 -43,1 2,2 77,1 86,1 29,0 58,0 87,0l-1 22 -91 0z"/>
   <path class="fil7" d="M1219 1749l50 0c2,1 2,0 2,2 2,-1 1,3 1,-1l43 -1 -44 -18c-2,3 -2,3 -4,5 -1,2 -2,3 -4,4 -3,3 -5,6 -9,8 -1,-5 2,-10 5,-13 3,-4 8,-7 9,-9l-49 0 0 23z"/>
   <path class="fil41" d="M1049 1816l-1 8 -57 0c1,3 0,1 1,3 1,0 1,1 2,1l18 21c3,3 3,3 5,3l-1 -3c3,-1 7,-4 10,-6 4,-4 27,-21 30,-20 1,3 -6,16 -7,20 -2,8 -2,18 -3,27 1,2 0,24 0,28l5 2c-2,-5 4,-37 5,-44 1,-7 2,-15 4,-22 2,-8 5,-11 2,-20 -4,-1 -8,0 -12,2l-1 0z"/>
   <path class="fil42" d="M1435 1484c-5,2 -3,2 -10,4 -15,4 -18,8 -18,21l-4 -1c-2,1 -1,4 0,5 2,2 2,1 5,2 4,2 2,7 2,11 1,6 5,12 10,11l2 -10c-3,-2 -5,-1 -8,-4 20,9 23,-4 22,-21l55 0 0 -35 -2 0 0 33 -53 0 -4 -11 45 0 0 -5c-9,0 -35,-1 -42,0z"/>
   <path class="fil23" d="M1439 1471c4,8 -2,8 -4,13 7,-1 33,0 42,0l0 5 -45 0 4 11 53 0 0 -33c-7,-2 -16,1 -23,0l0 4 -27 0z"/>
   <path class="fil36" d="M939 1314c-1,4 -1,11 0,15l2 0 2 5c12,-4 11,-6 24,-1 1,-2 2,-5 4,-6 1,3 -1,4 -3,8 3,4 9,7 7,20 4,-1 16,-8 17,-11 1,-1 0,-21 -1,-24 -16,-2 -26,-7 -37,-17 -3,2 -5,4 -7,5 -2,1 -7,4 -8,6z"/>
   <polygon class="fil7" points="1972,1856 2048,1856 2044,1839 1978,1839 "/>
   <path class="fil31" d="M1446 1359c-1,-2 -3,-6 -5,-9l-139 1 0 8 144 0z"/>
   <path class="fil42" d="M1733 1551c0,6 -2,22 -6,25l0 1c9,4 3,0 7,7 2,2 5,4 7,6l1 1c0,0 0,0 1,0 4,3 3,0 4,6l11 -3c-3,0 -1,0 -2,0 1,-5 3,-8 5,-11 5,-5 4,-2 6,-11 -4,-2 -4,-2 -8,0 1,-10 3,-18 -4,-22 -10,-5 -11,5 -22,1z"/>
   <path class="fil29" d="M1437 1535c4,5 6,6 10,13 2,4 5,10 7,15 3,2 5,4 9,6l0 -61 -26 0 0 27z"/>
   <path class="fil36" d="M1768 1837l17 -78c-7,3 -17,8 -25,9l0 69 7 1c1,-1 1,1 1,-1z"/>
   <path class="fil42" d="M794 1485c-1,2 -3,3 -2,6 3,7 5,1 9,9 1,2 3,2 3,4 1,2 -3,2 3,2 0,-2 0,0 1,1 4,3 -2,0 2,1l1 0c0,0 1,0 1,0l2 1c2,3 0,6 0,6l-1 1 2 3c1,1 0,1 3,1 3,0 2,-1 4,-4l6 0 -6 -1c0,-3 -1,-8 0,-11 2,-3 4,-2 5,-8 1,-1 1,-4 2,-5 1,-3 6,-1 4,-13l-4 0 -1 2c-1,-3 -3,-6 -5,-8 -4,-3 -4,-1 -7,2 -9,8 -19,-6 -20,7 0,2 0,4 0,6l-2 -2z"/>
   <path class="fil31" d="M619 1587l47 0 0 -31c-3,0 -22,17 -27,18 -1,0 -20,-18 -20,-18l0 31z"/>
   <path class="fil43" d="M1549 1475c-1,-2 -3,-10 0,-12 1,0 13,0 15,0 -1,3 -7,12 -15,12zm-1 -13c1,-4 2,-9 4,-12l3 -8c1,-1 0,-1 2,-2l17 0c-2,10 -6,15 -9,22l-17 0zm9 -24c1,-3 4,-7 6,-9 2,-2 5,-6 10,-5 2,2 2,3 2,7 0,2 1,7 -2,8l-16 -1zm1 -10l0 1c-1,3 -4,6 -5,9 -1,3 0,3 -1,5 -2,2 1,2 -4,2l1 1c-1,4 -3,8 -4,13l-5 -1 0 -3 0 0 -1 2 -3 1 -1 0 3 0 0 4 0 3 1 -2 5 0 0 8c0,0 0,1 0,1 2,4 2,4 -1,9l-28 62 2 1c1,0 2,-1 3,-1l30 -63c1,-1 -1,0 1,-1 1,0 2,-1 2,-1 7,-2 11,-9 15,-15 5,0 19,1 21,-1 -4,-1 -15,0 -20,0 1,-4 4,-7 5,-11 1,-3 2,-7 4,-11 9,-1 44,2 49,0 -2,-2 -3,-1 -6,-1l-43 0c0,-12 3,-20 -11,-20l-1 1 3 0c-3,2 -3,2 -6,4 -1,2 -2,4 -5,4z"/>
   <path class="fil42" d="M969 1703c-6,5 -4,10 4,11 2,6 4,11 9,12l0 8c-4,0 -8,-1 -11,0 3,0 7,0 9,0 1,0 1,1 1,1 3,1 4,3 8,-1l0 -5c3,-1 4,-1 5,-3 0,0 0,0 1,-1 7,-11 8,-9 7,-28 -7,1 -14,-2 -20,-3 -11,-3 -10,3 -11,11l-2 -2z"/>
   <path class="fil36" d="M1680 1710c-11,-1 -16,-4 -24,-8l0 13c9,0 16,0 25,1 6,1 20,4 25,3 2,-12 18,-6 27,-4l0 -36c-4,4 -3,6 -9,13 -9,10 -35,22 -44,18z"/>
   <path class="fil6" d="M1118 1601c-3,10 -4,23 0,34 2,4 3,10 5,15 2,4 4,9 7,13 2,-3 1,-38 1,-46 0,-8 0,-15 0,-23 0,-7 -1,-16 3,-20 1,-3 2,-2 2,-4 -7,2 -13,22 -18,31z"/>
   <path class="fil42" d="M1505 1111c4,2 1,5 5,16 1,4 6,11 9,12 -4,0 -4,0 -7,1 2,0 5,0 7,0 2,0 5,2 9,-1 2,-1 0,0 1,-1l3 -2c-3,6 -5,2 -3,9 4,0 4,-2 6,-5l1 -14c1,-3 4,-3 6,-6 1,-5 0,-8 -5,-8 -3,2 -1,-1 -6,-3 -8,-5 -16,3 -26,2z"/>
   <path class="fil21" d="M1213 1559c-2,2 -2,5 -2,11l85 0 0 -11c-25,0 -57,0 -83,0z"/>
   <path class="fil10" d="M1733 1551c11,4 12,-6 22,-1 7,4 5,12 4,22 4,-2 4,-2 8,0l2 -4c2,-5 3,-10 2,-16 -1,-6 -5,-8 -8,-11 -7,-4 -13,-8 -23,-9 -7,-1 -15,0 -15,6 0,6 5,11 8,13z"/>
   <path class="fil44" d="M1521 1371l2 1c2,-3 1,-5 4,-6 5,0 31,0 33,-1 -1,-3 -24,0 -33,-1l2 -5c6,0 28,2 31,0 -2,-2 -24,-1 -30,-1l2 -5 29 0c-1,-1 0,-1 -6,-1l-22 0 2 -5c4,0 9,0 13,0l10 0c3,-1 1,0 3,-1 -4,-2 -19,0 -25,-1l2 -4c4,0 20,1 22,-1 -2,-2 -17,-1 -21,-1l1 -4c4,0 7,0 11,0 6,0 8,1 10,-2l-20 0 2 -4c4,-1 15,1 17,-1 -2,-2 -13,-1 -17,-1l2 -5 16 0c-2,-3 -7,-1 -16,-2 1,-4 1,-4 6,-4 3,0 8,1 9,-1 -3,-2 -9,0 -13,-1l1 -4c2,-14 2,-18 0,-32 0,0 0,0 -1,1l-1 12c-7,38 -24,72 -25,80z"/>
   <polygon class="fil28" points="1213,1623 1284,1623 1284,1612 1213,1612 "/>
   <path class="fil45" d="M1422 1604c6,3 12,2 19,2l0 -20c3,2 2,13 2,20 12,1 36,-8 43,-14 -11,3 -13,6 -26,3 -7,-2 -16,-8 -19,-12 -2,0 -8,-6 -8,-8 -1,-2 3,-9 3,-12l-2 5c-5,11 -9,25 -12,36z"/>
   <path class="fil42" d="M1162 1514c0,4 1,7 2,10l9 0 -2 -7c4,-2 6,-1 8,-6 -1,-1 -3,-1 -4,-2l5 0c3,-12 13,-9 26,-9 2,0 4,0 6,0 3,0 4,0 6,-1 -3,-2 -11,-1 -16,-1 -17,0 -15,1 -21,-4 -4,-4 0,-10 -10,-17l-1 3c-2,7 -2,14 -6,22 -4,0 -8,-1 -7,4 1,4 3,4 6,6 0,2 0,1 -1,2z"/>
   <polygon class="fil21" points="1211,1586 1289,1586 1289,1577 1211,1577 "/>
   <path class="fil46" d="M939 1314c1,-2 6,-5 8,-6 2,-1 4,-3 7,-5 11,10 21,15 37,17l6 1c2,14 6,46 -4,55 -3,2 -7,4 -10,6 -20,12 -22,18 -27,21 -6,-9 -24,-20 -35,-27 -8,-6 -9,-11 -10,-22 -1,-10 -1,-21 0,-31 14,-1 18,-6 28,-9zm1 -4c-2,2 -10,6 -13,7 -6,3 -14,3 -17,5 -3,5 -2,20 -2,26l0 3c1,6 2,11 3,17 3,6 4,6 8,10 7,3 28,18 33,24 3,2 2,2 3,5 2,0 7,-7 9,-9 2,-2 8,-6 11,-8 20,-14 28,-10 27,-45 0,-6 -1,-11 -1,-17 -2,-10 0,-9 -9,-10 -15,-2 -31,-8 -37,-18 -4,1 -10,8 -15,10z"/>
   <polygon class="fil21" points="1213,1634 1214,1638 1292,1638 1292,1629 1214,1629 "/>
   <path class="fil47" d="M942 1338c-12,12 -3,32 14,31 16,-1 23,-22 11,-32 -2,2 -7,13 -10,17 -3,5 -2,4 -4,5 -4,-5 -6,-17 -11,-21z"/>
   <polygon class="fil39" points="1533,1713 1615,1714 1615,1705 1533,1705 "/>
   <polygon class="fil39" points="1533,1612 1615,1612 1616,1609 1615,1604 1533,1604 "/>
   <polygon class="fil39" points="1533,1655 1615,1655 1616,1653 1615,1647 1533,1647 "/>
   <polygon class="fil39" points="1533,1597 1615,1597 1615,1590 1615,1589 1533,1589 "/>
   <polygon class="fil39" points="1533,1670 1615,1670 1615,1662 1533,1662 "/>
   <polygon class="fil39" points="1533,1626 1615,1626 1615,1618 1533,1618 "/>
   <polygon class="fil39" points="1533,1641 1615,1641 1615,1640 1615,1633 1533,1633 "/>
   <polygon class="fil39" points="1533,1699 1615,1699 1616,1691 1533,1691 "/>
   <polygon class="fil39" points="1533,1684 1615,1684 1615,1676 1533,1676 "/>
   <path class="fil48" d="M1505 1111c10,1 18,-7 26,-2 5,2 3,5 6,3 2,-8 1,-20 -7,-22 -5,-1 -5,1 -8,2 -3,-1 -6,-4 -10,-1 -4,3 -3,6 -10,5 -11,0 -4,14 3,15z"/>
   <path class="fil49" d="M1954 1660c-5,0 -9,0 -12,-4 -11,1 -78,-1 -82,1 2,3 15,1 19,1l63 0 0 6c-12,2 -62,-1 -68,1 2,2 -1,1 3,1 1,0 3,0 4,0l60 0 0 6c-7,2 -72,-1 -76,1 1,1 -1,1 1,1l75 0c2,2 0,1 2,3 2,-2 2,-3 2,-6 0,0 1,3 1,4 1,5 1,3 2,4 2,-2 1,-2 2,-5 1,3 1,6 4,7l0 -12c0,0 0,0 0,1 0,0 2,2 5,3 1,-5 -3,-10 -5,-13z"/>
   <polygon class="fil28" points="1217,1686 1277,1686 1277,1675 1217,1675 "/>
   <path class="fil42" d="M2025 1516l8 3 -1 -7c11,2 19,-5 19,-12 0,-5 -1,-4 4,-10 -2,-2 -6,-4 -8,-7 -2,-2 0,-2 -3,-6l-3 -4c0,0 0,0 0,-1 0,8 -2,20 -9,23 -4,3 -2,-3 -6,2 -3,4 0,6 2,8l-3 11z"/>
   <path class="fil48" d="M969 1703l2 2c1,-8 0,-14 11,-11 6,1 13,4 20,3 5,-2 10,-9 6,-15 -3,-6 -11,-3 -19,-3 -8,0 -13,0 -18,6 -5,6 -2,10 -2,18z"/>
   <path class="fil50" d="M1680 1710c9,4 35,-8 44,-18 6,-7 5,-9 9,-13l0 36 0 3 4 0c0,-12 0,-66 -2,-72 -2,15 -8,32 -17,43 -5,6 -22,19 -32,20 -3,0 -4,-1 -6,1z"/>
   <path class="fil48" d="M794 1485l2 2c0,-2 0,-4 0,-6 1,-13 11,1 20,-7 3,-3 3,-5 7,-2 2,2 4,5 5,8l1 -2c3,-34 -46,-29 -35,7z"/>
   <path class="fil5" d="M1143 1263c4,18 31,13 28,-5 -4,-17 -32,-14 -28,5z"/>
   <path class="fil29" d="M1121 1678c-1,-5 -6,-13 -10,-17l-1 -2c0,0 0,0 -1,-1l0 62 11 0c0,-7 -1,-39 1,-42z"/>
   <path class="fil2" d="M619 1556c0,0 19,18 20,18 5,-1 24,-18 27,-18l0 31 -47 0 0 -31zm2 -2l42 0c-2,2 -22,17 -24,17l-9 -8c-3,-3 -7,-6 -9,-9zm47 36c1,-4 1,-32 0,-39 -8,0 -47,-1 -51,1l0 33c0,6 0,5 6,5 14,0 31,1 45,0z"/>
   <path class="fil51" d="M1310 1205c-16,6 -8,31 9,25 16,-6 8,-31 -9,-25z"/>
   <path class="fil52" d="M2261 1684c-17,6 -9,30 8,25 16,-5 8,-30 -8,-25z"/>
   <path class="fil7" d="M1154 1749l30 0 -4 -23 -10 0 7 -17c0,0 1,-3 1,-3 0,-3 1,-1 -1,-3 -4,18 -20,39 -23,46z"/>
   <polygon class="fil21" points="1278,1712 1279,1703 1218,1703 1219,1712 "/>
   <polygon class="fil28" points="1215,1653 1277,1653 1277,1646 1214,1646 "/>
   <path class="fil7" d="M1783 1856l35 0c-7,-7 -36,-16 -50,-15l-2 4c3,2 8,5 12,8 2,1 3,2 5,3z"/>
   <path class="fil10" d="M796 1425c-5,-1 -17,-30 -18,-35 -9,-37 54,-40 45,1 -2,8 -8,20 -12,28 -2,4 -2,6 -6,6 0,-5 2,-14 2,-16 0,-2 0,-1 0,-2 -1,0 -1,0 -1,0 0,1 0,1 0,1l-1 3c0,2 -1,4 -1,6 -1,8 0,8 -5,7 -2,-6 -1,-18 -3,-20 -3,5 3,16 0,21zm8 5c9,0 3,-1 6,-7 5,-9 11,-20 14,-30 11,-45 -56,-43 -47,-3 1,8 5,14 8,20 1,4 3,6 5,10 5,9 1,1 4,9l5 1c0,6 5,6 5,0z"/>
   <path class="fil21" d="M1859 1369c4,14 27,9 23,-7 -4,-13 -27,-9 -23,7z"/>
   <path class="fil21" d="M1901 1378c1,14 24,13 23,-2 0,-7 -6,-12 -13,-11 -6,1 -11,6 -10,13z"/>
   <path class="fil23" d="M1548 1462l17 0c3,-7 7,-12 9,-22l-17 0c-2,1 -1,1 -2,2l-3 8c-2,3 -3,8 -4,12z"/>
   <path class="fil46" d="M942 1338c5,4 7,16 11,21 2,-1 1,0 4,-5 3,-4 8,-15 10,-17 12,10 5,31 -11,32 -17,1 -26,-19 -14,-31zm12 17l-3 -4c-2,-4 -6,-12 -7,-15 6,-3 14,-6 21,0l-11 19zm-15 -26l2 6c-1,3 -8,8 -6,18 1,7 5,13 10,15 6,4 14,4 20,1 6,-4 7,-7 10,-14 2,-13 -4,-16 -7,-20 2,-4 4,-5 3,-8 -2,1 -3,4 -4,6 -13,-5 -12,-3 -24,1l-2 -5 -2 0z"/>
   <path class="fil31" d="M621 1554c2,3 6,6 9,9l9 8c2,0 22,-15 24,-17l-42 0z"/>
   <path class="fil10" d="M1310 1205c17,-6 25,19 9,25 -17,6 -25,-19 -9,-25zm-9 4c-3,9 -3,12 3,20 2,1 6,2 9,4l0 20 0 5c-7,0 -8,-1 -9,2 3,1 6,0 9,1l0 5 -6 0c-1,1 -1,0 -2,1 2,2 5,1 8,1l0 14c-3,0 -14,-1 -16,1l1 1c5,2 -3,-1 2,0l15 0c1,-7 -1,-49 1,-51 9,-2 10,-5 13,-12 2,-12 -5,-20 -17,-19 -8,2 -6,4 -11,7z"/>
   <path class="fil23" d="M1514 1435c14,0 17,-2 18,-2 5,0 12,-3 17,-5 3,-1 6,-4 7,-7l-15 0 -5 7c0,0 -1,1 -1,1 -2,1 0,0 -2,1 2,-4 4,-5 6,-9 -4,0 -20,4 -22,7 -1,1 -2,5 -3,7z"/>
   <path class="fil1" d="M1045 1885l0 10c1,8 3,12 8,15 3,2 11,6 16,5 -1,-4 -7,-8 -10,-11 5,1 10,6 15,4 1,-3 0,-3 -2,-4 -2,-3 -10,-8 -13,-9l-3 7 -5 -2 -5 -2c0,-4 1,-26 0,-28l-1 15z"/>
   <path class="fil46" d="M1143 1263c-4,-19 24,-22 28,-5 3,18 -24,23 -28,5zm2 -14l-2 2c-3,-1 -5,-3 -7,-2 1,2 4,3 6,4l-1 7 0 6c-2,1 -5,2 -5,4 3,0 4,-1 6,-2 1,1 3,3 4,5 3,2 5,2 6,4 0,3 -1,3 0,5 2,-1 2,-3 3,-5 7,-1 6,-1 12,-3 3,1 3,3 7,4 -1,-2 1,-3 -5,-5 1,-5 2,-2 4,-10 1,-5 -1,-2 5,-3 3,0 2,1 3,-1l-4 -1c-1,0 -3,0 -4,0 -1,-3 -3,-7 -4,-10 2,-1 5,-2 4,-5 -3,0 -3,2 -5,4 -5,-1 -5,-2 -13,-3 0,-3 0,-6 -2,-7 -1,2 0,5 0,7 -3,2 -5,3 -8,5z"/>
   <path class="fil33" d="M1632 1672c2,-7 4,-11 9,-14 -2,-3 -3,-5 -6,-7 -1,1 -1,1 0,4l-2 -2 -4 -2c-3,-1 -5,-2 -7,-1 -1,2 3,4 5,5 -4,0 -6,-2 -11,-2 1,4 4,5 7,7 -3,0 -3,-1 -5,0 0,3 3,4 6,4 -1,1 -1,0 -1,1 0,0 -2,0 -3,1 2,2 8,5 12,6z"/>
   <path class="fil46" d="M1093 1249c-2,-18 25,-20 28,-4 3,19 -26,22 -28,4zm3 -15c-2,5 -5,4 -6,14 -3,0 -5,0 -7,1 1,2 4,1 8,1 2,8 4,9 9,13 0,2 -2,4 -1,6 2,-1 1,2 4,-5 10,-1 7,0 15,-4 1,2 3,3 5,4 -1,-3 -2,-4 -4,-6 2,-4 3,-4 4,-10 6,-2 6,0 7,-3 -2,-1 -4,0 -7,0 -1,-6 -4,-9 -7,-11 1,-3 2,-2 3,-6 -3,1 -4,2 -5,4 -9,-1 -7,-2 -16,1 -2,-2 -3,-4 -6,-5 0,3 3,4 4,6z"/>
   <path class="fil7" d="M1497 1230c4,-12 -14,-18 -18,-6 -3,12 15,17 18,6z"/>
   <path class="fil17" d="M1601 1472c2,2 4,7 2,10l-2 -2c0,-1 0,-1 -1,-2 -3,1 -8,7 -10,10 4,-1 6,-5 9,-8 6,3 1,7 5,14 4,1 5,-1 7,-3 2,-4 1,-3 6,-5 1,4 2,8 3,11 1,0 1,0 1,-1l-3 -11 -5 1c1,-6 0,-5 5,-8 3,3 3,5 4,6 2,2 0,1 3,2 -1,-4 -4,-7 -7,-9 -2,0 -2,1 -5,2 -1,-5 2,-3 4,-8 -5,1 -2,4 -7,4l-2 -6c-1,1 0,0 -1,2 0,4 3,4 -1,7 -2,-2 -3,-5 -5,-8l-8 4c1,1 1,1 4,0 1,-1 2,-1 4,-2z"/>
   <path class="fil17" d="M1106 1874c-1,-5 -9,-9 -14,-13 -1,1 0,1 0,0 -4,-1 -7,-4 -12,-5 -12,12 22,21 26,18z"/>
   <polygon class="fil21" points="1249,1669 1249,1661 1216,1661 1216,1669 "/>
   <path class="fil53" d="M922 1695c-3,2 -16,13 -17,17 4,0 3,-1 10,-8 3,-2 6,-5 9,-8 3,2 15,16 17,16 2,-2 -1,-4 -2,-5 -3,-3 -12,-10 -13,-13 3,-3 16,-14 16,-17 -4,0 -4,2 -9,7 -3,3 -7,6 -9,8 -4,-2 -14,-15 -19,-15 1,5 12,10 17,18z"/>
   <path class="fil36" d="M965 1336c-7,-6 -15,-3 -21,0 1,3 5,11 7,15l3 4 11 -19z"/>
   <path class="fil53" d="M2337 1371c-4,1 -3,-2 -7,0 2,3 2,2 2,3 0,1 0,5 0,6 0,10 -2,3 -2,9l8 0c-1,-6 -2,1 -3,-7 0,-13 7,-9 7,-8 2,4 1,10 1,15l6 0c-1,-6 -3,2 -3,-11 0,-5 2,-6 7,-5 2,4 1,10 1,16l6 0c-1,-6 -3,1 -3,-7 0,-3 0,-6 -1,-8 -2,-8 -10,-2 -11,-1 -2,-3 -3,-4 -8,-2z"/>
   <path class="fil47" d="M1901 1378c-1,-7 4,-12 10,-13 7,-1 13,4 13,11 1,15 -22,16 -23,2zm8 -15c-6,2 -5,4 -9,6 -1,-1 -3,-3 -5,-2 0,1 -1,1 5,3 -1,5 -1,5 -1,11 -2,2 -3,1 -4,4 3,-1 3,-1 5,-2l3 4c2,1 3,2 6,2 -1,3 -2,4 -1,5 2,0 2,-1 3,-4 5,0 6,-1 10,-3 2,3 3,3 5,4 0,-4 -2,-3 -3,-5 1,-3 2,-4 3,-9 3,-1 2,0 5,-1 0,0 1,0 1,0 0,0 0,0 1,-1 -1,0 -1,0 -1,0l-3 -1c0,0 -2,0 -3,0l-4 -7c3,-2 4,-2 5,-5 -3,1 -4,2 -6,4 -4,-2 -4,-2 -10,-3 0,-3 0,-4 -2,-6 -1,2 0,4 0,6z"/>
   <polygon class="fil21" points="1751,1793 1751,1793 1760,1798 1759,1768 1751,1769 "/>
   <path class="fil17" d="M1202 1877c7,0 14,4 24,3 1,-1 1,0 1,-2l-14 -7c-2,-2 -10,-5 -14,-6 -1,1 -1,0 -1,2 -2,5 4,9 4,10z"/>
   <path class="fil43" d="M1859 1369c-4,-16 19,-20 23,-7 4,16 -19,21 -23,7zm-1 -20c0,3 2,4 4,6 -3,2 -5,5 -5,11 -3,0 -5,-1 -6,1 2,1 4,1 6,1 1,6 4,7 8,10 0,3 -2,3 -1,6 3,-2 2,-2 3,-5 8,0 7,0 13,-3 2,2 1,3 4,3 0,-3 -1,-2 -3,-5l4 -8c2,-1 4,0 5,-2 -1,-1 -4,-1 -6,-1 -1,-5 -3,-6 -6,-9 1,-2 2,-2 2,-5 -2,1 -2,2 -4,4 -6,-1 -6,-1 -12,0 -2,-1 -3,-4 -6,-4z"/>
   <path class="fil54" d="M1012 1785c-11,3 -6,18 4,16 11,-2 6,-19 -4,-16z"/>
   <path class="fil55" d="M771 1666c6,-2 14,-13 17,-21 -4,0 -12,0 -14,-3 -1,4 -3,20 -3,24z"/>
   <path class="fil23" d="M1536 1458l3 -1 1 -2 2 -11c-16,0 -17,1 -18,13 4,0 9,-1 12,1z"/>
   <path class="fil5" d="M911 1368c-1,-6 -2,-11 -3,-17 -2,1 -6,2 -8,3 -3,1 -4,3 -4,7 2,10 7,6 15,7z"/>
   <path class="fil23" d="M1557 1438l16 1c3,-1 2,-6 2,-8 0,-4 0,-5 -2,-7 -5,-1 -8,3 -10,5 -2,2 -5,6 -6,9z"/>
   <path class="fil56" d="M1523 1372l-2 -1c-3,-2 -5,-4 -8,-5l-2 4c-3,1 -9,0 -12,1 2,1 8,1 11,1 -2,9 -6,2 -12,5l10 1 -1 5c-7,0 -7,-1 -8,1 19,0 12,1 15,-2 1,-3 5,-3 9,-10z"/>
   <path class="fil57" d="M1706 1719c3,2 7,2 10,3 3,0 5,-2 8,-3 3,0 6,-1 9,-1l0 -3c-9,-2 -25,-8 -27,4z"/>
   <path class="fil10" d="M2127 1355c1,9 16,8 14,-4 -1,-8 -15,-8 -14,4z"/>
   <path class="fil23" d="M1491 1459c5,3 13,1 18,0l2 -8c-4,0 -10,1 -13,-1 2,-1 9,-1 13,-1l-7 -1c-2,0 -4,0 -6,-1 -2,2 -7,9 -7,12z"/>
   <path class="fil22" d="M1455 1372c-2,4 -7,11 -4,15 4,2 8,-6 10,-9 3,-6 4,-11 3,-19 -2,2 -5,11 -9,13z"/>
   <path class="fil39" d="M1110 1558c2,-3 3,-7 5,-9 2,-4 5,-6 6,-9 -1,-2 -1,-3 -1,-6l-11 -1 1 25z"/>
   <path class="fil1" d="M706 1447c5,-1 0,-4 6,-5 7,-1 13,6 3,11 -4,2 -5,3 -4,8l2 0c2,-1 2,-1 2,-2 2,-5 14,-6 9,-16 -5,-7 -25,-6 -18,4z"/>
   <path class="fil53" d="M2145 1363l7 0c-1,-3 -3,-1 -2,-15 4,5 10,15 14,15 0,-25 1,-15 2,-20l-7 0c1,5 2,-1 2,6 0,2 0,6 0,8l-4 -4c-4,-6 -6,-10 -12,-10 1,4 1,0 2,4l0 12c0,5 0,0 -2,4z"/>
   <polygon class="fil28" points="1218,1699 1236,1699 1236,1690 1218,1690 "/>
   <path class="fil58" d="M1395 1871c0,5 9,4 12,8l14 1c0,-8 -11,-9 -19,-10l-7 1z"/>
   <path class="fil53" d="M2314 1381c-2,-10 9,-11 10,-3 1,11 -9,11 -10,3zm1 -10c-5,3 -6,8 -4,13 1,4 7,6 12,4 9,-4 5,-23 -8,-17z"/>
   <path class="fil36" d="M937 1803c2,-2 4,-12 5,-15 2,-5 5,-12 3,-18 -3,1 -7,10 -8,14 -2,9 -1,11 0,19z"/>
   <path class="fil53" d="M2127 1355c-1,-12 13,-12 14,-4 2,12 -13,13 -14,4zm4 -11c-7,2 -8,8 -6,13 2,5 7,8 13,6 11,-4 6,-24 -7,-19z"/>
   <polygon class="fil31" points="1464,1359 1466,1359 1480,1359 1480,1351 1464,1350 "/>
   <path class="fil1" d="M1549 1475c8,0 14,-9 15,-12 -2,0 -14,0 -15,0 -3,2 -1,10 0,12z"/>
   <path class="fil22" d="M957 1630c-8,5 -1,16 7,12 6,-4 2,-16 -7,-12z"/>
   <path class="fil7" d="M1360 1726l-25 0c1,0 1,1 1,1 9,4 8,1 28,11l-4 -12z"/>
   <path class="fil59" d="M1748 1275l7 0 1 5 4 0c-1,-3 -2,-5 -4,-9l-2 -7c-2,-1 0,0 -2,-1 -2,1 -2,0 -3,2l-6 15 4 0 1 -5z"/>
   <path class="fil59" d="M1719 1277c0,0 0,-2 0,-2l7 0 1 4c0,0 0,0 0,0 0,0 0,1 0,1 0,-1 0,0 0,0l4 0c-1,-3 -2,-6 -4,-9 -2,-5 -1,-6 -4,-8 -3,1 -3,4 -5,8 -1,4 -3,6 -4,9l4 0 1 -3z"/>
   <path class="fil53" d="M2088 1345c6,0 9,2 6,8l-6 1 0 -9zm-3 2c0,3 0,6 0,9 0,7 -1,3 -2,7l7 0c-3,-5 2,5 -1,-2 -2,-2 -2,-2 -1,-5 6,0 12,-2 10,-9 -2,-5 -9,-4 -15,-4 0,3 1,1 2,4z"/>
   <path class="fil23" d="M1513 1449c0,-1 0,0 0,0l0 2c-2,3 -2,1 -2,8l12 -2 1 -10 -11 2z"/>
   <path class="fil17" d="M2314 1381c1,8 11,8 10,-3 -1,-8 -12,-7 -10,3z"/>
   <path class="fil60" d="M1497 1230c-3,11 -21,6 -18,-6 4,-12 22,-6 18,6zm-11 -14c-6,1 -10,6 -9,13 1,6 7,10 14,9 14,-4 10,-25 -5,-22z"/>
   <path class="fil2" d="M673 1670l-4 0c1,4 1,-1 1,3 1,3 1,8 -1,11 -2,5 1,-3 0,2l6 -1c-2,-5 -3,5 -2,-12 1,3 1,6 3,8 3,-1 2,-2 4,-8 2,13 0,9 -1,12l6 0c-1,-1 -2,-1 -2,-3 -1,-5 0,-9 1,-12 -7,0 -4,0 -8,8l-3 -8z"/>
   <path class="fil53" d="M2307 1385c-4,0 -9,5 -11,-3 -1,-7 1,-10 8,-9 2,2 -1,2 2,3 1,-1 1,-1 1,-5 -9,-2 -15,0 -14,10 0,4 3,7 6,8 2,0 4,0 6,-1 3,-1 2,-1 2,-3z"/>
   <path class="fil53" d="M2107 1348c4,-1 1,-3 7,-2l0 14c-1,3 0,-1 -2,3l7 0c-1,-2 -2,0 -2,-8 0,-3 0,-6 0,-9 8,0 2,1 7,2l0 -5 -16 0 -1 5z"/>
   <path class="fil6" d="M637 1670c1,2 3,7 2,12 -1,4 -1,0 -2,3l6 0c-1,-3 -1,0 -2,-3 0,-1 0,-3 0,-4l6 0c0,2 0,3 0,5 -1,1 -1,0 -2,3l6 -1c-2,-3 -1,1 -2,-4 -1,-7 2,-11 2,-11l-6 0c1,4 2,-2 2,6l-6 0c0,-8 1,-2 2,-6l-6 0z"/>
   <path class="fil23" d="M1492 1444l6 2c0,-1 1,-3 1,-4 1,-3 1,0 -1,-3 4,-1 3,0 4,-4l-8 -3c-1,1 -3,3 -3,5 0,1 0,3 0,4l1 3z"/>
   <path class="fil47" d="M1747 1415c1,-6 0,-6 -5,-8 -5,-2 -4,-6 2,-5l1 1c0,0 0,1 1,1 0,1 0,0 0,1 1,-1 1,1 1,-2 1,-4 -3,-4 -6,-3 -4,0 -5,3 -4,7 3,3 5,2 8,5 0,4 -2,4 -6,4 -1,-1 0,-2 -2,-3 -1,1 -1,0 -1,4 6,2 7,2 11,-2z"/>
   <path class="fil47" d="M1749 1417c5,3 12,1 11,-5 -1,-6 -10,-3 -7,-10 1,0 2,-1 4,0 3,2 -1,1 3,3l0 -5c-8,-3 -12,3 -10,7 4,4 8,1 8,7 -2,2 -3,2 -6,2 -2,-3 0,-2 -3,-3l0 4z"/>
   <path class="fil6" d="M1529 1438l15 0c1,-1 5,-7 5,-8 -3,0 -7,2 -10,3 -5,1 -9,1 -10,5z"/>
   <path class="fil53" d="M1735 1415c-3,-2 -3,2 -8,1 -2,0 -4,-2 -5,-5 -1,-7 3,-10 10,-9 2,3 -1,1 2,3 1,-2 1,-2 1,-4 -19,-6 -18,14 -10,17 4,1 8,0 10,-3z"/>
   <path class="fil61" d="M1012 1785c10,-3 15,14 4,16 -10,2 -15,-13 -4,-16zm-1 -1c-11,3 -7,22 6,19 12,-4 8,-24 -6,-19z"/>
   <path class="fil2" d="M667 1677c0,-1 0,0 0,-2 0,0 0,-2 0,-2 0,-1 0,-2 0,-3 -2,-1 -4,0 -7,0 -4,0 -4,-1 -6,0 -1,2 -1,4 0,7 1,-1 2,-1 2,-5 0,0 0,0 0,0l3 0c0,15 1,9 -3,12 1,2 7,2 9,0 -2,-1 -1,0 -4,0l0 -12c5,0 3,0 4,2 1,3 -1,1 2,3z"/>
   <path class="fil23" d="M1540 1455l0 3 5 1c1,-5 3,-9 4,-13l-1 -1 -4 -1c-1,2 -2,4 -2,6 -1,2 -1,3 -2,5z"/>
   <path class="fil23" d="M1512 1447c3,0 6,0 9,-1 5,-1 4,-1 6,-6l-14 0 -1 7z"/>
   <path class="fil23" d="M1499 1446c3,2 7,2 11,1l2 -7 -11 0 -2 6z"/>
   <path class="fil6" d="M695 1670c-3,-1 -7,-1 -9,0 1,1 -2,1 3,2l0 12c-5,0 -3,-1 -4,1l15 0c0,-3 0,-4 -1,-6 -2,1 -1,2 -1,5l-7 -1 0 -10c2,-2 2,-1 4,-3z"/>
   <path class="fil23" d="M1506 1427l-2 5c0,3 0,1 1,2l8 1 3 -8 -10 0z"/>
   <path class="fil1" d="M1558 1428c3,0 4,-2 5,-4 3,-2 3,-2 6,-4l-3 0 -6 -1c-1,4 1,1 -3,4l-5 5 6 0z"/>
   <path class="fil53" d="M2099 1363l7 0c-1,-4 -2,0 -2,-7 0,-17 1,-8 2,-13l-7 0c1,1 4,5 2,16 0,2 0,1 -1,3 0,0 0,0 0,1 0,0 -1,0 -1,0z"/>
   <path class="fil23" d="M1553 1438c1,-3 4,-6 5,-9 -3,0 -6,-1 -8,2 -2,2 -3,5 -4,8l7 -1z"/>
   <path class="fil61" d="M1731 1857l-4 0c-6,2 -4,9 1,9 4,1 6,-5 3,-9z"/>
   <path class="fil61" d="M1687 1859c-1,-1 -2,-1 -3,-2 -6,0 -7,2 -5,8 4,3 9,1 8,-6z"/>
   <path class="fil61" d="M1780 1859c-4,4 1,9 5,7 4,-2 4,-9 -2,-9 -2,0 -1,0 -2,1 0,0 -1,0 -1,0 0,0 0,1 0,1z"/>
   <path class="fil61" d="M1822 1859c-1,7 5,8 9,6 1,-6 0,-8 -6,-8 0,0 -1,1 -1,1 -1,1 -1,1 -1,1 0,0 0,0 -1,0z"/>
   <path class="fil1" d="M711 1464c-7,3 -1,10 4,7 6,-2 2,-9 -4,-7z"/>
   <polygon class="fil62" points="1725,1724 1733,1727 1734,1731 1738,1732 1738,1723 1733,1722 "/>
   <path class="fil23" d="M1538 1462l0 -4 -3 0c-3,0 -8,-1 -11,1l0 3 14 0z"/>
   <path class="fil10" d="M2088 1354l6 -1c3,-6 0,-8 -6,-8l0 9z"/>
   <path class="fil23" d="M1496 1429l6 5 3 -8c-10,-1 -4,1 -9,3z"/>
   <polygon class="fil2" points="1538,1465 1539,1468 1544,1471 1544,1463 1539,1463 "/>
   <path class="fil2" d="M1492 1444c-2,1 -1,0 -1,2l0 9c2,-3 4,-5 5,-8 -1,-1 -1,-1 -4,-2 0,-1 0,-1 0,-1z"/>
   <path class="fil63" d="M2238 1621c4,1 7,-2 4,-4 -2,-2 -5,0 -4,4z"/>
   <path class="fil53" d="M2242 1602c3,1 7,0 5,-4 -2,-2 -6,-1 -5,4z"/>
   <path class="fil53" d="M2230 1658l4 1c4,-7 -6,-8 -4,-1z"/>
   <path class="fil53" d="M2246 1584c1,0 2,1 4,-1 2,-1 1,-2 0,-4 -4,-1 -5,1 -4,5z"/>
   <path class="fil53" d="M2250 1565c4,2 5,-1 5,-5 -4,0 -7,1 -5,5z"/>
   <path class="fil47" d="M2226 1673l0 4c4,2 6,-1 5,-5l-5 1z"/>
   <path class="fil36" d="M2234 1635c-2,7 7,6 5,0l-5 0z"/>
   <path class="fil53" d="M2286 1385c-1,5 5,6 4,0 -2,-1 -2,0 -4,0z"/>
  </g>
 </g>
</svg>
