<?xml version="1.0" encoding="UTF-8"?>
<!DOCTYPE svg PUBLIC "-//W3C//DTD SVG 1.1//EN" "http://www.w3.org/Graphics/SVG/1.1/DTD/svg11.dtd">
<!-- Creator: CorelDRAW X7 -->
<svg xmlns="http://www.w3.org/2000/svg" xml:space="preserve" width="3in" height="3in" version="1.1" style="shape-rendering:geometricPrecision; text-rendering:geometricPrecision; image-rendering:optimizeQuality; fill-rule:evenodd; clip-rule:evenodd"
viewBox="0 0 3000 3000"
 xmlns:xlink="http://www.w3.org/1999/xlink">
 <defs>
  <style type="text/css">
   <![CDATA[
    .str0 {stroke:black;stroke-width:6.94488}
    .fil85 {fill:none}
    .fil18 {fill:#09005D}
    .fil70 {fill:#09005F}
    .fil53 {fill:#0B0161}
    .fil68 {fill:#0B0162}
    .fil74 {fill:#0B0366}
    .fil66 {fill:#0B0368}
    .fil33 {fill:#0C0264}
    .fil43 {fill:#0D036A}
    .fil44 {fill:#0E056D}
    .fil30 {fill:#0F0671}
    .fil48 {fill:#0F0672}
    .fil49 {fill:#110776}
    .fil78 {fill:#110875}
    .fil50 {fill:#120879}
    .fil37 {fill:#13097C}
    .fil62 {fill:#14097E}
    .fil71 {fill:#150A81}
    .fil60 {fill:#150C83}
    .fil31 {fill:#160B85}
    .fil69 {fill:#170D88}
    .fil51 {fill:#180D8B}
    .fil81 {fill:#180E8A}
    .fil54 {fill:#190E8E}
    .fil55 {fill:#1A0F91}
    .fil13 {fill:#4446E8}
    .fil34 {fill:#4447EA}
    .fil41 {fill:#4546EC}
    .fil27 {fill:#4547EA}
    .fil42 {fill:#4548EC}
    .fil63 {fill:#474AF1}
    .fil32 {fill:#484AF1}
    .fil24 {fill:#494BF4}
    .fil29 {fill:#494CF3}
    .fil8 {fill:#4A4CF6}
    .fil72 {fill:#4A4DF4}
    .fil22 {fill:#4A4DF6}
    .fil17 {fill:#535EEC}
    .fil21 {fill:#535EED}
    .fil11 {fill:#545DEE}
    .fil9 {fill:#5860F3}
    .fil39 {fill:#5862F8}
    .fil6 {fill:#5961F5}
    .fil28 {fill:#5963F8}
    .fil15 {fill:#5A61F6}
    .fil10 {fill:#7B95F3}
    .fil73 {fill:#7D96F4}
    .fil1 {fill:#7D97F4}
    .fil83 {fill:#8BA8F7}
    .fil3 {fill:#91B3FA}
    .fil82 {fill:#92B3FA}
    .fil79 {fill:#94B5FA}
    .fil80 {fill:#9BBAFB}
    .fil19 {fill:#BECCF9}
    .fil26 {fill:#C9DAFC}
    .fil36 {fill:#DDE7FC}
    .fil23 {fill:#E0E7FC}
    .fil14 {fill:#E0E8FD}
    .fil76 {fill:#E1E6FD}
    .fil5 {fill:#E3EBFC}
    .fil12 {fill:#E3EBFD}
    .fil35 {fill:#E5EAFD}
    .fil7 {fill:#E6ECFD}
    .fil16 {fill:#E7EDFD}
    .fil77 {fill:#E85851}
    .fil0 {fill:#E8EFFD}
    .fil40 {fill:#FC766C}
    .fil75 {fill:#FCFDFE}
    .fil57 {fill:#FD7467}
    .fil2 {fill:#FE6F62}
    .fil65 {fill:#FE776A}
    .fil38 {fill:#FE7A6E}
    .fil45 {fill:#FE7C6F}
    .fil47 {fill:#FE7D72}
    .fil52 {fill:#FE9C98}
    .fil59 {fill:#FEA8A6}
    .fil64 {fill:#FEB1AE}
    .fil61 {fill:#FEB4B3}
    .fil20 {fill:#FEB9B9}
    .fil25 {fill:#FEC2BD}
    .fil4 {fill:#FEC6C1}
    .fil46 {fill:#FF7163}
    .fil67 {fill:#FF7265}
    .fil56 {fill:#FF7569}
    .fil58 {fill:#FFA19D}
    .fil84 {fill:white}
   ]]>
  </style>
    <clipPath id="id0">
     <rect x="759" y="924" width="1483" height="1153"/>
    </clipPath>
     <clipPath id="id1">
      <rect x="759" y="924" width="1483" height="1153"/>
     </clipPath>
 </defs>
 <g id="Layer_x0020_1">
  <metadata id="CorelCorpID_0Corel-Layer"/>
  <g id="_2070567767088">
   <g style="clip-path:url(#id0)">
    <image style="clip-path:url(#id1)" x="759" y="764" width="1483" height="1483" xlink:href="Cyber Security_Images\Cyber Security_ImgID1.png"/>
   </g>
   <g>
    <path class="fil0" d="M1441 1271c2,0 6,4 9,5 2,2 2,1 2,4 -3,0 -5,-2 -7,-4 -2,-1 -6,-2 -4,-5zm-21 -18c1,0 10,6 10,10 -3,0 -12,-6 -10,-10zm-10 -10c-6,1 -14,-20 -3,-6 3,4 3,3 3,6zm-23 -34c3,0 2,0 5,5 1,2 3,4 2,6 -3,0 -3,-2 -5,-5 -1,-2 -3,-4 -2,-6zm-10 -25c2,0 1,0 3,5 1,3 3,5 1,7 -2,-1 -1,0 -3,-6 -1,-2 -3,-4 -1,-6zm-7 -22c4,-1 4,6 3,7 -1,0 -2,1 -3,-4 0,-3 0,-3 0,-3zm25 -130c-2,-3 2,-7 4,-7 1,4 -3,7 -4,7zm13 -19c-1,-3 0,-2 4,-6 5,-7 7,-4 4,-1 -4,4 -5,7 -8,7zm31 -30l0 2c-2,1 -4,3 -5,4 -2,2 -3,4 -6,3 0,-2 2,-3 3,-4 1,-1 2,-1 3,-2 1,-1 1,-2 2,-2 -9,2 -19,4 -28,6 -9,2 -18,4 -27,7 -71,20 -142,59 -198,104 -13,10 -25,21 -36,32 -6,5 -11,10 -16,16 -12,13 -21,23 -32,36 -37,48 -70,105 -93,175 -18,55 -28,114 -29,173 0,11 0,22 0,34 0,8 2,23 1,31 2,-1 14,-18 19,-24 4,-4 7,-7 11,-11 3,-3 8,-8 11,-10 1,-5 4,-10 6,-14 1,-3 6,-11 8,-13 0,-2 2,-5 4,-6 0,-2 -1,0 1,-2 1,-1 0,0 1,-1 1,-2 -1,0 1,-2 2,-1 1,-1 3,-1 0,-1 0,-1 0,-1l1 -1c2,-2 1,-1 3,-2 1,-1 4,-4 7,-4 1,-2 2,-2 4,-3 1,-2 6,-4 9,-5 1,-2 -2,-8 -4,-12 -11,-27 -18,-55 -16,-84 0,-5 2,-12 2,-17 -2,-5 -5,-11 -7,-17 -2,-8 -3,-14 7,-14l5 0 5 1 5 -9c7,0 30,8 33,12l4 2c14,5 50,35 62,46l12 10c7,6 18,19 22,21 3,-2 10,-10 13,-14 2,-2 3,-5 5,-8 1,-1 5,-7 6,-8 1,-4 6,-11 8,-16 2,-4 6,-14 6,-18 -6,-5 -11,-5 -5,-15 2,-3 8,-13 10,-15l10 -13c1,-2 2,-3 3,-5 1,-1 1,-1 2,-2 1,-1 0,-1 2,-2 1,-2 5,-9 8,-10 0,-2 2,-4 4,-5 1,-1 0,0 1,-1 0,0 0,0 0,0l8 -3c3,-1 6,-2 9,-2 1,-2 2,-1 4,-1l-1 -7 1 -1c-2,-3 0,-1 -3,-3 -4,-2 -6,-2 -10,-6 -3,-3 -7,-10 -8,-15l-4 -9 -3 -13c-9,-2 -10,0 -16,-6 -3,-3 -6,-8 -7,-14 0,-2 -1,-3 0,-5 0,-3 0,-3 2,-4 0,-1 0,-1 0,-2 4,-5 15,-1 19,-3l-1 -5c1,-7 4,-11 8,-13 2,-3 10,-4 14,-4 6,1 8,6 11,6 5,-5 11,-12 22,-9 7,2 18,9 15,17 0,0 2,1 2,1 7,-1 10,-1 14,3 4,4 4,10 0,14 -1,2 -4,5 -6,5l0 6 -2 10 -2 9c-1,4 -5,11 -8,12 -1,4 -4,7 -4,10 0,3 2,7 2,10 1,1 2,4 2,6 1,2 1,3 2,4 1,4 0,1 2,3 10,0 25,9 31,14 9,7 15,13 21,24l18 -14c16,-11 22,-15 40,-24 5,-3 15,-8 21,-10 2,-1 1,-1 3,-1l1 -1 13 -14c0,0 0,0 0,0 0,0 0,0 0,0l16 -18c5,-5 7,-9 11,-12 0,-1 2,-2 2,-3 -1,-1 -8,-3 -10,-4 -28,-13 -12,-16 -42,-4 -6,3 -7,-1 -10,-4 -5,-6 -10,-12 -14,-17 -2,-2 -3,-2 -2,-5l12 -19c2,-5 -1,-6 -5,-17 -3,-9 -3,-11 -5,-19 0,-3 -1,-3 -4,-4 -5,-2 -18,-7 -21,-10 -1,-3 1,-31 2,-34 5,-3 21,-5 26,-7l1 -2c1,-1 1,-2 1,-2 3,-9 7,-18 13,-25 3,-5 3,-3 -1,-14 -8,-21 -8,-14 3,-24l13 -11c5,-5 4,-4 16,3 15,9 9,8 21,3 4,-2 8,-3 12,-4 17,-5 12,2 19,-15 1,-3 2,-5 3,-7 1,-1 2,-5 3,-6 3,-1 30,1 34,2 2,3 4,12 5,16 1,3 1,6 2,9 1,3 3,3 6,4 5,2 10,4 14,6 18,10 6,12 36,0 6,-2 5,0 16,13 3,4 7,8 9,12 0,5 -10,17 -12,23l2 0c1,-3 3,-4 5,-6l3 -4c1,0 1,0 1,0l12 -15c2,-2 3,-4 5,-6l15 -16c1,-2 1,0 0,-3 -1,-4 -6,-7 -5,-10 3,0 3,2 6,6 1,1 0,1 2,1 2,0 1,1 2,-1 2,-1 4,-4 6,-6 0,0 0,0 0,0 4,-5 4,-5 8,-8 -1,-1 0,0 -2,-1l-19 -6c-7,-2 -13,-4 -21,-6 3,4 8,4 8,10 -3,-1 -4,-3 -6,-5 -2,-2 -4,-2 -5,-5 2,-1 0,0 2,-1 -5,-2 -48,-10 -53,-11 -19,-3 -39,-5 -59,-6 -20,-1 -41,0 -61,1 -10,1 -20,2 -29,3 -9,1 -20,3 -28,4z"/>
    <path class="fil1" d="M1122 1991c-1,-5 0,-134 0,-143 0,-48 0,-96 0,-144 0,-7 -1,-22 13,-23 6,-1 94,3 104,3l104 4c11,1 24,-1 30,7 5,7 3,23 3,33l0 251c0,8 1,21 -13,23 -7,1 -189,1 -216,1 -5,0 -12,0 -17,-2 -3,-2 -7,-5 -8,-10zm433 -113c-10,1 -108,0 -126,0 -4,0 -4,0 -4,-4 0,-5 0,-10 0,-15 2,-1 2,0 4,0 17,0 117,-1 125,0 1,6 1,13 1,19zm-130 -32c-1,-6 0,-10 0,-15 0,-4 0,-4 4,-4l211 0c6,0 4,0 4,15 0,6 -3,4 -9,4 -35,0 -206,1 -210,0zm57 -70l0 -47c1,-5 6,-5 11,-5l47 0c15,0 11,4 11,36 0,25 6,20 -58,20 -5,0 -10,0 -11,-4zm8 -55c-2,-8 -1,-19 3,-24 6,-7 13,-7 24,-7 10,0 17,0 23,6 4,5 5,17 3,25 -11,5 -8,-6 -9,-14 0,-9 -9,-7 -17,-7 -8,0 -17,-2 -18,7 -1,8 3,18 -9,14zm-389 -58c0,3 -1,5 -1,8 0,3 0,7 0,10 0,6 1,12 1,18l0 17 0 13 2 48 0 13 0 21 1 14 1 32 0 15 0 18 1 23 1 13 0 20 1 51 1 14c3,3 1,5 7,7 3,0 10,0 13,0 10,0 19,0 28,0l87 0 104 0 58 0c0,0 291,1 297,0 7,-2 8,-8 8,-16l1 -73 1 -29 0 -30 1 -15c-3,-1 -5,-3 -8,-4 1,3 1,6 -2,6 0,-1 0,1 -1,-2l1 -6c-21,-14 -28,-20 -46,-35l-14 -12c-1,3 0,11 -1,12 -2,1 -217,1 -218,0 -1,-1 -1,-3 -1,-4 0,-3 0,-12 1,-14 3,-2 156,-1 184,-1 9,0 20,1 28,0 -2,-3 -10,-10 -13,-13l-19 -21c-17,-19 -36,-49 -47,-72 -3,-6 -6,-13 -9,-18 -8,0 -17,0 -26,-1 -4,0 -9,0 -13,0 -9,0 -10,1 -10,-3 3,-1 8,0 13,0 3,0 7,0 11,0 8,0 16,1 24,1l-3 -6 -52 -2 -50 -1 -151 -4 -79 -2 -77 -2c-7,-1 -18,-2 -23,0 -3,1 -6,4 -8,5 -1,2 -3,6 -4,7z"/>
    <path class="fil2" d="M1637 1684c-1,-5 -1,-86 -1,-94 0,-9 -1,-40 1,-46 5,-15 18,-13 35,-13l141 0c10,0 29,-3 32,15 1,5 0,87 0,94 0,9 1,41 -1,47 -2,5 -6,10 -11,11 -6,2 -17,2 -23,2l-142 0c-10,0 -28,2 -31,-16zm68 -227c-11,3 -18,11 -18,23 0,37 6,44 -19,43 -7,-1 -9,-4 -9,-11 0,-12 -1,-30 0,-40 3,-21 19,-38 39,-42 10,-3 28,-2 39,-2 12,0 29,-1 40,0 22,3 39,19 44,38 3,11 2,27 2,38 0,7 1,14 -4,17 -3,2 -14,2 -18,1 -17,-5 6,-50 -18,-63 -8,-4 -28,-2 -38,-2 -9,0 -34,-2 -40,0zm237 -55c-5,-1 -19,-2 -25,-2 -24,-3 -46,-7 -70,-12 -33,-7 -80,-24 -108,-43 -4,-2 -5,-4 -9,-1 -2,1 -2,2 -4,4l-11 9c-41,32 -102,56 -156,61 -29,3 -23,-6 -23,32 1,85 11,174 55,245 14,24 18,28 33,48 3,3 5,5 7,8 7,7 20,22 26,28 3,2 5,4 8,6 11,12 47,38 61,47 12,8 7,8 35,-8 21,-13 36,-26 54,-42 2,-2 5,-4 7,-6 3,-2 4,-5 7,-7 9,-8 24,-26 32,-37 58,-74 85,-171 85,-269 0,-12 -1,-54 -4,-61z"/>
    <path class="fil3" d="M1168 1909c-2,-3 -1,-8 -1,-11 0,-10 -3,-8 29,-8l119 0c6,0 5,2 5,8 0,16 6,12 -38,12l-106 0c-2,0 -4,0 -5,0 -1,0 -1,0 -2,0 -2,-1 0,0 -1,-1zm0 -31c-2,-3 -1,-8 -1,-11 0,-11 -2,-8 23,-8 16,0 124,-1 129,0 1,3 1,15 0,19 -5,1 -30,0 -38,0 -17,0 -110,2 -113,0zm-2 -51c9,-1 129,0 148,0 4,0 5,0 5,4 0,6 0,9 -1,15 -6,1 -141,1 -148,0l-4 0c0,-6 0,-13 0,-19zm0 -28c0,-4 0,-4 3,-4l145 0c4,0 4,0 4,4 0,13 2,16 -4,16l-144 0c-6,0 -4,-2 -4,-16zm-44 192c1,5 5,8 8,10 5,2 12,2 17,2 27,0 209,0 216,-1 14,-2 13,-15 13,-23l0 -251c0,-10 2,-26 -3,-33 -6,-8 -19,-6 -30,-7l-104 -4c-10,0 -98,-4 -104,-3 -14,1 -13,16 -13,23 0,48 0,96 0,144 0,9 -1,138 0,143z"/>
    <path class="fil3" d="M1542 1098c17,-3 32,10 34,25 3,18 -10,32 -24,34 -19,3 -33,-9 -35,-24 -3,-18 10,-32 25,-35zm78 54c-1,7 -9,19 -12,23 -5,7 -11,12 -18,17 -14,10 -33,16 -54,13 -36,-4 -64,-33 -68,-69 -4,-42 24,-73 54,-83 29,-9 58,0 78,18 3,3 13,14 15,20l-4 2c-7,-15 -20,-25 -34,-32 -16,-8 -36,-9 -54,-3 -29,9 -55,39 -51,79 6,52 67,84 117,51 21,-14 25,-34 28,-36l3 0zm-111 85c4,1 4,6 6,13 0,3 1,5 2,8 3,11 4,5 12,8 1,0 1,0 2,0 2,0 6,-1 8,1l14 0c3,-6 0,-2 5,-5l-3 0 9 -20c5,-1 10,-2 14,-3 4,-1 10,-4 13,-4 1,-2 7,-4 8,-4 3,0 22,13 24,13 2,0 12,-9 14,-11 17,-16 14,-5 4,-34 -3,-7 10,-15 15,-36l27 -7 2 -26 0 -9c-2,-2 -11,-5 -14,-6 -12,-5 -10,-4 -12,-10 -1,-6 -2,-12 -4,-17 -1,-3 -6,-12 -5,-14 2,-6 12,-18 12,-23 -2,-4 -6,-8 -9,-12 -11,-13 -10,-15 -16,-13 -30,12 -18,10 -36,0 -4,-2 -9,-4 -14,-6 -3,-1 -5,-1 -6,-4 -1,-3 -1,-6 -2,-9 -1,-4 -3,-13 -5,-16 -4,-1 -31,-3 -34,-2 -1,1 -2,5 -3,6 -1,2 -2,4 -3,7 -7,17 -2,10 -19,15 -4,1 -8,2 -12,4 -12,5 -6,6 -21,-3 -12,-7 -11,-8 -16,-3l-13 11c-11,10 -11,3 -3,24 4,11 4,9 1,14 -6,7 -10,16 -13,25 0,0 0,1 -1,2l-1 2c-5,2 -21,4 -26,7 -1,3 -3,31 -2,34 3,3 16,8 21,10 3,1 4,1 4,4 2,8 2,10 5,19 4,11 7,12 5,17l-12 19c-1,3 0,3 2,5 4,5 9,11 14,17 3,3 4,7 10,4 30,-12 14,-9 42,4 2,1 9,3 10,4z"/>
    <path class="fil2" d="M1948 1465c0,96 -26,189 -80,262 -10,13 -14,17 -23,28 -1,1 -1,2 -3,3 -5,6 -9,10 -14,15 -22,22 -54,47 -80,61 -10,6 -10,9 -20,3 -24,-16 -43,-31 -64,-49l-8 -8c-2,-2 -4,-4 -7,-6 -27,-27 -55,-65 -72,-99 -37,-76 -42,-153 -43,-241 -1,-14 -3,-17 11,-17 60,-1 139,-33 182,-73 3,-3 5,-5 10,-3 2,2 5,4 8,6 45,26 100,40 151,48l39 4c4,0 9,0 10,4 2,5 3,51 3,62zm-270 -115c-3,4 -26,15 -33,18 -22,11 -50,19 -75,23 -27,4 -27,1 -45,2 -9,1 -13,5 -15,12 -1,4 0,29 0,35 0,7 2,31 0,37 2,2 3,40 4,47 2,30 7,56 14,86 4,15 8,25 12,38l0 1 5 13 3 6 1 3c3,5 6,12 9,18 11,23 30,53 47,72l19 21c3,3 11,10 13,13 2,1 5,4 7,7l14 12c18,15 25,21 46,35l2 2c3,1 5,3 8,4 3,3 11,7 15,10 8,2 10,0 17,-3 28,-14 43,-25 67,-43 4,-4 8,-7 12,-10 2,-2 4,-4 6,-6l17 -16c18,-19 34,-38 49,-61 3,-5 6,-9 9,-13 2,-3 7,-13 8,-14 1,-3 4,-8 6,-11 1,-2 2,-3 2,-5 1,-2 2,-3 3,-5 0,-2 8,-17 9,-21 3,-6 6,-15 9,-21 1,-5 4,-11 5,-16 2,-6 3,-11 5,-17 3,-11 6,-22 8,-34 2,-6 7,-46 8,-47l3 -44c0,-16 0,-32 -1,-48 -1,-13 -1,-34 -4,-45l-3 -3c-3,-4 -8,-5 -13,-6 -8,0 -15,-1 -23,-1 -31,-3 -95,-14 -122,-26 -12,-3 -56,-24 -60,-31 -3,0 -13,-11 -20,-5l-12 10c-1,2 -2,2 -3,4 -4,2 -28,22 -33,23z"/>
    <path class="fil4" d="M1724 1623c-2,-1 -2,-1 -4,-3 -9,-8 -13,-20 -10,-33 10,-31 52,-30 61,0 2,7 2,15 -1,22 -4,7 -7,9 -13,14 0,6 6,24 7,31 4,16 -11,12 -23,12 -13,0 -28,4 -24,-12 2,-7 7,-25 7,-31zm-87 61c3,18 21,16 31,16l142 0c6,0 17,0 23,-2 5,-1 9,-6 11,-11 2,-6 1,-38 1,-47 0,-7 1,-89 0,-94 -3,-18 -22,-15 -32,-15l-141 0c-17,0 -30,-2 -35,13 -2,6 -1,37 -1,46 0,8 0,89 1,94z"/>
    <path class="fil5" d="M1860 1252c1,3 -1,5 -3,8l-2 -1c0,2 -3,5 -4,6l-3 4c0,0 -1,1 -1,1l-2 2 3 -1c-1,3 -1,3 -2,4 -5,5 -5,6 -8,7l0 -3c-1,2 -1,1 -2,2l-6 7c-1,2 -1,2 -1,4 -3,0 -1,0 -4,0 -2,0 0,0 -1,1 3,0 0,-2 2,1l-5 5c0,0 0,0 0,0l-8 10c-4,3 -4,5 -6,7 0,0 0,0 0,0 -1,1 -1,1 -2,2l-2 2c-1,0 -1,0 -1,1 0,0 0,0 0,0 -3,3 0,1 -5,5 0,1 0,1 -1,2 0,0 0,0 0,0l-1 1c-1,1 0,1 -1,1l-3 4c-1,0 -1,0 -1,0 2,2 3,3 4,4 2,2 3,2 4,3 2,2 7,6 8,8 27,12 91,23 122,26 8,0 15,1 23,1 5,1 10,2 13,6l3 3c2,0 11,-12 13,-14 0,0 0,0 0,0l12 -14c2,-2 1,0 2,-2l22 -25c2,-2 0,-1 3,-2 -14,-48 -32,-85 -57,-126 -2,-2 -22,-32 -25,-34 0,0 0,0 0,-1 0,0 0,0 -1,0 -1,4 -1,2 -4,5 0,0 0,1 0,1l-10 10c-1,2 -2,3 -4,6l-18 20c-3,2 0,-1 -1,1l-5 5c-5,7 -2,3 -5,6l-25 29c0,0 0,0 0,1l-2 2 -2 -1z"/>
    <path class="fil6" d="M1302 1537l-1 2 -3 10c-2,9 -4,15 -10,19 -5,4 -17,6 -22,1l-9 -3c-1,1 0,0 0,1 -1,2 0,0 -2,2l-6 4c-3,2 -2,1 -4,2l-15 10c-2,1 -3,1 -4,1 -3,2 4,-2 -1,2 0,0 -1,0 -1,0l-23 15c0,0 0,1 0,1l-9 5c0,0 0,1 -1,1l-10 7c-1,0 -1,0 -1,0l-16 10c-1,1 -1,1 -2,1l-1 1c0,0 0,0 0,1 -2,1 -2,1 -4,1 0,0 0,1 -2,2l-1 1c-1,0 -1,0 -1,0 -2,1 -1,1 -3,2 -2,1 -9,0 -14,1 5,2 45,0 49,2 5,-1 33,0 41,1 7,0 37,2 42,0 3,-1 5,-1 9,-3l44 -29c1,0 1,-1 1,-1 0,0 3,-1 4,-2 2,-1 2,-1 4,-2 3,-3 7,-5 10,-7l2 -1c0,0 0,0 0,0l3 -2c1,-1 1,-1 1,-1l7 -5c0,0 0,0 0,0 0,0 1,0 1,0l9 -6c0,0 0,0 1,0l19 -13c3,-2 6,-3 8,-5l5 -3c2,-1 0,0 2,-1 6,-5 13,-8 19,-13l14 -8c3,-1 2,-2 5,-4l22 -14c2,-1 -1,1 0,0l25 -16c2,-1 3,-2 4,-3l19 -12c1,0 2,-1 2,-1l1 -1c5,-3 -2,3 2,-1 0,0 -1,-1 -1,-1l0 -1c0,-1 0,-1 0,-2 0,-2 0,-4 0,-5 2,-6 0,-30 0,-37 0,-6 -1,-31 0,-35 -2,0 -5,3 -7,4l-3 2c-1,1 0,0 -2,1l-5 3c0,0 0,0 -1,0 0,0 0,1 0,1l-3 2c0,0 0,0 0,0l-26 17c0,0 -1,0 -1,0 -3,2 -5,4 -8,6l-3 2c0,0 -1,0 -1,0 0,0 0,0 0,0 0,0 0,0 0,1 -2,1 -3,1 -5,1l-8 7c-1,0 -1,0 -3,1 -2,1 -4,4 -6,5 -1,0 0,0 -2,1l-6 3c0,0 0,0 0,0 0,0 0,0 0,1l-2 0c0,0 0,1 0,1l-16 10c0,0 0,0 0,0l-11 7c-1,1 -1,1 -2,1l-15 10c-3,1 1,0 -2,1 0,0 -1,0 -1,0 -4,0 -1,0 -1,0 0,4 -6,5 -9,7 0,0 0,0 0,0 0,0 0,0 0,0l-20 13c0,0 0,0 0,0 -4,3 -5,3 -7,4l-5 4c0,0 0,0 0,0l-20 13c0,0 0,0 -1,0 -2,2 -3,3 -6,3z"/>
    <path class="fil7" d="M1693 1250c3,1 2,0 5,6 1,2 3,4 2,6 -3,0 -7,-9 -7,-12zm-23 9c0,-3 2,-4 4,-6 2,-2 3,-4 6,-4 0,3 -2,4 -4,6 -1,1 -2,2 -3,3 -3,2 -3,1 -3,1zm19 -24c1,-1 3,-2 4,-4 1,-1 1,-3 4,-3 1,2 -5,10 -7,11l-2 -2c-2,-2 -4,-6 -2,-9 2,1 2,1 3,4 0,1 0,2 0,3zm9 -72c-2,-5 9,-11 3,-2 -1,2 -1,3 -3,2zm14 -17c0,-4 5,-7 7,-9 3,-2 3,0 3,0 1,2 0,2 -4,5 -5,4 -2,4 -6,4zm109 -15c-2,-1 -6,-2 -4,-4 0,-1 -2,0 1,0 0,0 12,5 10,7 -2,1 -6,-2 -7,-3zm-86 -2c-1,-3 2,-3 5,-4l5 -2c3,0 1,0 2,1 0,3 -11,6 -12,5zm60 -7c-8,-2 -5,0 -6,-2 1,-3 5,-1 7,-1 6,2 6,1 6,3 -2,2 -4,1 -7,0zm-34 -2c1,-2 0,-1 3,-2 3,0 9,-1 11,0 -1,2 0,2 -3,2 -3,1 -9,2 -11,0zm-38 -25c0,-3 0,-1 1,-3 3,1 3,7 2,8 -2,0 -2,0 -2,-3 0,0 -1,-2 -1,-2zm-38 35l-2 26 -27 7c-5,21 -18,29 -15,36 10,29 13,18 -4,34 -2,2 -12,11 -14,11 -2,0 -21,-13 -24,-13 -1,0 -7,2 -8,4 0,0 0,-1 1,0 0,0 0,-1 0,-1 1,0 2,0 2,0 -1,5 1,0 -5,7l-17 19c0,0 0,0 -1,0l-2 2c30,-1 57,0 86,7l3 -1 1 2c7,1 14,3 20,5 7,2 13,4 20,6 2,2 5,3 7,3 3,0 1,0 3,-3l1 0c2,-1 -1,-1 3,-1 -2,-4 -4,-3 -4,-6 4,-1 4,2 7,4 2,-3 0,-1 -1,-3l5 -5c2,-3 -1,0 1,-1 2,-4 5,-4 4,-7 -1,-4 -9,-8 -8,-12 2,-4 8,-9 6,-13 -1,-3 -2,-4 -3,-7 0,-2 -2,-8 -2,-9 -2,-3 -11,-4 -14,-6 1,-4 1,-3 2,-8 0,-3 0,-6 1,-9l13 -4c3,-7 4,-10 7,-15 4,-5 -1,-7 -3,-15 1,-2 11,-11 13,-12 18,9 7,8 22,3 8,-2 9,1 14,-15l18 1c3,16 3,14 8,16 10,4 12,9 17,5 0,-3 0,0 -1,-2 3,-2 8,-8 10,-11l29 -32c1,-2 2,-2 3,-4 2,-2 2,-2 4,-4l7 -8c1,-2 1,-3 3,-3l-11 -10c-21,-16 -38,-29 -62,-43 -4,-2 -23,-13 -27,-14l-1 3 -16 19c-4,4 -1,2 -4,4 -1,2 -1,1 -3,3l-26 31c-1,1 -2,2 -3,3 -3,4 -8,8 -10,12l-22 23c0,1 0,1 0,1 0,0 0,0 -1,0z"/>
    <path class="fil8" d="M1557 1307c-2,2 -11,2 -13,0 0,-2 3,-2 6,-2 3,0 6,-1 7,2zm-38 -1c-3,-1 -2,0 -3,-2 1,-1 1,-1 4,-1 1,0 2,1 4,1 7,1 4,0 6,2 -2,2 -9,1 -11,0zm53 0c0,-2 0,-2 2,-2 2,-1 9,-2 11,-1 -1,3 -12,3 -13,3zm27 -7c0,-1 -1,-1 2,-2 4,-1 8,-3 10,-2 0,4 -11,5 -11,5 -2,0 0,1 -1,-1zm25 -10c1,-2 1,-1 3,-2 4,-2 7,-5 9,-3 0,2 -2,3 -5,4 -3,2 -4,3 -7,1zm-66 -27c-5,3 -2,-1 -5,5l-14 0c-1,2 -1,0 -3,1 0,0 0,1 0,1l-4 2c0,1 -1,1 -1,1l-37 24c-2,2 -1,0 -1,1 2,1 4,1 5,2 3,0 4,0 4,2 -3,2 -8,-1 -11,-1 -5,0 -2,-1 -6,1 -2,2 -1,0 -3,3 -1,0 -1,0 -1,0 -2,2 -1,1 -3,2 -1,1 -1,0 -2,1 -3,3 -1,1 -4,3 -1,0 -1,0 -1,0 0,0 0,1 0,1l-73 47c0,0 -1,0 -1,0 0,0 -1,0 -1,1 0,0 -2,1 -2,1 -4,3 -3,3 -9,5 -1,4 -1,9 -3,12 0,3 -1,5 -2,7 0,1 -1,3 -1,4 -1,1 -1,1 -2,2 0,4 -5,14 -8,18l-5 11c-2,4 -6,10 -8,12 -1,2 -1,2 -2,4 -1,1 -1,2 -2,3 -2,3 -2,4 -5,6 0,3 -3,6 -5,8 -6,8 -12,15 -17,21 -5,6 -19,20 -25,26 -3,6 -13,16 -19,20 -18,13 -40,13 -61,9 -11,-3 -19,-6 -31,-8 -34,-4 -62,8 -80,33 -3,3 -14,20 -15,23 1,0 14,-7 17,-8 6,-3 13,-6 19,-8 9,-3 36,-9 45,-8 6,-3 39,2 47,3 5,2 12,3 18,4 5,2 14,6 17,6 6,0 3,0 11,-5l27 -18c1,-1 2,-1 3,-2l3 -1 1 -2c6,-20 16,-41 25,-57 7,-12 24,-39 34,-48 4,-5 9,-10 14,-15 15,-15 27,-25 45,-37 19,-12 54,-31 76,-35 12,-5 38,-9 52,-11 22,-2 40,-1 61,0l10 2 0 -2 24 -15c0,-1 0,-1 0,-1l46 -29c1,-1 1,-1 2,-1 0,0 0,-1 1,-1 4,-3 6,-2 7,-6 -7,-2 -13,-4 -20,-6 -6,-2 -13,-4 -20,-5 -2,2 -7,6 -11,6 1,-3 1,-2 4,-4 5,-3 4,-2 3,-3 -29,-7 -56,-8 -86,-7l-11 0z"/>
    <path class="fil9" d="M1268 1640l0 1c5,-1 60,1 63,2 4,-1 62,1 72,1 24,1 47,2 72,2l65 2c-4,-13 -8,-23 -12,-38 -7,-30 -12,-56 -14,-86 -1,-7 -2,-45 -4,-47 0,1 0,3 0,5 0,1 0,1 0,2l0 1c0,0 1,1 1,1 -4,4 3,-2 -2,1l-1 1c0,0 -1,1 -2,1l-19 12c-1,1 -2,2 -4,3l-25 16c-1,1 2,-1 0,0l-22 14c-3,2 -2,3 -5,4l-14 8c-6,5 -13,8 -19,13 -2,1 0,0 -2,1l-5 3c-2,2 -5,3 -8,5l-19 13c-1,0 -1,0 -1,0l-9 6c0,0 -1,0 -1,0 0,0 0,0 0,0l-7 5c0,0 0,0 -1,1l-3 2c0,0 0,0 0,0l-2 1c-3,2 -7,4 -10,7 -2,1 -2,1 -4,2 -1,1 -4,2 -4,2 0,0 0,1 -1,1l-44 29c-4,2 -6,2 -9,3z"/>
    <path class="fil10" d="M1067 1498c4,1 0,2 10,6l-7 9c-1,1 -1,1 -2,3 -1,1 -1,1 -2,2l-5 6c0,2 0,2 -2,3 -1,2 -2,4 -4,5 -1,4 -2,4 -6,3 1,2 1,2 4,1l-11 15c0,0 0,1 0,1 0,0 -1,0 -1,0 3,0 1,0 2,1 -3,4 -10,18 -13,24l-7 20c-2,5 -2,5 -3,7 0,4 -3,11 -4,16 -1,5 -3,11 -4,17 -1,8 3,11 11,11l2 0 2 -1 14 -12c12,-10 24,-22 34,-34l15 -20c2,-2 3,-4 4,-5 1,-3 12,-20 15,-23 18,-25 46,-37 80,-33 12,2 20,5 31,8 21,4 43,4 61,-9 6,-4 16,-14 19,-20 -11,3 -29,0 -39,-3 -10,-4 -19,-10 -26,-17l-2 -1c-5,2 -32,2 -39,2l-1 0 -11 1 -4 0 -10 1 -7 0 -10 1 -9 0 -6 0c-5,1 -14,0 -19,-1l-12 -2 -5 0c-1,2 -2,3 -4,4 -2,2 -3,3 -5,4l0 -9 -1 0c-4,-1 -5,-1 -7,-2 -4,-4 -4,-6 -6,-12 -2,-4 -4,-9 -4,-13 -3,-2 -6,-13 -7,-17 -1,-3 -9,-24 -9,-27 0,0 0,0 -1,-1l-1 -4c-1,-2 -2,-4 -2,-6 -1,-3 -4,-8 -4,-12l0 0c0,5 -2,12 -2,17 -2,29 5,57 16,84 2,4 5,10 4,12z"/>
    <path class="fil11" d="M1728 1927l0 1 148 0c22,-3 37,-7 54,-17 31,-18 53,-46 62,-81 10,-35 0,-59 1,-64l0 0c-1,3 -1,2 -4,3l-12 8c-3,2 -6,4 -8,5l-49 32c-3,1 -5,4 -8,5l-36 23c-1,1 -1,1 -2,2 -3,1 -2,1 -4,2 -1,1 -1,1 -1,1l-14 9c-2,2 -1,1 -4,2l-52 34c-4,2 -5,3 -8,5l-39 25c-12,8 -6,5 -24,5z"/>
    <path class="fil6" d="M1496 1345c1,2 -1,2 -3,3l-13 9c-2,2 -5,3 -8,5 -3,2 -6,4 -9,6l-85 54c-2,2 -16,12 -16,10 0,0 -1,0 -1,0 -10,9 -27,36 -34,48 -9,16 -19,37 -25,57 3,0 4,-1 6,-3 1,0 1,0 1,0l20 -13c0,0 0,0 0,0l5 -4c2,-1 3,-1 7,-4 0,0 0,0 0,0l20 -13c0,0 0,0 0,0 0,0 0,0 0,0 3,-2 9,-3 9,-7 0,0 -3,0 1,0 0,0 1,0 1,0 3,-1 -1,0 2,-1l15 -10c1,0 1,0 2,-1l11 -7c0,0 0,0 0,0l16 -10c0,0 0,-1 0,-1l2 0c0,-1 0,-1 0,-1 0,0 0,0 0,0l6 -3c2,-1 1,-1 2,-1 2,-1 4,-4 6,-5 2,-1 2,-1 3,-1l8 -7c2,0 3,0 5,-1 0,-1 0,-1 0,-1 0,0 0,0 0,0 0,0 1,0 1,0l3 -2c3,-2 5,-4 8,-6 0,0 1,0 1,0l26 -17c0,0 0,0 0,0l3 -2c0,0 0,-1 0,-1 1,0 1,0 1,0l5 -3c2,-1 1,0 2,-1l3 -2c2,-1 5,-4 7,-4 2,-7 6,-11 15,-12 2,0 2,-1 4,-1 0,0 0,-1 0,-1 3,0 5,-2 9,-4l5 -4c0,0 0,0 0,0l3 -2c2,-1 1,0 2,-1l16 -11c5,-2 -1,0 4,-2 1,-1 1,-1 3,-2l7 -4c0,0 1,-1 2,-2l14 -9c1,0 1,0 2,-1 0,0 0,0 0,0l1 -2c0,0 0,0 0,0 3,0 4,-1 7,-3 2,-2 1,-1 2,-2 3,-1 2,0 4,-2l5 -3c-2,-2 0,-1 -2,-1 -4,-2 -4,0 -4,-2 -21,-1 -39,-2 -61,0 -14,2 -40,6 -52,11z"/>
    <path class="fil3" d="M1773 1196c21,-5 28,26 8,32 -22,5 -29,-27 -8,-32zm42 29c-1,8 -10,17 -15,21 -25,17 -61,2 -65,-29 -2,-23 13,-39 29,-44 19,-7 42,4 48,19l-3 2c-6,-8 -7,-11 -17,-16 -8,-4 -18,-4 -27,-2 -15,5 -28,20 -26,40 3,27 35,42 59,26 2,-2 6,-5 8,-8 2,-3 3,-7 6,-10l3 1zm-90 37c0,0 0,0 1,0 0,0 1,3 6,1 12,-5 9,-4 15,0 2,1 5,2 6,3l6 2c0,4 1,11 4,14 2,1 13,1 17,1l6 -13c18,-2 13,-8 23,-3 2,1 5,3 7,4 5,-4 9,-7 13,-11 0,-3 -2,-7 -3,-10 -2,-5 1,-7 3,-11 7,-13 -1,-7 17,-13 2,-3 2,-14 2,-17 -8,-6 -12,-3 -13,-9 -2,-9 -6,-14 -5,-18 2,-4 5,-6 6,-11 -1,-1 -7,-7 -8,-9 -4,-5 -6,-2 -12,0 -5,4 -7,-1 -17,-5 -5,-2 -5,0 -8,-16l-18 -1c-5,16 -6,13 -14,15 -15,5 -4,6 -22,-3 -2,1 -12,10 -13,12 2,8 7,10 3,15 -3,5 -4,8 -7,15l-13 4c-1,3 -1,6 -1,9 -1,5 -1,4 -2,8 3,2 12,3 14,6 0,1 2,7 2,9 1,3 2,4 3,7 2,4 -4,9 -6,13 -1,4 7,8 8,12z"/>
    <path class="fil11" d="M1914 1699c-1,1 -6,11 -8,14 -3,4 -6,8 -9,13 -15,23 -31,42 -49,61l-17 16c-2,2 -4,4 -6,6 -4,3 -8,6 -12,10 -24,18 -39,29 -67,43 -7,3 -9,5 -17,3 -1,5 -2,19 0,23 1,3 0,8 -1,12 4,-1 9,-5 13,-7l11 -7c1,-1 1,-1 2,-2 2,-1 5,-3 8,-5 2,-1 4,-3 8,-5 0,0 0,0 0,0l126 -82c3,-1 5,-3 8,-4l44 -28c1,-1 2,-2 3,-3 2,-1 2,-1 4,-2l2 -2c1,-1 1,0 2,-1 1,-1 3,-2 4,-3l9 -5c4,-3 8,-5 10,-7 -3,-12 -24,-35 -25,-36 -1,-1 -8,-7 -10,-9 -2,-1 -3,-2 -5,-4 -2,-1 -4,-2 -5,-3l-1 0c-1,3 1,1 -2,3l-16 10c-3,1 0,2 -4,1z"/>
    <path class="fil12" d="M1760 1304c-3,-1 -2,-1 -2,-3 2,-1 11,1 13,1 0,4 -3,3 -6,2 -2,0 -4,0 -5,0zm26 -1c1,-2 0,-1 7,-2 3,0 5,-2 7,0 -1,2 -3,2 -6,3 -4,0 -6,1 -8,-1zm84 -108c0,2 0,2 -1,3 -2,-1 -2,-1 -2,-4 -1,-3 -1,-2 0,-4 2,1 2,1 3,5zm-7 -20c0,1 0,0 0,1 -3,0 -2,0 -3,-3 0,-1 -1,-2 -1,-3 -1,-1 -4,-5 -2,-5 2,-2 6,9 6,10zm-27 -4c-1,5 -4,7 -6,11 -1,4 3,9 5,18 1,6 5,3 13,9 0,3 0,14 -2,17 -18,6 -10,0 -17,13 -2,4 -5,6 -3,11 1,3 3,7 3,10 -4,4 -8,7 -13,11 -2,-1 -5,-3 -7,-4 -10,-5 -5,1 -23,3l-6 13c-4,0 -15,0 -17,-1 -3,-3 -4,-10 -4,-14l-6 -2c2,4 -1,4 -4,7l-1 2c-7,7 -9,13 -16,16 2,0 4,2 6,3 3,1 5,1 6,3 -2,2 -2,1 -4,0l-9 -4 1 -2 -1 2c-1,1 -1,1 -1,1 0,0 0,1 0,1 0,0 0,0 0,0 1,1 11,6 13,7 3,2 11,6 13,8 3,1 11,7 14,9 4,3 9,7 13,10 2,-1 1,-1 2,-2 1,-1 2,-2 2,-2 1,-1 1,-2 2,-3l9 -10c0,0 0,0 0,0l9 -11c3,-3 4,-4 7,-5 0,-1 -1,-1 0,-1l2 -1c-1,-2 0,-3 2,-5l9 -9c2,-3 0,-1 3,-4l5 -5c2,-4 3,-5 6,-8 0,0 1,-1 1,-1l5 -6c1,-1 2,-2 2,-3l4 -4c2,-2 2,-1 4,-4 0,-1 0,-1 1,-2 2,-2 3,-2 4,-4l7 -9c1,-1 2,-2 4,-3l4 -4c0,-1 -1,1 0,-1l2 -2c0,0 0,0 0,0l1 -2c5,-6 7,-6 11,-12 2,-3 0,0 1,-1 0,-1 0,-1 1,-1 1,-1 1,-1 2,-2 4,-5 8,-10 13,-15l8 -10c3,-4 3,-2 5,-4l9 -11c1,-1 -1,0 2,-1 -8,-11 -18,-21 -26,-30l-16 -16c-1,-1 0,-1 -1,-1 -1,2 -1,1 -2,2l-12 14c0,0 0,0 -1,1 0,0 0,0 0,0l-12 14c0,1 -1,1 -1,1l-3 3c0,0 0,1 0,1l-11 12c-1,1 -1,2 -2,3l-4 4c-1,1 -2,1 -2,4l-3 -2z"/>
    <path class="fil13" d="M1993 1766c-1,5 9,29 -1,64 -9,35 -31,63 -62,81 -17,10 -32,14 -54,17l38 0c52,0 93,-32 113,-60 21,-28 32,-63 28,-101 0,-6 -4,-31 -7,-35 -2,1 -5,3 -7,5l-9 5c-2,1 -1,1 -2,1 -1,1 -2,2 -3,2 -1,1 -3,2 -4,3 -1,0 -1,0 -1,1l-9 5c-1,1 -2,2 -4,3l-3 2c-2,1 -4,2 -7,4 0,1 -2,2 -3,3 -4,2 -1,-2 -3,0z"/>
    <path class="fil14" d="M1961 1569c-2,12 -5,23 -8,34 -2,6 -3,11 -5,17 -1,5 -4,11 -5,16 10,2 39,13 43,18 2,1 0,0 3,2 3,2 16,10 16,13 3,1 3,2 6,4 0,-4 5,-17 6,-22 2,-7 4,-14 6,-22 4,-15 7,-30 9,-45 6,-34 9,-68 9,-103 -4,1 -3,2 -5,4l-25 28c-1,3 -3,4 -4,6l-2 2c0,0 0,0 -1,1 0,0 0,0 0,0 -3,3 -3,3 -5,6l-7 8c0,0 -1,0 -1,0l-20 23c-1,2 -1,2 -3,4l-7 6z"/>
    <path class="fil15" d="M1010 1688c0,5 -3,13 -4,19 -1,7 -2,15 -2,23 3,-1 -1,0 1,-1 0,0 1,0 1,0 0,0 0,0 0,0 1,0 2,-1 2,-1l2 -2c2,-1 2,0 5,-3l6 -3c0,0 0,0 0,0l13 -9c1,0 1,0 1,0l9 -7c3,-2 -2,0 2,-1 0,0 1,-1 1,-1l6 -3c0,0 0,0 1,-1 1,-3 0,-1 0,-1l2 0c0,0 0,0 0,0 1,0 1,0 1,0l8 -6c2,-2 1,-1 3,-2 4,-2 5,-3 9,-6 2,0 1,0 2,-1 0,0 1,0 1,0l0 -1c1,0 2,-1 2,-1l2 -2c0,0 0,0 0,0l1 0c4,-2 3,0 4,-4 1,-7 -1,-12 2,-19 4,-10 14,-17 24,-18 6,0 16,2 21,0 5,-1 12,0 14,-1 2,-1 1,-1 3,-2 0,0 0,0 1,0l1 -1c2,-1 2,-2 2,-2 2,0 2,0 4,-1 0,-1 0,-1 0,-1l1 -1c1,0 1,0 2,-1l16 -10c0,0 0,0 1,0l10 -7c1,0 1,-1 1,-1l9 -5c0,0 0,-1 0,-1l23 -15c0,0 1,0 1,0 5,-4 -2,0 1,-2 1,0 2,0 4,-1l15 -10c2,-1 1,0 4,-2l6 -4c2,-2 1,0 2,-2 0,-1 -1,0 0,-1l0 -1c-3,0 -12,-4 -17,-6 -6,-1 -13,-2 -18,-4 -5,0 -3,2 -8,1 0,1 0,2 0,2l-1 1c-3,1 -3,2 -5,3 -2,1 3,-1 -1,0l-2 2c0,0 -1,0 -1,0l-1 1c-1,1 -2,1 -3,2 -3,2 0,0 -4,2l-3 2c0,0 0,0 -1,0l-16 12c0,0 -1,0 -1,0l-7 4c0,0 0,0 0,0l-6 5c-1,0 0,0 -2,1l-2 0c-1,1 0,1 -1,2 -2,2 -4,2 -6,3l-10 6c0,0 0,1 0,1l-9 5c-3,1 -1,2 -7,5l-3 2c0,0 0,0 0,0l-20 12c-1,1 -1,2 -2,3l-19 11c0,0 -1,1 -1,1l-8 5c0,0 0,0 0,0l-8 6c0,0 -1,0 -1,0l-13 8c-3,2 -5,4 -7,5l-2 2c-1,0 -1,0 -1,0l-7 4c-1,1 0,1 -3,2l-3 2c-2,3 2,0 -1,1 -2,1 1,-1 -2,1 -1,0 -1,1 -1,1 -3,2 0,-1 -4,2l-5 4c-2,1 -2,-1 -3,1 -3,0 0,1 -1,0z"/>
    <path class="fil4" d="M1705 1457c6,-2 31,0 40,0 10,0 30,-2 38,2 24,13 1,58 18,63 4,1 15,1 18,-1 5,-3 4,-10 4,-17 0,-11 1,-27 -2,-38 -5,-19 -22,-35 -44,-38 -11,-1 -28,0 -40,0 -11,0 -29,-1 -39,2 -20,4 -36,21 -39,42 -1,10 0,28 0,40 0,7 2,10 9,11 25,1 19,-6 19,-43 0,-12 7,-20 18,-23z"/>
    <path class="fil16" d="M1720 1070c1,3 2,5 1,7 -3,0 -2,0 -4,-6 -1,-3 -2,-5 -1,-7 3,1 3,3 4,6zm-16 -29c-1,-2 0,-2 0,-3 3,-1 7,10 7,12 -3,0 -2,0 -5,-5 0,-1 -1,-3 -2,-4zm-8 -20c0,2 0,2 0,4l-3 -1c1,3 1,1 0,3l-15 16c-2,2 -3,4 -5,6l-12 15c0,0 0,0 -1,0l-3 4c-2,2 -4,3 -5,6l-2 0c-1,2 4,11 5,14 2,5 3,11 4,17 2,6 0,5 12,10 3,1 12,4 14,6l0 9c1,0 1,0 1,0 0,0 0,0 0,-1l22 -23c2,-4 7,-8 10,-12 1,-1 2,-2 3,-3l26 -31c2,-2 2,-1 3,-3 3,-2 0,0 4,-4l16 -19 1 -3c-3,-3 -23,-11 -29,-14 -5,-2 -26,-11 -30,-11 -4,3 -4,3 -8,8 0,0 0,0 0,0 -2,2 -4,5 -6,6 -1,2 0,1 -2,1z"/>
    <path class="fil6" d="M1004 1730l0 1 0 11c0,9 0,18 2,26 0,5 4,19 4,23 1,1 2,4 2,6 1,3 2,5 3,8 2,-1 2,-1 4,-2 0,0 1,-1 1,-1l14 -9c2,-1 3,-2 5,-3l45 -29c0,0 0,0 0,0l1 -1c3,-1 2,-1 6,-4 0,-5 -1,-17 0,-22 -1,-2 -2,-27 -1,-30 -1,-2 -1,-27 0,-30l-1 0c-1,4 0,2 -4,4l-1 0c0,0 0,0 0,0l-2 2c0,0 -1,1 -2,1l0 1c0,0 -1,0 -1,0 -1,1 0,1 -2,1 -4,3 -5,4 -9,6 -2,1 -1,0 -3,2l-8 6c0,0 0,0 -1,0 0,0 0,0 0,0l-2 0c0,0 1,-2 0,1 -1,1 -1,1 -1,1l-6 3c0,0 -1,1 -1,1 -4,1 1,-1 -2,1l-9 7c0,0 0,0 -1,0l-13 9c0,0 0,0 0,0l-6 3c-3,3 -3,2 -5,3l-2 2c0,0 -1,1 -2,1 0,0 0,0 0,0 0,0 -1,0 -1,0 -2,1 2,0 -1,1z"/>
    <path class="fil9" d="M1015 1805c1,2 6,15 8,18 1,3 2,6 4,9 2,3 4,6 5,9 1,1 7,10 9,12 3,5 6,9 10,13 1,2 3,4 5,5 2,3 3,4 5,6l9 7c1,2 1,2 2,3 3,1 2,1 6,4 1,1 3,2 5,4 3,2 9,6 12,7 -1,-11 -3,-47 -1,-54 -1,-3 -2,-29 -1,-33 -1,-2 -1,-22 -1,-26 -1,-3 -1,-27 -1,-33 -4,3 -3,3 -6,4l-1 1c0,0 0,0 0,0l-45 29c-2,1 -3,2 -5,3l-14 9c0,0 -1,1 -1,1 -2,1 -2,1 -4,2z"/>
    <path class="fil8" d="M957 1641c-2,3 -7,22 -8,27 -2,10 -3,21 -4,32 -2,18 -1,49 5,65 1,-1 4,-3 6,-4l48 -30 0 -1c0,-8 1,-16 2,-23 1,-6 4,-14 4,-19 2,-8 5,-15 7,-22 2,-3 9,-17 8,-18l-2 0c-1,3 -9,12 -13,12l0 1c-3,4 -11,9 -17,12 -9,5 -39,15 -43,5 -2,-5 1,-7 3,-9 1,-2 5,-6 6,-6 2,-3 2,-3 5,-4 1,-1 0,-1 2,-2 1,-1 1,-1 2,-1 2,-2 2,-2 5,-3 1,-2 4,-3 6,-4 2,-2 5,-3 8,-4 1,-1 9,-4 12,-5 2,-1 11,-3 13,-3 1,-6 3,-12 4,-17 1,-5 4,-12 4,-16l-1 -2 -12 7c0,0 0,0 0,0l-3 2c0,0 -1,1 -1,1 -1,1 0,1 -2,1 -6,3 -1,1 -6,4 0,0 0,1 -1,1 0,0 0,0 0,0l-11 7c0,0 0,0 -1,0l-19 12c-4,3 -3,4 -6,4z"/>
    <path class="fil17" d="M1728 1915l0 12c18,0 12,3 24,-5l39 -25c3,-2 4,-3 8,-5l52 -34c3,-1 2,0 4,-2l14 -9c0,0 0,0 1,-1 2,-1 1,-1 4,-2 1,-1 1,-1 2,-2l36 -23c3,-1 5,-4 8,-5l49 -32c2,-1 5,-3 8,-5l12 -8c3,-1 3,0 4,-3 -1,-4 -2,-7 -3,-10 0,-2 -1,-3 -1,-5 -1,-2 -1,-2 -2,-4 0,4 0,3 -4,4 -5,3 -4,4 -12,8 -3,2 -6,5 -10,7l-49 31c0,0 0,1 0,1 0,0 0,0 -1,0l-51 33c0,0 0,0 -1,0l-6 5c0,0 -1,0 -1,0l-4 2c0,0 0,1 0,1l-6 4c-2,1 -3,2 -4,2 0,0 -2,2 -2,2l-16 10c-3,3 -7,4 -11,6 -3,2 -4,4 -8,6l-22 14c0,0 -1,1 -1,1l-11 7c-5,4 -11,6 -16,10l-12 8c-1,0 -2,1 -2,1l-2 2c-2,1 -5,3 -7,3z"/>
    <path class="fil6" d="M1027 1647l-2 1c1,1 -6,15 -8,18 -2,7 -5,14 -7,22 1,1 -2,0 1,0 1,-2 1,0 3,-1l5 -4c4,-3 1,0 4,-2 0,0 0,-1 1,-1 3,-2 0,0 2,-1 3,-1 -1,2 1,-1l3 -2c3,-1 2,-1 3,-2l7 -4c0,0 0,0 1,0l2 -2c2,-1 4,-3 7,-5l13 -8c0,0 1,0 1,0l8 -6c0,0 0,0 0,0l8 -5c0,0 1,-1 1,-1l19 -11c1,-1 1,-2 2,-3l20 -12c0,0 0,0 0,0l3 -2c6,-3 4,-4 7,-5l9 -5c0,0 0,-1 0,-1l10 -6c2,-1 4,-1 6,-3 1,-1 0,-1 1,-2l2 0c2,-1 1,-1 2,-1l6 -5c0,0 0,0 0,0l7 -4c0,0 1,0 1,0l16 -12c1,0 1,0 1,0l3 -2c4,-2 1,0 4,-2 1,-1 2,-1 3,-2l1 -1c0,0 1,0 1,0l2 -2c4,-1 -1,1 1,0 2,-1 2,-2 5,-3l1 -1c0,0 0,-1 0,-2 5,1 3,-1 8,-1 -8,-1 -41,-6 -47,-3 1,2 2,1 -1,2l-77 50c-1,1 -3,2 -5,3l-64 41c0,0 -1,0 -1,1l0 -2z"/>
    <path class="fil2" d="M1724 1623c0,6 -5,24 -7,31 -4,16 11,12 24,12 12,0 27,4 23,-12 -1,-7 -7,-25 -7,-31 6,-5 9,-7 13,-14 3,-7 3,-15 1,-22 -9,-30 -51,-31 -61,0 -3,13 1,25 10,33 2,2 2,2 4,3z"/>
    <path class="fil18" d="M1712 1929l-1 73c0,8 -1,14 -8,16 -6,1 -297,0 -297,0l-19 6c-6,2 -4,1 -5,3l20 0 138 0 180 0 1 0c0,-1 -1,-1 1,-1 1,0 1,0 2,-2 4,-4 3,-20 3,-27 0,-11 0,-23 0,-34 0,-7 1,-30 0,-35 -1,-5 0,-11 0,-17 -1,1 -2,1 -3,1l-10 3c0,4 0,9 -1,12l-1 2z"/>
    <path class="fil14" d="M1972 1478l-3 44 1 2c-1,0 2,-3 3,-4l60 -68c2,-2 3,-4 5,-5 0,1 0,1 0,2 1,2 1,1 2,2 -1,-11 -2,-23 -3,-35 -1,-9 -3,-23 -5,-32 -2,0 0,0 -2,1 -1,1 -1,1 -3,4 -2,2 -3,3 -5,5l-40 46c-9,11 -9,7 -9,19l0 18c-1,2 0,0 -1,1z"/>
    <path class="fil19" d="M1644 1802c-2,-3 -5,-6 -7,-7 -8,1 -19,0 -28,0 -28,0 -181,-1 -184,1 -1,2 -1,11 -1,14 0,1 0,3 1,4 1,1 216,1 218,0 1,-1 0,-9 1,-12z"/>
    <path class="fil19" d="M1425 1846c4,1 175,0 210,0 6,0 9,2 9,-4 0,-15 2,-15 -4,-15l-211 0c-4,0 -4,0 -4,4 0,5 -1,9 0,15z"/>
    <path class="fil20" d="M1288 1401c-1,4 -39,35 -48,37 -2,3 -7,5 -11,7 -4,2 -3,1 -4,1l-1 0c-3,3 -7,4 -12,6 0,2 -1,2 -3,3l-6 4c0,0 0,0 0,0 -1,0 -1,0 -1,1 -3,1 0,-2 -2,1 -2,1 -2,1 -4,2l-8 7c-2,2 -1,-1 -2,2l7 0c2,-1 17,-1 21,-1 4,-1 7,-1 11,-1 5,0 6,-1 9,3 19,-1 56,-17 72,-30 3,-3 6,-5 9,-9 7,-7 3,-3 3,-11 -3,-3 -2,-7 -10,-16 -2,-2 -4,-4 -6,-6 -12,-11 -7,-4 -14,0z"/>
    <path class="fil1" d="M1104 1365l15 50 10 34c2,2 3,2 4,3 2,2 2,2 4,4 3,2 5,4 8,7 2,-2 3,-4 5,-6 2,-2 4,-4 7,-6 5,-3 11,-5 17,-2l7 3c2,-3 6,-5 8,-7 3,-2 7,-6 8,-8 -4,-2 -15,-15 -22,-21l-12 -10c-12,-11 -48,-41 -62,-46l3 5z"/>
    <path class="fil14" d="M1967 1385c3,11 3,32 4,45 1,16 1,32 1,48 1,-1 0,1 1,-1l0 -18c0,-12 0,-8 9,-19l40 -46c2,-2 3,-3 5,-5 2,-3 2,-3 3,-4 2,-1 0,-1 2,-1 -2,-17 -8,-40 -13,-56 -3,1 -1,0 -3,2l-22 25c-1,2 0,0 -2,2l-12 14c0,0 0,0 0,0 -2,2 -11,14 -13,14z"/>
    <path class="fil21" d="M1729 1888l-1 0c1,6 0,21 0,27 2,0 5,-2 7,-3l2 -2c0,0 1,-1 2,-1l12 -8c5,-4 11,-6 16,-10l11 -7c0,0 1,-1 1,-1l22 -14c4,-2 5,-4 8,-6 4,-2 8,-3 11,-6l16 -10c0,0 2,-2 2,-2 1,0 2,-1 4,-2l6 -4c0,0 0,-1 0,-1l4 -2c0,0 1,0 1,0l6 -5c1,0 1,0 1,0l51 -33c1,0 1,0 1,0 0,0 0,-1 0,-1l49 -31c4,-2 7,-5 10,-7 8,-4 7,-5 12,-8 4,-1 4,0 4,-4 -1,-3 -3,-7 -3,-9 -1,0 -1,-1 -2,-1 -2,2 -6,4 -10,7l-9 5c-1,1 -3,2 -4,3 -1,1 -1,0 -2,1l-2 2c-2,1 -2,1 -4,2 -1,1 -2,2 -3,3l-44 28c-3,1 -5,3 -8,4l-126 82c0,0 0,0 0,0 -4,2 -6,4 -8,5 -3,2 -6,4 -8,5 -1,1 -1,1 -2,2l-11 7c-4,2 -9,6 -13,7 1,-4 2,-9 1,-12z"/>
    <path class="fil22" d="M1531 1266c-8,1 -25,6 -33,8 -11,3 -21,8 -31,10l-1 1c1,2 0,1 3,2 7,4 7,2 7,5 -2,2 -9,-2 -10,-3l-3 -3c-6,2 -16,7 -21,10 -18,9 -24,13 -40,24l-18 14c1,4 5,19 2,24 0,3 -1,4 -1,7 6,-2 5,-2 9,-5 0,0 2,-1 2,-1 0,-1 1,-1 1,-1 0,0 1,0 1,0l73 -47c0,0 0,-1 0,-1 0,0 0,0 1,0 3,-2 1,0 4,-3 1,-1 1,0 2,-1 2,-1 1,0 3,-2 0,0 0,0 1,0 2,-3 1,-1 3,-3 4,-2 1,-1 6,-1 -1,-2 -2,-2 -1,-4l3 1c0,-1 -1,1 1,-1l37 -24c0,0 1,0 1,-1l4 -2c0,0 0,-1 0,-1 2,-1 2,1 3,-1 -2,-2 -6,-1 -8,-1z"/>
    <path class="fil2" d="M1234 1473c0,2 0,3 -1,5l2 1c7,7 16,13 26,17 10,3 28,6 39,3 6,-6 20,-20 25,-26 5,-6 11,-13 17,-21 2,-2 5,-5 5,-8 -3,-1 -1,0 -4,-2l-9 -10c-4,1 -7,4 -10,4 -1,-2 -3,-4 -4,-6 3,1 3,3 5,5 2,-1 3,-1 4,-3 -3,0 -1,0 -3,-2l-8 -7c0,0 0,0 0,0 0,8 4,4 -3,11 -3,4 -6,6 -9,9 -16,13 -53,29 -72,30z"/>
    <path class="fil23" d="M1729 1945c0,0 0,0 0,0l0 -4c-1,-14 0,-12 14,-12 0,1 0,1 0,1l-14 15zm-2 52c6,-2 15,-8 21,-11 26,-15 53,-33 77,-52 2,-2 5,-5 10,-6 12,0 74,2 79,0l-38 0 -148 0 -1 0c1,5 0,28 0,35 0,11 0,23 0,34z"/>
    <path class="fil6" d="M1525 1393c18,-1 18,2 45,-2 25,-4 53,-12 75,-23 7,-3 30,-14 33,-18 -3,0 -20,-6 -24,-7 -8,-2 -17,-5 -25,-6l-10 -1 -10 -2c0,2 0,0 4,2 2,0 0,-1 2,1l-5 3c-2,2 -1,1 -4,2 -1,1 0,0 -2,2 -3,2 -4,3 -7,3 0,0 0,0 0,0l-1 2c0,0 0,0 0,0 -1,1 -1,1 -2,1l-14 9c-1,1 -2,2 -2,2l-7 4c-2,1 -2,1 -3,2 -5,2 1,0 -4,2l-16 11c-1,1 0,0 -2,1l-3 2c0,0 0,0 0,0l-5 4c-4,2 -6,4 -9,4 0,0 0,1 0,1 -2,0 -2,1 -4,1z"/>
    <path class="fil24" d="M1629 1337c8,1 17,4 25,6 4,1 21,7 24,7 5,-1 29,-21 33,-23 1,-2 2,-2 3,-4l12 -10c7,-6 17,5 20,5l2 -1c3,-1 5,-4 8,-5l0 -2c-2,-2 -10,-6 -13,-8 -2,-1 -12,-6 -13,-7 -3,-1 -9,-4 -12,-5 -4,-2 -8,-4 -12,-5 -3,1 -1,0 -4,2l-19 12c0,1 -1,1 -1,1 0,0 0,0 0,0l-7 5c-3,1 -7,5 -9,6l-3 1c-4,2 -1,2 -5,4 -1,0 0,0 -2,0l-4 4c-1,0 -1,0 -1,0l-4 3c-6,5 -6,3 -9,5 0,0 0,0 0,1 0,0 0,0 0,0l-10 5c0,0 0,1 1,1l0 1c0,0 1,-1 0,1z"/>
    <path class="fil25" d="M1942 1402c3,7 4,49 4,61 0,98 -27,195 -85,269 -8,11 -23,29 -32,37 -3,2 -4,5 -7,7 -2,2 -5,4 -7,6 -18,16 -33,29 -54,42 -28,16 -23,16 -35,8 -14,-9 -50,-35 -61,-47 -3,-2 -5,-4 -8,-6 -6,-6 -19,-21 -26,-28 -2,-3 -4,-5 -7,-8 -15,-20 -19,-24 -33,-48 -44,-71 -54,-160 -55,-245 0,-38 -6,-29 23,-32 54,-5 115,-29 156,-61l11 -9c2,-2 2,-3 4,-4 4,-3 5,-1 9,1 28,19 75,36 108,43 24,5 46,9 70,12 6,0 20,1 25,2zm6 63c0,-11 -1,-57 -3,-62 -1,-4 -6,-4 -10,-4l-39 -4c-51,-8 -106,-22 -151,-48 -3,-2 -6,-4 -8,-6 -5,-2 -7,0 -10,3 -43,40 -122,72 -182,73 -14,0 -12,3 -11,17 1,88 6,165 43,241 17,34 45,72 72,99 3,2 5,4 7,6l8 8c21,18 40,33 64,49 10,6 10,3 20,-3 26,-14 58,-39 80,-61 5,-5 9,-9 14,-15 2,-1 2,-2 3,-3 9,-11 13,-15 23,-28 54,-73 80,-166 80,-262z"/>
    <path class="fil19" d="M1509 1768c-1,-2 0,-3 1,-6 0,-2 1,-5 1,-7 -2,-2 -4,-3 -5,-8 -2,-12 16,-16 20,-5 1,3 1,7 -1,10 -3,4 -4,1 -2,8 1,4 3,8 -1,9 -3,1 -11,1 -13,-1zm-27 8c1,4 6,4 11,4 64,0 58,5 58,-20 0,-32 4,-36 -11,-36l-47 0c-5,0 -10,0 -11,5l0 47z"/>
    <path class="fil26" d="M1168 1878c3,2 96,0 113,0 8,0 33,1 38,0 1,-4 1,-16 0,-19 -5,-1 -113,0 -129,0 -25,0 -23,-3 -23,8 0,3 -1,8 1,11z"/>
    <path class="fil26" d="M1166 1827c0,6 0,13 0,19l4 0c7,1 142,1 148,0 1,-6 1,-9 1,-15 0,-4 -1,-4 -5,-4 -19,0 -139,-1 -148,0z"/>
    <path class="fil26" d="M1168 1909c1,1 -1,0 1,1 1,0 1,0 2,0 1,0 3,0 5,0l106 0c44,0 38,4 38,-12 0,-6 1,-8 -5,-8l-119 0c-32,0 -29,-2 -29,8 0,3 -1,8 1,11z"/>
    <path class="fil26" d="M1166 1799c0,14 -2,16 4,16l144 0c6,0 4,-3 4,-16 0,-4 0,-4 -4,-4l-145 0c-3,0 -3,0 -3,4z"/>
    <path class="fil24" d="M952 1773c0,6 14,41 17,44l2 2c1,-2 2,-3 4,-4 2,-1 1,-1 3,-1 0,0 0,-1 0,-1l5 -3c0,0 0,0 0,0l2 -1c0,0 0,0 0,0l5 -3c3,-2 17,-11 20,-12 0,-3 0,0 0,-3 0,-4 -4,-18 -4,-23 -2,-8 -2,-17 -2,-26 -1,-1 0,0 -1,-1l-3 -1c0,0 -1,0 -1,0l-6 4c0,0 0,0 0,0l-7 5c-1,1 -1,0 -2,1l-1 1c-3,2 -2,1 -4,2 -2,1 0,1 -4,3l-8 5c0,0 0,0 -1,0l-5 4c0,0 -1,0 -1,0l-7 5c0,0 -1,1 -1,1 0,-1 0,0 0,0l0 2z"/>
    <path class="fil23" d="M1969 1522c-1,1 -6,41 -8,47l7 -6c2,-2 2,-2 3,-4l20 -23c0,0 1,0 1,0l7 -8c2,-3 2,-3 5,-6 0,0 0,0 0,0 1,-1 1,-1 1,-1l2 -2c1,-2 3,-3 4,-6l25 -28c2,-2 1,-3 5,-4l-1 -30c-1,-1 -1,0 -2,-2 0,-1 0,-1 0,-2 -2,1 -3,3 -5,5l-60 68c-1,1 -4,4 -3,4l-1 -2z"/>
    <path class="fil27" d="M1957 1701c1,1 22,24 25,36 1,0 1,1 2,1 -1,-4 1,-3 5,-5 2,-2 1,-1 3,-3l35 -22c6,-4 5,-4 8,-3 -4,-11 -23,-30 -24,-32 -3,-2 -3,-3 -6,-4 0,2 -3,4 -5,5l-18 12c-2,1 -5,2 -7,4l-12 7c-2,2 -4,4 -6,4z"/>
    <path class="fil19" d="M1555 1878c0,-6 0,-13 -1,-19 -8,-1 -108,0 -125,0 -2,0 -2,-1 -4,0 0,5 0,10 0,15 0,4 0,4 4,4 18,0 116,1 126,0z"/>
    <path class="fil22" d="M1019 1553c-3,2 -8,7 -11,10 -4,4 -7,7 -11,11 -5,6 -17,23 -19,24 0,1 0,1 -1,3 -1,1 -1,1 -1,2 -6,9 -16,29 -19,38 3,0 2,-1 6,-4l19 -12c1,0 1,0 1,0l11 -7c0,0 0,0 0,0 1,0 1,-1 1,-1 5,-3 0,-1 6,-4 2,0 1,0 2,-1 0,0 1,-1 1,-1l3 -2c0,0 0,0 0,0l12 -7 1 2c1,-2 1,-2 3,-7l7 -20c3,-6 10,-20 13,-24 -1,-1 1,-1 -2,-1 -3,1 -8,2 -11,3 -2,0 -5,1 -7,1 -2,-1 -2,-2 -4,-3z"/>
    <path class="fil28" d="M1094 1576c-1,1 -2,3 -4,5l-15 20c-10,12 -22,24 -34,34l-14 12 0 2c0,-1 1,-1 1,-1l64 -41c2,-1 4,-2 5,-3l77 -50c3,-1 2,0 1,-2 -9,-1 -36,5 -45,8 -6,2 -13,5 -19,8 -3,1 -16,8 -17,8z"/>
    <path class="fil18" d="M1049 2058l85 0c-2,-1 -9,0 -12,0 0,-10 2,-10 3,-16 1,-5 2,-9 3,-13 -2,-2 -22,-2 -25,0l-54 0c-1,0 0,-2 -1,1 0,5 -1,25 1,28z"/>
    <path class="fil29" d="M969 1817c3,8 10,18 14,24 3,4 5,7 8,10 2,3 6,9 9,10 0,-2 1,-2 4,-3l3 -2c0,0 0,0 0,0 0,0 0,0 0,0 1,-1 1,-2 3,-2 3,-2 1,0 3,-3 2,-2 1,0 4,-2 1,-1 1,-1 2,-1 1,-1 0,0 2,-1 1,-1 0,0 1,-2l1 0c1,-1 -1,0 1,-1 2,-1 3,0 4,-3l4 0c-1,-3 -3,-6 -5,-9 -2,-3 -3,-6 -4,-9 -2,-3 -7,-16 -8,-18 -1,-3 -2,-5 -3,-8 0,-2 -1,-5 -2,-6 0,3 0,0 0,3 -3,1 -17,10 -20,12l-5 3c0,0 0,0 0,0l-2 1c0,0 0,0 0,0l-5 3c0,0 0,1 0,1 -2,0 -1,0 -3,1 -2,1 -3,2 -4,4l-2 -2z"/>
    <path class="fil30" d="M1369 2028l-7 30 78 0 -7 0 7 -30 37 0 27 0c6,0 33,1 36,-1l-138 0c-2,1 -29,1 -33,1z"/>
    <path class="fil2" d="M1240 1343c-2,2 -8,12 -10,15 -6,10 -1,10 5,15 3,1 5,3 7,5 3,2 5,3 6,6 1,0 1,0 1,1 2,2 0,10 0,13 -1,5 -2,10 -3,14 0,3 -1,5 -1,7l-2 7 -3 12c9,-2 47,-33 48,-37 -1,-2 -2,-3 -4,-4l-3 -3c-1,-1 0,0 -2,-2 -2,-2 0,-1 -4,-4 -2,-1 -5,-5 -10,-9 0,0 -1,0 -1,-1l-2 -2c0,0 0,0 0,0l-3 -3c0,0 0,0 -1,0 -3,-4 -5,-4 -5,-7l2 -10c0,-2 1,-8 2,-9 0,-4 2,-6 2,-11 -1,0 -3,0 -3,4 -1,4 -4,11 -3,14l-13 -11z"/>
    <path class="fil3" d="M1542 1102c-34,6 -25,57 9,51 13,-2 24,-14 21,-30 -2,-12 -14,-23 -30,-21z"/>
    <path class="fil31" d="M1292 1655l151 4c1,-2 1,-1 7,-3 2,-1 5,-2 8,-3 3,-1 6,-2 9,-3 2,-1 6,-1 8,-4 -25,0 -48,-1 -72,-2 -10,0 -68,-2 -72,-1 -5,1 -9,0 -12,1l-1 0c-2,1 -2,1 -5,1 -3,1 -2,1 -4,2 -3,3 -1,0 -6,2 -2,0 0,0 -2,0l-9 3c-1,1 -4,2 -5,2 5,0 4,0 5,1z"/>
    <path class="fil32" d="M1000 1861c2,4 17,18 23,22 5,4 21,16 28,19 1,-4 3,-3 6,-5 1,0 0,0 1,0l4 -3c0,0 1,-1 1,-1 0,0 0,0 0,0 4,-3 0,-3 4,-1l1 -3c1,-1 2,-2 4,-2 -1,-1 -1,-1 -2,-3l-9 -7c-2,-2 -3,-3 -5,-6 -2,-1 -4,-3 -5,-5 -4,-4 -7,-8 -10,-13 -2,-2 -8,-11 -9,-12l-4 0c-1,3 -2,2 -4,3 -2,1 0,0 -1,1l-1 0c-1,2 0,1 -1,2 -2,1 -1,0 -2,1 -1,0 -1,0 -2,1 -3,2 -2,0 -4,2 -2,3 0,1 -3,3 -2,0 -2,1 -3,2 0,0 0,0 0,0 0,0 0,0 0,0l-3 2c-3,1 -4,1 -4,3z"/>
    <path class="fil33" d="M1141 2028l13 0 34 0 4 0c1,-2 0,-1 2,-1l-1 0c0,0 0,0 0,0l12 1c-1,3 -1,0 -3,11l-2 13c-2,0 0,-1 -1,1 -1,1 -1,3 -1,5l12 0 27 0c0,-6 1,-4 3,-13 1,-3 0,-1 1,-3 1,-2 0,-5 1,-8l3 -7 -27 0c0,3 0,1 -2,1 3,-1 5,-2 8,-3l2 -1c5,-1 8,-2 12,-4l1 0c2,-1 3,0 5,-2l-87 0c0,1 0,2 -1,2 -2,0 -4,1 -6,2 -5,1 -11,4 -17,5 3,0 6,-1 8,1z"/>
    <path class="fil34" d="M1984 1738c0,2 2,6 3,9 1,2 1,2 2,4 0,2 1,3 1,5 1,3 2,6 3,10l0 0c2,-2 -1,2 3,0 1,-1 3,-2 3,-3 3,-2 5,-3 7,-4l3 -2c2,-1 3,-2 4,-3l9 -5c0,-1 0,-1 1,-1 1,-1 3,-2 4,-3 1,0 2,-1 3,-2 1,0 0,0 2,-1l9 -5c2,-2 5,-4 7,-5 -1,-6 -10,-25 -13,-27 -3,-1 -2,-1 -8,3l-35 22c-2,2 -1,1 -3,3 -4,2 -6,1 -5,5z"/>
    <path class="fil35" d="M1843 1148c-2,-2 -4,-3 -4,-5 1,0 -1,-1 2,0 0,0 8,6 8,8 0,1 0,1 -1,1 -1,1 -4,-2 -5,-4zm-27 14c6,-2 8,-5 12,0 1,2 7,8 8,9l3 2c0,-3 1,-3 2,-4l4 -4c1,-1 1,-2 2,-3l11 -12c0,0 0,-1 0,-1l3 -3c0,0 1,0 1,-1l12 -14c0,0 0,0 0,0 1,-1 1,-1 1,-1l12 -14c1,-1 1,0 2,-2 -2,-2 -7,-6 -9,-8 -1,-2 -7,-7 -9,-8 -2,0 -2,1 -3,3l-7 8c-2,2 -2,2 -4,4 -1,2 -2,2 -3,4l-29 32c-2,3 -7,9 -10,11 1,2 1,-1 1,2z"/>
    <path class="fil31" d="M1627 2058l50 0c-2,-4 0,0 1,-7l4 -16c1,-2 1,-4 2,-7l-64 0c0,6 -1,10 -3,15 -1,4 -3,10 -3,15 4,0 11,-1 13,0z"/>
    <path class="fil36" d="M1620 1152l-3 0c-3,2 -7,22 -28,36 -50,33 -111,1 -117,-51 -4,-40 22,-70 51,-79 18,-6 38,-5 54,3 14,7 27,17 34,32l4 -2c-2,-6 -12,-17 -15,-20 -20,-18 -49,-27 -78,-18 -30,10 -58,41 -54,83 4,36 32,65 68,69 21,3 40,-3 54,-13 7,-5 13,-10 18,-17 3,-4 11,-16 12,-23z"/>
    <path class="fil37" d="M1504 2028c0,2 0,3 0,4 -1,2 -1,2 -1,3l-6 23 43 0c-2,-1 0,-1 -3,0 0,-7 3,-15 5,-22 0,-2 0,-2 0,-3l2 -4c0,0 0,0 0,0l6 0c0,0 -6,28 -8,29l7 0 7 -28c1,-2 0,-1 2,-1l12 0c4,-1 9,-1 14,-1l10 0 26 0 64 0 16 0c3,0 19,0 20,-1l-180 0c-3,2 -30,1 -36,1z"/>
    <path class="fil38" d="M1287 1300l0 0c-4,1 -1,0 -2,1 0,1 0,1 0,1 0,0 0,0 0,0l4 4c0,0 0,0 0,0l28 26c0,0 0,1 0,1l1 1c0,0 0,0 1,0 0,0 0,0 0,1l3 2c2,2 0,0 1,2l25 24c2,2 4,3 6,5 0,0 0,0 0,0l6 6c0,0 1,1 2,2l5 5c0,0 1,1 1,1l5 3c2,1 1,0 1,3 2,3 0,1 3,2 1,-1 1,-1 2,-2 0,-1 1,-3 1,-4 1,-2 2,-4 2,-7 -1,-2 -2,-3 -4,-4 -2,-3 -1,0 -4,-4 -2,-2 -3,-3 -5,-4 -7,-7 -20,-21 -30,-30l-17 -16c-4,-4 -7,-6 -9,-9 -5,0 -17,0 -19,-3 -2,-1 -2,-1 -2,-3 -1,-2 -1,-3 -1,-5 -2,0 -3,-1 -4,1z"/>
    <path class="fil39" d="M1361 1432c0,0 1,0 1,0 0,2 14,-8 16,-10l85 -54c3,-2 6,-4 9,-6 3,-2 6,-3 8,-5l13 -9c2,-1 4,-1 3,-3 -22,4 -57,23 -76,35 -18,12 -30,22 -45,37 -5,5 -10,10 -14,15z"/>
    <path class="fil40" d="M1270 1305l3 0c1,2 2,3 5,6 3,3 5,4 7,7 1,2 0,0 1,1 2,1 1,0 2,2 4,5 4,3 7,7 1,1 2,2 3,3l4 4c0,0 0,0 0,0 0,0 1,1 1,1l18 16c0,-2 0,-2 2,-4 0,1 0,1 0,1 0,2 1,0 -1,4l33 33c2,1 1,0 2,1 1,1 0,0 1,1l4 4c3,2 2,3 5,5 1,-4 5,-8 6,-12l-5 -3c0,0 -1,-1 -1,-1l-5 -5c-1,-1 -2,-2 -2,-2l-6 -6c0,0 0,0 0,0 -2,-2 -4,-3 -6,-5l-25 -24c-1,-2 1,0 -1,-2l-3 -2c0,-1 0,-1 0,-1 -1,0 -1,0 -1,0l-1 -1c0,0 0,-1 0,-1l-28 -26c0,0 0,0 0,0l-4 -4c0,0 0,0 0,0 0,0 0,0 0,-1 1,-1 -2,0 2,-1l0 0c-3,0 -6,1 -9,2l-8 3c0,0 0,0 0,0z"/>
    <path class="fil41" d="M1937 1685c1,1 3,2 5,3 2,2 3,3 5,4 2,2 9,8 10,9 2,0 4,-2 6,-4l12 -7c2,-2 5,-3 7,-4l18 -12c2,-1 5,-3 5,-5 0,-3 -13,-11 -16,-13 -3,-2 -1,-1 -3,-2 -5,0 -20,12 -25,15l-24 16z"/>
    <path class="fil5" d="M1816 1294c1,-1 2,-1 4,-2 2,-2 2,-2 6,-2l-1 2c3,0 1,0 4,0 0,-2 0,-2 1,-4l6 -7c1,-1 1,0 2,-2 1,-1 6,-6 7,-7l2 -2c0,0 1,-1 1,-1l3 -4c1,-1 4,-4 4,-6 1,-3 2,-6 5,-7l2 1 2 -2c0,-1 0,-1 0,-1l25 -29c3,-3 0,1 5,-6l5 -5c1,-2 -2,1 1,-1l18 -20c2,-3 3,-4 4,-6l10 -10c0,0 0,-1 0,-1 3,-3 3,-1 4,-5 0,-2 -1,-2 -2,-3 -1,-2 -1,-2 -2,-3 -3,1 -1,0 -2,1l-9 11c-2,2 -2,0 -5,4l-8 10c-5,5 -9,10 -13,15 -1,1 -1,1 -2,2 -1,0 -1,0 -1,1 -1,1 1,-2 -1,1 -4,6 -6,6 -11,12l-1 2c0,0 0,0 0,0l-2 2c-1,2 0,0 0,1l-4 4c-2,1 -3,2 -4,3l-7 9c-1,2 -2,2 -4,4 -1,1 -1,1 -1,2 -2,3 -2,2 -4,4l-4 4c0,1 -1,2 -2,3l-5 6c0,0 -1,1 -1,1 -3,3 -4,4 -6,8l-5 5c-3,3 -1,1 -3,4l-9 9c-2,2 -3,3 -2,5z"/>
    <path class="fil42" d="M1925 1678l11 7 1 0 24 -16c5,-3 20,-15 25,-15 -4,-5 -33,-16 -43,-18 -3,6 -6,15 -9,21 -1,4 -9,19 -9,21z"/>
    <path class="fil43" d="M1271 2058l46 0c0,-5 2,-7 2,-10l2 -6c0,-1 0,-4 0,-6 0,0 1,0 1,0l1 1c-1,-1 0,-3 0,-5 0,-1 0,-1 0,-2 1,-1 1,-1 1,-2l45 0c4,0 31,0 33,-1l-20 0 -58 0 -45 1c0,0 0,1 -1,1 0,2 0,1 0,3 -1,1 -1,2 -1,4 0,4 -1,2 -2,7l-4 15z"/>
    <path class="fil44" d="M1105 1480l12 2c0,-4 0,-42 0,-51 0,-3 0,-6 0,-9 0,-4 0,-5 2,-7l-15 -50c-2,0 -1,-1 -2,1l0 113c5,0 1,0 3,1z"/>
    <path class="fil45" d="M1313 1310c2,3 5,5 9,9l17 16c10,9 23,23 30,30 2,1 3,2 5,4 3,4 2,1 4,4 2,1 3,2 4,4 2,-3 2,-8 3,-12 0,-3 1,-4 1,-7 -2,-1 -3,-2 -4,-3l-41 -39c0,-1 0,-1 0,-1l-7 -6c-1,-1 -3,-3 -4,-5 -2,1 -5,3 -8,4 -3,1 -6,2 -9,2z"/>
    <path class="fil44" d="M1317 2058l45 0 7 -30 -45 0c0,1 0,1 -1,2 0,1 0,1 0,2 0,2 -1,4 0,5l-1 -1c0,0 -1,0 -1,0 0,2 0,5 0,6l-2 6c0,3 -2,5 -2,10z"/>
    <path class="fil46" d="M1288 1401c7,-4 2,-11 14,0 2,2 4,4 6,6 8,9 7,13 10,16 0,0 0,0 0,0l8 7c2,2 0,2 3,2 3,-1 9,-4 10,-6 -4,0 1,-1 -3,0l-2 -3c-1,-1 -1,-1 -2,-1l-11 -11c0,0 0,-1 -1,-1l0 -1c0,0 0,0 -1,0 0,-1 0,-1 -1,-1 -4,-4 -2,-3 -4,-4l-10 -10c0,0 0,0 0,0l-4 -5c-4,3 -2,3 -6,6 1,-4 3,-4 4,-8 -2,0 -1,1 -3,-1l-32 -31c0,0 -1,0 -1,-1 -6,-6 -7,-5 -5,-7 -1,1 -2,7 -2,9l-2 10c0,3 2,3 5,7 1,0 1,0 1,0l3 3c0,0 0,0 0,0l2 2c0,1 1,1 1,1 5,4 8,8 10,9 4,3 2,2 4,4 2,2 1,1 2,2l3 3c2,1 3,2 4,4z"/>
    <path class="fil47" d="M1332 1301c-1,2 -1,2 -2,3 1,2 3,4 4,5l7 6c0,0 0,0 0,1l41 39c1,1 2,2 4,3 3,-5 -1,-20 -2,-24 -6,-11 -12,-17 -21,-24 -6,-5 -21,-14 -31,-14 -3,0 -1,0 -1,1l1 4z"/>
    <path class="fil48" d="M1090 1479l1 0 9 1 5 0c-2,-1 2,-1 -3,-1l0 -113c1,-2 0,-1 2,-1l-3 -5 -4 -2 -2 0 -3 0 0 121 -2 0z"/>
    <path class="fil36" d="M1763 2058l-33 0 -37 0 -16 0 -50 0 -28 0 -23 0 -27 0 -7 0 -2 0 -43 0 -27 0 -30 0 -78 0 -45 0 -46 0 -7 0 -27 0 -27 0 -27 0 -36 0 -13 0 -85 0c3,2 8,1 12,1 45,0 320,0 327,1 34,4 73,6 107,3 13,-1 30,-4 41,-4 15,1 31,0 46,0l175 0c5,0 5,0 6,-1z"/>
    <path class="fil49" d="M1260 1206c2,-1 28,4 31,5l33 6c8,1 15,3 22,4 4,-4 4,-10 0,-14 -4,-4 -7,-4 -14,-3 0,0 -2,-1 -2,-1 -2,1 -1,1 -3,1 -1,-1 -1,-1 -1,-1 0,0 0,0 0,0 -1,0 -1,0 -1,0 -4,-1 2,-1 -8,-1 0,0 -1,0 -1,0l-3 -1c-2,-1 -5,0 -8,0 0,-2 2,-3 -6,-2 -4,0 -2,0 -4,-1 -4,-1 -5,0 -7,-1 0,0 0,-1 -3,-1 -2,0 -4,0 -6,0l0 -2 -9 0c-1,-2 0,0 -2,-1 -4,2 -7,6 -8,13z"/>
    <path class="fil49" d="M1440 2058l30 0c0,-3 1,-5 2,-7l5 -23 -37 0 -7 30 7 0z"/>
    <path class="fil50" d="M1083 1395c1,2 3,5 4,8 1,5 0,6 -2,8 -2,2 2,2 -2,2l0 64c2,1 3,1 7,2l2 0 0 -121 3 0c-2,-1 -7,-1 -9,-1l-3 1c-1,6 -1,33 0,37z"/>
    <path class="fil51" d="M1700 2028c0,8 -1,5 -2,8 -1,2 -1,5 -1,8 -2,4 -3,10 -4,14l37 0c1,-3 3,-11 4,-15l3 -14 -12 0c0,0 -2,0 -2,0 -2,-1 -1,0 -2,-2l-1 0c-1,1 -17,1 -20,1z"/>
    <path class="fil52" d="M1186 1455l2 2c6,1 18,-3 24,-5 5,-2 9,-3 12,-6l1 0c1,-1 4,-4 5,-5l12 -15c2,-1 0,-1 1,0l2 -7c0,-2 1,-4 1,-7 1,-4 2,-9 3,-14 0,0 -1,0 -1,0l-2 3c0,1 0,1 0,1l-19 17c0,1 -1,1 -1,1 0,0 0,1 0,1 -2,3 0,1 -3,2l-2 2c-2,2 -3,3 -5,2 -1,2 0,0 0,2 -1,2 -3,2 -5,4l-7 6c-4,2 0,1 -4,5l-7 5c-3,3 -6,5 -7,6z"/>
    <path class="fil53" d="M1147 2058l36 0 -1 -1c0,0 0,0 0,0 1,-5 2,-15 4,-19 1,-1 1,-1 1,-3 1,-4 1,-4 1,-7l-34 0c0,2 0,2 -1,4 0,1 0,3 0,4 -1,3 0,-1 -2,3l-2 10c0,0 0,0 0,0 -1,3 -2,7 -2,9z"/>
    <path class="fil54" d="M1136 1651l77 2c2,-2 23,-9 25,-9 11,-3 2,-3 13,-2 5,0 13,0 17,-1l0 -1c-5,2 -35,0 -42,0 -8,-1 -36,-2 -41,-1 -10,3 -8,-3 -26,3 -5,2 -8,3 -12,4 -2,1 -3,1 -5,2 -1,0 -3,1 -4,1 -2,1 0,-1 -2,2z"/>
    <path class="fil53" d="M1245 2027l27 0 7 1 45 -1 9 -2c0,0 0,0 0,0l10 -3c2,-1 0,-1 5,-2l0 -2 -104 0c-2,2 -3,1 -5,2l-1 0c-4,2 -7,3 -12,4l-2 1c-3,1 -5,2 -8,3 2,0 2,2 2,-1l27 0z"/>
    <path class="fil51" d="M1213 1653l79 2c-1,-1 0,-1 -5,-1 1,0 4,-1 5,-2l9 -3c2,0 0,0 2,0 5,-2 3,1 6,-2 2,-1 1,-1 4,-2 3,0 3,0 5,-1l1 0c3,-1 7,0 12,-1 -3,-1 -58,-3 -63,-2 -4,1 -12,1 -17,1 -11,-1 -2,-1 -13,2 -2,0 -23,7 -25,9z"/>
    <path class="fil37" d="M1073 1452c0,4 2,9 4,13 2,6 2,8 6,12l0 -64c4,0 0,0 2,-2 -5,0 -8,-3 -10,-6 -1,-2 -2,-4 -2,-7 0,-11 10,-3 10,-3 -1,-4 -1,-31 0,-37l3 -1c-2,-1 -7,-1 -10,0l-3 0c0,16 0,32 0,47 0,15 1,35 0,48z"/>
    <path class="fil16" d="M1467 1284c10,-2 20,-7 31,-10 8,-2 25,-7 33,-8 -1,0 -1,0 -2,0 -8,-3 -9,3 -12,-8 -1,-3 -2,-5 -2,-8 -2,-7 -2,-12 -6,-13 0,1 -2,2 -2,3 -4,3 -6,7 -11,12l-16 18c0,0 0,0 0,0 0,0 0,0 0,0l-13 14z"/>
    <path class="fil55" d="M1089 1674l1 0c1,-4 0,-7 0,-11 0,2 -1,1 1,1 2,1 7,-1 9,-2l1 1c1,-1 3,-5 4,-7 2,-1 5,-4 8,-5 5,-2 16,-1 23,0 2,-3 0,-1 2,-2 1,0 3,-1 4,-1 2,-1 3,-1 5,-2 4,-1 7,-2 12,-4 18,-6 16,0 26,-3 -4,-2 -44,0 -49,-2 -5,2 -15,0 -21,0 -10,1 -20,8 -24,18 -3,7 -1,12 -2,19z"/>
    <path class="fil54" d="M1730 2058l33 0c1,-4 1,-26 0,-30 -6,-1 -28,0 -37,0 -4,0 -4,-1 -4,-2 -2,0 -1,0 -1,1 1,2 0,1 2,2 0,0 2,0 2,0l12 0 -3 14c-1,4 -3,12 -4,15z"/>
    <path class="fil56" d="M1257 1321c2,0 1,0 2,1l1 1c2,2 2,2 4,4 1,1 2,2 3,3 5,5 8,8 13,13l2 1c0,0 0,0 0,0l18 18c0,0 0,0 0,0l7 6c1,2 1,3 4,1 1,-1 5,-8 6,-10 -3,0 -2,0 -4,-2l-9 -9c0,0 0,0 0,0l-15 -14c-1,-1 0,0 -1,-1 0,0 -1,-1 -1,-1l-22 -21c-3,1 -7,8 -8,10z"/>
    <path class="fil36" d="M1815 1225l-3 -1c-3,3 -4,7 -6,10 -2,3 -6,6 -8,8 -24,16 -56,1 -59,-26 -2,-20 11,-35 26,-40 9,-2 19,-2 27,2 10,5 11,8 17,16l3 -2c-6,-15 -29,-26 -48,-19 -16,5 -31,21 -29,44 4,31 40,46 65,29 5,-4 14,-13 15,-21z"/>
    <path class="fil35" d="M1725 1262c1,3 -2,3 -4,7 -2,1 1,-2 -1,1l-5 5c1,2 3,0 1,3 1,4 4,2 3,5 0,0 0,0 -1,0 0,0 -1,0 -1,0l-4 -3c-4,0 -1,0 -3,1l-1 0c-2,3 0,3 -3,3l0 1c4,1 8,3 12,5 3,1 9,4 12,5 0,0 0,0 0,0 0,0 0,-1 0,-1 0,0 0,0 1,-1l1 -2 0 0c7,-3 9,-9 16,-16l1 -2c3,-3 6,-3 4,-7 -1,-1 -4,-2 -6,-3 -6,-4 -3,-5 -15,0 -5,2 -6,-1 -6,-1 -1,0 -1,0 -1,0z"/>
    <path class="fil50" d="M1470 2058l27 0 6 -23c0,-1 0,-1 1,-3 0,-1 0,-2 0,-4l-27 0 -5 23c-1,2 -2,4 -2,7z"/>
    <path class="fil57" d="M1250 1330c2,1 2,2 4,3 1,1 1,2 2,2 0,0 0,0 1,0 0,0 0,0 0,0l2 1c0,3 0,2 2,4l28 27c3,3 11,12 15,13 2,-3 5,-8 7,-11 -3,2 -3,1 -4,-1l-7 -6c0,0 0,0 0,0l-18 -18c0,0 0,0 0,0l-2 -1c-5,-5 -8,-8 -13,-13 -1,-1 -2,-2 -3,-3 -2,-2 -2,-2 -4,-4l-1 -1c-1,-1 0,-1 -2,-1 -2,1 -1,1 -2,2 -1,1 -1,1 -2,2 -1,2 -2,3 -3,5z"/>
    <path class="fil19" d="M1490 1721c12,4 8,-6 9,-14 1,-9 10,-7 18,-7 8,0 17,-2 17,7 1,8 -2,19 9,14 2,-8 1,-20 -3,-25 -6,-6 -13,-6 -23,-6 -11,0 -18,0 -24,7 -4,5 -5,16 -3,24z"/>
    <path class="fil33" d="M1117 1482c5,1 14,2 19,1 0,0 0,0 1,0 0,0 1,-2 2,-6 0,-1 0,0 0,-3 -2,1 -3,1 -2,-1 -1,-1 -1,-1 -2,-3 0,-1 0,-2 -1,-4l-5 -17 -10 -34c-2,2 -2,3 -2,7 0,3 0,6 0,9 0,9 0,47 0,51z"/>
    <path class="fil58" d="M1221 1407c-1,1 -5,7 -6,8 -2,3 -3,6 -5,8 -3,4 -10,12 -13,14 -1,2 -5,6 -8,8 -2,2 -6,4 -8,7 2,2 3,2 5,3 1,-1 4,-3 7,-6l7 -5c4,-4 0,-3 4,-5l7 -6c2,-2 4,-2 5,-4 0,-2 -1,0 0,-2 2,1 3,0 5,-2l2 -2c3,-1 1,1 3,-2 0,0 0,-1 0,-1 0,0 1,0 1,-1l19 -17c0,0 0,0 0,-1l2 -3c0,0 1,0 1,0 0,-3 2,-11 0,-13 0,-1 0,-1 -1,-1 1,4 -2,3 -6,7l-11 9c0,0 0,0 0,0 -2,2 -1,1 -5,4l-2 2c0,0 -1,1 -1,1 -1,1 0,0 -1,1 0,0 -1,0 -1,-1z"/>
    <path class="fil59" d="M1289 1234c-2,3 -8,5 -11,6l-11 4c2,2 3,1 8,3 3,2 9,2 13,3 4,2 3,2 8,3 1,0 2,0 3,1 5,1 2,1 7,2 3,1 3,1 5,1l10 4c2,1 2,0 5,1 -2,-6 -6,-10 -1,-13 1,-2 1,-2 1,-4 -1,-2 1,-1 -2,-2 -1,0 -2,0 -3,0 -2,-1 -3,-2 -5,-1 -2,2 0,2 -4,2 -2,-1 -1,-1 -2,-4 -5,-2 -3,-2 -10,-4 0,0 -1,0 -2,0 0,0 0,0 -1,0 -4,-2 -3,-1 -6,-2l-2 0z"/>
    <path class="fil60" d="M1599 2058l28 0c-2,-1 -9,0 -13,0 0,-5 2,-11 3,-15 2,-5 3,-9 3,-15l-26 0 -3 15c0,3 0,0 -1,3 0,1 0,2 -1,3 0,3 -1,5 -1,9 3,0 9,-1 11,0z"/>
    <path class="fil61" d="M1146 1474c4,0 9,-1 13,0l13 -1 8 -1 2 1c1,-1 2,-1 4,-1 1,-3 0,0 2,-2l8 -7c2,-1 2,-1 4,-2 2,-3 -1,0 2,-1 0,-1 0,-1 1,-1 0,0 0,0 0,0l6 -4c2,-1 3,-1 3,-3 -6,2 -18,6 -24,5l-2 -2c-2,-1 -3,-1 -5,-3l-7 -3c-1,2 -2,2 -3,4l-11 7c0,1 -1,1 -2,2 -3,1 -12,9 -16,11l4 1z"/>
    <path class="fil62" d="M1549 2058l27 0c1,-5 3,-10 4,-15 0,-1 1,-3 1,-4l3 -11c-5,0 -10,0 -14,1l-12 0c-2,0 -1,-1 -2,1l-7 28z"/>
    <path class="fil18" d="M1134 2058l13 0c0,-2 1,-6 2,-9 0,0 0,0 0,0l2 -10c2,-4 1,0 2,-3 0,-1 0,-3 0,-4 1,-2 1,-2 1,-4l-13 0 -36 -1 -2 1 0 1c3,-2 23,-2 25,0 -1,4 -2,8 -3,13 -1,6 -3,6 -3,16 3,0 10,-1 12,0z"/>
    <path class="fil63" d="M1051 1902c3,4 37,17 44,18 0,-4 -1,-9 0,-13l0 -5c-3,-1 -9,-5 -12,-7 -2,-2 -4,-3 -5,-4 -4,-3 -3,-3 -6,-4 -2,0 -3,1 -4,2l-1 3c-4,-2 0,-2 -4,1 0,0 0,0 0,0 0,0 -1,1 -1,1l-4 3c-1,0 0,0 -1,0 -3,2 -5,1 -6,5z"/>
    <path class="fil64" d="M1266 1258c2,-1 -2,0 2,0 1,0 1,0 2,0 3,1 7,2 10,3l1 0c2,2 0,0 5,2l10 3c6,1 4,1 7,2 1,0 3,1 4,1l5 2c4,1 3,0 6,1 4,1 3,0 3,4 1,-2 0,-2 3,-3 0,-3 3,-6 4,-10 -2,-1 -1,0 -2,-1 -3,-1 -3,0 -5,-1l-10 -4c-2,0 -2,0 -5,-1 -5,-1 -2,-1 -7,-2 -1,-1 -2,-1 -3,-1 -5,-1 -4,-1 -8,-3 -4,-1 -10,-1 -13,-3 -5,-2 -6,-1 -8,-3l-4 1 3 13z"/>
    <path class="fil56" d="M1313 1371l-1 3c5,3 15,14 20,19l20 19c3,0 -1,0 2,0 3,-2 6,-7 8,-9l-2 0c-1,-3 -8,-9 -11,-11 -1,-2 -3,-4 -5,-5l-16 -16c0,0 -1,0 -1,0l-7 -7c-1,-1 -1,-2 -1,-3 -2,1 -3,3 -4,4 -1,3 -2,3 -2,6z"/>
    <path class="fil60" d="M1443 1659l50 1c2,-2 9,-3 13,-5 1,0 1,0 2,0l6 -2c16,-5 5,-4 26,-4l0 -1 -65 -2c-2,3 -6,3 -8,4 -3,1 -6,2 -9,3 -3,1 -6,2 -8,3 -6,2 -6,1 -7,3z"/>
    <path class="fil36" d="M1542 1102c16,-2 28,9 30,21 3,16 -8,28 -21,30 -34,6 -43,-45 -9,-51zm0 -4c-15,3 -28,17 -25,35 2,15 16,27 35,24 14,-2 27,-16 24,-34 -2,-15 -17,-28 -34,-25z"/>
    <path class="fil62" d="M1242 1216c2,1 30,5 37,6 3,1 3,1 7,2 5,0 9,2 15,2l0 1c0,0 0,0 0,0 0,0 0,0 1,1 2,0 4,-1 5,0 2,1 6,1 8,1l16 3c3,0 6,1 9,0l0 -6 -70 -12c-1,0 -3,-1 -4,-1 -4,0 -4,0 -5,-2 -4,2 -15,-2 -19,3 0,1 0,1 0,2z"/>
    <path class="fil31" d="M1057 1408c0,3 8,24 9,27 1,-2 1,-4 1,-9l0 -70 -10 -1c-1,8 0,18 0,27 0,8 0,18 0,26z"/>
    <path class="fil57" d="M1306 1381c-1,2 0,1 1,3l33 32c4,3 3,4 6,4 3,-1 7,-5 8,-8 -3,0 1,0 -2,0l-20 -19c-5,-5 -15,-16 -20,-19l1 -3c-2,1 -7,8 -7,10z"/>
    <path class="fil65" d="M1265 1311l22 21c0,0 1,1 1,1 1,1 0,0 1,1l15 14c0,0 0,0 0,0l9 9c2,2 1,2 4,2l4 -7 -18 -16c0,0 -1,-1 -1,-1 0,0 0,0 0,0l-4 -4c-1,-1 -2,-2 -3,-3 -3,-4 -3,-2 -7,-7 -1,-2 0,-1 -2,-2 -1,-1 0,1 -1,-1 -2,-3 -4,-4 -7,-7 -3,-3 -4,-4 -5,-6l-3 0c-1,1 0,0 -1,1 -2,1 -4,3 -4,5z"/>
    <path class="fil29" d="M1746 1318c4,7 48,28 60,31 -1,-2 -6,-6 -8,-8 -1,-1 -2,-1 -4,-3 -1,-1 -2,-2 -4,-4 -2,-1 -4,-4 -7,-5 -4,-3 -9,-7 -13,-10 -3,-2 -11,-8 -14,-9l0 2c-3,1 -5,4 -8,5l-2 1z"/>
    <path class="fil66" d="M1098 2014l0 5c-1,4 2,6 4,8 -5,1 -38,1 -47,1 -6,0 -5,0 -6,1l54 0 0 -1 2 -1 36 1c-2,-2 -5,-1 -8,-1 6,-1 12,-4 17,-5 2,-1 4,-2 6,-2 1,0 1,-1 1,-2 -9,0 -18,0 -28,0 -3,0 -10,0 -13,0 -6,-2 -4,-4 -7,-7 -4,0 -1,1 -4,2l-4 1c-3,0 1,1 -3,0z"/>
    <path class="fil44" d="M1096 1952c0,8 0,64 2,67l0 -5 0 -15c2,0 4,0 5,-1 1,0 2,0 3,-1 1,0 0,0 2,0l-1 -51c-3,1 1,2 -5,4l-3 1c-1,0 -1,0 -3,1z"/>
    <path class="fil67" d="M1257 1347c-2,2 -1,1 5,7 0,1 1,1 1,1l32 31c2,2 1,1 3,1 2,-1 5,-5 6,-7 -4,-1 -12,-10 -15,-13l-28 -27c-2,-2 -2,-1 -2,-4 0,5 -2,7 -2,11z"/>
    <path class="fil43" d="M1264 2058l7 0 4 -15c1,-5 2,-3 2,-7 0,-2 0,-3 1,-4 0,-2 0,-1 0,-3 1,0 1,-1 1,-1l-7 -1c-4,1 -8,0 -10,1 -3,1 -2,1 -3,5l-2 10c-1,4 0,2 -1,4 -1,1 -1,1 -1,2 -1,4 -2,5 -2,9l11 0z"/>
    <path class="fil31" d="M1263 1245l4 -1 11 -4c3,-1 9,-3 11,-6 -2,-3 -6,-2 -12,-3 -10,-2 -28,-6 -37,-6 1,6 4,11 7,14 6,6 7,4 16,6z"/>
    <path class="fil30" d="M1268 1193c2,1 1,-1 2,1l9 0 0 2c2,0 4,0 6,0 3,0 3,1 3,1 2,1 3,0 7,1 2,1 0,1 4,1 8,-1 6,0 6,2 3,0 6,-1 8,0l3 1c0,0 1,0 1,0 10,0 4,0 8,1 0,0 0,0 1,0 0,0 0,0 0,0 0,0 0,0 1,1 2,0 1,0 3,-1 3,-8 -8,-15 -15,-17 -11,-3 -17,4 -22,9 -3,0 -5,-5 -11,-6 -4,0 -12,1 -14,4z"/>
    <path class="fil24" d="M1619 1336l10 1c1,-2 0,-1 0,-1l0 -1c-1,0 -1,-1 -1,-1l10 -5c0,0 0,0 0,0 0,-1 0,-1 0,-1 3,-2 3,0 9,-5l4 -3c0,0 0,0 1,0l4 -4c2,0 1,0 2,0 4,-2 1,-2 5,-4l3 -1c2,-1 6,-5 9,-6l7 -5c0,0 0,0 0,0 0,0 1,0 1,-1l19 -12c3,-2 1,-1 4,-2l0 -1c-2,0 -5,-1 -7,-3 -1,4 -3,3 -7,6 -1,0 -1,1 -1,1 -1,0 -1,0 -2,1l-46 29c0,0 0,0 0,1l-24 15 0 2z"/>
    <path class="fil60" d="M1066 1435c1,4 4,15 7,17 1,-13 0,-33 0,-48 0,-15 0,-31 0,-47l3 0c-2,-2 -6,-1 -9,-1l0 70c0,5 0,7 -1,9z"/>
    <path class="fil20" d="M1270 1267c1,5 5,12 8,15 4,4 6,4 10,6 3,2 1,0 3,3l0 -2c10,1 13,-2 20,-5 1,-1 3,-2 4,-3l0 -2c-8,0 0,0 -7,-2 -4,0 3,2 -1,0l-7 -2c0,0 0,0 0,0l-4 -1c-1,-1 2,3 -1,0 0,0 0,-1 0,-1l-7 -2c-2,0 -2,0 -4,0l-1 -1c-3,-2 -5,-3 -9,-3 -3,-1 -2,0 -4,0z"/>
    <path class="fil37" d="M1260 1206l1 5c1,2 1,2 5,2 1,0 3,1 4,1l70 12c2,0 5,-3 6,-5 -7,-1 -14,-3 -22,-4l-33 -6c-3,-1 -29,-6 -31,-5z"/>
    <path class="fil65" d="M1319 1361c0,1 0,2 1,3l7 7c0,0 1,0 1,0l16 16c2,1 4,3 5,5 3,2 10,8 11,11l2 0c1,-2 2,-2 3,-4 0,-1 1,-2 2,-2 -3,-2 -2,-3 -5,-5l-4 -4c-1,-1 0,0 -1,-1 -1,-1 0,0 -2,-1l-33 -33c-1,1 -1,2 -2,3 -1,3 -1,2 -1,5z"/>
    <path class="fil3" d="M1019 1553c2,1 2,2 4,3 2,0 5,-1 7,-1 3,-1 8,-2 11,-3 0,0 1,0 1,0 0,0 0,-1 0,-1l11 -15c-3,1 -3,1 -4,-1l-1 0c-7,-1 -8,-4 -12,-6 -3,-1 -3,-1 -3,-3 -2,2 -7,10 -8,13 -2,4 -5,9 -6,14z"/>
    <path class="fil1" d="M1509 1768c2,2 10,2 13,1 4,-1 2,-5 1,-9 -2,-7 -1,-4 2,-8 2,-3 2,-7 1,-10 -4,-11 -22,-7 -20,5 1,5 3,6 5,8 0,2 -1,5 -1,7 -1,3 -2,4 -1,6z"/>
    <path class="fil67" d="M1300 1389l4 5c0,0 0,0 0,0l10 10c2,1 0,0 4,4 1,0 1,0 1,1 1,0 1,0 1,0l0 1c1,0 1,1 1,1l11 11c1,0 1,0 2,1l2 3c4,-1 -1,0 3,0 2,0 0,0 2,-1 0,0 2,-1 2,-2 1,-1 2,-2 3,-3 -3,0 -2,-1 -6,-4l-33 -32c-1,-2 -2,-1 -1,-3 -2,1 -2,2 -3,4 -1,0 -1,1 -2,2 -2,2 -1,0 -1,2z"/>
    <path class="fil31" d="M1092 1731l-1 3c-1,5 0,17 0,22 0,6 0,30 1,33l1 0 0 -15c2,0 7,-2 8,-2 0,3 0,3 2,5l-2 -48c-1,-1 -1,2 -1,-1 -3,1 -6,1 -8,3z"/>
    <path class="fil68" d="M1188 2028c0,3 0,3 -1,7 0,2 0,2 -1,3 -2,4 -3,14 -4,19 0,0 0,0 0,0l1 1 27 0 -12 0c0,-2 0,-4 1,-5 1,-2 -1,-1 1,-1l2 -13c2,-11 2,-8 3,-11l-12 -1c0,0 0,0 0,0l1 0c-2,0 -1,-1 -2,1l-4 0z"/>
    <path class="fil66" d="M1237 2058l27 0 -11 0c0,-4 1,-5 2,-9 0,-1 0,-1 1,-2 1,-2 0,0 1,-4l2 -10c1,-4 0,-4 3,-5 2,-1 6,0 10,-1l-27 0 -3 7c-1,3 0,6 -1,8 -1,2 0,0 -1,3 -2,9 -3,7 -3,13z"/>
    <path class="fil69" d="M1677 2058l16 0c1,-4 2,-10 4,-14 0,-3 0,-6 1,-8 1,-3 2,0 2,-8l-16 0c-1,3 -1,5 -2,7l-4 16c-1,7 -3,3 -1,7z"/>
    <path class="fil70" d="M1324 2027l58 0c1,-2 -1,-1 5,-3l19 -6 -58 0 0 2c-5,1 -3,1 -5,2l-10 3c0,0 0,0 0,0l-9 2z"/>
    <path class="fil16" d="M1558 1262l11 0 2 -2c1,0 1,0 1,0l17 -19c6,-7 4,-2 5,-7 0,0 -1,0 -2,0 0,0 0,1 0,1 -1,-1 -1,0 -1,0 -3,0 -9,3 -13,4 -4,1 -9,2 -14,3l-9 20 3 0z"/>
    <path class="fil60" d="M1240 1225c9,0 27,4 37,6 6,1 10,0 12,3l2 0c3,-3 9,-4 11,-6 -1,-1 -1,-1 -1,-1 0,0 0,0 0,0l0 -1c-6,0 -10,-2 -15,-2 -4,-1 -4,-1 -7,-2 -7,-1 -35,-5 -37,-6 -2,1 -2,1 -2,4 -1,2 0,3 0,5z"/>
    <path class="fil3" d="M1774 1200c-16,3 -11,27 6,24 5,-2 10,-8 9,-15 -2,-6 -7,-11 -15,-9z"/>
    <path class="fil37" d="M1094 1848c-2,7 0,43 1,54l0 5c1,-5 1,-15 1,-20 3,0 4,-2 8,-2 0,0 0,2 0,2 1,3 0,1 1,3l0 -18c-2,1 -3,1 -5,2 -1,0 -1,0 -3,1 -2,0 -1,-1 -1,1l-1 -3c0,-1 0,-2 0,-3 0,-1 0,-3 0,-4 0,-3 0,-7 0,-10 1,-1 2,-1 4,-2 1,0 3,-1 4,-1 0,0 0,2 1,2 0,2 0,1 1,2l-1 -32c-3,1 -7,3 -10,4 0,5 1,14 0,19z"/>
    <path class="fil35" d="M1814 1296c-3,1 -4,2 -7,5l-9 11c0,0 0,0 0,0l-9 10c-1,1 -1,2 -2,3 0,0 -1,1 -2,2 -1,1 0,1 -2,2 3,1 5,4 7,5 0,0 0,0 1,0l3 -4c1,0 0,0 1,-1l1 -1c0,0 0,0 0,0 1,-1 1,-1 1,-2 5,-4 2,-2 5,-5 0,0 0,0 0,0 0,-1 0,-1 1,-1l2 -2c1,-1 1,-1 2,-2 0,0 0,0 0,0 2,-2 2,-4 6,-7l8 -10c0,0 0,0 0,0l5 -5c-2,-3 1,-1 -2,-1 -3,1 -6,4 -10,4l0 -1z"/>
    <path class="fil68" d="M1713 1870l0 30 14 -8c0,7 0,13 0,19 0,6 -1,12 0,17l1 0 0 -1 0 -12c0,-6 1,-21 0,-27 -1,-5 -1,-15 -1,-21 -2,1 -3,2 -6,3l-7 2c1,-2 1,-2 -1,-2z"/>
    <path class="fil71" d="M1493 1660l52 2 -5 -13c-21,0 -10,-1 -26,4l-6 2c-1,0 -1,0 -2,0 -4,2 -11,3 -13,5z"/>
    <path class="fil61" d="M1266 1258l4 9c2,0 1,-1 4,0 4,0 6,1 9,3l1 1c2,0 2,0 4,0l7 2c0,0 0,1 0,1 3,3 0,-1 1,0l4 1c0,0 0,0 0,0l7 2c4,2 -3,0 1,0 7,2 -1,2 7,2l0 2c3,-1 4,-3 6,-5 0,-4 1,-3 -3,-4 -3,-1 -2,0 -6,-1l-5 -2c-1,0 -3,-1 -4,-1 -3,-1 -1,-1 -7,-2l-10 -3c-5,-2 -3,0 -5,-2l-1 0c-3,-1 -7,-2 -10,-3 -1,0 -1,0 -2,0 -4,0 0,-1 -2,0z"/>
    <path class="fil36" d="M1774 1200c8,-2 13,3 15,9 1,7 -4,13 -9,15 -17,3 -22,-21 -6,-24zm-1 -4c-21,5 -14,37 8,32 20,-6 13,-37 -8,-32z"/>
    <path class="fil24" d="M950 1765c0,3 0,7 2,8l0 -2c0,0 0,-1 0,0 0,0 1,-1 1,-1l7 -5c0,0 1,0 1,0l5 -4c1,0 1,0 1,0l8 -5c4,-2 2,-2 4,-3 2,-1 1,0 4,-2l1 -1c1,-1 1,0 2,-1l7 -5c0,0 0,0 0,0l6 -4c0,0 1,0 1,0l3 1c1,1 0,0 1,1l0 -11 -48 30c-2,1 -5,3 -6,4z"/>
    <path class="fil3" d="M1003 1665c-2,1 -3,1 -5,2 -2,1 -3,2 -5,2 -1,1 0,0 -1,1 -1,1 -1,1 -2,1 -1,0 -1,0 -2,0 -3,2 -8,4 -11,3 -2,3 -10,2 -13,1 -4,-3 -4,-7 -5,-12 -1,0 -5,4 -6,6 -2,2 -5,4 -3,9 4,10 34,0 43,-5 6,-3 14,-8 17,-12 -3,1 -5,3 -7,4z"/>
    <path class="fil71" d="M1576 2058l23 0c-2,-1 -8,0 -11,0 0,-4 1,-6 1,-9 1,-1 1,-2 1,-3 1,-3 1,0 1,-3l3 -15 -10 0 -3 11c0,1 -1,3 -1,4 -1,5 -3,10 -4,15z"/>
    <path class="fil51" d="M1049 1385c0,4 3,9 4,12 0,2 1,4 2,6l1 4c1,1 1,1 1,1 0,-8 0,-18 0,-26 0,-9 -1,-19 0,-27l-3 -1 -5 0c0,11 0,21 0,31z"/>
    <path class="fil59" d="M1221 1407c0,1 1,1 1,1 1,-1 0,0 1,-1 0,0 1,-1 1,-1l2 -2c4,-3 3,-2 5,-4 0,0 0,0 0,0l11 -9c4,-4 7,-3 6,-7 -1,-3 -3,-4 -6,-6 -2,-2 -4,-4 -7,-5 0,4 -4,14 -6,18 -2,5 -7,12 -8,16z"/>
    <path class="fil59" d="M1290 1292l1 7c0,2 0,3 1,5l0 -3 19 -2c5,-1 17,-3 20,-2 0,-1 -2,-1 1,-1 -2,-2 -1,1 -2,-3 -1,-1 -1,-2 -2,-4 -3,0 -7,1 -11,1 -5,1 -5,-1 -9,1 -3,1 -6,2 -9,1 -4,-1 -2,0 -4,0 -1,0 -3,0 -5,0z"/>
    <path class="fil54" d="M1090 1674c-1,3 -1,28 0,30 1,-3 1,-8 1,-11l8 -3c0,1 0,3 0,4 0,4 1,3 2,5 0,-6 -1,-12 -1,-18 0,-3 0,-7 0,-10 0,-3 1,-5 1,-8l-1 -1c-2,1 -7,3 -9,2 -2,0 -1,1 -1,-1 0,4 1,7 0,11z"/>
    <path class="fil24" d="M1266 1569c5,5 17,3 22,-1 6,-4 8,-10 10,-19 -5,0 -7,3 -9,5l-8 5c-2,1 -3,2 -4,3 -1,0 -1,0 -2,1l-2 1c-1,0 -2,1 -2,2 -4,2 -5,2 -5,3z"/>
    <path class="fil64" d="M1145 1463c-1,1 -3,3 -4,4 -1,2 0,0 -1,1 -1,1 -1,1 -1,2 -1,1 -2,2 -2,3 -1,2 0,2 2,1l6 0 1 1 0 -1 -4 -1c4,-2 13,-10 16,-11 1,-1 2,-1 2,-2l11 -7c1,-2 2,-2 3,-4 -6,-3 -12,-1 -17,2 -3,2 -5,4 -7,6 -2,2 -3,4 -5,6z"/>
    <path class="fil55" d="M1193 1472l2 1 5 0 -1 6c-3,0 -3,0 -5,1 7,0 34,0 39,-2 1,-2 1,-3 1,-5 -3,-4 -4,-3 -9,-3 -4,0 -7,0 -11,1 -4,0 -19,0 -21,1z"/>
    <path class="fil18" d="M999 1640c-2,3 0,2 -2,4l5 7c0,0 1,0 1,0l6 7c0,0 0,1 0,1 2,2 -1,-1 1,1 4,0 12,-9 13,-12 -8,0 -12,-3 -11,-11 -2,0 -11,2 -13,3z"/>
    <path class="fil51" d="M1090 1704c-1,3 0,28 1,30l1 -3c0,-3 -1,-10 0,-12 1,-1 7,-3 9,-3l0 -17c-1,-2 -2,-1 -2,-5 0,-1 0,-3 0,-4l-8 3c0,3 0,8 -1,11z"/>
    <path class="fil72" d="M1257 1565l0 1 9 3c0,-1 1,-1 5,-3 0,-1 1,-2 2,-2l2 -1c1,-1 1,-1 2,-1 1,-1 2,-2 4,-3l8 -5c2,-2 4,-5 9,-5l3 -10 -3 1c-1,1 -2,1 -3,2l-27 18c-8,5 -5,5 -11,5z"/>
    <path class="fil67" d="M1334 1432l9 10c3,2 1,1 4,2 3,-2 3,-3 5,-6 1,-1 1,-2 2,-3 1,-2 1,-2 2,-4 -3,-2 -8,-7 -9,-10 -2,1 -4,4 -7,6 -1,1 -6,4 -6,5z"/>
    <path class="fil60" d="M1307 1228c1,5 3,7 3,12 1,3 0,3 2,4 4,0 2,0 4,-2 1,-4 2,-7 6,-8 4,1 5,3 5,7 2,-1 0,-1 2,-1 0,0 3,0 3,0 2,1 5,1 6,2l2 -10c-3,1 -6,0 -9,0l-16 -3c-2,0 -6,0 -8,-1z"/>
    <path class="fil49" d="M1095 1907c-1,4 0,9 0,13 0,4 -1,9 1,11l0 -1 0 -20c8,1 2,-1 9,-1 0,3 0,3 1,4l-1 -23c-1,-2 0,0 -1,-3 0,0 0,-2 0,-2 -4,0 -5,2 -8,2 0,5 0,15 -1,20z"/>
    <path class="fil68" d="M987 1645c0,2 0,1 0,2 1,1 2,1 2,1 0,2 -3,0 1,3 2,2 0,2 2,4 2,3 1,0 4,3 1,1 1,1 1,1 2,3 2,2 0,4 5,0 0,1 6,2 2,-1 4,-3 7,-4l0 -1c-2,-2 1,1 -1,-1 0,0 0,-1 0,-1l-6 -7c0,0 -1,0 -1,0l-5 -7c2,-2 0,-1 2,-4 -3,1 -11,4 -12,5z"/>
    <path class="fil70" d="M1713 1900l-1 29 1 -2c1,-3 1,-8 1,-12l10 -3c1,0 2,0 3,-1 0,-6 0,-12 0,-19l-14 8z"/>
    <path class="fil30" d="M1096 1930l0 1c-1,5 0,15 0,21 2,-1 2,-1 3,-1l3 -1c6,-2 2,-3 5,-4l0 -20 0 4c-2,-1 -2,2 -2,-3 -2,0 -7,1 -9,3z"/>
    <path class="fil44" d="M964 1659c0,3 4,6 6,8 1,2 2,3 3,5 2,3 0,1 4,2 3,1 8,-1 11,-3l-3 0 -12 -18c-3,1 -3,1 -5,3 -1,0 -1,0 -2,1 -2,1 -1,1 -2,2z"/>
    <path class="fil73" d="M1054 1354l3 1 10 1c3,0 7,-1 9,1 3,-1 8,-1 10,0 2,0 7,0 9,1l2 0c-3,-4 -26,-12 -33,-12l-5 9 -5 -1z"/>
    <path class="fil62" d="M1093 1815c-1,4 0,30 1,33 1,-5 0,-14 0,-19 3,-1 7,-3 10,-4l-1 -14c-1,-1 -1,-1 -1,-4l-5 1c0,0 0,0 0,0 -1,1 -1,1 -1,1l-2 1 -1 5z"/>
    <path class="fil74" d="M979 1649l2 4c0,0 1,0 1,0l5 8c0,0 0,0 0,0l2 3c2,2 4,1 4,5 2,0 3,-1 5,-2 2,-1 3,-1 5,-2 -6,-1 -1,-2 -6,-2 2,-2 2,-1 0,-4 0,0 0,0 -1,-1 -3,-3 -2,0 -4,-3 -2,-2 0,-2 -2,-4 -4,-3 -1,-1 -1,-3 0,0 -1,0 -2,-1 0,-1 0,0 0,-2 -3,1 -6,2 -8,4z"/>
    <path class="fil71" d="M1093 1815l1 -5 2 -1c0,0 0,0 1,-1 0,0 0,0 0,0l5 -1c0,3 0,3 1,4l0 -21c-4,0 -6,2 -10,3l0 -4 -1 0c0,4 0,24 1,26z"/>
    <path class="fil67" d="M1240 1343l13 11c-1,-3 2,-10 3,-14 0,-4 2,-4 3,-4l-2 -1c0,0 0,0 0,0 -1,0 -1,0 -1,0 -1,0 -1,-1 -2,-2 -2,-1 -2,-2 -4,-3l-10 13z"/>
    <path class="fil50" d="M1105 1872l0 -15c-1,-1 -1,0 -1,-2 -1,0 -1,-2 -1,-2 -1,0 -3,1 -4,1 -2,1 -3,1 -4,2 0,3 0,7 0,10 0,1 0,3 0,4 0,1 0,2 0,3l1 3c0,-2 -1,-1 1,-1 2,-1 2,-1 3,-1 2,-1 3,-1 5,-2z"/>
    <path class="fil3" d="M1085 1411c2,-2 3,-3 2,-8 -1,-3 -3,-6 -4,-8 0,0 -10,-8 -10,3 0,3 1,5 2,7 2,3 5,6 10,6z"/>
    <path class="fil61" d="M1294 1307c2,3 14,3 19,3 3,0 6,-1 9,-2 3,-1 6,-3 8,-4 1,-1 1,-1 2,-3 -3,0 -8,1 -11,1 -3,0 -6,2 -9,2 -2,0 -16,0 -18,3z"/>
    <path class="fil62" d="M1540 2058l2 0c2,-1 8,-29 8,-29l-6 0c0,0 0,0 0,0l-2 4c0,1 0,1 0,3 -2,7 -5,15 -5,22 3,-1 1,-1 3,0z"/>
    <path class="fil11" d="M1914 1699c4,1 1,0 4,-1l16 -10c3,-2 1,0 2,-3l-11 -7c-1,2 -2,3 -3,5 0,2 -1,3 -2,5 -2,3 -5,8 -6,11z"/>
    <path class="fil64" d="M1292 1304c0,2 0,2 2,3 2,-3 16,-3 18,-3 3,0 6,-2 9,-2 3,0 8,-1 11,-1l-1 -4c-3,-1 -15,1 -20,2l-19 2 0 3z"/>
    <path class="fil58" d="M1311 1284c-7,3 -10,6 -20,5l0 2 -1 1c2,0 4,0 5,0 2,0 0,-1 4,0 3,1 6,0 9,-1 4,-2 4,0 9,-1 4,0 8,-1 11,-1 0,-2 -1,-5 -2,-6 -4,-1 -9,1 -14,1 1,1 0,1 -1,0z"/>
    <path class="fil48" d="M1096 1930c2,-2 7,-3 9,-3 0,5 0,2 2,3l0 -4 -1 -13c-1,-1 -1,-1 -1,-4 -7,0 -1,2 -9,1l0 20z"/>
    <path class="fil43" d="M973 1653l12 18 3 0c1,0 1,0 2,0 1,0 1,0 2,-1 1,-1 0,0 1,-1 0,-4 -2,-3 -4,-5l-2 -3c0,0 0,0 0,0l-5 -8c0,0 -1,0 -1,0l-2 -4c-2,1 -5,2 -6,4z"/>
    <path class="fil60" d="M1093 1789l0 4c4,-1 6,-3 10,-3l0 -13c-2,-2 -2,-2 -2,-5 -1,0 -6,2 -8,2l0 15z"/>
    <path class="fil54" d="M1049 1385l0 0c0,-10 0,-20 0,-31 -10,0 -9,6 -7,14 2,6 5,12 7,17z"/>
    <path class="fil33" d="M1713 1870c2,0 2,0 1,2l7 -2c3,-1 4,-2 6,-3 0,6 0,16 1,21l1 0c-2,-4 -1,-18 0,-23 -4,-3 -12,-7 -15,-10l-1 15z"/>
    <path class="fil43" d="M1098 2014c4,1 0,0 3,0l4 -1c3,-1 0,-2 4,-2l-1 -14c-2,0 -1,0 -2,0 -1,1 -2,1 -3,1 -1,1 -3,1 -5,1l0 15z"/>
    <path class="fil44" d="M1039 1517c0,3 1,3 4,5 5,5 8,10 12,10 2,-1 3,-3 4,-5 -3,0 -10,-11 -16,-13 -2,0 -1,0 -3,1 -2,2 0,0 -1,2z"/>
    <path class="fil75" d="M1549 1671l-1 -3c-8,0 -16,-1 -24,-1 -4,0 -8,0 -11,0 -5,0 -10,-1 -13,0 0,4 1,3 10,3 4,0 9,0 13,0 9,1 18,1 26,1z"/>
    <path class="fil57" d="M1347 1421c1,3 6,8 9,10 2,-2 6,-8 8,-12 -3,1 -6,-1 -8,-3l-1 -3c-2,2 -6,6 -8,8z"/>
    <path class="fil18" d="M1058 1503c2,1 4,3 6,5l4 4c1,1 -1,0 2,1l7 -9c-10,-4 -6,-5 -10,-6 -3,1 -8,3 -9,5z"/>
    <path class="fil30" d="M959 1663c1,5 1,9 5,12 3,1 11,2 13,-1 -4,-1 -2,1 -4,-2 -1,-2 -2,-3 -3,-5 -2,-2 -6,-5 -6,-8 -3,1 -3,1 -5,4z"/>
    <path class="fil33" d="M1047 1510c3,2 10,11 14,14l5 -6 -10 -10c-2,-1 -2,-1 -2,-2 -3,0 -6,3 -7,4z"/>
    <path class="fil65" d="M1364 1404c0,3 1,2 2,5l3 -1c3,-4 8,-14 8,-18 -3,-1 -1,1 -3,-2 -2,2 -3,5 -5,8 -2,2 -5,5 -5,8z"/>
    <path class="fil76" d="M1729 1945l14 -15c0,0 0,0 0,-1 -14,0 -15,-2 -14,12l0 4c0,0 0,0 0,0z"/>
    <path class="fil58" d="M1291 1234c3,1 2,0 6,2 1,0 1,0 1,0 1,0 2,0 2,0 7,2 5,2 10,4 0,-5 -2,-7 -3,-12 -1,-1 -3,0 -5,0 -2,2 -8,3 -11,6z"/>
    <path class="fil69" d="M1092 1731c2,-2 5,-2 8,-3 0,3 0,0 1,1l0 -13c-2,0 -8,2 -9,3 -1,2 0,9 0,12z"/>
    <path class="fil56" d="M1355 1413l1 3c2,2 5,4 8,3l5 -11 -3 1c-1,-3 -2,-2 -2,-5 -2,1 -3,2 -4,4 -2,2 -4,4 -5,5z"/>
    <path class="fil0" d="M1134 1466l7 1c1,-1 3,-3 4,-4 -3,-3 -5,-5 -8,-7 -2,-2 -2,-2 -4,-4 -1,-1 -2,-1 -4,-3l5 17z"/>
    <path class="fil31" d="M1327 1241c0,2 0,1 0,3 0,1 -1,1 -1,1 0,2 0,2 -1,4 2,2 8,2 11,2l2 -9c-1,-1 -4,-1 -6,-2 0,0 -3,0 -3,0 -2,0 0,0 -2,1z"/>
    <path class="fil51" d="M1326 1262c1,1 0,0 2,1 3,-1 7,-8 8,-12 -3,0 -9,0 -11,-2 -5,3 -1,7 1,13z"/>
    <path class="fil30" d="M1037 1520l-1 3c2,1 10,9 12,11l-1 0c2,0 0,0 1,1l1 0c4,1 5,1 6,-3 -4,0 -7,-5 -12,-10 -3,-2 -4,-2 -4,-5 -1,1 0,0 -1,1 -2,2 -1,0 -1,2z"/>
    <path class="fil77" d="M1367 1397c-1,0 -2,1 -2,2 -1,2 -2,2 -3,4 -2,2 -5,7 -8,9 -1,3 -5,7 -8,8 -1,1 -2,2 -3,3 0,1 -2,2 -2,2 -2,1 0,1 -2,1 -1,2 -7,5 -10,6 -1,2 -2,2 -4,3 -2,-2 -2,-4 -5,-5 1,2 3,4 4,6 3,0 6,-3 10,-4 0,-1 5,-4 6,-5 3,-2 5,-5 7,-6 2,-2 6,-6 8,-8 1,-1 3,-3 5,-5 1,-2 2,-3 4,-4 0,-3 3,-6 5,-8 2,-3 3,-6 5,-8 0,-3 1,-2 -1,-3 -1,4 -5,8 -6,12z"/>
    <path class="fil70" d="M1054 1506c0,1 0,1 2,2l10 10c1,-1 1,-1 2,-2 1,-2 1,-2 2,-3 -3,-1 -1,0 -2,-1l-4 -4c-2,-2 -4,-4 -6,-5 -2,1 -3,1 -4,3z"/>
    <path class="fil43" d="M1043 1514c6,2 13,13 16,13 2,-1 2,-1 2,-3 -4,-3 -11,-12 -14,-14 -2,1 -1,0 -3,2l-1 1c0,0 0,0 0,1z"/>
    <path class="fil16" d="M1225 1446c1,0 0,1 4,-1 4,-2 9,-4 11,-7l3 -12c-1,-1 1,-1 -1,0l-12 15c-1,1 -4,4 -5,5z"/>
    <path class="fil48" d="M1151 1483l10 -1c0,-4 1,-4 1,-7l-3 -1c-4,-1 -9,0 -13,0l0 1c3,0 4,0 7,0 -1,3 -1,6 -2,8z"/>
    <path class="fil31" d="M1182 1481l11 -1c1,-1 1,-2 1,-4 1,-1 1,-2 1,-3l-2 -1 -7 0c-2,0 -3,0 -4,1l3 0c0,2 0,3 -1,5 0,0 -1,1 -1,1l-1 2z"/>
    <path class="fil77" d="M1321 1352l-4 7c-1,2 -5,9 -6,10 -2,3 -5,8 -7,11 -1,2 -4,6 -6,7 -1,4 -3,4 -4,8 4,-3 2,-3 6,-6 0,-2 -1,0 1,-2 1,-1 1,-2 2,-2 1,-2 1,-3 3,-4 0,-2 5,-9 7,-10 0,-3 1,-3 2,-6 1,-1 2,-3 4,-4 0,-3 0,-2 1,-5 1,-1 1,-2 2,-3 2,-4 1,-2 1,-4 0,0 0,0 0,-1 -2,2 -2,2 -2,4z"/>
    <path class="fil78" d="M1033 1526c0,2 0,2 3,3 4,2 5,5 12,6 -1,-1 1,-1 -1,-1l1 0c-2,-2 -10,-10 -12,-11l1 -3c-2,1 -4,4 -4,6z"/>
    <path class="fil58" d="M1316 1242c2,-1 3,0 5,1 1,0 2,0 3,0 3,1 1,0 2,2 0,0 1,0 1,-1 0,-2 0,-1 0,-3 0,-4 -1,-6 -5,-7 -4,1 -5,4 -6,8z"/>
    <path class="fil50" d="M1161 1482l7 0c0,0 0,-1 0,-1l2 -1c0,0 0,0 0,0l2 -7 -13 1 3 1c0,3 -1,3 -1,7z"/>
    <path class="fil52" d="M1321 1276c-2,2 -3,4 -6,5 -1,1 -3,2 -4,3 1,1 2,1 1,0 5,0 10,-2 14,-1 0,-3 -2,-7 -2,-10 -3,1 -2,1 -3,3z"/>
    <path class="fil37" d="M1172 1473l-2 7c0,0 0,0 0,0l-2 1c0,0 0,1 0,1l10 -1c0,-2 0,-3 1,-4 0,-3 0,-1 1,-5l-8 1z"/>
    <path class="fil44" d="M1142 1483l9 0c1,-2 1,-5 2,-8 -3,0 -4,0 -7,0l-1 -1c-1,3 -1,7 -3,9z"/>
    <path class="fil79" d="M1689 1235c0,-1 0,-2 0,-3 -1,-3 -1,-3 -3,-4 -2,3 0,7 2,9l2 2c2,-1 8,-9 7,-11 -3,0 -3,2 -4,3 -1,2 -3,3 -4,4z"/>
    <path class="fil0" d="M1100 1480l-9 -1 0 9c2,-1 3,-2 5,-4 2,-1 3,-2 4,-4z"/>
    <path class="fil43" d="M1136 1483l6 0c2,-2 2,-6 3,-9l-6 0c0,3 0,2 0,3 -1,4 -2,6 -2,6 -1,0 -1,0 -1,0z"/>
    <path class="fil60" d="M1178 1481l4 0 1 -2c0,0 1,-1 1,-1 1,-2 1,-3 1,-5l-3 0 -2 -1c-1,4 -1,2 -1,5 -1,1 -1,2 -1,4z"/>
    <path class="fil80" d="M1534 947c1,3 0,2 7,1 1,0 3,0 4,0 3,0 2,0 2,-2 -2,-1 -9,-1 -11,0 -3,0 -1,0 -2,1z"/>
    <path class="fil81" d="M1193 1480l1 0c2,-1 2,-1 5,-1l1 -6 -5 0c0,1 0,2 -1,3 0,2 0,3 -1,4z"/>
    <path class="fil3" d="M1463 1286l3 3c1,1 8,5 10,3 0,-3 0,-1 -7,-5 -3,-1 -2,0 -3,-2 -2,0 -1,0 -3,1z"/>
    <path class="fil82" d="M1670 993l-1 -1c-2,1 0,0 -2,1 1,3 3,3 5,5 2,2 3,4 6,5 0,-6 -5,-6 -8,-10z"/>
    <path class="fil82" d="M1631 968c0,-3 1,-2 -5,-5 -2,0 -6,-3 -7,-2 -2,3 10,7 12,7z"/>
    <path class="fil83" d="M1516 1304c1,2 0,1 3,2 2,1 9,2 11,0 -2,-2 1,-1 -6,-2 -2,0 -3,-1 -4,-1 -3,0 -3,0 -4,1z"/>
    <path class="fil79" d="M1721 1077c1,-2 0,-4 -1,-7 -1,-3 -1,-5 -4,-6 -1,2 0,4 1,7 2,6 1,6 4,6z"/>
    <path class="fil79" d="M1758 1301c0,2 -1,2 2,3 1,0 3,0 5,0 3,1 6,2 6,-2 -2,0 -11,-2 -13,-1z"/>
    <path class="fil82" d="M1693 1024l3 1c0,-2 0,-2 0,-4 -2,0 -1,0 -2,-1 -3,-4 -3,-6 -6,-6 -1,3 4,6 5,10z"/>
    <path class="fil79" d="M1505 952c2,1 8,0 11,-1 3,-1 1,0 2,-2 -1,-2 -13,0 -13,3z"/>
    <path class="fil82" d="M1408 1013c3,0 4,-3 8,-7 3,-3 1,-6 -4,1 -4,4 -5,3 -4,6z"/>
    <path class="fil82" d="M1451 975c3,1 6,-2 10,-5 2,-1 2,0 2,-3 -2,0 -11,5 -12,8z"/>
    <path class="fil82" d="M1563 947c1,2 -2,2 6,3 3,0 5,1 7,-1 0,-1 2,-1 -5,-2 -4,-1 -6,-1 -8,0z"/>
    <path class="fil3" d="M1491 1300c3,0 8,3 11,1 0,-2 -1,-2 -4,-2 -1,-1 -3,-1 -5,-2l-3 -1c-1,2 0,2 1,4z"/>
    <path class="fil82" d="M1477 961c2,1 12,-2 13,-5 -2,-1 -4,0 -7,1 -6,3 -5,2 -6,4z"/>
    <path class="fil82" d="M1713 1280l4 3c0,0 1,0 1,0 1,0 1,0 1,0 1,-3 -2,-1 -3,-5 -3,-2 -3,-5 -7,-4 0,3 2,2 4,6z"/>
    <path class="fil82" d="M1436 984c-1,0 -1,1 -2,2 -1,1 -2,1 -3,2 -1,1 -3,2 -3,4 3,1 4,-1 6,-3 1,-1 3,-3 5,-4l0 -2c-2,0 -2,0 -3,1z"/>
    <path class="fil82" d="M1712 1146c4,0 1,0 6,-4 4,-3 5,-3 4,-5 0,0 0,-2 -3,0 -2,2 -7,5 -7,9z"/>
    <path class="fil82" d="M1655 983c2,-2 2,-1 -4,-5 -2,-1 -4,-3 -6,-3 -1,4 10,8 10,8z"/>
    <path class="fil3" d="M1544 1307c2,2 11,2 13,0 -1,-3 -4,-2 -7,-2 -3,0 -6,0 -6,2z"/>
    <path class="fil79" d="M1704 1038c0,1 -1,1 0,3 1,1 2,3 2,4 3,5 2,5 5,5 0,-2 -4,-13 -7,-12z"/>
    <path class="fil79" d="M1761 1120c2,2 8,1 11,0 3,0 2,0 3,-2 -2,-1 -8,0 -11,0 -3,1 -2,0 -3,2z"/>
    <path class="fil82" d="M1591 952c1,3 3,2 6,3 3,1 5,2 8,1 -1,-3 -12,-5 -14,-4z"/>
    <path class="fil82" d="M1698 1256c-3,-6 -2,-5 -5,-6 0,3 4,12 7,12 1,-2 -1,-4 -2,-6z"/>
    <path class="fil79" d="M1786 1303c2,2 4,1 8,1 3,-1 5,-1 6,-3 -2,-2 -4,0 -7,0 -7,1 -6,0 -7,2z"/>
    <path class="fil79" d="M1817 1127c-2,2 2,3 4,4 1,1 5,4 7,3 2,-2 -10,-7 -10,-7 -3,0 -1,-1 -1,0z"/>
    <path class="fil82" d="M1789 1120c1,2 -2,0 6,2 3,1 5,2 7,0 0,-2 0,-1 -6,-3 -2,0 -6,-2 -7,1z"/>
    <path class="fil82" d="M1838 1279l0 3c3,-1 3,-2 8,-7 1,-1 1,-1 2,-4l-3 1c-1,1 -6,6 -7,7z"/>
    <path class="fil82" d="M1732 1291l0 0 -1 2 9 4c2,1 2,2 4,0 -1,-2 -3,-2 -6,-3 -2,-1 -4,-3 -6,-3z"/>
    <path class="fil82" d="M1816 1294l-2 1c-1,0 0,0 0,1l0 1c4,0 7,-3 10,-4 1,-1 -1,-1 1,-1l1 -2c-4,0 -4,0 -6,2 -2,1 -3,1 -4,2z"/>
    <path class="fil3" d="M1624 1289c3,2 4,1 7,-1 3,-1 5,-2 5,-4 -2,-2 -5,1 -9,3 -2,1 -2,0 -3,2z"/>
    <path class="fil79" d="M1392 1214c-3,-5 -2,-5 -5,-5 -1,2 1,4 2,6 2,3 2,5 5,5 1,-2 -1,-4 -2,-6z"/>
    <path class="fil82" d="M1450 1276c-3,-1 -7,-5 -9,-5 -2,3 2,4 4,5 2,2 4,4 7,4 0,-3 0,-2 -2,-4z"/>
    <path class="fil3" d="M1572 1306c1,0 12,0 13,-3 -2,-1 -9,0 -11,1 -2,0 -2,0 -2,2z"/>
    <path class="fil82" d="M1380 1189c-2,-5 -1,-5 -3,-5 -2,2 0,4 1,6 2,6 1,5 3,6 2,-2 0,-4 -1,-7z"/>
    <path class="fil82" d="M1407 1237c-11,-14 -3,7 3,6 0,-3 0,-2 -3,-6z"/>
    <path class="fil3" d="M1655 1269c1,1 2,0 -3,3 -3,2 -3,1 -4,4 4,0 9,-4 11,-6l-1 -2 -3 1z"/>
    <path class="fil82" d="M1670 1259c0,0 0,1 3,-1 1,-1 2,-2 3,-3 2,-2 4,-3 4,-6 -3,0 -4,2 -6,4 -2,2 -4,3 -4,6z"/>
    <path class="fil3" d="M1599 1299c1,2 -1,1 1,1 0,0 11,-1 11,-5 -2,-1 -6,1 -10,2 -3,1 -2,1 -2,2z"/>
    <path class="fil82" d="M1863 1176c0,-1 0,0 0,-1 0,-1 -4,-12 -6,-10 -2,0 1,4 2,5 0,1 1,2 1,3 1,3 0,3 3,3z"/>
    <path class="fil82" d="M1735 1129c1,1 12,-2 12,-5 -1,-1 1,-1 -2,-1l-5 2c-3,1 -6,1 -5,4z"/>
    <path class="fil82" d="M1839 1143c0,2 2,3 4,5 1,2 4,5 5,4 1,0 1,0 1,-1 0,-2 -8,-8 -8,-8 -3,-1 -1,0 -2,0z"/>
    <path class="fil82" d="M1430 1263c0,-4 -9,-10 -10,-10 -2,4 7,10 10,10z"/>
    <path class="fil82" d="M1855 1259l2 1c2,-3 4,-5 3,-8 -3,1 -4,4 -5,7z"/>
    <path class="fil59" d="M1137 1473c0,-1 1,-2 2,-3 0,-1 0,-1 1,-2 1,-1 0,1 1,-1l-7 -1c1,2 1,3 1,4 1,2 1,2 2,3z"/>
    <path class="fil84" d="M1706 1851l-2 -2 -1 6c1,3 1,1 1,2 3,0 3,-3 2,-6z"/>
    <path class="fil79" d="M1726 1100c1,-1 1,-7 -2,-8 -1,2 -1,0 -1,3 0,0 1,2 1,2 0,3 0,3 2,3z"/>
    <path class="fil79" d="M1370 1165c1,5 2,4 3,4 1,-1 1,-8 -3,-7 0,0 0,0 0,3z"/>
    <path class="fil79" d="M1698 1163c2,1 2,0 3,-2 6,-9 -5,-3 -3,2z"/>
    <path class="fil79" d="M1869 1198c1,-1 1,-1 1,-3 -1,-4 -1,-4 -3,-5 -1,2 -1,1 0,4 0,3 0,3 2,4z"/>
    <path class="fil79" d="M1395 1032c1,0 5,-3 4,-7 -2,0 -6,4 -4,7z"/>
   </g>
  </g>
  <rect class="fil85 str0" x="-2168" y="794" width="1900" height="1167"/>
 </g>
</svg>
